<?xml version="1.0" encoding="utf-8" standalone="no"?>
<!DOCTYPE svg PUBLIC "-//W3C//DTD SVG 1.1//EN"
  "http://www.w3.org/Graphics/SVG/1.1/DTD/svg11.dtd">
<!-- Created with matplotlib (https://matplotlib.org/) -->
<svg height="172.103487pt" version="1.1" viewBox="0 0 240.944882 172.103487" width="240.944882pt" xmlns="http://www.w3.org/2000/svg" xmlns:xlink="http://www.w3.org/1999/xlink">
 <metadata>
  <rdf:RDF xmlns:cc="http://creativecommons.org/ns#" xmlns:dc="http://purl.org/dc/elements/1.1/" xmlns:rdf="http://www.w3.org/1999/02/22-rdf-syntax-ns#">
   <cc:Work>
    <dc:type rdf:resource="http://purl.org/dc/dcmitype/StillImage"/>
    <dc:date>2022-08-17T15:38:24.767964</dc:date>
    <dc:format>image/svg+xml</dc:format>
    <dc:creator>
     <cc:Agent>
      <dc:title>Matplotlib v3.3.2, https://matplotlib.org/</dc:title>
     </cc:Agent>
    </dc:creator>
   </cc:Work>
  </rdf:RDF>
 </metadata>
 <defs>
  <style type="text/css">*{stroke-linecap:butt;stroke-linejoin:round;}</style>
 </defs>
 <g id="figure_1">
  <g id="patch_1">
   <path d="M 0 172.103487 
L 240.944882 172.103487 
L 240.944882 0 
L 0 0 
z
" style="fill:#ffffff;"/>
  </g>
  <g id="axes_1">
   <g id="patch_2">
    <path d="M 31.804724 150.074241 
L 114.400233 150.074241 
L 114.400233 11.186727 
L 31.804724 11.186727 
z
" style="fill:none;"/>
   </g>
   <g id="PathCollection_1">
    <defs>
     <path d="M 0 1.581139 
C 0.419323 1.581139 0.821528 1.41454 1.118034 1.118034 
C 1.41454 0.821528 1.581139 0.419323 1.581139 -0 
C 1.581139 -0.419323 1.41454 -0.821528 1.118034 -1.118034 
C 0.821528 -1.41454 0.419323 -1.581139 0 -1.581139 
C -0.419323 -1.581139 -0.821528 -1.41454 -1.118034 -1.118034 
C -1.41454 -0.821528 -1.581139 -0.419323 -1.581139 0 
C -1.581139 0.419323 -1.41454 0.821528 -1.118034 1.118034 
C -0.821528 1.41454 -0.419323 1.581139 0 1.581139 
z
" id="C0_0_eab997dd24"/>
    </defs>
    <g clip-path="url(#p44e374121f)">
     <use style="fill:#1f77b4;" x="38.972103" xlink:href="#C0_0_eab997dd24" y="144.865959"/>
    </g>
    <g clip-path="url(#p44e374121f)">
     <use style="fill:#1f77b4;" x="53.507262" xlink:href="#C0_0_eab997dd24" y="136.185489"/>
    </g>
    <g clip-path="url(#p44e374121f)">
     <use style="fill:#1f77b4;" x="61.750317" xlink:href="#C0_0_eab997dd24" y="125.768926"/>
    </g>
    <g clip-path="url(#p44e374121f)">
     <use style="fill:#1f77b4;" x="67.761251" xlink:href="#C0_0_eab997dd24" y="120.560644"/>
    </g>
    <g clip-path="url(#p44e374121f)">
     <use style="fill:#1f77b4;" x="72.092179" xlink:href="#C0_0_eab997dd24" y="113.616268"/>
    </g>
    <g clip-path="url(#p44e374121f)">
     <use style="fill:#1f77b4;" x="75.970145" xlink:href="#C0_0_eab997dd24" y="113.616268"/>
    </g>
    <g clip-path="url(#p44e374121f)">
     <use style="fill:#1f77b4;" x="79.738672" xlink:href="#C0_0_eab997dd24" y="104.935799"/>
    </g>
    <g clip-path="url(#p44e374121f)">
     <use style="fill:#1f77b4;" x="83.286719" xlink:href="#C0_0_eab997dd24" y="99.727517"/>
    </g>
    <g clip-path="url(#p44e374121f)">
     <use style="fill:#1f77b4;" x="86.15616" xlink:href="#C0_0_eab997dd24" y="97.991423"/>
    </g>
    <g clip-path="url(#p44e374121f)">
     <use style="fill:#1f77b4;" x="88.946859" xlink:href="#C0_0_eab997dd24" y="80.630484"/>
    </g>
    <g clip-path="url(#p44e374121f)">
     <use style="fill:#1f77b4;" x="91.341161" xlink:href="#C0_0_eab997dd24" y="75.422202"/>
    </g>
    <g clip-path="url(#p44e374121f)">
     <use style="fill:#1f77b4;" x="93.425953" xlink:href="#C0_0_eab997dd24" y="68.477826"/>
    </g>
    <g clip-path="url(#p44e374121f)">
     <use style="fill:#1f77b4;" x="95.502202" xlink:href="#C0_0_eab997dd24" y="73.686108"/>
    </g>
    <g clip-path="url(#p44e374121f)">
     <use style="fill:#1f77b4;" x="98.047137" xlink:href="#C0_0_eab997dd24" y="75.422202"/>
    </g>
    <g clip-path="url(#p44e374121f)">
     <use style="fill:#1f77b4;" x="101.282643" xlink:href="#C0_0_eab997dd24" y="65.005638"/>
    </g>
    <g clip-path="url(#p44e374121f)">
     <use style="fill:#1f77b4;" x="107.232854" xlink:href="#C0_0_eab997dd24" y="66.741732"/>
    </g>
   </g>
   <g id="PathCollection_2">
    <path clip-path="url(#p44e374121f)" d="M 0 173.684626 
C 0.419323 173.684626 0.821528 173.518027 1.118034 173.221521 
C 1.41454 172.925015 1.581139 172.52281 1.581139 172.103487 
C 1.581139 171.684164 1.41454 171.281959 1.118034 170.985453 
C 0.821528 170.688947 0.419323 170.522348 0 170.522348 
C -0.419323 170.522348 -0.821528 170.688947 -1.118034 170.985453 
C -1.41454 171.281959 -1.581139 171.684164 -1.581139 172.103487 
C -1.581139 172.52281 -1.41454 172.925015 -1.118034 173.221521 
C -0.821528 173.518027 -0.419323 173.684626 0 173.684626 
z
" style="fill:#ff7f0e;"/>
   </g>
   <g id="matplotlib.axis_1">
    <g id="xtick_1">
     <g id="line2d_1">
      <defs>
       <path d="M 0 0 
L 0 3 
" id="m2bb284c5da" style="stroke:#252525;stroke-width:0.2;"/>
      </defs>
      <g>
       <use style="fill:#252525;stroke:#252525;stroke-width:0.2;" x="42.730666" xlink:href="#m2bb284c5da" y="150.074241"/>
      </g>
     </g>
     <g id="text_1">
      <!-- 0.6 -->
      <g style="fill:#252525;" transform="translate(37.959729 160.633303)scale(0.06 -0.06)">
       <defs>
        <path d="M 31.78125 66.40625 
Q 24.171875 66.40625 20.328125 58.90625 
Q 16.5 51.421875 16.5 36.375 
Q 16.5 21.390625 20.328125 13.890625 
Q 24.171875 6.390625 31.78125 6.390625 
Q 39.453125 6.390625 43.28125 13.890625 
Q 47.125 21.390625 47.125 36.375 
Q 47.125 51.421875 43.28125 58.90625 
Q 39.453125 66.40625 31.78125 66.40625 
z
M 31.78125 74.21875 
Q 44.046875 74.21875 50.515625 64.515625 
Q 56.984375 54.828125 56.984375 36.375 
Q 56.984375 17.96875 50.515625 8.265625 
Q 44.046875 -1.421875 31.78125 -1.421875 
Q 19.53125 -1.421875 13.0625 8.265625 
Q 6.59375 17.96875 6.59375 36.375 
Q 6.59375 54.828125 13.0625 64.515625 
Q 19.53125 74.21875 31.78125 74.21875 
z
" id="DejaVuSans-48"/>
        <path d="M 10.6875 12.40625 
L 21 12.40625 
L 21 0 
L 10.6875 0 
z
" id="DejaVuSans-46"/>
        <path d="M 33.015625 40.375 
Q 26.375 40.375 22.484375 35.828125 
Q 18.609375 31.296875 18.609375 23.390625 
Q 18.609375 15.53125 22.484375 10.953125 
Q 26.375 6.390625 33.015625 6.390625 
Q 39.65625 6.390625 43.53125 10.953125 
Q 47.40625 15.53125 47.40625 23.390625 
Q 47.40625 31.296875 43.53125 35.828125 
Q 39.65625 40.375 33.015625 40.375 
z
M 52.59375 71.296875 
L 52.59375 62.3125 
Q 48.875 64.0625 45.09375 64.984375 
Q 41.3125 65.921875 37.59375 65.921875 
Q 27.828125 65.921875 22.671875 59.328125 
Q 17.53125 52.734375 16.796875 39.40625 
Q 19.671875 43.65625 24.015625 45.921875 
Q 28.375 48.1875 33.59375 48.1875 
Q 44.578125 48.1875 50.953125 41.515625 
Q 57.328125 34.859375 57.328125 23.390625 
Q 57.328125 12.15625 50.6875 5.359375 
Q 44.046875 -1.421875 33.015625 -1.421875 
Q 20.359375 -1.421875 13.671875 8.265625 
Q 6.984375 17.96875 6.984375 36.375 
Q 6.984375 53.65625 15.1875 63.9375 
Q 23.390625 74.21875 37.203125 74.21875 
Q 40.921875 74.21875 44.703125 73.484375 
Q 48.484375 72.75 52.59375 71.296875 
z
" id="DejaVuSans-54"/>
       </defs>
       <use xlink:href="#DejaVuSans-48"/>
       <use x="63.623047" xlink:href="#DejaVuSans-46"/>
       <use x="95.410156" xlink:href="#DejaVuSans-54"/>
      </g>
     </g>
    </g>
    <g id="xtick_2">
     <g id="line2d_2">
      <g>
       <use style="fill:#252525;stroke:#252525;stroke-width:0.2;" x="69.97681" xlink:href="#m2bb284c5da" y="150.074241"/>
      </g>
     </g>
     <g id="text_2">
      <!-- 0.8 -->
      <g style="fill:#252525;" transform="translate(65.205873 160.633303)scale(0.06 -0.06)">
       <defs>
        <path d="M 31.78125 34.625 
Q 24.75 34.625 20.71875 30.859375 
Q 16.703125 27.09375 16.703125 20.515625 
Q 16.703125 13.921875 20.71875 10.15625 
Q 24.75 6.390625 31.78125 6.390625 
Q 38.8125 6.390625 42.859375 10.171875 
Q 46.921875 13.96875 46.921875 20.515625 
Q 46.921875 27.09375 42.890625 30.859375 
Q 38.875 34.625 31.78125 34.625 
z
M 21.921875 38.8125 
Q 15.578125 40.375 12.03125 44.71875 
Q 8.5 49.078125 8.5 55.328125 
Q 8.5 64.0625 14.71875 69.140625 
Q 20.953125 74.21875 31.78125 74.21875 
Q 42.671875 74.21875 48.875 69.140625 
Q 55.078125 64.0625 55.078125 55.328125 
Q 55.078125 49.078125 51.53125 44.71875 
Q 48 40.375 41.703125 38.8125 
Q 48.828125 37.15625 52.796875 32.3125 
Q 56.78125 27.484375 56.78125 20.515625 
Q 56.78125 9.90625 50.3125 4.234375 
Q 43.84375 -1.421875 31.78125 -1.421875 
Q 19.734375 -1.421875 13.25 4.234375 
Q 6.78125 9.90625 6.78125 20.515625 
Q 6.78125 27.484375 10.78125 32.3125 
Q 14.796875 37.15625 21.921875 38.8125 
z
M 18.3125 54.390625 
Q 18.3125 48.734375 21.84375 45.5625 
Q 25.390625 42.390625 31.78125 42.390625 
Q 38.140625 42.390625 41.71875 45.5625 
Q 45.3125 48.734375 45.3125 54.390625 
Q 45.3125 60.0625 41.71875 63.234375 
Q 38.140625 66.40625 31.78125 66.40625 
Q 25.390625 66.40625 21.84375 63.234375 
Q 18.3125 60.0625 18.3125 54.390625 
z
" id="DejaVuSans-56"/>
       </defs>
       <use xlink:href="#DejaVuSans-48"/>
       <use x="63.623047" xlink:href="#DejaVuSans-46"/>
       <use x="95.410156" xlink:href="#DejaVuSans-56"/>
      </g>
     </g>
    </g>
    <g id="xtick_3">
     <g id="line2d_3">
      <g>
       <use style="fill:#252525;stroke:#252525;stroke-width:0.2;" x="97.222954" xlink:href="#m2bb284c5da" y="150.074241"/>
      </g>
     </g>
     <g id="text_3">
      <!-- 1.0 -->
      <g style="fill:#252525;" transform="translate(92.452017 160.633303)scale(0.06 -0.06)">
       <defs>
        <path d="M 12.40625 8.296875 
L 28.515625 8.296875 
L 28.515625 63.921875 
L 10.984375 60.40625 
L 10.984375 69.390625 
L 28.421875 72.90625 
L 38.28125 72.90625 
L 38.28125 8.296875 
L 54.390625 8.296875 
L 54.390625 0 
L 12.40625 0 
z
" id="DejaVuSans-49"/>
       </defs>
       <use xlink:href="#DejaVuSans-49"/>
       <use x="63.623047" xlink:href="#DejaVuSans-46"/>
       <use x="95.410156" xlink:href="#DejaVuSans-48"/>
      </g>
     </g>
    </g>
    <g id="text_4">
     <!-- $\it{\sigma(True\_cov) \: / \: \sigma(Est\_cov)}$ -->
     <g transform="translate(32.462479 169.959866)scale(0.08 -0.08)">
      <defs>
       <path d="M 62.5 45.296875 
L 60.796875 38.203125 
L 43.5 38.203125 
Q 49.203125 33.203125 49.203125 25.59375 
Q 49.203125 21.5 47.34375 17 
Q 45.5 12.5 42.140625 8.390625 
Q 38.796875 4.296875 33.390625 1.640625 
Q 28 -1 21.59375 -1 
Q 13.703125 -1 9.09375 3.546875 
Q 4.5 8.09375 4.5 15.59375 
Q 4.5 21.203125 7.046875 27.09375 
Q 9.59375 33 13.296875 36.703125 
Q 17.59375 41 23 43.140625 
Q 28.40625 45.296875 33 45.296875 
z
M 41.09375 23.703125 
Q 41.09375 28.796875 37.9375 32.5 
Q 34.796875 36.203125 30.59375 38.203125 
Q 23 38.203125 17.890625 31.953125 
Q 12.796875 25.703125 12.796875 17.703125 
Q 12.796875 12.40625 15.640625 9.25 
Q 18.5 6.09375 23.5 6.09375 
Q 31.296875 6.09375 36.1875 11.6875 
Q 41.09375 17.296875 41.09375 23.703125 
z
" id="STIXNonUnicode-Italic-57834"/>
       <path d="M 30.40625 -16.09375 
L 29.203125 -17.703125 
Q 17.59375 -11.09375 11.1875 0.5 
Q 4.796875 12.09375 4.796875 25.203125 
Q 4.796875 52.90625 29.5 67.59375 
L 30.40625 66 
Q 20.203125 57.296875 16.796875 48.84375 
Q 13.40625 40.40625 13.40625 25.5 
Q 13.40625 10.703125 16.90625 1.5 
Q 20.40625 -7.703125 30.40625 -16.09375 
z
" id="STIXGeneral-Regular-40"/>
       <path d="M 74.796875 66.203125 
L 73.90625 58.796875 
L 49.40625 58.796875 
L 34.703125 0 
L 26 0 
L 40.59375 58.796875 
L 16.09375 58.796875 
L 19 66.203125 
z
" id="STIXGeneral-Italic-120347"/>
       <path d="M 43.90625 44.703125 
L 42.09375 37.703125 
L 40.09375 37.703125 
Q 39.796875 38.40625 38.59375 38.796875 
Q 37.40625 39.203125 36.59375 39.203125 
Q 32.296875 39.203125 27.890625 35 
Q 23.5 30.796875 20 23.40625 
L 14.203125 0 
L 6.296875 0 
L 17.203125 44 
L 24.796875 46.40625 
L 25.59375 45.90625 
L 24.203125 39.5 
Q 30.59375 46.296875 38.59375 46.296875 
Q 42.296875 46.296875 43.90625 44.703125 
z
" id="STIXGeneral-Italic-120371"/>
       <path d="M 53.59375 45.296875 
L 45.5 12.796875 
Q 43.90625 6.203125 43.296875 1.296875 
L 35.59375 -1.09375 
L 34.796875 -0.59375 
L 36.203125 5.90625 
Q 32.5 2.703125 27.890625 0.84375 
Q 23.296875 -1 19.40625 -1 
Q 14.703125 -1 11.796875 1.546875 
Q 8.90625 4.09375 8.90625 8.09375 
Q 8.90625 10.59375 9.5 13.09375 
L 17.5 45.296875 
L 25.40625 45.296875 
L 17.90625 14.90625 
Q 17.40625 13 17.40625 11.40625 
Q 17.40625 6.09375 23.90625 6.09375 
Q 26.703125 6.09375 31.34375 9.046875 
Q 36 12 38.5 16.09375 
L 45.703125 45.296875 
z
" id="STIXGeneral-Italic-120374"/>
       <path d="M 40.296875 16.703125 
L 46 13.203125 
Q 40.40625 5.59375 35.15625 2.296875 
Q 29.90625 -1 22.703125 -1 
Q 15.40625 -1 11.15625 3.140625 
Q 6.90625 7.296875 6.90625 14.796875 
Q 6.90625 24.40625 11.453125 31.796875 
Q 16 39.203125 22.390625 42.75 
Q 28.796875 46.296875 35.296875 46.296875 
Q 41.703125 46.296875 45.203125 42.84375 
Q 48.703125 39.40625 48.703125 33.40625 
Q 48.703125 30.5 48 27.703125 
L 46.59375 22.203125 
L 15.703125 22.203125 
Q 15 19.40625 15 16.796875 
Q 15 11.703125 17.84375 8.890625 
Q 20.703125 6.09375 25.296875 6.09375 
Q 33.203125 6.09375 40.296875 16.703125 
z
M 18.796875 29.296875 
L 40.296875 29.296875 
Q 40.703125 30.90625 40.703125 32.59375 
Q 40.703125 39.203125 32.703125 39.203125 
Q 28.703125 39.203125 24.796875 36.703125 
Q 20.90625 34.203125 18.796875 29.296875 
z
" id="STIXGeneral-Italic-120358"/>
       <path d="M 50 -12.5 
L 0 -12.5 
L 0 -7.5 
L 50 -7.5 
z
" id="STIXGeneral-Regular-95"/>
       <path d="M 50.296875 37.09375 
L 44.59375 31.703125 
L 43 31.703125 
Q 41.59375 39.203125 33.5 39.203125 
Q 27.09375 39.203125 21.046875 33.09375 
Q 15 27 15 16.90625 
Q 15 11.796875 17.84375 8.9375 
Q 20.703125 6.09375 25.296875 6.09375 
Q 33.40625 6.09375 40.796875 16.59375 
L 46.40625 13.203125 
Q 36.796875 -1 22.90625 -1 
Q 15.5 -1 11.09375 3.203125 
Q 6.703125 7.40625 6.703125 15 
Q 6.703125 28 15.890625 37.140625 
Q 25.09375 46.296875 35.703125 46.296875 
Q 41.203125 46.296875 45.140625 44 
Q 49.09375 41.703125 50.296875 37.09375 
z
" id="STIXGeneral-Italic-120356"/>
       <path d="M 53.59375 30 
Q 53.59375 25.09375 51.546875 19.6875 
Q 49.5 14.296875 45.890625 9.640625 
Q 42.296875 5 36.640625 2 
Q 31 -1 24.5 -1 
Q 16.59375 -1 12.09375 3.703125 
Q 7.59375 8.40625 7.59375 16 
Q 7.59375 27.5 16.046875 36.890625 
Q 24.5 46.296875 36 46.296875 
Q 44.203125 46.296875 48.890625 42 
Q 53.59375 37.703125 53.59375 30 
z
M 45.5 28.203125 
Q 45.5 33.40625 42.546875 36.296875 
Q 39.59375 39.203125 34.296875 39.203125 
Q 26.796875 39.203125 21.25 32.5 
Q 15.703125 25.796875 15.703125 17.703125 
Q 15.703125 12.40625 18.546875 9.25 
Q 21.40625 6.09375 26.40625 6.09375 
Q 31.203125 6.09375 35.09375 8.6875 
Q 39 11.296875 41.140625 15 
Q 43.296875 18.703125 44.390625 22.203125 
Q 45.5 25.703125 45.5 28.203125 
z
" id="STIXGeneral-Italic-120368"/>
       <path d="M 55.5 45.296875 
L 24.40625 -1.40625 
L 22.203125 -1.40625 
L 14.296875 45.296875 
L 22.796875 45.296875 
L 27.59375 15.40625 
L 47 45.296875 
z
" id="STIXGeneral-Italic-120375"/>
       <path d="M 2.90625 66 
L 4.09375 67.59375 
Q 15.5 60.796875 22 49.1875 
Q 28.5 37.59375 28.5 24.703125 
Q 28.5 -2.59375 3.796875 -17.703125 
L 2.90625 -16.09375 
Q 13.203125 -7.59375 16.546875 0.84375 
Q 19.90625 9.296875 19.90625 24.40625 
Q 19.90625 39.59375 16.546875 48.75 
Q 13.203125 57.90625 2.90625 66 
z
" id="STIXGeneral-Regular-41"/>
       <path d="M 28.703125 67.59375 
L 5.90625 -1.40625 
L -0.90625 -1.40625 
L 22 67.59375 
z
" id="STIXGeneral-Regular-47"/>
       <path d="M 67.796875 66.203125 
L 65.90625 58.796875 
L 30.703125 58.796875 
L 25.703125 38.59375 
L 56.203125 38.59375 
L 54.296875 31.09375 
L 23.796875 31.09375 
L 17.90625 7.40625 
L 55.796875 7.40625 
L 52.296875 0 
L 7.40625 0 
L 23.90625 66.203125 
z
" id="STIXGeneral-Italic-120332"/>
       <path d="M 43.203125 41 
L 41 32.09375 
L 39.5 32.09375 
Q 37.796875 36.5 35.296875 37.890625 
Q 32.796875 39.296875 28.890625 39.296875 
Q 25 39.296875 23.046875 37.140625 
Q 21.09375 35 21.09375 33 
Q 21.09375 31 22.796875 29.546875 
Q 24.5 28.09375 27.796875 26.5 
Q 33.796875 23.59375 36.140625 21.34375 
Q 38.5 19.09375 38.5 15.796875 
Q 38.5 9 32.890625 4 
Q 27.296875 -1 18.59375 -1 
Q 14.09375 -1 11.390625 0.296875 
Q 8.703125 1.59375 6.09375 4.5 
L 8.59375 14.796875 
L 10.09375 14.796875 
Q 11.90625 6.09375 21 6.09375 
Q 24.40625 6.09375 27.296875 7.84375 
Q 30.203125 9.59375 30.203125 12.796875 
Q 30.203125 14.296875 28.59375 15.640625 
Q 27 17 23.203125 18.90625 
Q 17.703125 21.59375 15.25 24.25 
Q 12.796875 26.90625 12.796875 30.296875 
Q 12.796875 36.5 18 41.390625 
Q 23.203125 46.296875 30.90625 46.296875 
Q 39.59375 46.296875 43.203125 41 
z
" id="STIXGeneral-Italic-120372"/>
       <path d="M 37.59375 45.296875 
L 35.90625 38.203125 
L 25.5 38.203125 
L 19.40625 13.703125 
Q 18.796875 11.296875 18.796875 9.796875 
Q 18.796875 6.09375 22.59375 6.09375 
Q 26.203125 6.09375 29.59375 8.703125 
L 30.796875 8.703125 
L 27.796875 1.203125 
Q 24.40625 -1 18.5 -1 
Q 14.40625 -1 12.25 1.046875 
Q 10.09375 3.09375 10.09375 6.703125 
Q 10.09375 8.203125 10.59375 10.40625 
L 17.59375 38.203125 
L 9.59375 38.203125 
L 10 39.90625 
L 15.796875 45.296875 
L 19.296875 45.296875 
L 20.90625 51.703125 
L 28.59375 58 
L 30.40625 58 
L 27.203125 45.296875 
z
" id="STIXGeneral-Italic-120373"/>
      </defs>
      <use transform="translate(0 0.40625)" xlink:href="#STIXNonUnicode-Italic-57834"/>
      <use transform="translate(60.699997 0.40625)" xlink:href="#STIXGeneral-Regular-40"/>
      <use transform="translate(93.999985 0.40625)" xlink:href="#STIXGeneral-Italic-120347"/>
      <use transform="translate(154.799973 0.40625)" xlink:href="#STIXGeneral-Italic-120371"/>
      <use transform="translate(188.399963 0.40625)" xlink:href="#STIXGeneral-Italic-120374"/>
      <use transform="translate(237.499954 0.40625)" xlink:href="#STIXGeneral-Italic-120358"/>
      <use transform="translate(281.899948 0.40625)" xlink:href="#STIXGeneral-Regular-95"/>
      <use transform="translate(331.899933 0.40625)" xlink:href="#STIXGeneral-Italic-120356"/>
      <use transform="translate(377.499924 0.40625)" xlink:href="#STIXGeneral-Italic-120368"/>
      <use transform="translate(427.399918 0.40625)" xlink:href="#STIXGeneral-Italic-120375"/>
      <use transform="translate(474.799911 0.40625)" xlink:href="#STIXGeneral-Regular-41"/>
      <use transform="translate(524.899729 0.40625)" xlink:href="#STIXGeneral-Regular-47"/>
      <use transform="translate(569.499547 0.40625)" xlink:href="#STIXNonUnicode-Italic-57834"/>
      <use transform="translate(630.199544 0.40625)" xlink:href="#STIXGeneral-Regular-40"/>
      <use transform="translate(663.499532 0.40625)" xlink:href="#STIXGeneral-Italic-120332"/>
      <use transform="translate(721.79952 0.40625)" xlink:href="#STIXGeneral-Italic-120372"/>
      <use transform="translate(760.699513 0.40625)" xlink:href="#STIXGeneral-Italic-120373"/>
      <use transform="translate(789.799504 0.40625)" xlink:href="#STIXGeneral-Regular-95"/>
      <use transform="translate(839.799489 0.40625)" xlink:href="#STIXGeneral-Italic-120356"/>
      <use transform="translate(885.39948 0.40625)" xlink:href="#STIXGeneral-Italic-120368"/>
      <use transform="translate(935.299474 0.40625)" xlink:href="#STIXGeneral-Italic-120375"/>
      <use transform="translate(982.699468 0.40625)" xlink:href="#STIXGeneral-Regular-41"/>
     </g>
    </g>
   </g>
   <g id="matplotlib.axis_2">
    <g id="ytick_1">
     <g id="line2d_4">
      <defs>
       <path d="M 0 0 
L -3 0 
" id="mf39d74ec14" style="stroke:#252525;stroke-width:0.2;"/>
      </defs>
      <g>
       <use style="fill:#252525;stroke:#252525;stroke-width:0.2;" x="31.804724" xlink:href="#mf39d74ec14" y="141.393771"/>
      </g>
     </g>
     <g id="text_5">
      <!-- 0.3 -->
      <g style="fill:#252525;" transform="translate(16.262849 143.673302)scale(0.06 -0.06)">
       <defs>
        <path d="M 40.578125 39.3125 
Q 47.65625 37.796875 51.625 33 
Q 55.609375 28.21875 55.609375 21.1875 
Q 55.609375 10.40625 48.1875 4.484375 
Q 40.765625 -1.421875 27.09375 -1.421875 
Q 22.515625 -1.421875 17.65625 -0.515625 
Q 12.796875 0.390625 7.625 2.203125 
L 7.625 11.71875 
Q 11.71875 9.328125 16.59375 8.109375 
Q 21.484375 6.890625 26.8125 6.890625 
Q 36.078125 6.890625 40.9375 10.546875 
Q 45.796875 14.203125 45.796875 21.1875 
Q 45.796875 27.640625 41.28125 31.265625 
Q 36.765625 34.90625 28.71875 34.90625 
L 20.21875 34.90625 
L 20.21875 43.015625 
L 29.109375 43.015625 
Q 36.375 43.015625 40.234375 45.921875 
Q 44.09375 48.828125 44.09375 54.296875 
Q 44.09375 59.90625 40.109375 62.90625 
Q 36.140625 65.921875 28.71875 65.921875 
Q 24.65625 65.921875 20.015625 65.03125 
Q 15.375 64.15625 9.8125 62.3125 
L 9.8125 71.09375 
Q 15.4375 72.65625 20.34375 73.4375 
Q 25.25 74.21875 29.59375 74.21875 
Q 40.828125 74.21875 47.359375 69.109375 
Q 53.90625 64.015625 53.90625 55.328125 
Q 53.90625 49.265625 50.4375 45.09375 
Q 46.96875 40.921875 40.578125 39.3125 
z
" id="DejaVuSans-51"/>
       </defs>
       <use xlink:href="#DejaVuSans-48"/>
       <use x="63.623047" xlink:href="#DejaVuSans-46"/>
       <use x="95.410156" xlink:href="#DejaVuSans-51"/>
      </g>
     </g>
    </g>
    <g id="ytick_2">
     <g id="line2d_5">
      <g>
       <use style="fill:#252525;stroke:#252525;stroke-width:0.2;" x="31.804724" xlink:href="#mf39d74ec14" y="124.032832"/>
      </g>
     </g>
     <g id="text_6">
      <!-- 0.4 -->
      <g style="fill:#252525;" transform="translate(16.262849 126.312363)scale(0.06 -0.06)">
       <defs>
        <path d="M 37.796875 64.3125 
L 12.890625 25.390625 
L 37.796875 25.390625 
z
M 35.203125 72.90625 
L 47.609375 72.90625 
L 47.609375 25.390625 
L 58.015625 25.390625 
L 58.015625 17.1875 
L 47.609375 17.1875 
L 47.609375 0 
L 37.796875 0 
L 37.796875 17.1875 
L 4.890625 17.1875 
L 4.890625 26.703125 
z
" id="DejaVuSans-52"/>
       </defs>
       <use xlink:href="#DejaVuSans-48"/>
       <use x="63.623047" xlink:href="#DejaVuSans-46"/>
       <use x="95.410156" xlink:href="#DejaVuSans-52"/>
      </g>
     </g>
    </g>
    <g id="ytick_3">
     <g id="line2d_6">
      <g>
       <use style="fill:#252525;stroke:#252525;stroke-width:0.2;" x="31.804724" xlink:href="#mf39d74ec14" y="106.671893"/>
      </g>
     </g>
     <g id="text_7">
      <!-- 0.5 -->
      <g style="fill:#252525;" transform="translate(16.262849 108.951424)scale(0.06 -0.06)">
       <defs>
        <path d="M 10.796875 72.90625 
L 49.515625 72.90625 
L 49.515625 64.59375 
L 19.828125 64.59375 
L 19.828125 46.734375 
Q 21.96875 47.46875 24.109375 47.828125 
Q 26.265625 48.1875 28.421875 48.1875 
Q 40.625 48.1875 47.75 41.5 
Q 54.890625 34.8125 54.890625 23.390625 
Q 54.890625 11.625 47.5625 5.09375 
Q 40.234375 -1.421875 26.90625 -1.421875 
Q 22.3125 -1.421875 17.546875 -0.640625 
Q 12.796875 0.140625 7.71875 1.703125 
L 7.71875 11.625 
Q 12.109375 9.234375 16.796875 8.0625 
Q 21.484375 6.890625 26.703125 6.890625 
Q 35.15625 6.890625 40.078125 11.328125 
Q 45.015625 15.765625 45.015625 23.390625 
Q 45.015625 31 40.078125 35.4375 
Q 35.15625 39.890625 26.703125 39.890625 
Q 22.75 39.890625 18.8125 39.015625 
Q 14.890625 38.140625 10.796875 36.28125 
z
" id="DejaVuSans-53"/>
       </defs>
       <use xlink:href="#DejaVuSans-48"/>
       <use x="63.623047" xlink:href="#DejaVuSans-46"/>
       <use x="95.410156" xlink:href="#DejaVuSans-53"/>
      </g>
     </g>
    </g>
    <g id="ytick_4">
     <g id="line2d_7">
      <g>
       <use style="fill:#252525;stroke:#252525;stroke-width:0.2;" x="31.804724" xlink:href="#mf39d74ec14" y="89.310953"/>
      </g>
     </g>
     <g id="text_8">
      <!-- 0.6 -->
      <g style="fill:#252525;" transform="translate(16.262849 91.590485)scale(0.06 -0.06)">
       <use xlink:href="#DejaVuSans-48"/>
       <use x="63.623047" xlink:href="#DejaVuSans-46"/>
       <use x="95.410156" xlink:href="#DejaVuSans-54"/>
      </g>
     </g>
    </g>
    <g id="ytick_5">
     <g id="line2d_8">
      <g>
       <use style="fill:#252525;stroke:#252525;stroke-width:0.2;" x="31.804724" xlink:href="#mf39d74ec14" y="71.950014"/>
      </g>
     </g>
     <g id="text_9">
      <!-- 0.7 -->
      <g style="fill:#252525;" transform="translate(16.262849 74.229545)scale(0.06 -0.06)">
       <defs>
        <path d="M 8.203125 72.90625 
L 55.078125 72.90625 
L 55.078125 68.703125 
L 28.609375 0 
L 18.3125 0 
L 43.21875 64.59375 
L 8.203125 64.59375 
z
" id="DejaVuSans-55"/>
       </defs>
       <use xlink:href="#DejaVuSans-48"/>
       <use x="63.623047" xlink:href="#DejaVuSans-46"/>
       <use x="95.410156" xlink:href="#DejaVuSans-55"/>
      </g>
     </g>
    </g>
    <g id="ytick_6">
     <g id="line2d_9">
      <g>
       <use style="fill:#252525;stroke:#252525;stroke-width:0.2;" x="31.804724" xlink:href="#mf39d74ec14" y="54.589075"/>
      </g>
     </g>
     <g id="text_10">
      <!-- 0.8 -->
      <g style="fill:#252525;" transform="translate(16.262849 56.868606)scale(0.06 -0.06)">
       <use xlink:href="#DejaVuSans-48"/>
       <use x="63.623047" xlink:href="#DejaVuSans-46"/>
       <use x="95.410156" xlink:href="#DejaVuSans-56"/>
      </g>
     </g>
    </g>
    <g id="ytick_7">
     <g id="line2d_10">
      <g>
       <use style="fill:#252525;stroke:#252525;stroke-width:0.2;" x="31.804724" xlink:href="#mf39d74ec14" y="37.228136"/>
      </g>
     </g>
     <g id="text_11">
      <!-- 0.9 -->
      <g style="fill:#252525;" transform="translate(16.262849 39.507667)scale(0.06 -0.06)">
       <defs>
        <path d="M 10.984375 1.515625 
L 10.984375 10.5 
Q 14.703125 8.734375 18.5 7.8125 
Q 22.3125 6.890625 25.984375 6.890625 
Q 35.75 6.890625 40.890625 13.453125 
Q 46.046875 20.015625 46.78125 33.40625 
Q 43.953125 29.203125 39.59375 26.953125 
Q 35.25 24.703125 29.984375 24.703125 
Q 19.046875 24.703125 12.671875 31.3125 
Q 6.296875 37.9375 6.296875 49.421875 
Q 6.296875 60.640625 12.9375 67.421875 
Q 19.578125 74.21875 30.609375 74.21875 
Q 43.265625 74.21875 49.921875 64.515625 
Q 56.59375 54.828125 56.59375 36.375 
Q 56.59375 19.140625 48.40625 8.859375 
Q 40.234375 -1.421875 26.421875 -1.421875 
Q 22.703125 -1.421875 18.890625 -0.6875 
Q 15.09375 0.046875 10.984375 1.515625 
z
M 30.609375 32.421875 
Q 37.25 32.421875 41.125 36.953125 
Q 45.015625 41.5 45.015625 49.421875 
Q 45.015625 57.28125 41.125 61.84375 
Q 37.25 66.40625 30.609375 66.40625 
Q 23.96875 66.40625 20.09375 61.84375 
Q 16.21875 57.28125 16.21875 49.421875 
Q 16.21875 41.5 20.09375 36.953125 
Q 23.96875 32.421875 30.609375 32.421875 
z
" id="DejaVuSans-57"/>
       </defs>
       <use xlink:href="#DejaVuSans-48"/>
       <use x="63.623047" xlink:href="#DejaVuSans-46"/>
       <use x="95.410156" xlink:href="#DejaVuSans-57"/>
      </g>
     </g>
    </g>
    <g id="ytick_8">
     <g id="line2d_11">
      <g>
       <use style="fill:#252525;stroke:#252525;stroke-width:0.2;" x="31.804724" xlink:href="#mf39d74ec14" y="19.867196"/>
      </g>
     </g>
     <g id="text_12">
      <!-- 1.0 -->
      <g style="fill:#252525;" transform="translate(16.262849 22.146728)scale(0.06 -0.06)">
       <use xlink:href="#DejaVuSans-49"/>
       <use x="63.623047" xlink:href="#DejaVuSans-46"/>
       <use x="95.410156" xlink:href="#DejaVuSans-48"/>
      </g>
     </g>
    </g>
    <g id="text_13">
     <!-- Optimal factor, $\it{f^{*}}$ -->
     <g transform="translate(13.002849 106.820484)rotate(-90)scale(0.06 -0.06)">
      <defs>
       <path d="M 39.40625 66.21875 
Q 28.65625 66.21875 22.328125 58.203125 
Q 16.015625 50.203125 16.015625 36.375 
Q 16.015625 22.609375 22.328125 14.59375 
Q 28.65625 6.59375 39.40625 6.59375 
Q 50.140625 6.59375 56.421875 14.59375 
Q 62.703125 22.609375 62.703125 36.375 
Q 62.703125 50.203125 56.421875 58.203125 
Q 50.140625 66.21875 39.40625 66.21875 
z
M 39.40625 74.21875 
Q 54.734375 74.21875 63.90625 63.9375 
Q 73.09375 53.65625 73.09375 36.375 
Q 73.09375 19.140625 63.90625 8.859375 
Q 54.734375 -1.421875 39.40625 -1.421875 
Q 24.03125 -1.421875 14.8125 8.828125 
Q 5.609375 19.09375 5.609375 36.375 
Q 5.609375 53.65625 14.8125 63.9375 
Q 24.03125 74.21875 39.40625 74.21875 
z
" id="DejaVuSans-79"/>
       <path d="M 18.109375 8.203125 
L 18.109375 -20.796875 
L 9.078125 -20.796875 
L 9.078125 54.6875 
L 18.109375 54.6875 
L 18.109375 46.390625 
Q 20.953125 51.265625 25.265625 53.625 
Q 29.59375 56 35.59375 56 
Q 45.5625 56 51.78125 48.09375 
Q 58.015625 40.1875 58.015625 27.296875 
Q 58.015625 14.40625 51.78125 6.484375 
Q 45.5625 -1.421875 35.59375 -1.421875 
Q 29.59375 -1.421875 25.265625 0.953125 
Q 20.953125 3.328125 18.109375 8.203125 
z
M 48.6875 27.296875 
Q 48.6875 37.203125 44.609375 42.84375 
Q 40.53125 48.484375 33.40625 48.484375 
Q 26.265625 48.484375 22.1875 42.84375 
Q 18.109375 37.203125 18.109375 27.296875 
Q 18.109375 17.390625 22.1875 11.75 
Q 26.265625 6.109375 33.40625 6.109375 
Q 40.53125 6.109375 44.609375 11.75 
Q 48.6875 17.390625 48.6875 27.296875 
z
" id="DejaVuSans-112"/>
       <path d="M 18.3125 70.21875 
L 18.3125 54.6875 
L 36.8125 54.6875 
L 36.8125 47.703125 
L 18.3125 47.703125 
L 18.3125 18.015625 
Q 18.3125 11.328125 20.140625 9.421875 
Q 21.96875 7.515625 27.59375 7.515625 
L 36.8125 7.515625 
L 36.8125 0 
L 27.59375 0 
Q 17.1875 0 13.234375 3.875 
Q 9.28125 7.765625 9.28125 18.015625 
L 9.28125 47.703125 
L 2.6875 47.703125 
L 2.6875 54.6875 
L 9.28125 54.6875 
L 9.28125 70.21875 
z
" id="DejaVuSans-116"/>
       <path d="M 9.421875 54.6875 
L 18.40625 54.6875 
L 18.40625 0 
L 9.421875 0 
z
M 9.421875 75.984375 
L 18.40625 75.984375 
L 18.40625 64.59375 
L 9.421875 64.59375 
z
" id="DejaVuSans-105"/>
       <path d="M 52 44.1875 
Q 55.375 50.25 60.0625 53.125 
Q 64.75 56 71.09375 56 
Q 79.640625 56 84.28125 50.015625 
Q 88.921875 44.046875 88.921875 33.015625 
L 88.921875 0 
L 79.890625 0 
L 79.890625 32.71875 
Q 79.890625 40.578125 77.09375 44.375 
Q 74.3125 48.1875 68.609375 48.1875 
Q 61.625 48.1875 57.5625 43.546875 
Q 53.515625 38.921875 53.515625 30.90625 
L 53.515625 0 
L 44.484375 0 
L 44.484375 32.71875 
Q 44.484375 40.625 41.703125 44.40625 
Q 38.921875 48.1875 33.109375 48.1875 
Q 26.21875 48.1875 22.15625 43.53125 
Q 18.109375 38.875 18.109375 30.90625 
L 18.109375 0 
L 9.078125 0 
L 9.078125 54.6875 
L 18.109375 54.6875 
L 18.109375 46.1875 
Q 21.1875 51.21875 25.484375 53.609375 
Q 29.78125 56 35.6875 56 
Q 41.65625 56 45.828125 52.96875 
Q 50 49.953125 52 44.1875 
z
" id="DejaVuSans-109"/>
       <path d="M 34.28125 27.484375 
Q 23.390625 27.484375 19.1875 25 
Q 14.984375 22.515625 14.984375 16.5 
Q 14.984375 11.71875 18.140625 8.90625 
Q 21.296875 6.109375 26.703125 6.109375 
Q 34.1875 6.109375 38.703125 11.40625 
Q 43.21875 16.703125 43.21875 25.484375 
L 43.21875 27.484375 
z
M 52.203125 31.203125 
L 52.203125 0 
L 43.21875 0 
L 43.21875 8.296875 
Q 40.140625 3.328125 35.546875 0.953125 
Q 30.953125 -1.421875 24.3125 -1.421875 
Q 15.921875 -1.421875 10.953125 3.296875 
Q 6 8.015625 6 15.921875 
Q 6 25.140625 12.171875 29.828125 
Q 18.359375 34.515625 30.609375 34.515625 
L 43.21875 34.515625 
L 43.21875 35.40625 
Q 43.21875 41.609375 39.140625 45 
Q 35.0625 48.390625 27.6875 48.390625 
Q 23 48.390625 18.546875 47.265625 
Q 14.109375 46.140625 10.015625 43.890625 
L 10.015625 52.203125 
Q 14.9375 54.109375 19.578125 55.046875 
Q 24.21875 56 28.609375 56 
Q 40.484375 56 46.34375 49.84375 
Q 52.203125 43.703125 52.203125 31.203125 
z
" id="DejaVuSans-97"/>
       <path d="M 9.421875 75.984375 
L 18.40625 75.984375 
L 18.40625 0 
L 9.421875 0 
z
" id="DejaVuSans-108"/>
       <path id="DejaVuSans-32"/>
       <path d="M 37.109375 75.984375 
L 37.109375 68.5 
L 28.515625 68.5 
Q 23.6875 68.5 21.796875 66.546875 
Q 19.921875 64.59375 19.921875 59.515625 
L 19.921875 54.6875 
L 34.71875 54.6875 
L 34.71875 47.703125 
L 19.921875 47.703125 
L 19.921875 0 
L 10.890625 0 
L 10.890625 47.703125 
L 2.296875 47.703125 
L 2.296875 54.6875 
L 10.890625 54.6875 
L 10.890625 58.5 
Q 10.890625 67.625 15.140625 71.796875 
Q 19.390625 75.984375 28.609375 75.984375 
z
" id="DejaVuSans-102"/>
       <path d="M 48.78125 52.59375 
L 48.78125 44.1875 
Q 44.96875 46.296875 41.140625 47.34375 
Q 37.3125 48.390625 33.40625 48.390625 
Q 24.65625 48.390625 19.8125 42.84375 
Q 14.984375 37.3125 14.984375 27.296875 
Q 14.984375 17.28125 19.8125 11.734375 
Q 24.65625 6.203125 33.40625 6.203125 
Q 37.3125 6.203125 41.140625 7.25 
Q 44.96875 8.296875 48.78125 10.40625 
L 48.78125 2.09375 
Q 45.015625 0.34375 40.984375 -0.53125 
Q 36.96875 -1.421875 32.421875 -1.421875 
Q 20.0625 -1.421875 12.78125 6.34375 
Q 5.515625 14.109375 5.515625 27.296875 
Q 5.515625 40.671875 12.859375 48.328125 
Q 20.21875 56 33.015625 56 
Q 37.15625 56 41.109375 55.140625 
Q 45.0625 54.296875 48.78125 52.59375 
z
" id="DejaVuSans-99"/>
       <path d="M 30.609375 48.390625 
Q 23.390625 48.390625 19.1875 42.75 
Q 14.984375 37.109375 14.984375 27.296875 
Q 14.984375 17.484375 19.15625 11.84375 
Q 23.34375 6.203125 30.609375 6.203125 
Q 37.796875 6.203125 41.984375 11.859375 
Q 46.1875 17.53125 46.1875 27.296875 
Q 46.1875 37.015625 41.984375 42.703125 
Q 37.796875 48.390625 30.609375 48.390625 
z
M 30.609375 56 
Q 42.328125 56 49.015625 48.375 
Q 55.71875 40.765625 55.71875 27.296875 
Q 55.71875 13.875 49.015625 6.21875 
Q 42.328125 -1.421875 30.609375 -1.421875 
Q 18.84375 -1.421875 12.171875 6.21875 
Q 5.515625 13.875 5.515625 27.296875 
Q 5.515625 40.765625 12.171875 48.375 
Q 18.84375 56 30.609375 56 
z
" id="DejaVuSans-111"/>
       <path d="M 41.109375 46.296875 
Q 39.59375 47.171875 37.8125 47.578125 
Q 36.03125 48 33.890625 48 
Q 26.265625 48 22.1875 43.046875 
Q 18.109375 38.09375 18.109375 28.8125 
L 18.109375 0 
L 9.078125 0 
L 9.078125 54.6875 
L 18.109375 54.6875 
L 18.109375 46.1875 
Q 20.953125 51.171875 25.484375 53.578125 
Q 30.03125 56 36.53125 56 
Q 37.453125 56 38.578125 55.875 
Q 39.703125 55.765625 41.0625 55.515625 
z
" id="DejaVuSans-114"/>
       <path d="M 11.71875 12.40625 
L 22.015625 12.40625 
L 22.015625 4 
L 14.015625 -11.625 
L 7.71875 -11.625 
L 11.71875 4 
z
" id="DejaVuSans-44"/>
       <path d="M 52.59375 63.296875 
L 48.796875 57.40625 
L 47.09375 57.296875 
Q 44.703125 59.5 43.34375 60.34375 
Q 42 61.203125 40.09375 61.203125 
Q 37 61.203125 34.453125 58.703125 
Q 31.90625 56.203125 30.59375 50.90625 
L 29.203125 45.296875 
L 40.59375 45.296875 
L 38.90625 38.203125 
L 27.5 38.203125 
L 18 0 
L 10.09375 0 
L 19.59375 38.203125 
L 11.5 38.203125 
L 13.203125 45.296875 
L 21.296875 45.296875 
L 22.40625 49.40625 
Q 25.203125 59.5 30.796875 64.296875 
Q 35.796875 68.296875 41.203125 68.296875 
Q 48 68.296875 52.59375 63.296875 
z
" id="STIXGeneral-Italic-120359"/>
       <path d="M 26.796875 47.09375 
L 27.703125 46.5 
Q 31.40625 44.09375 37.296875 43.09375 
Q 40.703125 42.59375 42 41.640625 
Q 43.296875 40.703125 43.296875 38.796875 
Q 43.296875 37.09375 42.296875 36 
Q 41.296875 34.90625 39.703125 34.90625 
Q 37.203125 34.90625 33.703125 39.296875 
Q 31.40625 42.09375 26.796875 45.09375 
L 26 45.59375 
L 26 44.703125 
Q 26 39.09375 28 33.703125 
Q 28.90625 31.203125 28.90625 30.40625 
Q 28.90625 28.90625 27.65625 27.703125 
Q 26.40625 26.5 24.90625 26.5 
Q 23.5 26.5 22.390625 27.59375 
Q 21.296875 28.703125 21.296875 30.09375 
Q 21.296875 31.5 22.5 34.796875 
Q 24.09375 39.09375 24.09375 44.703125 
L 24.09375 45.59375 
Q 20.09375 43.09375 18.90625 42 
Q 17.703125 40.796875 14.796875 37.5 
Q 12.59375 35 10.5 35 
Q 8.796875 35 7.796875 36 
Q 6.796875 37 6.796875 38.59375 
Q 6.796875 40.5 8.25 41.5 
Q 9.703125 42.5 13.09375 43.09375 
Q 16.59375 43.796875 18.4375 44.5 
Q 20.296875 45.203125 23.40625 47.09375 
Q 19.09375 49.703125 13.703125 50.796875 
Q 10 51.59375 8.5 52.59375 
Q 7 53.59375 7 55.40625 
Q 7 57 7.890625 58.046875 
Q 8.796875 59.09375 10.296875 59.09375 
Q 12.296875 59.09375 15.203125 55.90625 
Q 19.40625 51.203125 24.09375 48.59375 
L 24.09375 49.90625 
Q 24.09375 54 22.59375 59 
Q 21.5 62.296875 21.5 64.203125 
Q 21.5 65.59375 22.546875 66.59375 
Q 23.59375 67.59375 25.09375 67.59375 
Q 26.59375 67.59375 27.6875 66.546875 
Q 28.796875 65.5 28.796875 64 
Q 28.796875 62.40625 27.703125 59.296875 
Q 26 54.796875 26 51 
L 26 48.59375 
Q 29.40625 50.59375 31.796875 52.796875 
Q 32.296875 53.296875 33.640625 54.75 
Q 35 56.203125 35.796875 57 
Q 36.59375 57.796875 37.640625 58.546875 
Q 38.703125 59.296875 39.5 59.296875 
Q 41.203125 59.296875 42.203125 58.25 
Q 43.203125 57.203125 43.203125 55.5 
Q 43.203125 53.5 42.046875 52.546875 
Q 40.90625 51.59375 38 51.203125 
Q 32.40625 50.296875 26.796875 47.09375 
z
" id="STIXGeneral-Regular-42"/>
      </defs>
      <use transform="translate(0 0.446875)" xlink:href="#DejaVuSans-79"/>
      <use transform="translate(78.710938 0.446875)" xlink:href="#DejaVuSans-112"/>
      <use transform="translate(142.1875 0.446875)" xlink:href="#DejaVuSans-116"/>
      <use transform="translate(181.396484 0.446875)" xlink:href="#DejaVuSans-105"/>
      <use transform="translate(209.179688 0.446875)" xlink:href="#DejaVuSans-109"/>
      <use transform="translate(306.591797 0.446875)" xlink:href="#DejaVuSans-97"/>
      <use transform="translate(367.871094 0.446875)" xlink:href="#DejaVuSans-108"/>
      <use transform="translate(395.654297 0.446875)" xlink:href="#DejaVuSans-32"/>
      <use transform="translate(427.441406 0.446875)" xlink:href="#DejaVuSans-102"/>
      <use transform="translate(462.646484 0.446875)" xlink:href="#DejaVuSans-97"/>
      <use transform="translate(523.925781 0.446875)" xlink:href="#DejaVuSans-99"/>
      <use transform="translate(578.90625 0.446875)" xlink:href="#DejaVuSans-116"/>
      <use transform="translate(618.115234 0.446875)" xlink:href="#DejaVuSans-111"/>
      <use transform="translate(679.296875 0.446875)" xlink:href="#DejaVuSans-114"/>
      <use transform="translate(720.410156 0.446875)" xlink:href="#DejaVuSans-44"/>
      <use transform="translate(752.197266 0.446875)" xlink:href="#DejaVuSans-32"/>
      <use transform="translate(783.984375 0.446875)" xlink:href="#STIXGeneral-Italic-120359"/>
      <use transform="translate(835.171319 36.684375)scale(0.7)" xlink:href="#STIXGeneral-Regular-42"/>
     </g>
    </g>
   </g>
   <g id="line2d_12">
    <path clip-path="url(#p44e374121f)" d="M 35.559066 159.934349 
L 110.645892 56.90188 
" style="fill:none;stroke:#808080;stroke-dasharray:2.22,0.96;stroke-dashoffset:0;stroke-width:0.6;"/>
   </g>
   <g id="patch_3">
    <path d="M 31.804724 150.074241 
L 31.804724 11.186727 
" style="fill:none;stroke:#252525;stroke-linecap:square;stroke-linejoin:miter;stroke-width:0.4;"/>
   </g>
   <g id="patch_4">
    <path d="M 114.400233 150.074241 
L 114.400233 11.186727 
" style="fill:none;stroke:#252525;stroke-linecap:square;stroke-linejoin:miter;stroke-width:0.4;"/>
   </g>
   <g id="patch_5">
    <path d="M 31.804724 150.074241 
L 114.400233 150.074241 
" style="fill:none;stroke:#252525;stroke-linecap:square;stroke-linejoin:miter;stroke-width:0.4;"/>
   </g>
   <g id="patch_6">
    <path d="M 31.804724 11.186727 
L 114.400233 11.186727 
" style="fill:none;stroke:#252525;stroke-linecap:square;stroke-linejoin:miter;stroke-width:0.4;"/>
   </g>
   <g id="text_14">
    <!-- Linear regression: -->
    <g transform="translate(44.194051 32.624731)scale(0.06 -0.06)">
     <defs>
      <path d="M 9.8125 72.90625 
L 19.671875 72.90625 
L 19.671875 8.296875 
L 55.171875 8.296875 
L 55.171875 0 
L 9.8125 0 
z
" id="DejaVuSans-76"/>
      <path d="M 54.890625 33.015625 
L 54.890625 0 
L 45.90625 0 
L 45.90625 32.71875 
Q 45.90625 40.484375 42.875 44.328125 
Q 39.84375 48.1875 33.796875 48.1875 
Q 26.515625 48.1875 22.3125 43.546875 
Q 18.109375 38.921875 18.109375 30.90625 
L 18.109375 0 
L 9.078125 0 
L 9.078125 54.6875 
L 18.109375 54.6875 
L 18.109375 46.1875 
Q 21.34375 51.125 25.703125 53.5625 
Q 30.078125 56 35.796875 56 
Q 45.21875 56 50.046875 50.171875 
Q 54.890625 44.34375 54.890625 33.015625 
z
" id="DejaVuSans-110"/>
      <path d="M 56.203125 29.59375 
L 56.203125 25.203125 
L 14.890625 25.203125 
Q 15.484375 15.921875 20.484375 11.0625 
Q 25.484375 6.203125 34.421875 6.203125 
Q 39.59375 6.203125 44.453125 7.46875 
Q 49.3125 8.734375 54.109375 11.28125 
L 54.109375 2.78125 
Q 49.265625 0.734375 44.1875 -0.34375 
Q 39.109375 -1.421875 33.890625 -1.421875 
Q 20.796875 -1.421875 13.15625 6.1875 
Q 5.515625 13.8125 5.515625 26.8125 
Q 5.515625 40.234375 12.765625 48.109375 
Q 20.015625 56 32.328125 56 
Q 43.359375 56 49.78125 48.890625 
Q 56.203125 41.796875 56.203125 29.59375 
z
M 47.21875 32.234375 
Q 47.125 39.59375 43.09375 43.984375 
Q 39.0625 48.390625 32.421875 48.390625 
Q 24.90625 48.390625 20.390625 44.140625 
Q 15.875 39.890625 15.1875 32.171875 
z
" id="DejaVuSans-101"/>
      <path d="M 45.40625 27.984375 
Q 45.40625 37.75 41.375 43.109375 
Q 37.359375 48.484375 30.078125 48.484375 
Q 22.859375 48.484375 18.828125 43.109375 
Q 14.796875 37.75 14.796875 27.984375 
Q 14.796875 18.265625 18.828125 12.890625 
Q 22.859375 7.515625 30.078125 7.515625 
Q 37.359375 7.515625 41.375 12.890625 
Q 45.40625 18.265625 45.40625 27.984375 
z
M 54.390625 6.78125 
Q 54.390625 -7.171875 48.1875 -13.984375 
Q 42 -20.796875 29.203125 -20.796875 
Q 24.46875 -20.796875 20.265625 -20.09375 
Q 16.0625 -19.390625 12.109375 -17.921875 
L 12.109375 -9.1875 
Q 16.0625 -11.328125 19.921875 -12.34375 
Q 23.78125 -13.375 27.78125 -13.375 
Q 36.625 -13.375 41.015625 -8.765625 
Q 45.40625 -4.15625 45.40625 5.171875 
L 45.40625 9.625 
Q 42.625 4.78125 38.28125 2.390625 
Q 33.9375 0 27.875 0 
Q 17.828125 0 11.671875 7.65625 
Q 5.515625 15.328125 5.515625 27.984375 
Q 5.515625 40.671875 11.671875 48.328125 
Q 17.828125 56 27.875 56 
Q 33.9375 56 38.28125 53.609375 
Q 42.625 51.21875 45.40625 46.390625 
L 45.40625 54.6875 
L 54.390625 54.6875 
z
" id="DejaVuSans-103"/>
      <path d="M 44.28125 53.078125 
L 44.28125 44.578125 
Q 40.484375 46.53125 36.375 47.5 
Q 32.28125 48.484375 27.875 48.484375 
Q 21.1875 48.484375 17.84375 46.4375 
Q 14.5 44.390625 14.5 40.28125 
Q 14.5 37.15625 16.890625 35.375 
Q 19.28125 33.59375 26.515625 31.984375 
L 29.59375 31.296875 
Q 39.15625 29.25 43.1875 25.515625 
Q 47.21875 21.78125 47.21875 15.09375 
Q 47.21875 7.46875 41.1875 3.015625 
Q 35.15625 -1.421875 24.609375 -1.421875 
Q 20.21875 -1.421875 15.453125 -0.5625 
Q 10.6875 0.296875 5.421875 2 
L 5.421875 11.28125 
Q 10.40625 8.6875 15.234375 7.390625 
Q 20.0625 6.109375 24.8125 6.109375 
Q 31.15625 6.109375 34.5625 8.28125 
Q 37.984375 10.453125 37.984375 14.40625 
Q 37.984375 18.0625 35.515625 20.015625 
Q 33.0625 21.96875 24.703125 23.78125 
L 21.578125 24.515625 
Q 13.234375 26.265625 9.515625 29.90625 
Q 5.8125 33.546875 5.8125 39.890625 
Q 5.8125 47.609375 11.28125 51.796875 
Q 16.75 56 26.8125 56 
Q 31.78125 56 36.171875 55.265625 
Q 40.578125 54.546875 44.28125 53.078125 
z
" id="DejaVuSans-115"/>
      <path d="M 11.71875 12.40625 
L 22.015625 12.40625 
L 22.015625 0 
L 11.71875 0 
z
M 11.71875 51.703125 
L 22.015625 51.703125 
L 22.015625 39.3125 
L 11.71875 39.3125 
z
" id="DejaVuSans-58"/>
     </defs>
     <use xlink:href="#DejaVuSans-76"/>
     <use x="55.712891" xlink:href="#DejaVuSans-105"/>
     <use x="83.496094" xlink:href="#DejaVuSans-110"/>
     <use x="146.875" xlink:href="#DejaVuSans-101"/>
     <use x="208.398438" xlink:href="#DejaVuSans-97"/>
     <use x="269.677734" xlink:href="#DejaVuSans-114"/>
     <use x="310.791016" xlink:href="#DejaVuSans-32"/>
     <use x="342.578125" xlink:href="#DejaVuSans-114"/>
     <use x="381.441406" xlink:href="#DejaVuSans-101"/>
     <use x="442.964844" xlink:href="#DejaVuSans-103"/>
     <use x="506.441406" xlink:href="#DejaVuSans-114"/>
     <use x="545.304688" xlink:href="#DejaVuSans-101"/>
     <use x="606.828125" xlink:href="#DejaVuSans-115"/>
     <use x="658.927734" xlink:href="#DejaVuSans-115"/>
     <use x="711.027344" xlink:href="#DejaVuSans-105"/>
     <use x="738.810547" xlink:href="#DejaVuSans-111"/>
     <use x="799.992188" xlink:href="#DejaVuSans-110"/>
     <use x="863.371094" xlink:href="#DejaVuSans-58"/>
    </g>
    <!--    $\it{y}$=-0.40+1.08$\it{x}$ -->
    <g transform="translate(44.194051 39.343418)scale(0.06 -0.06)">
     <defs>
      <path d="M 56.5 45.296875 
L 26.40625 -4.40625 
Q 21 -13.296875 16.140625 -17.4375 
Q 11.296875 -21.59375 4.90625 -21.59375 
Q 0.09375 -21.59375 -1.90625 -19.203125 
L -0.09375 -12 
L 1.5 -12 
Q 4.09375 -14.40625 6.90625 -14.40625 
Q 10.09375 -14.40625 13.796875 -10.546875 
Q 17.5 -6.703125 20.90625 -0.59375 
Q 21.09375 -0.203125 21.796875 0.9375 
Q 22.5 2.09375 22.796875 2.703125 
Q 21.40625 10.796875 18.296875 26.390625 
Q 15.203125 42 14.59375 45.296875 
L 23.203125 45.296875 
L 29.09375 13 
L 48 45.296875 
z
" id="STIXGeneral-Italic-120378"/>
      <path d="M 10.59375 45.40625 
L 73.1875 45.40625 
L 73.1875 37.203125 
L 10.59375 37.203125 
z
M 10.59375 25.484375 
L 73.1875 25.484375 
L 73.1875 17.1875 
L 10.59375 17.1875 
z
" id="DejaVuSans-61"/>
      <path d="M 4.890625 31.390625 
L 31.203125 31.390625 
L 31.203125 23.390625 
L 4.890625 23.390625 
z
" id="DejaVuSans-45"/>
      <path d="M 46 62.703125 
L 46 35.5 
L 73.1875 35.5 
L 73.1875 27.203125 
L 46 27.203125 
L 46 0 
L 37.796875 0 
L 37.796875 27.203125 
L 10.59375 27.203125 
L 10.59375 35.5 
L 37.796875 35.5 
L 37.796875 62.703125 
z
" id="DejaVuSans-43"/>
      <path d="M 54.40625 45.296875 
L 34.40625 23.59375 
L 45.203125 0 
L 35.796875 0 
L 27.90625 17.5 
L 12.40625 0 
L 3 0 
L 25 23.90625 
L 15.40625 45.296875 
L 24.796875 45.296875 
L 31.59375 30.203125 
L 45 45.296875 
z
" id="STIXGeneral-Italic-120377"/>
     </defs>
     <use transform="translate(0 0.78125)" xlink:href="#DejaVuSans-32"/>
     <use transform="translate(31.787109 0.78125)" xlink:href="#DejaVuSans-32"/>
     <use transform="translate(63.574219 0.78125)" xlink:href="#DejaVuSans-32"/>
     <use transform="translate(95.361328 0.78125)" xlink:href="#STIXGeneral-Italic-120378"/>
     <use transform="translate(143.761322 0.78125)" xlink:href="#DejaVuSans-61"/>
     <use transform="translate(227.550385 0.78125)" xlink:href="#DejaVuSans-45"/>
     <use transform="translate(263.634369 0.78125)" xlink:href="#DejaVuSans-48"/>
     <use transform="translate(327.257416 0.78125)" xlink:href="#DejaVuSans-46"/>
     <use transform="translate(359.044525 0.78125)" xlink:href="#DejaVuSans-52"/>
     <use transform="translate(422.667572 0.78125)" xlink:href="#DejaVuSans-48"/>
     <use transform="translate(486.290619 0.78125)" xlink:href="#DejaVuSans-43"/>
     <use transform="translate(570.079681 0.78125)" xlink:href="#DejaVuSans-49"/>
     <use transform="translate(633.702728 0.78125)" xlink:href="#DejaVuSans-46"/>
     <use transform="translate(665.489838 0.78125)" xlink:href="#DejaVuSans-48"/>
     <use transform="translate(729.112885 0.78125)" xlink:href="#DejaVuSans-56"/>
     <use transform="translate(792.735931 0.78125)" xlink:href="#STIXGeneral-Italic-120377"/>
    </g>
    <!-- Pearson’s $\it{r}$ = 0.97 -->
    <g transform="translate(44.194051 46.134293)scale(0.06 -0.06)">
     <defs>
      <path d="M 19.671875 64.796875 
L 19.671875 37.40625 
L 32.078125 37.40625 
Q 38.96875 37.40625 42.71875 40.96875 
Q 46.484375 44.53125 46.484375 51.125 
Q 46.484375 57.671875 42.71875 61.234375 
Q 38.96875 64.796875 32.078125 64.796875 
z
M 9.8125 72.90625 
L 32.078125 72.90625 
Q 44.34375 72.90625 50.609375 67.359375 
Q 56.890625 61.8125 56.890625 51.125 
Q 56.890625 40.328125 50.609375 34.8125 
Q 44.34375 29.296875 32.078125 29.296875 
L 19.671875 29.296875 
L 19.671875 0 
L 9.8125 0 
z
" id="DejaVuSans-80"/>
      <path d="M 12.703125 72.90625 
L 23 72.90625 
L 23 65.484375 
L 14.984375 49.90625 
L 8.6875 49.90625 
L 12.703125 65.484375 
z
" id="DejaVuSans-8217"/>
     </defs>
     <use transform="translate(0 0.78125)" xlink:href="#DejaVuSans-80"/>
     <use transform="translate(60.302734 0.78125)" xlink:href="#DejaVuSans-101"/>
     <use transform="translate(121.826172 0.78125)" xlink:href="#DejaVuSans-97"/>
     <use transform="translate(183.105469 0.78125)" xlink:href="#DejaVuSans-114"/>
     <use transform="translate(224.21875 0.78125)" xlink:href="#DejaVuSans-115"/>
     <use transform="translate(276.318359 0.78125)" xlink:href="#DejaVuSans-111"/>
     <use transform="translate(337.5 0.78125)" xlink:href="#DejaVuSans-110"/>
     <use transform="translate(400.878906 0.78125)" xlink:href="#DejaVuSans-8217"/>
     <use transform="translate(432.666016 0.78125)" xlink:href="#DejaVuSans-115"/>
     <use transform="translate(484.765625 0.78125)" xlink:href="#DejaVuSans-32"/>
     <use transform="translate(516.552734 0.78125)" xlink:href="#STIXGeneral-Italic-120371"/>
     <use transform="translate(550.152725 0.78125)" xlink:href="#DejaVuSans-32"/>
     <use transform="translate(581.939835 0.78125)" xlink:href="#DejaVuSans-61"/>
     <use transform="translate(665.728897 0.78125)" xlink:href="#DejaVuSans-32"/>
     <use transform="translate(697.516006 0.78125)" xlink:href="#DejaVuSans-48"/>
     <use transform="translate(761.139053 0.78125)" xlink:href="#DejaVuSans-46"/>
     <use transform="translate(792.926163 0.78125)" xlink:href="#DejaVuSans-57"/>
     <use transform="translate(856.54921 0.78125)" xlink:href="#DejaVuSans-55"/>
    </g>
    <!--  -->
    <g transform="translate(44.194051 52.852981)scale(0.06 -0.06)"/>
   </g>
   <g id="text_15">
    <!-- A -->
    <g style="fill:#222222;" transform="translate(16.165554 6.57532)scale(0.09 -0.09)">
     <defs>
      <path d="M 71.828125 0 
L 56.109375 0 
L 49.859375 16.265625 
L 21.234375 16.265625 
L 15.328125 0 
L 0 0 
L 27.875 71.578125 
L 43.171875 71.578125 
z
M 45.21875 28.328125 
L 35.359375 54.890625 
L 25.6875 28.328125 
z
" id="Arial-BoldMT-65"/>
     </defs>
     <use xlink:href="#Arial-BoldMT-65"/>
    </g>
   </g>
   <g id="text_16">
    <!-- Est-norm -->
    <g transform="translate(59.54576 5.186727)scale(0.06 -0.06)">
     <defs>
      <path d="M 9.8125 72.90625 
L 55.90625 72.90625 
L 55.90625 64.59375 
L 19.671875 64.59375 
L 19.671875 43.015625 
L 54.390625 43.015625 
L 54.390625 34.71875 
L 19.671875 34.71875 
L 19.671875 8.296875 
L 56.78125 8.296875 
L 56.78125 0 
L 9.8125 0 
z
" id="DejaVuSans-69"/>
     </defs>
     <use xlink:href="#DejaVuSans-69"/>
     <use x="63.183594" xlink:href="#DejaVuSans-115"/>
     <use x="115.283203" xlink:href="#DejaVuSans-116"/>
     <use x="154.492188" xlink:href="#DejaVuSans-45"/>
     <use x="190.576172" xlink:href="#DejaVuSans-110"/>
     <use x="253.955078" xlink:href="#DejaVuSans-111"/>
     <use x="315.136719" xlink:href="#DejaVuSans-114"/>
     <use x="354.5" xlink:href="#DejaVuSans-109"/>
    </g>
   </g>
  </g>
  <g id="axes_2">
   <g id="patch_7">
    <path d="M 149.916302 150.074241 
L 232.511811 150.074241 
L 232.511811 11.186727 
L 149.916302 11.186727 
z
" style="fill:none;"/>
   </g>
   <g id="PathCollection_3">
    <defs>
     <path d="M 0 1.581139 
C 0.419323 1.581139 0.821528 1.41454 1.118034 1.118034 
C 1.41454 0.821528 1.581139 0.419323 1.581139 -0 
C 1.581139 -0.419323 1.41454 -0.821528 1.118034 -1.118034 
C 0.821528 -1.41454 0.419323 -1.581139 0 -1.581139 
C -0.419323 -1.581139 -0.821528 -1.41454 -1.118034 -1.118034 
C -1.41454 -0.821528 -1.581139 -0.419323 -1.581139 0 
C -1.581139 0.419323 -1.41454 0.821528 -1.118034 1.118034 
C -0.821528 1.41454 -0.419323 1.581139 0 1.581139 
z
" id="C1_0_1e1b32d245"/>
    </defs>
    <g clip-path="url(#p783df3857c)">
     <use style="fill:#1f77b4;" x="157.083681" xlink:href="#C1_0_1e1b32d245" y="108.407987"/>
    </g>
    <g clip-path="url(#p783df3857c)">
     <use style="fill:#1f77b4;" x="173.144716" xlink:href="#C1_0_1e1b32d245" y="80.630484"/>
    </g>
    <g clip-path="url(#p783df3857c)">
     <use style="fill:#1f77b4;" x="181.836573" xlink:href="#C1_0_1e1b32d245" y="77.158296"/>
    </g>
    <g clip-path="url(#p783df3857c)">
     <use style="fill:#1f77b4;" x="188.254438" xlink:href="#C1_0_1e1b32d245" y="59.797357"/>
    </g>
    <g clip-path="url(#p783df3857c)">
     <use style="fill:#1f77b4;" x="192.60789" xlink:href="#C1_0_1e1b32d245" y="49.380793"/>
    </g>
    <g clip-path="url(#p783df3857c)">
     <use style="fill:#1f77b4;" x="196.325732" xlink:href="#C1_0_1e1b32d245" y="37.228136"/>
    </g>
    <g clip-path="url(#p783df3857c)">
     <use style="fill:#1f77b4;" x="199.869986" xlink:href="#C1_0_1e1b32d245" y="30.28376"/>
    </g>
    <g clip-path="url(#p783df3857c)">
     <use style="fill:#1f77b4;" x="202.855572" xlink:href="#C1_0_1e1b32d245" y="26.811572"/>
    </g>
   </g>
   <g id="PathCollection_4">
    <defs>
     <path d="M 0 1.581139 
C 0.419323 1.581139 0.821528 1.41454 1.118034 1.118034 
C 1.41454 0.821528 1.581139 0.419323 1.581139 -0 
C 1.581139 -0.419323 1.41454 -0.821528 1.118034 -1.118034 
C 0.821528 -1.41454 0.419323 -1.581139 0 -1.581139 
C -0.419323 -1.581139 -0.821528 -1.41454 -1.118034 -1.118034 
C -1.41454 -0.821528 -1.581139 -0.419323 -1.581139 0 
C -1.581139 0.419323 -1.41454 0.821528 -1.118034 1.118034 
C -0.821528 1.41454 -0.419323 1.581139 0 1.581139 
z
" id="C2_0_31133e11dd"/>
    </defs>
    <g clip-path="url(#p783df3857c)">
     <use style="fill:#ff7f0e;" x="205.189686" xlink:href="#C2_0_31133e11dd" y="19.867196"/>
    </g>
    <g clip-path="url(#p783df3857c)">
     <use style="fill:#ff7f0e;" x="207.423776" xlink:href="#C2_0_31133e11dd" y="19.867196"/>
    </g>
    <g clip-path="url(#p783df3857c)">
     <use style="fill:#ff7f0e;" x="209.560044" xlink:href="#C2_0_31133e11dd" y="19.867196"/>
    </g>
    <g clip-path="url(#p783df3857c)">
     <use style="fill:#ff7f0e;" x="211.546963" xlink:href="#C2_0_31133e11dd" y="19.867196"/>
    </g>
    <g clip-path="url(#p783df3857c)">
     <use style="fill:#ff7f0e;" x="213.665009" xlink:href="#C2_0_31133e11dd" y="19.867196"/>
    </g>
    <g clip-path="url(#p783df3857c)">
     <use style="fill:#ff7f0e;" x="216.114727" xlink:href="#C2_0_31133e11dd" y="19.867196"/>
    </g>
    <g clip-path="url(#p783df3857c)">
     <use style="fill:#ff7f0e;" x="219.065773" xlink:href="#C2_0_31133e11dd" y="19.867196"/>
    </g>
    <g clip-path="url(#p783df3857c)">
     <use style="fill:#ff7f0e;" x="225.344432" xlink:href="#C2_0_31133e11dd" y="19.867196"/>
    </g>
   </g>
   <g id="matplotlib.axis_3">
    <g id="xtick_4">
     <g id="line2d_13">
      <g>
       <use style="fill:#252525;stroke:#252525;stroke-width:0.2;" x="157.143525" xlink:href="#m2bb284c5da" y="150.074241"/>
      </g>
     </g>
     <g id="text_17">
      <!-- 1.0 -->
      <g style="fill:#252525;" transform="translate(152.372587 160.633303)scale(0.06 -0.06)">
       <use xlink:href="#DejaVuSans-49"/>
       <use x="63.623047" xlink:href="#DejaVuSans-46"/>
       <use x="95.410156" xlink:href="#DejaVuSans-48"/>
      </g>
     </g>
    </g>
    <g id="xtick_5">
     <g id="line2d_14">
      <g>
       <use style="fill:#252525;stroke:#252525;stroke-width:0.2;" x="195.465953" xlink:href="#m2bb284c5da" y="150.074241"/>
      </g>
     </g>
     <g id="text_18">
      <!-- 1.5 -->
      <g style="fill:#252525;" transform="translate(190.695016 160.633303)scale(0.06 -0.06)">
       <use xlink:href="#DejaVuSans-49"/>
       <use x="63.623047" xlink:href="#DejaVuSans-46"/>
       <use x="95.410156" xlink:href="#DejaVuSans-53"/>
      </g>
     </g>
    </g>
    <g id="text_19">
     <!-- $\it{\frac{\sigma(Nonlinear\_var)}{\sigma(Nonlinear\_cov)}  \: /  \: \frac{\sigma(True\_var)}{\sigma(True\_cov)}}$ -->
     <g transform="translate(153.894057 171.801116)scale(0.08 -0.08)">
      <defs>
       <path d="M 76.59375 66.203125 
L 59.703125 -1.40625 
L 53.203125 0 
L 30.09375 56.40625 
L 16.09375 0 
L 7.40625 0 
L 23.90625 66.203125 
L 36 66.203125 
L 55.796875 17.796875 
L 67.90625 66.203125 
z
" id="STIXGeneral-Italic-120341"/>
       <path d="M 25.09375 45.90625 
L 23.90625 40.203125 
Q 28.40625 43.796875 32.203125 45.046875 
Q 36 46.296875 40.5 46.296875 
Q 45.203125 46.296875 48.09375 43.75 
Q 51 41.203125 51 37.203125 
Q 51 34.796875 50.40625 32.09375 
L 42.40625 0 
L 34.5 0 
L 42 30.40625 
Q 42.5 32.59375 42.5 33.90625 
Q 42.5 39.203125 36 39.203125 
Q 33.09375 39.203125 28.640625 36.703125 
Q 24.203125 34.203125 21.703125 30.203125 
L 14.203125 0 
L 6.296875 0 
L 17.203125 44 
L 24.296875 46.40625 
z
" id="STIXGeneral-Italic-120367"/>
       <path d="M 31.296875 67.90625 
L 14.40625 0 
L 6.09375 0 
L 22.5 66 
L 30.5 68.40625 
z
" id="STIXGeneral-Italic-120365"/>
       <path d="M 32.5 67.90625 
L 30.203125 58.59375 
L 21 58.59375 
L 23.296875 67.90625 
z
M 26.59375 45.90625 
L 15.203125 0 
L 6.90625 0 
L 17.796875 44 
L 25.796875 46.40625 
z
" id="STIXGeneral-Italic-120362"/>
       <path d="M 16.90625 30.203125 
L 12.796875 33.296875 
Q 15.796875 40.09375 21.34375 43.1875 
Q 26.90625 46.296875 33.40625 46.296875 
Q 39.703125 46.296875 43.203125 43.640625 
Q 46.703125 41 46.703125 36.203125 
Q 46.703125 34.796875 46.203125 32.59375 
L 39.90625 7.59375 
Q 39.09375 4.703125 39.09375 0 
L 30.59375 0 
L 31.09375 4.40625 
Q 23.90625 -1 14.90625 -1 
Q 10.5 -1 8 0.953125 
Q 5.5 2.90625 5.5 6.59375 
Q 5.5 23.40625 37.5 29.40625 
L 38.296875 32.703125 
Q 38.5 33.703125 38.5 34.203125 
Q 38.5 36.5 36.546875 37.84375 
Q 34.59375 39.203125 31.40625 39.203125 
Q 23.796875 39.203125 18.40625 30.203125 
z
M 33.40625 13.203125 
L 35.703125 22.203125 
Q 13.90625 18.703125 13.90625 9.59375 
Q 13.90625 6.09375 18.703125 6.09375 
Q 25.5 6.09375 33.40625 13.203125 
z
" id="STIXGeneral-Italic-120354"/>
      </defs>
      <use transform="translate(6 51.115625)scale(0.7)" xlink:href="#STIXNonUnicode-Italic-57834"/>
      <use transform="translate(48.489998 51.115625)scale(0.7)" xlink:href="#STIXGeneral-Regular-40"/>
      <use transform="translate(71.799989 51.115625)scale(0.7)" xlink:href="#STIXGeneral-Italic-120341"/>
      <use transform="translate(119.049979 51.115625)scale(0.7)" xlink:href="#STIXGeneral-Italic-120368"/>
      <use transform="translate(153.979974 51.115625)scale(0.7)" xlink:href="#STIXGeneral-Italic-120367"/>
      <use transform="translate(188.069972 51.115625)scale(0.7)" xlink:href="#STIXGeneral-Italic-120365"/>
      <use transform="translate(202.419962 51.115625)scale(0.7)" xlink:href="#STIXGeneral-Italic-120362"/>
      <use transform="translate(217.819951 51.115625)scale(0.7)" xlink:href="#STIXGeneral-Italic-120367"/>
      <use transform="translate(251.909949 51.115625)scale(0.7)" xlink:href="#STIXGeneral-Italic-120358"/>
      <use transform="translate(282.989944 51.115625)scale(0.7)" xlink:href="#STIXGeneral-Italic-120354"/>
      <use transform="translate(314.349936 51.115625)scale(0.7)" xlink:href="#STIXGeneral-Italic-120371"/>
      <use transform="translate(337.86993 51.115625)scale(0.7)" xlink:href="#STIXGeneral-Regular-95"/>
      <use transform="translate(372.869919 51.115625)scale(0.7)" xlink:href="#STIXGeneral-Italic-120375"/>
      <use transform="translate(406.049915 51.115625)scale(0.7)" xlink:href="#STIXGeneral-Italic-120354"/>
      <use transform="translate(437.409906 51.115625)scale(0.7)" xlink:href="#STIXGeneral-Italic-120371"/>
      <use transform="translate(460.9299 51.115625)scale(0.7)" xlink:href="#STIXGeneral-Regular-41"/>
      <use transform="translate(0 -40.410937)scale(0.7)" xlink:href="#STIXNonUnicode-Italic-57834"/>
      <use transform="translate(42.489998 -40.410937)scale(0.7)" xlink:href="#STIXGeneral-Regular-40"/>
      <use transform="translate(65.799989 -40.410937)scale(0.7)" xlink:href="#STIXGeneral-Italic-120341"/>
      <use transform="translate(113.049979 -40.410937)scale(0.7)" xlink:href="#STIXGeneral-Italic-120368"/>
      <use transform="translate(147.979974 -40.410937)scale(0.7)" xlink:href="#STIXGeneral-Italic-120367"/>
      <use transform="translate(182.069972 -40.410937)scale(0.7)" xlink:href="#STIXGeneral-Italic-120365"/>
      <use transform="translate(196.419962 -40.410937)scale(0.7)" xlink:href="#STIXGeneral-Italic-120362"/>
      <use transform="translate(211.819951 -40.410937)scale(0.7)" xlink:href="#STIXGeneral-Italic-120367"/>
      <use transform="translate(245.909949 -40.410937)scale(0.7)" xlink:href="#STIXGeneral-Italic-120358"/>
      <use transform="translate(276.989944 -40.410937)scale(0.7)" xlink:href="#STIXGeneral-Italic-120354"/>
      <use transform="translate(308.349936 -40.410937)scale(0.7)" xlink:href="#STIXGeneral-Italic-120371"/>
      <use transform="translate(331.86993 -40.410937)scale(0.7)" xlink:href="#STIXGeneral-Regular-95"/>
      <use transform="translate(366.869919 -40.410937)scale(0.7)" xlink:href="#STIXGeneral-Italic-120356"/>
      <use transform="translate(398.789912 -40.410937)scale(0.7)" xlink:href="#STIXGeneral-Italic-120368"/>
      <use transform="translate(433.719908 -40.410937)scale(0.7)" xlink:href="#STIXGeneral-Italic-120375"/>
      <use transform="translate(466.899904 -40.410937)scale(0.7)" xlink:href="#STIXGeneral-Regular-41"/>
      <use transform="translate(519.509725 0.926563)" xlink:href="#STIXGeneral-Regular-47"/>
      <use transform="translate(570.109543 51.115625)scale(0.7)" xlink:href="#STIXNonUnicode-Italic-57834"/>
      <use transform="translate(612.599541 51.115625)scale(0.7)" xlink:href="#STIXGeneral-Regular-40"/>
      <use transform="translate(635.909532 51.115625)scale(0.7)" xlink:href="#STIXGeneral-Italic-120347"/>
      <use transform="translate(678.469524 51.115625)scale(0.7)" xlink:href="#STIXGeneral-Italic-120371"/>
      <use transform="translate(701.989517 51.115625)scale(0.7)" xlink:href="#STIXGeneral-Italic-120374"/>
      <use transform="translate(736.359511 51.115625)scale(0.7)" xlink:href="#STIXGeneral-Italic-120358"/>
      <use transform="translate(767.439507 51.115625)scale(0.7)" xlink:href="#STIXGeneral-Regular-95"/>
      <use transform="translate(802.439496 51.115625)scale(0.7)" xlink:href="#STIXGeneral-Italic-120375"/>
      <use transform="translate(835.619492 51.115625)scale(0.7)" xlink:href="#STIXGeneral-Italic-120354"/>
      <use transform="translate(866.979483 51.115625)scale(0.7)" xlink:href="#STIXGeneral-Italic-120371"/>
      <use transform="translate(890.499477 51.115625)scale(0.7)" xlink:href="#STIXGeneral-Regular-41"/>
      <use transform="translate(564.109543 -39.842187)scale(0.7)" xlink:href="#STIXNonUnicode-Italic-57834"/>
      <use transform="translate(606.599541 -39.842187)scale(0.7)" xlink:href="#STIXGeneral-Regular-40"/>
      <use transform="translate(629.909532 -39.842187)scale(0.7)" xlink:href="#STIXGeneral-Italic-120347"/>
      <use transform="translate(672.469524 -39.842187)scale(0.7)" xlink:href="#STIXGeneral-Italic-120371"/>
      <use transform="translate(695.989517 -39.842187)scale(0.7)" xlink:href="#STIXGeneral-Italic-120374"/>
      <use transform="translate(730.359511 -39.842187)scale(0.7)" xlink:href="#STIXGeneral-Italic-120358"/>
      <use transform="translate(761.439507 -39.842187)scale(0.7)" xlink:href="#STIXGeneral-Regular-95"/>
      <use transform="translate(796.439496 -39.842187)scale(0.7)" xlink:href="#STIXGeneral-Italic-120356"/>
      <use transform="translate(828.35949 -39.842187)scale(0.7)" xlink:href="#STIXGeneral-Italic-120368"/>
      <use transform="translate(863.289485 -39.842187)scale(0.7)" xlink:href="#STIXGeneral-Italic-120375"/>
      <use transform="translate(896.469481 -39.842187)scale(0.7)" xlink:href="#STIXGeneral-Regular-41"/>
      <path d="M 0 13.723438 
L 0 19.973438 
L 490.209895 19.973438 
L 490.209895 13.723438 
L 0 13.723438 
z
"/>
      <path d="M 564.109543 13.723438 
L 564.109543 19.973438 
L 919.779473 19.973438 
L 919.779473 13.723438 
L 564.109543 13.723438 
z
"/>
     </g>
    </g>
   </g>
   <g id="matplotlib.axis_4"/>
   <g id="line2d_15">
    <path clip-path="url(#p783df3857c)" d="M 153.670643 118.619168 
L 219.217385 -1 
" style="fill:none;stroke:#808080;stroke-dasharray:2.22,0.96;stroke-dashoffset:0;stroke-width:0.6;"/>
   </g>
   <g id="patch_8">
    <path d="M 149.916302 150.074241 
L 149.916302 11.186727 
" style="fill:none;stroke:#252525;stroke-linecap:square;stroke-linejoin:miter;stroke-width:0.4;"/>
   </g>
   <g id="patch_9">
    <path d="M 232.511811 150.074241 
L 232.511811 11.186727 
" style="fill:none;stroke:#252525;stroke-linecap:square;stroke-linejoin:miter;stroke-width:0.4;"/>
   </g>
   <g id="patch_10">
    <path d="M 149.916302 150.074241 
L 232.511811 150.074241 
" style="fill:none;stroke:#252525;stroke-linecap:square;stroke-linejoin:miter;stroke-width:0.4;"/>
   </g>
   <g id="patch_11">
    <path d="M 149.916302 11.186727 
L 232.511811 11.186727 
" style="fill:none;stroke:#252525;stroke-linecap:square;stroke-linejoin:miter;stroke-width:0.4;"/>
   </g>
   <g id="text_20">
    <!-- Linear regression: -->
    <g transform="translate(162.305628 129.845991)scale(0.06 -0.06)">
     <use xlink:href="#DejaVuSans-76"/>
     <use x="55.712891" xlink:href="#DejaVuSans-105"/>
     <use x="83.496094" xlink:href="#DejaVuSans-110"/>
     <use x="146.875" xlink:href="#DejaVuSans-101"/>
     <use x="208.398438" xlink:href="#DejaVuSans-97"/>
     <use x="269.677734" xlink:href="#DejaVuSans-114"/>
     <use x="310.791016" xlink:href="#DejaVuSans-32"/>
     <use x="342.578125" xlink:href="#DejaVuSans-114"/>
     <use x="381.441406" xlink:href="#DejaVuSans-101"/>
     <use x="442.964844" xlink:href="#DejaVuSans-103"/>
     <use x="506.441406" xlink:href="#DejaVuSans-114"/>
     <use x="545.304688" xlink:href="#DejaVuSans-101"/>
     <use x="606.828125" xlink:href="#DejaVuSans-115"/>
     <use x="658.927734" xlink:href="#DejaVuSans-115"/>
     <use x="711.027344" xlink:href="#DejaVuSans-105"/>
     <use x="738.810547" xlink:href="#DejaVuSans-111"/>
     <use x="799.992188" xlink:href="#DejaVuSans-110"/>
     <use x="863.371094" xlink:href="#DejaVuSans-58"/>
    </g>
    <!--    $\it{y}$=-0.34+0.81$\it{x}$ -->
    <g transform="translate(162.305628 136.564678)scale(0.06 -0.06)">
     <use transform="translate(0 0.78125)" xlink:href="#DejaVuSans-32"/>
     <use transform="translate(31.787109 0.78125)" xlink:href="#DejaVuSans-32"/>
     <use transform="translate(63.574219 0.78125)" xlink:href="#DejaVuSans-32"/>
     <use transform="translate(95.361328 0.78125)" xlink:href="#STIXGeneral-Italic-120378"/>
     <use transform="translate(143.761322 0.78125)" xlink:href="#DejaVuSans-61"/>
     <use transform="translate(227.550385 0.78125)" xlink:href="#DejaVuSans-45"/>
     <use transform="translate(263.634369 0.78125)" xlink:href="#DejaVuSans-48"/>
     <use transform="translate(327.257416 0.78125)" xlink:href="#DejaVuSans-46"/>
     <use transform="translate(359.044525 0.78125)" xlink:href="#DejaVuSans-51"/>
     <use transform="translate(422.667572 0.78125)" xlink:href="#DejaVuSans-52"/>
     <use transform="translate(486.290619 0.78125)" xlink:href="#DejaVuSans-43"/>
     <use transform="translate(570.079681 0.78125)" xlink:href="#DejaVuSans-48"/>
     <use transform="translate(633.702728 0.78125)" xlink:href="#DejaVuSans-46"/>
     <use transform="translate(662.864838 0.78125)" xlink:href="#DejaVuSans-56"/>
     <use transform="translate(726.487885 0.78125)" xlink:href="#DejaVuSans-49"/>
     <use transform="translate(790.110931 0.78125)" xlink:href="#STIXGeneral-Italic-120377"/>
    </g>
    <!-- Pearson’s $\it{r}$ = 0.95 -->
    <g transform="translate(162.305628 143.355553)scale(0.06 -0.06)">
     <use transform="translate(0 0.78125)" xlink:href="#DejaVuSans-80"/>
     <use transform="translate(60.302734 0.78125)" xlink:href="#DejaVuSans-101"/>
     <use transform="translate(121.826172 0.78125)" xlink:href="#DejaVuSans-97"/>
     <use transform="translate(183.105469 0.78125)" xlink:href="#DejaVuSans-114"/>
     <use transform="translate(224.21875 0.78125)" xlink:href="#DejaVuSans-115"/>
     <use transform="translate(276.318359 0.78125)" xlink:href="#DejaVuSans-111"/>
     <use transform="translate(337.5 0.78125)" xlink:href="#DejaVuSans-110"/>
     <use transform="translate(400.878906 0.78125)" xlink:href="#DejaVuSans-8217"/>
     <use transform="translate(432.666016 0.78125)" xlink:href="#DejaVuSans-115"/>
     <use transform="translate(484.765625 0.78125)" xlink:href="#DejaVuSans-32"/>
     <use transform="translate(516.552734 0.78125)" xlink:href="#STIXGeneral-Italic-120371"/>
     <use transform="translate(550.152725 0.78125)" xlink:href="#DejaVuSans-32"/>
     <use transform="translate(581.939835 0.78125)" xlink:href="#DejaVuSans-61"/>
     <use transform="translate(665.728897 0.78125)" xlink:href="#DejaVuSans-32"/>
     <use transform="translate(697.516006 0.78125)" xlink:href="#DejaVuSans-48"/>
     <use transform="translate(761.139053 0.78125)" xlink:href="#DejaVuSans-46"/>
     <use transform="translate(792.926163 0.78125)" xlink:href="#DejaVuSans-57"/>
     <use transform="translate(856.54921 0.78125)" xlink:href="#DejaVuSans-53"/>
    </g>
    <!--  -->
    <g transform="translate(162.305628 150.074241)scale(0.06 -0.06)"/>
   </g>
   <g id="text_21">
    <!-- B -->
    <g style="fill:#222222;" transform="translate(134.277132 6.57532)scale(0.09 -0.09)">
     <defs>
      <path d="M 7.328125 71.578125 
L 35.9375 71.578125 
Q 44.4375 71.578125 48.609375 70.875 
Q 52.78125 70.171875 56.078125 67.921875 
Q 59.375 65.671875 61.5625 61.9375 
Q 63.765625 58.203125 63.765625 53.5625 
Q 63.765625 48.53125 61.046875 44.328125 
Q 58.34375 40.140625 53.71875 38.03125 
Q 60.25 36.140625 63.765625 31.546875 
Q 67.28125 26.953125 67.28125 20.75 
Q 67.28125 15.875 65.015625 11.25 
Q 62.75 6.640625 58.8125 3.875 
Q 54.890625 1.125 49.125 0.484375 
Q 45.515625 0.09375 31.6875 0 
L 7.328125 0 
z
M 21.78125 59.671875 
L 21.78125 43.109375 
L 31.25 43.109375 
Q 39.703125 43.109375 41.75 43.359375 
Q 45.453125 43.796875 47.578125 45.921875 
Q 49.703125 48.046875 49.703125 51.515625 
Q 49.703125 54.828125 47.875 56.90625 
Q 46.046875 58.984375 42.4375 59.421875 
Q 40.28125 59.671875 30.078125 59.671875 
z
M 21.78125 31.203125 
L 21.78125 12.0625 
L 35.15625 12.0625 
Q 42.96875 12.0625 45.0625 12.5 
Q 48.296875 13.09375 50.3125 15.359375 
Q 52.34375 17.625 52.34375 21.4375 
Q 52.34375 24.65625 50.78125 26.90625 
Q 49.21875 29.15625 46.265625 30.171875 
Q 43.3125 31.203125 33.453125 31.203125 
z
" id="Arial-BoldMT-66"/>
     </defs>
     <use xlink:href="#Arial-BoldMT-66"/>
    </g>
   </g>
   <g id="text_22">
    <!-- Nonlinear-norm -->
    <g transform="translate(168.016088 5.186727)scale(0.06 -0.06)">
     <defs>
      <path d="M 9.8125 72.90625 
L 23.09375 72.90625 
L 55.421875 11.921875 
L 55.421875 72.90625 
L 64.984375 72.90625 
L 64.984375 0 
L 51.703125 0 
L 19.390625 60.984375 
L 19.390625 0 
L 9.8125 0 
z
" id="DejaVuSans-78"/>
     </defs>
     <use xlink:href="#DejaVuSans-78"/>
     <use x="74.804688" xlink:href="#DejaVuSans-111"/>
     <use x="135.986328" xlink:href="#DejaVuSans-110"/>
     <use x="199.365234" xlink:href="#DejaVuSans-108"/>
     <use x="227.148438" xlink:href="#DejaVuSans-105"/>
     <use x="254.931641" xlink:href="#DejaVuSans-110"/>
     <use x="318.310547" xlink:href="#DejaVuSans-101"/>
     <use x="379.833984" xlink:href="#DejaVuSans-97"/>
     <use x="441.113281" xlink:href="#DejaVuSans-114"/>
     <use x="475.851562" xlink:href="#DejaVuSans-45"/>
     <use x="511.935547" xlink:href="#DejaVuSans-110"/>
     <use x="575.314453" xlink:href="#DejaVuSans-111"/>
     <use x="636.496094" xlink:href="#DejaVuSans-114"/>
     <use x="675.859375" xlink:href="#DejaVuSans-109"/>
    </g>
   </g>
   <g id="legend_1">
    <g id="patch_12">
     <path d="M 194.831811 90.337359 
L 228.311811 90.337359 
Q 229.511811 90.337359 229.511811 89.137359 
L 229.511811 72.123609 
Q 229.511811 70.923609 228.311811 70.923609 
L 194.831811 70.923609 
Q 193.631811 70.923609 193.631811 72.123609 
L 193.631811 89.137359 
Q 193.631811 90.337359 194.831811 90.337359 
z
" style="fill:#ffffff;opacity:0.8;stroke:#cccccc;stroke-linejoin:miter;"/>
    </g>
    <g id="PathCollection_5">
     <path d="M 202.031811 77.88881 
C 202.451134 77.88881 202.853339 77.722211 203.149845 77.425705 
C 203.446351 77.129199 203.61295 76.726994 203.61295 76.307671 
C 203.61295 75.888348 203.446351 75.486143 203.149845 75.189637 
C 202.853339 74.893131 202.451134 74.726532 202.031811 74.726532 
C 201.612488 74.726532 201.210283 74.893131 200.913777 75.189637 
C 200.617271 75.486143 200.450672 75.888348 200.450672 76.307671 
C 200.450672 76.726994 200.617271 77.129199 200.913777 77.425705 
C 201.210283 77.722211 201.612488 77.88881 202.031811 77.88881 
z
" style="fill:#1f77b4;"/>
    </g>
    <g id="text_23">
     <!-- $\it{f^{*} &lt; 1}$ -->
     <g transform="translate(212.831811 77.882671)scale(0.06 -0.06)">
      <defs>
       <path d="M 62.09375 -2.40625 
L 5.59375 24.90625 
L 5.59375 25.90625 
L 62.09375 53.40625 
L 62.09375 46.90625 
L 18.90625 25.40625 
L 62.09375 3.90625 
z
" id="STIXGeneral-Regular-60"/>
       <path d="M 30.203125 0 
L 22.296875 0 
L 22.296875 57 
Q 20.09375 56 15.75 53.75 
Q 11.40625 51.5 10.796875 51.203125 
L 10.796875 58.5 
L 28.796875 67.703125 
L 30.203125 67.203125 
z
" id="STIXGeneral-Regular-120803"/>
      </defs>
      <use transform="translate(0 0.446875)" xlink:href="#STIXGeneral-Italic-120359"/>
      <use transform="translate(51.186944 36.684375)scale(0.7)" xlink:href="#STIXGeneral-Regular-42"/>
      <use transform="translate(103.571775 0.446875)" xlink:href="#STIXGeneral-Regular-60"/>
      <use transform="translate(187.191758 0.446875)" xlink:href="#STIXGeneral-Regular-120803"/>
     </g>
    </g>
    <g id="PathCollection_6">
     <path d="M 202.031811 86.695685 
C 202.451134 86.695685 202.853339 86.529086 203.149845 86.23258 
C 203.446351 85.936074 203.61295 85.533869 203.61295 85.114546 
C 203.61295 84.695223 203.446351 84.293018 203.149845 83.996512 
C 202.853339 83.700006 202.451134 83.533407 202.031811 83.533407 
C 201.612488 83.533407 201.210283 83.700006 200.913777 83.996512 
C 200.617271 84.293018 200.450672 84.695223 200.450672 85.114546 
C 200.450672 85.533869 200.617271 85.936074 200.913777 86.23258 
C 201.210283 86.529086 201.612488 86.695685 202.031811 86.695685 
z
" style="fill:#ff7f0e;"/>
    </g>
    <g id="text_24">
     <!-- $\it{f^{*} = 1}$ -->
     <g transform="translate(212.831811 86.689546)scale(0.06 -0.06)">
      <defs>
       <path d="M 63.703125 32 
L 4.796875 32 
L 4.796875 38.59375 
L 63.703125 38.59375 
z
M 63.703125 12 
L 4.796875 12 
L 4.796875 18.59375 
L 63.703125 18.59375 
z
" id="STIXGeneral-Regular-61"/>
      </defs>
      <use transform="translate(0 0.446875)" xlink:href="#STIXGeneral-Italic-120359"/>
      <use transform="translate(51.186944 36.684375)scale(0.7)" xlink:href="#STIXGeneral-Regular-42"/>
      <use transform="translate(103.571775 0.446875)" xlink:href="#STIXGeneral-Regular-61"/>
      <use transform="translate(187.191758 0.446875)" xlink:href="#STIXGeneral-Regular-120803"/>
     </g>
    </g>
   </g>
  </g>
 </g>
 <defs>
  <clipPath id="p44e374121f">
   <rect height="138.887514" width="82.595509" x="31.804724" y="11.186727"/>
  </clipPath>
  <clipPath id="p783df3857c">
   <rect height="138.887514" width="82.595509" x="149.916302" y="11.186727"/>
  </clipPath>
 </defs>
</svg>
