<?xml version="1.0" encoding="utf-8" standalone="no"?>
<!DOCTYPE svg PUBLIC "-//W3C//DTD SVG 1.1//EN"
  "http://www.w3.org/Graphics/SVG/1.1/DTD/svg11.dtd">
<!-- Created with matplotlib (https://matplotlib.org/) -->
<svg height="310.658914pt" version="1.1" viewBox="0 0 240.944882 310.658914" width="240.944882pt" xmlns="http://www.w3.org/2000/svg" xmlns:xlink="http://www.w3.org/1999/xlink">
 <metadata>
  <rdf:RDF xmlns:cc="http://creativecommons.org/ns#" xmlns:dc="http://purl.org/dc/elements/1.1/" xmlns:rdf="http://www.w3.org/1999/02/22-rdf-syntax-ns#">
   <cc:Work>
    <dc:type rdf:resource="http://purl.org/dc/dcmitype/StillImage"/>
    <dc:date>2022-09-09T13:31:33.125833</dc:date>
    <dc:format>image/svg+xml</dc:format>
    <dc:creator>
     <cc:Agent>
      <dc:title>Matplotlib v3.3.2, https://matplotlib.org/</dc:title>
     </cc:Agent>
    </dc:creator>
   </cc:Work>
  </rdf:RDF>
 </metadata>
 <defs>
  <style type="text/css">*{stroke-linecap:butt;stroke-linejoin:round;}</style>
 </defs>
 <g id="figure_1">
  <g id="patch_1">
   <path d="M 0 310.658914 
L 240.944882 310.658914 
L 240.944882 0 
L 0 0 
z
" style="fill:#ffffff;"/>
  </g>
  <g id="axes_1">
   <g id="patch_2">
    <path d="M 33.732283 135.585357 
L 116.557087 135.585357 
L 116.557087 13.047674 
L 33.732283 13.047674 
z
" style="fill:none;"/>
   </g>
   <g id="PathCollection_1">
    <defs>
     <path d="M 0 1.581139 
C 0.419323 1.581139 0.821528 1.41454 1.118034 1.118034 
C 1.41454 0.821528 1.581139 0.419323 1.581139 -0 
C 1.581139 -0.419323 1.41454 -0.821528 1.118034 -1.118034 
C 0.821528 -1.41454 0.419323 -1.581139 0 -1.581139 
C -0.419323 -1.581139 -0.821528 -1.41454 -1.118034 -1.118034 
C -1.41454 -0.821528 -1.581139 -0.419323 -1.581139 0 
C -1.581139 0.419323 -1.41454 0.821528 -1.118034 1.118034 
C -0.821528 1.41454 -0.419323 1.581139 0 1.581139 
z
" id="C0_0_2d8712c75e"/>
    </defs>
    <g clip-path="url(#p21ce3212d6)">
     <use style="fill:#023eff;fill-opacity:0.75;" x="37.497047" xlink:href="#C0_0_2d8712c75e" y="132.265827"/>
    </g>
    <g clip-path="url(#p21ce3212d6)">
     <use style="fill:#023eff;fill-opacity:0.75;" x="52.556102" xlink:href="#C0_0_2d8712c75e" y="105.608775"/>
    </g>
    <g clip-path="url(#p21ce3212d6)">
     <use style="fill:#023eff;fill-opacity:0.75;" x="67.615157" xlink:href="#C0_0_2d8712c75e" y="88.929126"/>
    </g>
    <g clip-path="url(#p21ce3212d6)">
     <use style="fill:#023eff;fill-opacity:0.75;" x="82.674213" xlink:href="#C0_0_2d8712c75e" y="76.798427"/>
    </g>
    <g clip-path="url(#p21ce3212d6)">
     <use style="fill:#023eff;fill-opacity:0.75;" x="97.733268" xlink:href="#C0_0_2d8712c75e" y="67.822967"/>
    </g>
    <g clip-path="url(#p21ce3212d6)">
     <use style="fill:#023eff;fill-opacity:0.75;" x="112.792323" xlink:href="#C0_0_2d8712c75e" y="61.166338"/>
    </g>
   </g>
   <g id="PathCollection_2">
    <path clip-path="url(#p21ce3212d6)" d="M 37.497047 59.657522 
L 38.838688 57.421455 
L 37.497047 55.185387 
L 36.155406 57.421455 
z
" style="fill:#ff7c00;fill-opacity:0.75;"/>
    <path clip-path="url(#p21ce3212d6)" d="M 52.556102 46.667619 
L 53.897743 44.431551 
L 52.556102 42.195483 
L 51.214462 44.431551 
z
" style="fill:#ff7c00;fill-opacity:0.75;"/>
    <path clip-path="url(#p21ce3212d6)" d="M 67.615157 39.867652 
L 68.956798 37.631584 
L 67.615157 35.395516 
L 66.273517 37.631584 
z
" style="fill:#ff7c00;fill-opacity:0.75;"/>
    <path clip-path="url(#p21ce3212d6)" d="M 82.674213 35.470262 
L 84.015853 33.234194 
L 82.674213 30.998126 
L 81.332572 33.234194 
z
" style="fill:#ff7c00;fill-opacity:0.75;"/>
    <path clip-path="url(#p21ce3212d6)" d="M 97.733268 32.932677 
L 99.074909 30.696609 
L 97.733268 28.460541 
L 96.391627 30.696609 
z
" style="fill:#ff7c00;fill-opacity:0.75;"/>
    <path clip-path="url(#p21ce3212d6)" d="M 112.792323 30.957244 
L 114.133964 28.721176 
L 112.792323 26.485108 
L 111.450682 28.721176 
z
" style="fill:#ff7c00;fill-opacity:0.75;"/>
   </g>
   <g id="PathCollection_3">
    <path clip-path="url(#p21ce3212d6)" d="M 37.497047 108.922073 
L 39.078186 105.759796 
L 35.915908 105.759796 
z
" style="fill:#808080;fill-opacity:0.75;"/>
    <path clip-path="url(#p21ce3212d6)" d="M 52.556102 77.691806 
L 54.137241 74.529529 
L 50.974964 74.529529 
z
" style="fill:#808080;fill-opacity:0.75;"/>
    <path clip-path="url(#p21ce3212d6)" d="M 67.615157 61.597556 
L 69.196296 58.435278 
L 66.034019 58.435278 
z
" style="fill:#808080;fill-opacity:0.75;"/>
    <path clip-path="url(#p21ce3212d6)" d="M 82.674213 50.933239 
L 84.255351 47.770961 
L 81.093074 47.770961 
z
" style="fill:#808080;fill-opacity:0.75;"/>
    <path clip-path="url(#p21ce3212d6)" d="M 97.733268 43.906281 
L 99.314407 40.744004 
L 96.152129 40.744004 
z
" style="fill:#808080;fill-opacity:0.75;"/>
    <path clip-path="url(#p21ce3212d6)" d="M 112.792323 39.674025 
L 114.373462 36.511748 
L 111.211184 36.511748 
z
" style="fill:#808080;fill-opacity:0.75;"/>
   </g>
   <g id="PathCollection_4">
    <path clip-path="url(#p21ce3212d6)" d="M 35.915908 80.284068 
L 39.078186 81.865206 
L 39.078186 78.702929 
z
" style="fill:#e8000b;fill-opacity:0.75;"/>
    <path clip-path="url(#p21ce3212d6)" d="M 50.974964 59.842129 
L 54.137241 61.423268 
L 54.137241 58.26099 
z
" style="fill:#e8000b;fill-opacity:0.75;"/>
    <path clip-path="url(#p21ce3212d6)" d="M 66.034019 49.839128 
L 69.196296 51.420267 
L 69.196296 48.257989 
z
" style="fill:#e8000b;fill-opacity:0.75;"/>
    <path clip-path="url(#p21ce3212d6)" d="M 81.093074 43.055733 
L 84.255351 44.636872 
L 84.255351 41.474594 
z
" style="fill:#e8000b;fill-opacity:0.75;"/>
    <path clip-path="url(#p21ce3212d6)" d="M 96.152129 38.302658 
L 99.314407 39.883797 
L 99.314407 36.721519 
z
" style="fill:#e8000b;fill-opacity:0.75;"/>
    <path clip-path="url(#p21ce3212d6)" d="M 111.211184 35.262424 
L 114.373462 36.843563 
L 114.373462 33.681285 
z
" style="fill:#e8000b;fill-opacity:0.75;"/>
   </g>
   <g id="PathCollection_5">
    <path clip-path="url(#p21ce3212d6)" d="M 39.078186 83.897775 
L 35.915908 82.316636 
L 35.915908 85.478914 
z
" style="fill:#1ac938;fill-opacity:0.75;"/>
    <path clip-path="url(#p21ce3212d6)" d="M 54.137241 64.856768 
L 50.974964 63.275629 
L 50.974964 66.437907 
z
" style="fill:#1ac938;fill-opacity:0.75;"/>
    <path clip-path="url(#p21ce3212d6)" d="M 69.196296 55.262175 
L 66.034019 53.681036 
L 66.034019 56.843314 
z
" style="fill:#1ac938;fill-opacity:0.75;"/>
    <path clip-path="url(#p21ce3212d6)" d="M 84.255351 48.159206 
L 81.093074 46.578067 
L 81.093074 49.740344 
z
" style="fill:#1ac938;fill-opacity:0.75;"/>
    <path clip-path="url(#p21ce3212d6)" d="M 99.314407 43.304615 
L 96.152129 41.723477 
L 96.152129 44.885754 
z
" style="fill:#1ac938;fill-opacity:0.75;"/>
    <path clip-path="url(#p21ce3212d6)" d="M 114.373462 39.988494 
L 111.211184 38.407355 
L 111.211184 41.569633 
z
" style="fill:#1ac938;fill-opacity:0.75;"/>
   </g>
   <g id="matplotlib.axis_1">
    <g id="xtick_1">
     <g id="line2d_1">
      <defs>
       <path d="M 0 0 
L 0 3 
" id="m39c6946dd3" style="stroke:#252525;stroke-width:0.2;"/>
      </defs>
      <g>
       <use style="fill:#252525;stroke:#252525;stroke-width:0.2;" x="37.497047" xlink:href="#m39c6946dd3" y="135.585357"/>
      </g>
     </g>
     <g id="text_1">
      <!-- 200 -->
      <g style="fill:#252525;" transform="translate(31.770797 146.14442)scale(0.06 -0.06)">
       <defs>
        <path d="M 19.1875 8.296875 
L 53.609375 8.296875 
L 53.609375 0 
L 7.328125 0 
L 7.328125 8.296875 
Q 12.9375 14.109375 22.625 23.890625 
Q 32.328125 33.6875 34.8125 36.53125 
Q 39.546875 41.84375 41.421875 45.53125 
Q 43.3125 49.21875 43.3125 52.78125 
Q 43.3125 58.59375 39.234375 62.25 
Q 35.15625 65.921875 28.609375 65.921875 
Q 23.96875 65.921875 18.8125 64.3125 
Q 13.671875 62.703125 7.8125 59.421875 
L 7.8125 69.390625 
Q 13.765625 71.78125 18.9375 73 
Q 24.125 74.21875 28.421875 74.21875 
Q 39.75 74.21875 46.484375 68.546875 
Q 53.21875 62.890625 53.21875 53.421875 
Q 53.21875 48.921875 51.53125 44.890625 
Q 49.859375 40.875 45.40625 35.40625 
Q 44.1875 33.984375 37.640625 27.21875 
Q 31.109375 20.453125 19.1875 8.296875 
z
" id="DejaVuSans-50"/>
        <path d="M 31.78125 66.40625 
Q 24.171875 66.40625 20.328125 58.90625 
Q 16.5 51.421875 16.5 36.375 
Q 16.5 21.390625 20.328125 13.890625 
Q 24.171875 6.390625 31.78125 6.390625 
Q 39.453125 6.390625 43.28125 13.890625 
Q 47.125 21.390625 47.125 36.375 
Q 47.125 51.421875 43.28125 58.90625 
Q 39.453125 66.40625 31.78125 66.40625 
z
M 31.78125 74.21875 
Q 44.046875 74.21875 50.515625 64.515625 
Q 56.984375 54.828125 56.984375 36.375 
Q 56.984375 17.96875 50.515625 8.265625 
Q 44.046875 -1.421875 31.78125 -1.421875 
Q 19.53125 -1.421875 13.0625 8.265625 
Q 6.59375 17.96875 6.59375 36.375 
Q 6.59375 54.828125 13.0625 64.515625 
Q 19.53125 74.21875 31.78125 74.21875 
z
" id="DejaVuSans-48"/>
       </defs>
       <use xlink:href="#DejaVuSans-50"/>
       <use x="63.623047" xlink:href="#DejaVuSans-48"/>
       <use x="127.246094" xlink:href="#DejaVuSans-48"/>
      </g>
     </g>
    </g>
    <g id="xtick_2">
     <g id="line2d_2">
      <g>
       <use style="fill:#252525;stroke:#252525;stroke-width:0.2;" x="67.615157" xlink:href="#m39c6946dd3" y="135.585357"/>
      </g>
     </g>
     <g id="text_2">
      <!-- 400 -->
      <g style="fill:#252525;" transform="translate(61.888907 146.14442)scale(0.06 -0.06)">
       <defs>
        <path d="M 37.796875 64.3125 
L 12.890625 25.390625 
L 37.796875 25.390625 
z
M 35.203125 72.90625 
L 47.609375 72.90625 
L 47.609375 25.390625 
L 58.015625 25.390625 
L 58.015625 17.1875 
L 47.609375 17.1875 
L 47.609375 0 
L 37.796875 0 
L 37.796875 17.1875 
L 4.890625 17.1875 
L 4.890625 26.703125 
z
" id="DejaVuSans-52"/>
       </defs>
       <use xlink:href="#DejaVuSans-52"/>
       <use x="63.623047" xlink:href="#DejaVuSans-48"/>
       <use x="127.246094" xlink:href="#DejaVuSans-48"/>
      </g>
     </g>
    </g>
    <g id="xtick_3">
     <g id="line2d_3">
      <g>
       <use style="fill:#252525;stroke:#252525;stroke-width:0.2;" x="97.733268" xlink:href="#m39c6946dd3" y="135.585357"/>
      </g>
     </g>
     <g id="text_3">
      <!-- 600 -->
      <g style="fill:#252525;" transform="translate(92.007018 146.14442)scale(0.06 -0.06)">
       <defs>
        <path d="M 33.015625 40.375 
Q 26.375 40.375 22.484375 35.828125 
Q 18.609375 31.296875 18.609375 23.390625 
Q 18.609375 15.53125 22.484375 10.953125 
Q 26.375 6.390625 33.015625 6.390625 
Q 39.65625 6.390625 43.53125 10.953125 
Q 47.40625 15.53125 47.40625 23.390625 
Q 47.40625 31.296875 43.53125 35.828125 
Q 39.65625 40.375 33.015625 40.375 
z
M 52.59375 71.296875 
L 52.59375 62.3125 
Q 48.875 64.0625 45.09375 64.984375 
Q 41.3125 65.921875 37.59375 65.921875 
Q 27.828125 65.921875 22.671875 59.328125 
Q 17.53125 52.734375 16.796875 39.40625 
Q 19.671875 43.65625 24.015625 45.921875 
Q 28.375 48.1875 33.59375 48.1875 
Q 44.578125 48.1875 50.953125 41.515625 
Q 57.328125 34.859375 57.328125 23.390625 
Q 57.328125 12.15625 50.6875 5.359375 
Q 44.046875 -1.421875 33.015625 -1.421875 
Q 20.359375 -1.421875 13.671875 8.265625 
Q 6.984375 17.96875 6.984375 36.375 
Q 6.984375 53.65625 15.1875 63.9375 
Q 23.390625 74.21875 37.203125 74.21875 
Q 40.921875 74.21875 44.703125 73.484375 
Q 48.484375 72.75 52.59375 71.296875 
z
" id="DejaVuSans-54"/>
       </defs>
       <use xlink:href="#DejaVuSans-54"/>
       <use x="63.623047" xlink:href="#DejaVuSans-48"/>
       <use x="127.246094" xlink:href="#DejaVuSans-48"/>
      </g>
     </g>
    </g>
   </g>
   <g id="matplotlib.axis_2">
    <g id="ytick_1">
     <g id="line2d_4">
      <defs>
       <path d="M 0 0 
L -3 0 
" id="me854ead445" style="stroke:#252525;stroke-width:0.2;"/>
      </defs>
      <g>
       <use style="fill:#252525;stroke:#252525;stroke-width:0.2;" x="33.732283" xlink:href="#me854ead445" y="132.667793"/>
      </g>
     </g>
     <g id="text_4">
      <!-- 0.6 -->
      <g style="fill:#252525;" transform="translate(18.190408 134.947325)scale(0.06 -0.06)">
       <defs>
        <path d="M 10.6875 12.40625 
L 21 12.40625 
L 21 0 
L 10.6875 0 
z
" id="DejaVuSans-46"/>
       </defs>
       <use xlink:href="#DejaVuSans-48"/>
       <use x="63.623047" xlink:href="#DejaVuSans-46"/>
       <use x="95.410156" xlink:href="#DejaVuSans-54"/>
      </g>
     </g>
    </g>
    <g id="ytick_2">
     <g id="line2d_5">
      <g>
       <use style="fill:#252525;stroke:#252525;stroke-width:0.2;" x="33.732283" xlink:href="#me854ead445" y="103.492155"/>
      </g>
     </g>
     <g id="text_5">
      <!-- 0.7 -->
      <g style="fill:#252525;" transform="translate(18.190408 105.771686)scale(0.06 -0.06)">
       <defs>
        <path d="M 8.203125 72.90625 
L 55.078125 72.90625 
L 55.078125 68.703125 
L 28.609375 0 
L 18.3125 0 
L 43.21875 64.59375 
L 8.203125 64.59375 
z
" id="DejaVuSans-55"/>
       </defs>
       <use xlink:href="#DejaVuSans-48"/>
       <use x="63.623047" xlink:href="#DejaVuSans-46"/>
       <use x="95.410156" xlink:href="#DejaVuSans-55"/>
      </g>
     </g>
    </g>
    <g id="ytick_3">
     <g id="line2d_6">
      <g>
       <use style="fill:#252525;stroke:#252525;stroke-width:0.2;" x="33.732283" xlink:href="#me854ead445" y="74.316516"/>
      </g>
     </g>
     <g id="text_6">
      <!-- 0.8 -->
      <g style="fill:#252525;" transform="translate(18.190408 76.596047)scale(0.06 -0.06)">
       <defs>
        <path d="M 31.78125 34.625 
Q 24.75 34.625 20.71875 30.859375 
Q 16.703125 27.09375 16.703125 20.515625 
Q 16.703125 13.921875 20.71875 10.15625 
Q 24.75 6.390625 31.78125 6.390625 
Q 38.8125 6.390625 42.859375 10.171875 
Q 46.921875 13.96875 46.921875 20.515625 
Q 46.921875 27.09375 42.890625 30.859375 
Q 38.875 34.625 31.78125 34.625 
z
M 21.921875 38.8125 
Q 15.578125 40.375 12.03125 44.71875 
Q 8.5 49.078125 8.5 55.328125 
Q 8.5 64.0625 14.71875 69.140625 
Q 20.953125 74.21875 31.78125 74.21875 
Q 42.671875 74.21875 48.875 69.140625 
Q 55.078125 64.0625 55.078125 55.328125 
Q 55.078125 49.078125 51.53125 44.71875 
Q 48 40.375 41.703125 38.8125 
Q 48.828125 37.15625 52.796875 32.3125 
Q 56.78125 27.484375 56.78125 20.515625 
Q 56.78125 9.90625 50.3125 4.234375 
Q 43.84375 -1.421875 31.78125 -1.421875 
Q 19.734375 -1.421875 13.25 4.234375 
Q 6.78125 9.90625 6.78125 20.515625 
Q 6.78125 27.484375 10.78125 32.3125 
Q 14.796875 37.15625 21.921875 38.8125 
z
M 18.3125 54.390625 
Q 18.3125 48.734375 21.84375 45.5625 
Q 25.390625 42.390625 31.78125 42.390625 
Q 38.140625 42.390625 41.71875 45.5625 
Q 45.3125 48.734375 45.3125 54.390625 
Q 45.3125 60.0625 41.71875 63.234375 
Q 38.140625 66.40625 31.78125 66.40625 
Q 25.390625 66.40625 21.84375 63.234375 
Q 18.3125 60.0625 18.3125 54.390625 
z
" id="DejaVuSans-56"/>
       </defs>
       <use xlink:href="#DejaVuSans-48"/>
       <use x="63.623047" xlink:href="#DejaVuSans-46"/>
       <use x="95.410156" xlink:href="#DejaVuSans-56"/>
      </g>
     </g>
    </g>
    <g id="ytick_4">
     <g id="line2d_7">
      <g>
       <use style="fill:#252525;stroke:#252525;stroke-width:0.2;" x="33.732283" xlink:href="#me854ead445" y="45.140877"/>
      </g>
     </g>
     <g id="text_7">
      <!-- 0.9 -->
      <g style="fill:#252525;" transform="translate(18.190408 47.420408)scale(0.06 -0.06)">
       <defs>
        <path d="M 10.984375 1.515625 
L 10.984375 10.5 
Q 14.703125 8.734375 18.5 7.8125 
Q 22.3125 6.890625 25.984375 6.890625 
Q 35.75 6.890625 40.890625 13.453125 
Q 46.046875 20.015625 46.78125 33.40625 
Q 43.953125 29.203125 39.59375 26.953125 
Q 35.25 24.703125 29.984375 24.703125 
Q 19.046875 24.703125 12.671875 31.3125 
Q 6.296875 37.9375 6.296875 49.421875 
Q 6.296875 60.640625 12.9375 67.421875 
Q 19.578125 74.21875 30.609375 74.21875 
Q 43.265625 74.21875 49.921875 64.515625 
Q 56.59375 54.828125 56.59375 36.375 
Q 56.59375 19.140625 48.40625 8.859375 
Q 40.234375 -1.421875 26.421875 -1.421875 
Q 22.703125 -1.421875 18.890625 -0.6875 
Q 15.09375 0.046875 10.984375 1.515625 
z
M 30.609375 32.421875 
Q 37.25 32.421875 41.125 36.953125 
Q 45.015625 41.5 45.015625 49.421875 
Q 45.015625 57.28125 41.125 61.84375 
Q 37.25 66.40625 30.609375 66.40625 
Q 23.96875 66.40625 20.09375 61.84375 
Q 16.21875 57.28125 16.21875 49.421875 
Q 16.21875 41.5 20.09375 36.953125 
Q 23.96875 32.421875 30.609375 32.421875 
z
" id="DejaVuSans-57"/>
       </defs>
       <use xlink:href="#DejaVuSans-48"/>
       <use x="63.623047" xlink:href="#DejaVuSans-46"/>
       <use x="95.410156" xlink:href="#DejaVuSans-57"/>
      </g>
     </g>
    </g>
    <g id="ytick_5">
     <g id="line2d_8">
      <g>
       <use style="fill:#252525;stroke:#252525;stroke-width:0.2;" x="33.732283" xlink:href="#me854ead445" y="15.965238"/>
      </g>
     </g>
     <g id="text_8">
      <!-- 1.0 -->
      <g style="fill:#252525;" transform="translate(18.190408 18.24477)scale(0.06 -0.06)">
       <defs>
        <path d="M 12.40625 8.296875 
L 28.515625 8.296875 
L 28.515625 63.921875 
L 10.984375 60.40625 
L 10.984375 69.390625 
L 28.421875 72.90625 
L 38.28125 72.90625 
L 38.28125 8.296875 
L 54.390625 8.296875 
L 54.390625 0 
L 12.40625 0 
z
" id="DejaVuSans-49"/>
       </defs>
       <use xlink:href="#DejaVuSans-49"/>
       <use x="63.623047" xlink:href="#DejaVuSans-46"/>
       <use x="95.410156" xlink:href="#DejaVuSans-48"/>
      </g>
     </g>
    </g>
    <g id="text_9">
     <!-- Rank correlation between true and inferred -->
     <g transform="translate(6.150596 139.181203)rotate(-90)scale(0.06 -0.06)">
      <defs>
       <path d="M 44.390625 34.1875 
Q 47.5625 33.109375 50.5625 29.59375 
Q 53.5625 26.078125 56.59375 19.921875 
L 66.609375 0 
L 56 0 
L 46.6875 18.703125 
Q 43.0625 26.03125 39.671875 28.421875 
Q 36.28125 30.8125 30.421875 30.8125 
L 19.671875 30.8125 
L 19.671875 0 
L 9.8125 0 
L 9.8125 72.90625 
L 32.078125 72.90625 
Q 44.578125 72.90625 50.734375 67.671875 
Q 56.890625 62.453125 56.890625 51.90625 
Q 56.890625 45.015625 53.6875 40.46875 
Q 50.484375 35.9375 44.390625 34.1875 
z
M 19.671875 64.796875 
L 19.671875 38.921875 
L 32.078125 38.921875 
Q 39.203125 38.921875 42.84375 42.21875 
Q 46.484375 45.515625 46.484375 51.90625 
Q 46.484375 58.296875 42.84375 61.546875 
Q 39.203125 64.796875 32.078125 64.796875 
z
" id="DejaVuSans-82"/>
       <path d="M 34.28125 27.484375 
Q 23.390625 27.484375 19.1875 25 
Q 14.984375 22.515625 14.984375 16.5 
Q 14.984375 11.71875 18.140625 8.90625 
Q 21.296875 6.109375 26.703125 6.109375 
Q 34.1875 6.109375 38.703125 11.40625 
Q 43.21875 16.703125 43.21875 25.484375 
L 43.21875 27.484375 
z
M 52.203125 31.203125 
L 52.203125 0 
L 43.21875 0 
L 43.21875 8.296875 
Q 40.140625 3.328125 35.546875 0.953125 
Q 30.953125 -1.421875 24.3125 -1.421875 
Q 15.921875 -1.421875 10.953125 3.296875 
Q 6 8.015625 6 15.921875 
Q 6 25.140625 12.171875 29.828125 
Q 18.359375 34.515625 30.609375 34.515625 
L 43.21875 34.515625 
L 43.21875 35.40625 
Q 43.21875 41.609375 39.140625 45 
Q 35.0625 48.390625 27.6875 48.390625 
Q 23 48.390625 18.546875 47.265625 
Q 14.109375 46.140625 10.015625 43.890625 
L 10.015625 52.203125 
Q 14.9375 54.109375 19.578125 55.046875 
Q 24.21875 56 28.609375 56 
Q 40.484375 56 46.34375 49.84375 
Q 52.203125 43.703125 52.203125 31.203125 
z
" id="DejaVuSans-97"/>
       <path d="M 54.890625 33.015625 
L 54.890625 0 
L 45.90625 0 
L 45.90625 32.71875 
Q 45.90625 40.484375 42.875 44.328125 
Q 39.84375 48.1875 33.796875 48.1875 
Q 26.515625 48.1875 22.3125 43.546875 
Q 18.109375 38.921875 18.109375 30.90625 
L 18.109375 0 
L 9.078125 0 
L 9.078125 54.6875 
L 18.109375 54.6875 
L 18.109375 46.1875 
Q 21.34375 51.125 25.703125 53.5625 
Q 30.078125 56 35.796875 56 
Q 45.21875 56 50.046875 50.171875 
Q 54.890625 44.34375 54.890625 33.015625 
z
" id="DejaVuSans-110"/>
       <path d="M 9.078125 75.984375 
L 18.109375 75.984375 
L 18.109375 31.109375 
L 44.921875 54.6875 
L 56.390625 54.6875 
L 27.390625 29.109375 
L 57.625 0 
L 45.90625 0 
L 18.109375 26.703125 
L 18.109375 0 
L 9.078125 0 
z
" id="DejaVuSans-107"/>
       <path id="DejaVuSans-32"/>
       <path d="M 48.78125 52.59375 
L 48.78125 44.1875 
Q 44.96875 46.296875 41.140625 47.34375 
Q 37.3125 48.390625 33.40625 48.390625 
Q 24.65625 48.390625 19.8125 42.84375 
Q 14.984375 37.3125 14.984375 27.296875 
Q 14.984375 17.28125 19.8125 11.734375 
Q 24.65625 6.203125 33.40625 6.203125 
Q 37.3125 6.203125 41.140625 7.25 
Q 44.96875 8.296875 48.78125 10.40625 
L 48.78125 2.09375 
Q 45.015625 0.34375 40.984375 -0.53125 
Q 36.96875 -1.421875 32.421875 -1.421875 
Q 20.0625 -1.421875 12.78125 6.34375 
Q 5.515625 14.109375 5.515625 27.296875 
Q 5.515625 40.671875 12.859375 48.328125 
Q 20.21875 56 33.015625 56 
Q 37.15625 56 41.109375 55.140625 
Q 45.0625 54.296875 48.78125 52.59375 
z
" id="DejaVuSans-99"/>
       <path d="M 30.609375 48.390625 
Q 23.390625 48.390625 19.1875 42.75 
Q 14.984375 37.109375 14.984375 27.296875 
Q 14.984375 17.484375 19.15625 11.84375 
Q 23.34375 6.203125 30.609375 6.203125 
Q 37.796875 6.203125 41.984375 11.859375 
Q 46.1875 17.53125 46.1875 27.296875 
Q 46.1875 37.015625 41.984375 42.703125 
Q 37.796875 48.390625 30.609375 48.390625 
z
M 30.609375 56 
Q 42.328125 56 49.015625 48.375 
Q 55.71875 40.765625 55.71875 27.296875 
Q 55.71875 13.875 49.015625 6.21875 
Q 42.328125 -1.421875 30.609375 -1.421875 
Q 18.84375 -1.421875 12.171875 6.21875 
Q 5.515625 13.875 5.515625 27.296875 
Q 5.515625 40.765625 12.171875 48.375 
Q 18.84375 56 30.609375 56 
z
" id="DejaVuSans-111"/>
       <path d="M 41.109375 46.296875 
Q 39.59375 47.171875 37.8125 47.578125 
Q 36.03125 48 33.890625 48 
Q 26.265625 48 22.1875 43.046875 
Q 18.109375 38.09375 18.109375 28.8125 
L 18.109375 0 
L 9.078125 0 
L 9.078125 54.6875 
L 18.109375 54.6875 
L 18.109375 46.1875 
Q 20.953125 51.171875 25.484375 53.578125 
Q 30.03125 56 36.53125 56 
Q 37.453125 56 38.578125 55.875 
Q 39.703125 55.765625 41.0625 55.515625 
z
" id="DejaVuSans-114"/>
       <path d="M 56.203125 29.59375 
L 56.203125 25.203125 
L 14.890625 25.203125 
Q 15.484375 15.921875 20.484375 11.0625 
Q 25.484375 6.203125 34.421875 6.203125 
Q 39.59375 6.203125 44.453125 7.46875 
Q 49.3125 8.734375 54.109375 11.28125 
L 54.109375 2.78125 
Q 49.265625 0.734375 44.1875 -0.34375 
Q 39.109375 -1.421875 33.890625 -1.421875 
Q 20.796875 -1.421875 13.15625 6.1875 
Q 5.515625 13.8125 5.515625 26.8125 
Q 5.515625 40.234375 12.765625 48.109375 
Q 20.015625 56 32.328125 56 
Q 43.359375 56 49.78125 48.890625 
Q 56.203125 41.796875 56.203125 29.59375 
z
M 47.21875 32.234375 
Q 47.125 39.59375 43.09375 43.984375 
Q 39.0625 48.390625 32.421875 48.390625 
Q 24.90625 48.390625 20.390625 44.140625 
Q 15.875 39.890625 15.1875 32.171875 
z
" id="DejaVuSans-101"/>
       <path d="M 9.421875 75.984375 
L 18.40625 75.984375 
L 18.40625 0 
L 9.421875 0 
z
" id="DejaVuSans-108"/>
       <path d="M 18.3125 70.21875 
L 18.3125 54.6875 
L 36.8125 54.6875 
L 36.8125 47.703125 
L 18.3125 47.703125 
L 18.3125 18.015625 
Q 18.3125 11.328125 20.140625 9.421875 
Q 21.96875 7.515625 27.59375 7.515625 
L 36.8125 7.515625 
L 36.8125 0 
L 27.59375 0 
Q 17.1875 0 13.234375 3.875 
Q 9.28125 7.765625 9.28125 18.015625 
L 9.28125 47.703125 
L 2.6875 47.703125 
L 2.6875 54.6875 
L 9.28125 54.6875 
L 9.28125 70.21875 
z
" id="DejaVuSans-116"/>
       <path d="M 9.421875 54.6875 
L 18.40625 54.6875 
L 18.40625 0 
L 9.421875 0 
z
M 9.421875 75.984375 
L 18.40625 75.984375 
L 18.40625 64.59375 
L 9.421875 64.59375 
z
" id="DejaVuSans-105"/>
       <path d="M 48.6875 27.296875 
Q 48.6875 37.203125 44.609375 42.84375 
Q 40.53125 48.484375 33.40625 48.484375 
Q 26.265625 48.484375 22.1875 42.84375 
Q 18.109375 37.203125 18.109375 27.296875 
Q 18.109375 17.390625 22.1875 11.75 
Q 26.265625 6.109375 33.40625 6.109375 
Q 40.53125 6.109375 44.609375 11.75 
Q 48.6875 17.390625 48.6875 27.296875 
z
M 18.109375 46.390625 
Q 20.953125 51.265625 25.265625 53.625 
Q 29.59375 56 35.59375 56 
Q 45.5625 56 51.78125 48.09375 
Q 58.015625 40.1875 58.015625 27.296875 
Q 58.015625 14.40625 51.78125 6.484375 
Q 45.5625 -1.421875 35.59375 -1.421875 
Q 29.59375 -1.421875 25.265625 0.953125 
Q 20.953125 3.328125 18.109375 8.203125 
L 18.109375 0 
L 9.078125 0 
L 9.078125 75.984375 
L 18.109375 75.984375 
z
" id="DejaVuSans-98"/>
       <path d="M 4.203125 54.6875 
L 13.1875 54.6875 
L 24.421875 12.015625 
L 35.59375 54.6875 
L 46.1875 54.6875 
L 57.421875 12.015625 
L 68.609375 54.6875 
L 77.59375 54.6875 
L 63.28125 0 
L 52.6875 0 
L 40.921875 44.828125 
L 29.109375 0 
L 18.5 0 
z
" id="DejaVuSans-119"/>
       <path d="M 8.5 21.578125 
L 8.5 54.6875 
L 17.484375 54.6875 
L 17.484375 21.921875 
Q 17.484375 14.15625 20.5 10.265625 
Q 23.53125 6.390625 29.59375 6.390625 
Q 36.859375 6.390625 41.078125 11.03125 
Q 45.3125 15.671875 45.3125 23.6875 
L 45.3125 54.6875 
L 54.296875 54.6875 
L 54.296875 0 
L 45.3125 0 
L 45.3125 8.40625 
Q 42.046875 3.421875 37.71875 1 
Q 33.40625 -1.421875 27.6875 -1.421875 
Q 18.265625 -1.421875 13.375 4.4375 
Q 8.5 10.296875 8.5 21.578125 
z
M 31.109375 56 
z
" id="DejaVuSans-117"/>
       <path d="M 45.40625 46.390625 
L 45.40625 75.984375 
L 54.390625 75.984375 
L 54.390625 0 
L 45.40625 0 
L 45.40625 8.203125 
Q 42.578125 3.328125 38.25 0.953125 
Q 33.9375 -1.421875 27.875 -1.421875 
Q 17.96875 -1.421875 11.734375 6.484375 
Q 5.515625 14.40625 5.515625 27.296875 
Q 5.515625 40.1875 11.734375 48.09375 
Q 17.96875 56 27.875 56 
Q 33.9375 56 38.25 53.625 
Q 42.578125 51.265625 45.40625 46.390625 
z
M 14.796875 27.296875 
Q 14.796875 17.390625 18.875 11.75 
Q 22.953125 6.109375 30.078125 6.109375 
Q 37.203125 6.109375 41.296875 11.75 
Q 45.40625 17.390625 45.40625 27.296875 
Q 45.40625 37.203125 41.296875 42.84375 
Q 37.203125 48.484375 30.078125 48.484375 
Q 22.953125 48.484375 18.875 42.84375 
Q 14.796875 37.203125 14.796875 27.296875 
z
" id="DejaVuSans-100"/>
       <path d="M 37.109375 75.984375 
L 37.109375 68.5 
L 28.515625 68.5 
Q 23.6875 68.5 21.796875 66.546875 
Q 19.921875 64.59375 19.921875 59.515625 
L 19.921875 54.6875 
L 34.71875 54.6875 
L 34.71875 47.703125 
L 19.921875 47.703125 
L 19.921875 0 
L 10.890625 0 
L 10.890625 47.703125 
L 2.296875 47.703125 
L 2.296875 54.6875 
L 10.890625 54.6875 
L 10.890625 58.5 
Q 10.890625 67.625 15.140625 71.796875 
Q 19.390625 75.984375 28.609375 75.984375 
z
" id="DejaVuSans-102"/>
      </defs>
      <use xlink:href="#DejaVuSans-82"/>
      <use x="67.232422" xlink:href="#DejaVuSans-97"/>
      <use x="128.511719" xlink:href="#DejaVuSans-110"/>
      <use x="191.890625" xlink:href="#DejaVuSans-107"/>
      <use x="249.800781" xlink:href="#DejaVuSans-32"/>
      <use x="281.587891" xlink:href="#DejaVuSans-99"/>
      <use x="336.568359" xlink:href="#DejaVuSans-111"/>
      <use x="397.75" xlink:href="#DejaVuSans-114"/>
      <use x="437.113281" xlink:href="#DejaVuSans-114"/>
      <use x="475.976562" xlink:href="#DejaVuSans-101"/>
      <use x="537.5" xlink:href="#DejaVuSans-108"/>
      <use x="565.283203" xlink:href="#DejaVuSans-97"/>
      <use x="626.5625" xlink:href="#DejaVuSans-116"/>
      <use x="665.771484" xlink:href="#DejaVuSans-105"/>
      <use x="693.554688" xlink:href="#DejaVuSans-111"/>
      <use x="754.736328" xlink:href="#DejaVuSans-110"/>
      <use x="818.115234" xlink:href="#DejaVuSans-32"/>
      <use x="849.902344" xlink:href="#DejaVuSans-98"/>
      <use x="913.378906" xlink:href="#DejaVuSans-101"/>
      <use x="974.902344" xlink:href="#DejaVuSans-116"/>
      <use x="1014.111328" xlink:href="#DejaVuSans-119"/>
      <use x="1095.898438" xlink:href="#DejaVuSans-101"/>
      <use x="1157.421875" xlink:href="#DejaVuSans-101"/>
      <use x="1218.945312" xlink:href="#DejaVuSans-110"/>
      <use x="1282.324219" xlink:href="#DejaVuSans-32"/>
      <use x="1314.111328" xlink:href="#DejaVuSans-116"/>
      <use x="1353.320312" xlink:href="#DejaVuSans-114"/>
      <use x="1394.433594" xlink:href="#DejaVuSans-117"/>
      <use x="1457.8125" xlink:href="#DejaVuSans-101"/>
      <use x="1519.335938" xlink:href="#DejaVuSans-32"/>
      <use x="1551.123047" xlink:href="#DejaVuSans-97"/>
      <use x="1612.402344" xlink:href="#DejaVuSans-110"/>
      <use x="1675.78125" xlink:href="#DejaVuSans-100"/>
      <use x="1739.257812" xlink:href="#DejaVuSans-32"/>
      <use x="1771.044922" xlink:href="#DejaVuSans-105"/>
      <use x="1798.828125" xlink:href="#DejaVuSans-110"/>
      <use x="1862.207031" xlink:href="#DejaVuSans-102"/>
      <use x="1897.412109" xlink:href="#DejaVuSans-101"/>
      <use x="1958.935547" xlink:href="#DejaVuSans-114"/>
      <use x="1998.298828" xlink:href="#DejaVuSans-114"/>
      <use x="2037.162109" xlink:href="#DejaVuSans-101"/>
      <use x="2098.685547" xlink:href="#DejaVuSans-100"/>
     </g>
     <!-- selection coefficients (Spearman’s $\it{\rho}$) -->
     <g transform="translate(12.870408 129.756516)rotate(-90)scale(0.06 -0.06)">
      <defs>
       <path d="M 44.28125 53.078125 
L 44.28125 44.578125 
Q 40.484375 46.53125 36.375 47.5 
Q 32.28125 48.484375 27.875 48.484375 
Q 21.1875 48.484375 17.84375 46.4375 
Q 14.5 44.390625 14.5 40.28125 
Q 14.5 37.15625 16.890625 35.375 
Q 19.28125 33.59375 26.515625 31.984375 
L 29.59375 31.296875 
Q 39.15625 29.25 43.1875 25.515625 
Q 47.21875 21.78125 47.21875 15.09375 
Q 47.21875 7.46875 41.1875 3.015625 
Q 35.15625 -1.421875 24.609375 -1.421875 
Q 20.21875 -1.421875 15.453125 -0.5625 
Q 10.6875 0.296875 5.421875 2 
L 5.421875 11.28125 
Q 10.40625 8.6875 15.234375 7.390625 
Q 20.0625 6.109375 24.8125 6.109375 
Q 31.15625 6.109375 34.5625 8.28125 
Q 37.984375 10.453125 37.984375 14.40625 
Q 37.984375 18.0625 35.515625 20.015625 
Q 33.0625 21.96875 24.703125 23.78125 
L 21.578125 24.515625 
Q 13.234375 26.265625 9.515625 29.90625 
Q 5.8125 33.546875 5.8125 39.890625 
Q 5.8125 47.609375 11.28125 51.796875 
Q 16.75 56 26.8125 56 
Q 31.78125 56 36.171875 55.265625 
Q 40.578125 54.546875 44.28125 53.078125 
z
" id="DejaVuSans-115"/>
       <path d="M 31 75.875 
Q 24.46875 64.65625 21.28125 53.65625 
Q 18.109375 42.671875 18.109375 31.390625 
Q 18.109375 20.125 21.3125 9.0625 
Q 24.515625 -2 31 -13.1875 
L 23.1875 -13.1875 
Q 15.875 -1.703125 12.234375 9.375 
Q 8.59375 20.453125 8.59375 31.390625 
Q 8.59375 42.28125 12.203125 53.3125 
Q 15.828125 64.359375 23.1875 75.875 
z
" id="DejaVuSans-40"/>
       <path d="M 53.515625 70.515625 
L 53.515625 60.890625 
Q 47.90625 63.578125 42.921875 64.890625 
Q 37.9375 66.21875 33.296875 66.21875 
Q 25.25 66.21875 20.875 63.09375 
Q 16.5 59.96875 16.5 54.203125 
Q 16.5 49.359375 19.40625 46.890625 
Q 22.3125 44.4375 30.421875 42.921875 
L 36.375 41.703125 
Q 47.40625 39.59375 52.65625 34.296875 
Q 57.90625 29 57.90625 20.125 
Q 57.90625 9.515625 50.796875 4.046875 
Q 43.703125 -1.421875 29.984375 -1.421875 
Q 24.8125 -1.421875 18.96875 -0.25 
Q 13.140625 0.921875 6.890625 3.21875 
L 6.890625 13.375 
Q 12.890625 10.015625 18.65625 8.296875 
Q 24.421875 6.59375 29.984375 6.59375 
Q 38.421875 6.59375 43.015625 9.90625 
Q 47.609375 13.234375 47.609375 19.390625 
Q 47.609375 24.75 44.3125 27.78125 
Q 41.015625 30.8125 33.5 32.328125 
L 27.484375 33.5 
Q 16.453125 35.6875 11.515625 40.375 
Q 6.59375 45.0625 6.59375 53.421875 
Q 6.59375 63.09375 13.40625 68.65625 
Q 20.21875 74.21875 32.171875 74.21875 
Q 37.3125 74.21875 42.625 73.28125 
Q 47.953125 72.359375 53.515625 70.515625 
z
" id="DejaVuSans-83"/>
       <path d="M 18.109375 8.203125 
L 18.109375 -20.796875 
L 9.078125 -20.796875 
L 9.078125 54.6875 
L 18.109375 54.6875 
L 18.109375 46.390625 
Q 20.953125 51.265625 25.265625 53.625 
Q 29.59375 56 35.59375 56 
Q 45.5625 56 51.78125 48.09375 
Q 58.015625 40.1875 58.015625 27.296875 
Q 58.015625 14.40625 51.78125 6.484375 
Q 45.5625 -1.421875 35.59375 -1.421875 
Q 29.59375 -1.421875 25.265625 0.953125 
Q 20.953125 3.328125 18.109375 8.203125 
z
M 48.6875 27.296875 
Q 48.6875 37.203125 44.609375 42.84375 
Q 40.53125 48.484375 33.40625 48.484375 
Q 26.265625 48.484375 22.1875 42.84375 
Q 18.109375 37.203125 18.109375 27.296875 
Q 18.109375 17.390625 22.1875 11.75 
Q 26.265625 6.109375 33.40625 6.109375 
Q 40.53125 6.109375 44.609375 11.75 
Q 48.6875 17.390625 48.6875 27.296875 
z
" id="DejaVuSans-112"/>
       <path d="M 52 44.1875 
Q 55.375 50.25 60.0625 53.125 
Q 64.75 56 71.09375 56 
Q 79.640625 56 84.28125 50.015625 
Q 88.921875 44.046875 88.921875 33.015625 
L 88.921875 0 
L 79.890625 0 
L 79.890625 32.71875 
Q 79.890625 40.578125 77.09375 44.375 
Q 74.3125 48.1875 68.609375 48.1875 
Q 61.625 48.1875 57.5625 43.546875 
Q 53.515625 38.921875 53.515625 30.90625 
L 53.515625 0 
L 44.484375 0 
L 44.484375 32.71875 
Q 44.484375 40.625 41.703125 44.40625 
Q 38.921875 48.1875 33.109375 48.1875 
Q 26.21875 48.1875 22.15625 43.53125 
Q 18.109375 38.875 18.109375 30.90625 
L 18.109375 0 
L 9.078125 0 
L 9.078125 54.6875 
L 18.109375 54.6875 
L 18.109375 46.1875 
Q 21.1875 51.21875 25.484375 53.609375 
Q 29.78125 56 35.6875 56 
Q 41.65625 56 45.828125 52.96875 
Q 50 49.953125 52 44.1875 
z
" id="DejaVuSans-109"/>
       <path d="M 12.703125 72.90625 
L 23 72.90625 
L 23 65.484375 
L 14.984375 49.90625 
L 8.6875 49.90625 
L 12.703125 65.484375 
z
" id="DejaVuSans-8217"/>
       <path d="M 0.59375 -13.09375 
L 6.796875 11.796875 
Q 9 20.90625 11.296875 26.703125 
Q 13.59375 32.5 17.59375 37.203125 
Q 25.296875 46.203125 36 46.203125 
Q 42.59375 46.203125 46.796875 41.703125 
Q 51 37.203125 51 30.203125 
Q 51 18.296875 41.703125 8.59375 
Q 32.40625 -1.09375 22.203125 -1.09375 
Q 16.59375 -1.09375 12.40625 2.5 
L 8.59375 -12.703125 
Q 7.203125 -18.296875 4.703125 -21.59375 
L -3.296875 -21.59375 
Q -0.5 -17.5 0.59375 -13.09375 
z
M 42.59375 28.09375 
Q 42.59375 33.09375 39.890625 36.09375 
Q 37.203125 39.09375 32.796875 39.09375 
Q 27.703125 39.09375 23.40625 34 
Q 20.796875 31 19 26.453125 
Q 17.203125 21.90625 14.796875 12.203125 
Q 17.09375 6 23.5 6 
Q 31.203125 6 36.890625 12.796875 
Q 42.59375 19.59375 42.59375 28.09375 
z
" id="STIXNonUnicode-Italic-57832"/>
       <path d="M 8.015625 75.875 
L 15.828125 75.875 
Q 23.140625 64.359375 26.78125 53.3125 
Q 30.421875 42.28125 30.421875 31.390625 
Q 30.421875 20.453125 26.78125 9.375 
Q 23.140625 -1.703125 15.828125 -13.1875 
L 8.015625 -13.1875 
Q 14.5 -2 17.703125 9.0625 
Q 20.90625 20.125 20.90625 31.390625 
Q 20.90625 42.671875 17.703125 53.65625 
Q 14.5 64.65625 8.015625 75.875 
z
" id="DejaVuSans-41"/>
      </defs>
      <use transform="translate(0 0.015625)" xlink:href="#DejaVuSans-115"/>
      <use transform="translate(52.099609 0.015625)" xlink:href="#DejaVuSans-101"/>
      <use transform="translate(113.623047 0.015625)" xlink:href="#DejaVuSans-108"/>
      <use transform="translate(141.40625 0.015625)" xlink:href="#DejaVuSans-101"/>
      <use transform="translate(202.929688 0.015625)" xlink:href="#DejaVuSans-99"/>
      <use transform="translate(257.910156 0.015625)" xlink:href="#DejaVuSans-116"/>
      <use transform="translate(297.119141 0.015625)" xlink:href="#DejaVuSans-105"/>
      <use transform="translate(324.902344 0.015625)" xlink:href="#DejaVuSans-111"/>
      <use transform="translate(386.083984 0.015625)" xlink:href="#DejaVuSans-110"/>
      <use transform="translate(449.462891 0.015625)" xlink:href="#DejaVuSans-32"/>
      <use transform="translate(481.25 0.015625)" xlink:href="#DejaVuSans-99"/>
      <use transform="translate(536.230469 0.015625)" xlink:href="#DejaVuSans-111"/>
      <use transform="translate(597.412109 0.015625)" xlink:href="#DejaVuSans-101"/>
      <use transform="translate(658.935547 0.015625)" xlink:href="#DejaVuSans-102"/>
      <use transform="translate(694.140625 0.015625)" xlink:href="#DejaVuSans-102"/>
      <use transform="translate(729.345703 0.015625)" xlink:href="#DejaVuSans-105"/>
      <use transform="translate(757.128906 0.015625)" xlink:href="#DejaVuSans-99"/>
      <use transform="translate(812.109375 0.015625)" xlink:href="#DejaVuSans-105"/>
      <use transform="translate(839.892578 0.015625)" xlink:href="#DejaVuSans-101"/>
      <use transform="translate(901.416016 0.015625)" xlink:href="#DejaVuSans-110"/>
      <use transform="translate(964.794922 0.015625)" xlink:href="#DejaVuSans-116"/>
      <use transform="translate(1004.003906 0.015625)" xlink:href="#DejaVuSans-115"/>
      <use transform="translate(1056.103516 0.015625)" xlink:href="#DejaVuSans-32"/>
      <use transform="translate(1087.890625 0.015625)" xlink:href="#DejaVuSans-40"/>
      <use transform="translate(1126.904297 0.015625)" xlink:href="#DejaVuSans-83"/>
      <use transform="translate(1190.380859 0.015625)" xlink:href="#DejaVuSans-112"/>
      <use transform="translate(1253.857422 0.015625)" xlink:href="#DejaVuSans-101"/>
      <use transform="translate(1315.380859 0.015625)" xlink:href="#DejaVuSans-97"/>
      <use transform="translate(1376.660156 0.015625)" xlink:href="#DejaVuSans-114"/>
      <use transform="translate(1417.773438 0.015625)" xlink:href="#DejaVuSans-109"/>
      <use transform="translate(1515.185547 0.015625)" xlink:href="#DejaVuSans-97"/>
      <use transform="translate(1576.464844 0.015625)" xlink:href="#DejaVuSans-110"/>
      <use transform="translate(1639.84375 0.015625)" xlink:href="#DejaVuSans-8217"/>
      <use transform="translate(1671.630859 0.015625)" xlink:href="#DejaVuSans-115"/>
      <use transform="translate(1723.730469 0.015625)" xlink:href="#DejaVuSans-32"/>
      <use transform="translate(1755.517578 0.015625)" xlink:href="#STIXNonUnicode-Italic-57832"/>
      <use transform="translate(1808.917572 0.015625)" xlink:href="#DejaVuSans-41"/>
     </g>
    </g>
   </g>
   <g id="line2d_9">
    <path clip-path="url(#p21ce3212d6)" d="M 37.497047 132.265827 
L 52.556102 105.608775 
L 67.615157 88.929126 
L 82.674213 76.798427 
L 97.733268 67.822967 
L 112.792323 61.166338 
" style="fill:none;stroke:#023eff;stroke-linecap:square;stroke-opacity:0.75;stroke-width:0.6;"/>
   </g>
   <g id="line2d_10">
    <path clip-path="url(#p21ce3212d6)" d="M 37.497047 57.421455 
L 52.556102 44.431551 
L 67.615157 37.631584 
L 82.674213 33.234194 
L 97.733268 30.696609 
L 112.792323 28.721176 
" style="fill:none;stroke:#ff7c00;stroke-linecap:square;stroke-opacity:0.75;stroke-width:0.6;"/>
   </g>
   <g id="line2d_11">
    <path clip-path="url(#p21ce3212d6)" d="M 37.497047 107.340934 
L 52.556102 76.110668 
L 67.615157 60.016417 
L 82.674213 49.3521 
L 97.733268 42.325142 
L 112.792323 38.092886 
" style="fill:none;stroke:#808080;stroke-linecap:square;stroke-opacity:0.75;stroke-width:0.6;"/>
   </g>
   <g id="line2d_12">
    <path clip-path="url(#p21ce3212d6)" d="M 37.497047 80.284068 
L 52.556102 59.842129 
L 67.615157 49.839128 
L 82.674213 43.055733 
L 97.733268 38.302658 
L 112.792323 35.262424 
" style="fill:none;stroke:#e8000b;stroke-linecap:square;stroke-opacity:0.75;stroke-width:0.6;"/>
   </g>
   <g id="line2d_13">
    <path clip-path="url(#p21ce3212d6)" d="M 37.497047 83.897775 
L 52.556102 64.856768 
L 67.615157 55.262175 
L 82.674213 48.159206 
L 97.733268 43.304615 
L 112.792323 39.988494 
" style="fill:none;stroke:#1ac938;stroke-linecap:square;stroke-opacity:0.75;stroke-width:0.6;"/>
   </g>
   <g id="patch_3">
    <path d="M 33.732283 135.585357 
L 33.732283 13.047674 
" style="fill:none;stroke:#252525;stroke-linecap:square;stroke-linejoin:miter;stroke-width:0.4;"/>
   </g>
   <g id="patch_4">
    <path d="M 116.557087 135.585357 
L 116.557087 13.047674 
" style="fill:none;stroke:#252525;stroke-linecap:square;stroke-linejoin:miter;stroke-width:0.4;"/>
   </g>
   <g id="patch_5">
    <path d="M 33.732283 135.585357 
L 116.557087 135.585357 
" style="fill:none;stroke:#252525;stroke-linecap:square;stroke-linejoin:miter;stroke-width:0.4;"/>
   </g>
   <g id="patch_6">
    <path d="M 33.732283 13.047674 
L 116.557087 13.047674 
" style="fill:none;stroke:#252525;stroke-linecap:square;stroke-linejoin:miter;stroke-width:0.4;"/>
   </g>
   <g id="text_10">
    <!-- A -->
    <g style="fill:#222222;" transform="translate(22.199959 6.55793)scale(0.09 -0.09)">
     <defs>
      <path d="M 71.828125 0 
L 56.109375 0 
L 49.859375 16.265625 
L 21.234375 16.265625 
L 15.328125 0 
L 0 0 
L 27.875 71.578125 
L 43.171875 71.578125 
z
M 45.21875 28.328125 
L 35.359375 54.890625 
L 25.6875 28.328125 
z
" id="Arial-BoldMT-65"/>
     </defs>
     <use xlink:href="#Arial-BoldMT-65"/>
    </g>
   </g>
   <g id="text_11">
    <!-- Using single replicate -->
    <g transform="translate(42.865623 7.047674)scale(0.06 -0.06)">
     <defs>
      <path d="M 8.6875 72.90625 
L 18.609375 72.90625 
L 18.609375 28.609375 
Q 18.609375 16.890625 22.84375 11.734375 
Q 27.09375 6.59375 36.625 6.59375 
Q 46.09375 6.59375 50.34375 11.734375 
Q 54.59375 16.890625 54.59375 28.609375 
L 54.59375 72.90625 
L 64.5 72.90625 
L 64.5 27.390625 
Q 64.5 13.140625 57.4375 5.859375 
Q 50.390625 -1.421875 36.625 -1.421875 
Q 22.796875 -1.421875 15.734375 5.859375 
Q 8.6875 13.140625 8.6875 27.390625 
z
" id="DejaVuSans-85"/>
      <path d="M 45.40625 27.984375 
Q 45.40625 37.75 41.375 43.109375 
Q 37.359375 48.484375 30.078125 48.484375 
Q 22.859375 48.484375 18.828125 43.109375 
Q 14.796875 37.75 14.796875 27.984375 
Q 14.796875 18.265625 18.828125 12.890625 
Q 22.859375 7.515625 30.078125 7.515625 
Q 37.359375 7.515625 41.375 12.890625 
Q 45.40625 18.265625 45.40625 27.984375 
z
M 54.390625 6.78125 
Q 54.390625 -7.171875 48.1875 -13.984375 
Q 42 -20.796875 29.203125 -20.796875 
Q 24.46875 -20.796875 20.265625 -20.09375 
Q 16.0625 -19.390625 12.109375 -17.921875 
L 12.109375 -9.1875 
Q 16.0625 -11.328125 19.921875 -12.34375 
Q 23.78125 -13.375 27.78125 -13.375 
Q 36.625 -13.375 41.015625 -8.765625 
Q 45.40625 -4.15625 45.40625 5.171875 
L 45.40625 9.625 
Q 42.625 4.78125 38.28125 2.390625 
Q 33.9375 0 27.875 0 
Q 17.828125 0 11.671875 7.65625 
Q 5.515625 15.328125 5.515625 27.984375 
Q 5.515625 40.671875 11.671875 48.328125 
Q 17.828125 56 27.875 56 
Q 33.9375 56 38.28125 53.609375 
Q 42.625 51.21875 45.40625 46.390625 
L 45.40625 54.6875 
L 54.390625 54.6875 
z
" id="DejaVuSans-103"/>
     </defs>
     <use xlink:href="#DejaVuSans-85"/>
     <use x="73.193359" xlink:href="#DejaVuSans-115"/>
     <use x="125.292969" xlink:href="#DejaVuSans-105"/>
     <use x="153.076172" xlink:href="#DejaVuSans-110"/>
     <use x="216.455078" xlink:href="#DejaVuSans-103"/>
     <use x="279.931641" xlink:href="#DejaVuSans-32"/>
     <use x="311.71875" xlink:href="#DejaVuSans-115"/>
     <use x="363.818359" xlink:href="#DejaVuSans-105"/>
     <use x="391.601562" xlink:href="#DejaVuSans-110"/>
     <use x="454.980469" xlink:href="#DejaVuSans-103"/>
     <use x="518.457031" xlink:href="#DejaVuSans-108"/>
     <use x="546.240234" xlink:href="#DejaVuSans-101"/>
     <use x="607.763672" xlink:href="#DejaVuSans-32"/>
     <use x="639.550781" xlink:href="#DejaVuSans-114"/>
     <use x="678.414062" xlink:href="#DejaVuSans-101"/>
     <use x="739.9375" xlink:href="#DejaVuSans-112"/>
     <use x="803.414062" xlink:href="#DejaVuSans-108"/>
     <use x="831.197266" xlink:href="#DejaVuSans-105"/>
     <use x="858.980469" xlink:href="#DejaVuSans-99"/>
     <use x="913.960938" xlink:href="#DejaVuSans-97"/>
     <use x="975.240234" xlink:href="#DejaVuSans-116"/>
     <use x="1014.449219" xlink:href="#DejaVuSans-101"/>
    </g>
   </g>
  </g>
  <g id="axes_2">
   <g id="patch_7">
    <path d="M 149.687008 135.585357 
L 232.511811 135.585357 
L 232.511811 13.047674 
L 149.687008 13.047674 
z
" style="fill:none;"/>
   </g>
   <g id="PathCollection_6">
    <defs>
     <path d="M 0 1.581139 
C 0.419323 1.581139 0.821528 1.41454 1.118034 1.118034 
C 1.41454 0.821528 1.581139 0.419323 1.581139 -0 
C 1.581139 -0.419323 1.41454 -0.821528 1.118034 -1.118034 
C 0.821528 -1.41454 0.419323 -1.581139 0 -1.581139 
C -0.419323 -1.581139 -0.821528 -1.41454 -1.118034 -1.118034 
C -1.41454 -0.821528 -1.581139 -0.419323 -1.581139 0 
C -1.581139 0.419323 -1.41454 0.821528 -1.118034 1.118034 
C -0.821528 1.41454 -0.419323 1.581139 0 1.581139 
z
" id="C1_0_148db9d508"/>
    </defs>
    <g clip-path="url(#pb37e9cdcb4)">
     <use style="fill:#023eff;fill-opacity:0.75;" x="153.451772" xlink:href="#C1_0_148db9d508" y="104.643587"/>
    </g>
    <g clip-path="url(#pb37e9cdcb4)">
     <use style="fill:#023eff;fill-opacity:0.75;" x="168.510827" xlink:href="#C1_0_148db9d508" y="76.79014"/>
    </g>
    <g clip-path="url(#pb37e9cdcb4)">
     <use style="fill:#023eff;fill-opacity:0.75;" x="183.569882" xlink:href="#C1_0_148db9d508" y="62.775138"/>
    </g>
    <g clip-path="url(#pb37e9cdcb4)">
     <use style="fill:#023eff;fill-opacity:0.75;" x="198.628937" xlink:href="#C1_0_148db9d508" y="50.536949"/>
    </g>
    <g clip-path="url(#pb37e9cdcb4)">
     <use style="fill:#023eff;fill-opacity:0.75;" x="213.687992" xlink:href="#C1_0_148db9d508" y="43.470472"/>
    </g>
    <g clip-path="url(#pb37e9cdcb4)">
     <use style="fill:#023eff;fill-opacity:0.75;" x="228.747047" xlink:href="#C1_0_148db9d508" y="37.852765"/>
    </g>
   </g>
   <g id="PathCollection_7">
    <path clip-path="url(#pb37e9cdcb4)" d="M 153.451772 21.362437 
L 154.793412 19.126369 
L 153.451772 16.890301 
L 152.110131 19.126369 
z
" style="fill:#ff7c00;fill-opacity:0.75;"/>
    <path clip-path="url(#pb37e9cdcb4)" d="M 168.510827 20.507542 
L 169.852468 18.271474 
L 168.510827 16.035407 
L 167.169186 18.271474 
z
" style="fill:#ff7c00;fill-opacity:0.75;"/>
    <path clip-path="url(#pb37e9cdcb4)" d="M 183.569882 20.169753 
L 184.911523 17.933685 
L 183.569882 15.697617 
L 182.228241 17.933685 
z
" style="fill:#ff7c00;fill-opacity:0.75;"/>
    <path clip-path="url(#pb37e9cdcb4)" d="M 198.628937 19.620363 
L 199.970578 17.384295 
L 198.628937 15.148227 
L 197.287296 17.384295 
z
" style="fill:#ff7c00;fill-opacity:0.75;"/>
    <path clip-path="url(#pb37e9cdcb4)" d="M 213.687992 19.571122 
L 215.029633 17.335054 
L 213.687992 15.098986 
L 212.346351 17.335054 
z
" style="fill:#ff7c00;fill-opacity:0.75;"/>
    <path clip-path="url(#pb37e9cdcb4)" d="M 228.747047 19.45345 
L 230.088688 17.217382 
L 228.747047 14.981314 
L 227.405406 17.217382 
z
" style="fill:#ff7c00;fill-opacity:0.75;"/>
   </g>
   <g id="PathCollection_8">
    <path clip-path="url(#pb37e9cdcb4)" d="M 153.451772 34.06985 
L 155.03291 30.907572 
L 151.870633 30.907572 
z
" style="fill:#808080;fill-opacity:0.75;"/>
    <path clip-path="url(#pb37e9cdcb4)" d="M 168.510827 27.076358 
L 170.091966 23.91408 
L 166.929688 23.91408 
z
" style="fill:#808080;fill-opacity:0.75;"/>
    <path clip-path="url(#pb37e9cdcb4)" d="M 183.569882 23.773692 
L 185.151021 20.611414 
L 181.988743 20.611414 
z
" style="fill:#808080;fill-opacity:0.75;"/>
    <path clip-path="url(#pb37e9cdcb4)" d="M 198.628937 22.414552 
L 200.210076 19.252274 
L 197.047798 19.252274 
z
" style="fill:#808080;fill-opacity:0.75;"/>
    <path clip-path="url(#pb37e9cdcb4)" d="M 213.687992 21.16863 
L 215.269131 18.006352 
L 212.106853 18.006352 
z
" style="fill:#808080;fill-opacity:0.75;"/>
    <path clip-path="url(#pb37e9cdcb4)" d="M 228.747047 20.594022 
L 230.328186 17.431745 
L 227.165908 17.431745 
z
" style="fill:#808080;fill-opacity:0.75;"/>
   </g>
   <g id="PathCollection_9">
    <path clip-path="url(#pb37e9cdcb4)" d="M 151.870633 30.799115 
L 155.03291 32.380254 
L 155.03291 29.217977 
z
" style="fill:#e8000b;fill-opacity:0.75;"/>
    <path clip-path="url(#pb37e9cdcb4)" d="M 166.929688 24.044217 
L 170.091966 25.625356 
L 170.091966 22.463078 
z
" style="fill:#e8000b;fill-opacity:0.75;"/>
    <path clip-path="url(#pb37e9cdcb4)" d="M 181.988743 21.434366 
L 185.151021 23.015504 
L 185.151021 19.853227 
z
" style="fill:#e8000b;fill-opacity:0.75;"/>
    <path clip-path="url(#pb37e9cdcb4)" d="M 197.047798 19.916718 
L 200.210076 21.497857 
L 200.210076 18.335579 
z
" style="fill:#e8000b;fill-opacity:0.75;"/>
    <path clip-path="url(#pb37e9cdcb4)" d="M 212.106853 19.056119 
L 215.269131 20.637258 
L 215.269131 17.47498 
z
" style="fill:#e8000b;fill-opacity:0.75;"/>
    <path clip-path="url(#pb37e9cdcb4)" d="M 227.165908 18.550154 
L 230.328186 20.131293 
L 230.328186 16.969016 
z
" style="fill:#e8000b;fill-opacity:0.75;"/>
   </g>
   <g id="PathCollection_10">
    <path clip-path="url(#pb37e9cdcb4)" d="M 155.03291 34.056291 
L 151.870633 32.475152 
L 151.870633 35.63743 
z
" style="fill:#1ac938;fill-opacity:0.75;"/>
    <path clip-path="url(#pb37e9cdcb4)" d="M 170.091966 27.641873 
L 166.929688 26.060734 
L 166.929688 29.223011 
z
" style="fill:#1ac938;fill-opacity:0.75;"/>
    <path clip-path="url(#pb37e9cdcb4)" d="M 185.151021 24.276781 
L 181.988743 22.695642 
L 181.988743 25.85792 
z
" style="fill:#1ac938;fill-opacity:0.75;"/>
    <path clip-path="url(#pb37e9cdcb4)" d="M 200.210076 22.411889 
L 197.047798 20.83075 
L 197.047798 23.993028 
z
" style="fill:#1ac938;fill-opacity:0.75;"/>
    <path clip-path="url(#pb37e9cdcb4)" d="M 215.269131 21.519095 
L 212.106853 19.937956 
L 212.106853 23.100233 
z
" style="fill:#1ac938;fill-opacity:0.75;"/>
    <path clip-path="url(#pb37e9cdcb4)" d="M 230.328186 20.442843 
L 227.165908 18.861704 
L 227.165908 22.023982 
z
" style="fill:#1ac938;fill-opacity:0.75;"/>
   </g>
   <g id="matplotlib.axis_3">
    <g id="xtick_4">
     <g id="line2d_14">
      <g>
       <use style="fill:#252525;stroke:#252525;stroke-width:0.2;" x="153.451772" xlink:href="#m39c6946dd3" y="135.585357"/>
      </g>
     </g>
     <g id="text_12">
      <!-- 200 -->
      <g style="fill:#252525;" transform="translate(147.725522 146.14442)scale(0.06 -0.06)">
       <use xlink:href="#DejaVuSans-50"/>
       <use x="63.623047" xlink:href="#DejaVuSans-48"/>
       <use x="127.246094" xlink:href="#DejaVuSans-48"/>
      </g>
     </g>
    </g>
    <g id="xtick_5">
     <g id="line2d_15">
      <g>
       <use style="fill:#252525;stroke:#252525;stroke-width:0.2;" x="183.569882" xlink:href="#m39c6946dd3" y="135.585357"/>
      </g>
     </g>
     <g id="text_13">
      <!-- 400 -->
      <g style="fill:#252525;" transform="translate(177.843632 146.14442)scale(0.06 -0.06)">
       <use xlink:href="#DejaVuSans-52"/>
       <use x="63.623047" xlink:href="#DejaVuSans-48"/>
       <use x="127.246094" xlink:href="#DejaVuSans-48"/>
      </g>
     </g>
    </g>
    <g id="xtick_6">
     <g id="line2d_16">
      <g>
       <use style="fill:#252525;stroke:#252525;stroke-width:0.2;" x="213.687992" xlink:href="#m39c6946dd3" y="135.585357"/>
      </g>
     </g>
     <g id="text_14">
      <!-- 600 -->
      <g style="fill:#252525;" transform="translate(207.961742 146.14442)scale(0.06 -0.06)">
       <use xlink:href="#DejaVuSans-54"/>
       <use x="63.623047" xlink:href="#DejaVuSans-48"/>
       <use x="127.246094" xlink:href="#DejaVuSans-48"/>
      </g>
     </g>
    </g>
   </g>
   <g id="matplotlib.axis_4">
    <g id="ytick_6">
     <g id="line2d_17">
      <g>
       <use style="fill:#252525;stroke:#252525;stroke-width:0.2;" x="149.687008" xlink:href="#me854ead445" y="132.667793"/>
      </g>
     </g>
    </g>
    <g id="ytick_7">
     <g id="line2d_18">
      <g>
       <use style="fill:#252525;stroke:#252525;stroke-width:0.2;" x="149.687008" xlink:href="#me854ead445" y="103.492155"/>
      </g>
     </g>
    </g>
    <g id="ytick_8">
     <g id="line2d_19">
      <g>
       <use style="fill:#252525;stroke:#252525;stroke-width:0.2;" x="149.687008" xlink:href="#me854ead445" y="74.316516"/>
      </g>
     </g>
    </g>
    <g id="ytick_9">
     <g id="line2d_20">
      <g>
       <use style="fill:#252525;stroke:#252525;stroke-width:0.2;" x="149.687008" xlink:href="#me854ead445" y="45.140877"/>
      </g>
     </g>
    </g>
    <g id="ytick_10">
     <g id="line2d_21">
      <g>
       <use style="fill:#252525;stroke:#252525;stroke-width:0.2;" x="149.687008" xlink:href="#me854ead445" y="15.965238"/>
      </g>
     </g>
    </g>
   </g>
   <g id="line2d_22">
    <path clip-path="url(#pb37e9cdcb4)" d="M 153.451772 104.643587 
L 168.510827 76.79014 
L 183.569882 62.775138 
L 198.628937 50.536949 
L 213.687992 43.470472 
L 228.747047 37.852765 
" style="fill:none;stroke:#023eff;stroke-linecap:square;stroke-opacity:0.75;stroke-width:0.6;"/>
   </g>
   <g id="line2d_23">
    <path clip-path="url(#pb37e9cdcb4)" d="M 153.451772 19.126369 
L 168.510827 18.271474 
L 183.569882 17.933685 
L 198.628937 17.384295 
L 213.687992 17.335054 
L 228.747047 17.217382 
" style="fill:none;stroke:#ff7c00;stroke-linecap:square;stroke-opacity:0.75;stroke-width:0.6;"/>
   </g>
   <g id="line2d_24">
    <path clip-path="url(#pb37e9cdcb4)" d="M 153.451772 32.488711 
L 168.510827 25.495219 
L 183.569882 22.192553 
L 198.628937 20.833413 
L 213.687992 19.587491 
L 228.747047 19.012884 
" style="fill:none;stroke:#808080;stroke-linecap:square;stroke-opacity:0.75;stroke-width:0.6;"/>
   </g>
   <g id="line2d_25">
    <path clip-path="url(#pb37e9cdcb4)" d="M 153.451772 30.799115 
L 168.510827 24.044217 
L 183.569882 21.434366 
L 198.628937 19.916718 
L 213.687992 19.056119 
L 228.747047 18.550154 
" style="fill:none;stroke:#e8000b;stroke-linecap:square;stroke-opacity:0.75;stroke-width:0.6;"/>
   </g>
   <g id="line2d_26">
    <path clip-path="url(#pb37e9cdcb4)" d="M 153.451772 34.056291 
L 168.510827 27.641873 
L 183.569882 24.276781 
L 198.628937 22.411889 
L 213.687992 21.519095 
L 228.747047 20.442843 
" style="fill:none;stroke:#1ac938;stroke-linecap:square;stroke-opacity:0.75;stroke-width:0.6;"/>
   </g>
   <g id="patch_8">
    <path d="M 149.687008 135.585357 
L 149.687008 13.047674 
" style="fill:none;stroke:#252525;stroke-linecap:square;stroke-linejoin:miter;stroke-width:0.4;"/>
   </g>
   <g id="patch_9">
    <path d="M 232.511811 135.585357 
L 232.511811 13.047674 
" style="fill:none;stroke:#252525;stroke-linecap:square;stroke-linejoin:miter;stroke-width:0.4;"/>
   </g>
   <g id="patch_10">
    <path d="M 149.687008 135.585357 
L 232.511811 135.585357 
" style="fill:none;stroke:#252525;stroke-linecap:square;stroke-linejoin:miter;stroke-width:0.4;"/>
   </g>
   <g id="patch_11">
    <path d="M 149.687008 13.047674 
L 232.511811 13.047674 
" style="fill:none;stroke:#252525;stroke-linecap:square;stroke-linejoin:miter;stroke-width:0.4;"/>
   </g>
   <g id="text_15">
    <!-- B -->
    <g style="fill:#222222;" transform="translate(138.154684 6.55793)scale(0.09 -0.09)">
     <defs>
      <path d="M 7.328125 71.578125 
L 35.9375 71.578125 
Q 44.4375 71.578125 48.609375 70.875 
Q 52.78125 70.171875 56.078125 67.921875 
Q 59.375 65.671875 61.5625 61.9375 
Q 63.765625 58.203125 63.765625 53.5625 
Q 63.765625 48.53125 61.046875 44.328125 
Q 58.34375 40.140625 53.71875 38.03125 
Q 60.25 36.140625 63.765625 31.546875 
Q 67.28125 26.953125 67.28125 20.75 
Q 67.28125 15.875 65.015625 11.25 
Q 62.75 6.640625 58.8125 3.875 
Q 54.890625 1.125 49.125 0.484375 
Q 45.515625 0.09375 31.6875 0 
L 7.328125 0 
z
M 21.78125 59.671875 
L 21.78125 43.109375 
L 31.25 43.109375 
Q 39.703125 43.109375 41.75 43.359375 
Q 45.453125 43.796875 47.578125 45.921875 
Q 49.703125 48.046875 49.703125 51.515625 
Q 49.703125 54.828125 47.875 56.90625 
Q 46.046875 58.984375 42.4375 59.421875 
Q 40.28125 59.671875 30.078125 59.671875 
z
M 21.78125 31.203125 
L 21.78125 12.0625 
L 35.15625 12.0625 
Q 42.96875 12.0625 45.0625 12.5 
Q 48.296875 13.09375 50.3125 15.359375 
Q 52.34375 17.625 52.34375 21.4375 
Q 52.34375 24.65625 50.78125 26.90625 
Q 49.21875 29.15625 46.265625 30.171875 
Q 43.3125 31.203125 33.453125 31.203125 
z
" id="Arial-BoldMT-66"/>
     </defs>
     <use xlink:href="#Arial-BoldMT-66"/>
    </g>
   </g>
   <g id="text_16">
    <!-- Combining 20 replicates -->
    <g transform="translate(154.588003 7.047674)scale(0.06 -0.06)">
     <defs>
      <path d="M 64.40625 67.28125 
L 64.40625 56.890625 
Q 59.421875 61.53125 53.78125 63.8125 
Q 48.140625 66.109375 41.796875 66.109375 
Q 29.296875 66.109375 22.65625 58.46875 
Q 16.015625 50.828125 16.015625 36.375 
Q 16.015625 21.96875 22.65625 14.328125 
Q 29.296875 6.6875 41.796875 6.6875 
Q 48.140625 6.6875 53.78125 8.984375 
Q 59.421875 11.28125 64.40625 15.921875 
L 64.40625 5.609375 
Q 59.234375 2.09375 53.4375 0.328125 
Q 47.65625 -1.421875 41.21875 -1.421875 
Q 24.65625 -1.421875 15.125 8.703125 
Q 5.609375 18.84375 5.609375 36.375 
Q 5.609375 53.953125 15.125 64.078125 
Q 24.65625 74.21875 41.21875 74.21875 
Q 47.75 74.21875 53.53125 72.484375 
Q 59.328125 70.75 64.40625 67.28125 
z
" id="DejaVuSans-67"/>
     </defs>
     <use xlink:href="#DejaVuSans-67"/>
     <use x="69.824219" xlink:href="#DejaVuSans-111"/>
     <use x="131.005859" xlink:href="#DejaVuSans-109"/>
     <use x="228.417969" xlink:href="#DejaVuSans-98"/>
     <use x="291.894531" xlink:href="#DejaVuSans-105"/>
     <use x="319.677734" xlink:href="#DejaVuSans-110"/>
     <use x="383.056641" xlink:href="#DejaVuSans-105"/>
     <use x="410.839844" xlink:href="#DejaVuSans-110"/>
     <use x="474.21875" xlink:href="#DejaVuSans-103"/>
     <use x="537.695312" xlink:href="#DejaVuSans-32"/>
     <use x="569.482422" xlink:href="#DejaVuSans-50"/>
     <use x="633.105469" xlink:href="#DejaVuSans-48"/>
     <use x="696.728516" xlink:href="#DejaVuSans-32"/>
     <use x="728.515625" xlink:href="#DejaVuSans-114"/>
     <use x="767.378906" xlink:href="#DejaVuSans-101"/>
     <use x="828.902344" xlink:href="#DejaVuSans-112"/>
     <use x="892.378906" xlink:href="#DejaVuSans-108"/>
     <use x="920.162109" xlink:href="#DejaVuSans-105"/>
     <use x="947.945312" xlink:href="#DejaVuSans-99"/>
     <use x="1002.925781" xlink:href="#DejaVuSans-97"/>
     <use x="1064.205078" xlink:href="#DejaVuSans-116"/>
     <use x="1103.414062" xlink:href="#DejaVuSans-101"/>
     <use x="1164.9375" xlink:href="#DejaVuSans-115"/>
    </g>
   </g>
   <g id="legend_1">
    <g id="PathCollection_11">
     <path d="M 188.312595 91.449704 
C 188.731918 91.449704 189.134123 91.283105 189.430629 90.986599 
C 189.727135 90.690093 189.893734 90.287888 189.893734 89.868565 
C 189.893734 89.449242 189.727135 89.047037 189.430629 88.750531 
C 189.134123 88.454025 188.731918 88.287426 188.312595 88.287426 
C 187.893272 88.287426 187.491067 88.454025 187.194561 88.750531 
C 186.898055 89.047037 186.731456 89.449242 186.731456 89.868565 
C 186.731456 90.287888 186.898055 90.690093 187.194561 90.986599 
C 187.491067 91.283105 187.893272 91.449704 188.312595 91.449704 
z
" style="fill:#023eff;fill-opacity:0.75;"/>
    </g>
    <g id="text_17">
     <!-- SL -->
     <g transform="translate(199.112595 91.443565)scale(0.06 -0.06)">
      <defs>
       <path d="M 9.8125 72.90625 
L 19.671875 72.90625 
L 19.671875 8.296875 
L 55.171875 8.296875 
L 55.171875 0 
L 9.8125 0 
z
" id="DejaVuSans-76"/>
      </defs>
      <use xlink:href="#DejaVuSans-83"/>
      <use x="63.476562" xlink:href="#DejaVuSans-76"/>
     </g>
    </g>
    <g id="PathCollection_12">
     <path d="M 188.312595 100.911508 
L 189.654236 98.67544 
L 188.312595 96.439372 
L 186.970954 98.67544 
z
" style="fill:#ff7c00;fill-opacity:0.75;"/>
    </g>
    <g id="text_18">
     <!-- MPL -->
     <g transform="translate(199.112595 100.25044)scale(0.06 -0.06)">
      <defs>
       <path d="M 9.8125 72.90625 
L 24.515625 72.90625 
L 43.109375 23.296875 
L 61.8125 72.90625 
L 76.515625 72.90625 
L 76.515625 0 
L 66.890625 0 
L 66.890625 64.015625 
L 48.09375 14.015625 
L 38.1875 14.015625 
L 19.390625 64.015625 
L 19.390625 0 
L 9.8125 0 
z
" id="DejaVuSans-77"/>
       <path d="M 19.671875 64.796875 
L 19.671875 37.40625 
L 32.078125 37.40625 
Q 38.96875 37.40625 42.71875 40.96875 
Q 46.484375 44.53125 46.484375 51.125 
Q 46.484375 57.671875 42.71875 61.234375 
Q 38.96875 64.796875 32.078125 64.796875 
z
M 9.8125 72.90625 
L 32.078125 72.90625 
Q 44.34375 72.90625 50.609375 67.359375 
Q 56.890625 61.8125 56.890625 51.125 
Q 56.890625 40.328125 50.609375 34.8125 
Q 44.34375 29.296875 32.078125 29.296875 
L 19.671875 29.296875 
L 19.671875 0 
L 9.8125 0 
z
" id="DejaVuSans-80"/>
      </defs>
      <use xlink:href="#DejaVuSans-77"/>
      <use x="86.279297" xlink:href="#DejaVuSans-80"/>
      <use x="146.582031" xlink:href="#DejaVuSans-76"/>
     </g>
    </g>
    <g id="PathCollection_13">
     <path d="M 188.312595 109.063454 
L 189.893734 105.901176 
L 186.731456 105.901176 
z
" style="fill:#808080;fill-opacity:0.75;"/>
    </g>
    <g id="text_19">
     <!-- Est -->
     <g transform="translate(199.112595 109.057315)scale(0.06 -0.06)">
      <defs>
       <path d="M 9.8125 72.90625 
L 55.90625 72.90625 
L 55.90625 64.59375 
L 19.671875 64.59375 
L 19.671875 43.015625 
L 54.390625 43.015625 
L 54.390625 34.71875 
L 19.671875 34.71875 
L 19.671875 8.296875 
L 56.78125 8.296875 
L 56.78125 0 
L 9.8125 0 
z
" id="DejaVuSans-69"/>
      </defs>
      <use xlink:href="#DejaVuSans-69"/>
      <use x="63.183594" xlink:href="#DejaVuSans-115"/>
      <use x="115.283203" xlink:href="#DejaVuSans-116"/>
     </g>
    </g>
    <g id="PathCollection_14">
     <path d="M 186.731456 116.28919 
L 189.893734 117.870329 
L 189.893734 114.708051 
z
" style="fill:#e8000b;fill-opacity:0.75;"/>
    </g>
    <g id="text_20">
     <!-- Linear -->
     <g transform="translate(199.112595 117.86419)scale(0.06 -0.06)">
      <use xlink:href="#DejaVuSans-76"/>
      <use x="55.712891" xlink:href="#DejaVuSans-105"/>
      <use x="83.496094" xlink:href="#DejaVuSans-110"/>
      <use x="146.875" xlink:href="#DejaVuSans-101"/>
      <use x="208.398438" xlink:href="#DejaVuSans-97"/>
      <use x="269.677734" xlink:href="#DejaVuSans-114"/>
     </g>
    </g>
    <g id="PathCollection_15">
     <path d="M 189.893734 125.096065 
L 186.731456 123.514926 
L 186.731456 126.677204 
z
" style="fill:#1ac938;fill-opacity:0.75;"/>
    </g>
    <g id="text_21">
     <!-- Nonlinear -->
     <g transform="translate(199.112595 126.671065)scale(0.06 -0.06)">
      <defs>
       <path d="M 9.8125 72.90625 
L 23.09375 72.90625 
L 55.421875 11.921875 
L 55.421875 72.90625 
L 64.984375 72.90625 
L 64.984375 0 
L 51.703125 0 
L 19.390625 60.984375 
L 19.390625 0 
L 9.8125 0 
z
" id="DejaVuSans-78"/>
      </defs>
      <use xlink:href="#DejaVuSans-78"/>
      <use x="74.804688" xlink:href="#DejaVuSans-111"/>
      <use x="135.986328" xlink:href="#DejaVuSans-110"/>
      <use x="199.365234" xlink:href="#DejaVuSans-108"/>
      <use x="227.148438" xlink:href="#DejaVuSans-105"/>
      <use x="254.931641" xlink:href="#DejaVuSans-110"/>
      <use x="318.310547" xlink:href="#DejaVuSans-101"/>
      <use x="379.833984" xlink:href="#DejaVuSans-97"/>
      <use x="441.113281" xlink:href="#DejaVuSans-114"/>
     </g>
    </g>
   </g>
  </g>
  <g id="axes_3">
   <g id="patch_12">
    <path d="M 33.732283 288.757461 
L 116.557087 288.757461 
L 116.557087 166.219778 
L 33.732283 166.219778 
z
" style="fill:none;"/>
   </g>
   <g id="PathCollection_16">
    <defs>
     <path d="M 0 1.581139 
C 0.419323 1.581139 0.821528 1.41454 1.118034 1.118034 
C 1.41454 0.821528 1.581139 0.419323 1.581139 -0 
C 1.581139 -0.419323 1.41454 -0.821528 1.118034 -1.118034 
C 0.821528 -1.41454 0.419323 -1.581139 0 -1.581139 
C -0.419323 -1.581139 -0.821528 -1.41454 -1.118034 -1.118034 
C -1.41454 -0.821528 -1.581139 -0.419323 -1.581139 0 
C -1.581139 0.419323 -1.41454 0.821528 -1.118034 1.118034 
C -0.821528 1.41454 -0.419323 1.581139 0 1.581139 
z
" id="C2_0_91d8aeb10b"/>
    </defs>
    <g clip-path="url(#pfc1842405a)">
     <use style="fill:#023eff;fill-opacity:0.75;" x="37.497047" xlink:href="#C2_0_91d8aeb10b" y="173.333969"/>
    </g>
    <g clip-path="url(#pfc1842405a)">
     <use style="fill:#023eff;fill-opacity:0.75;" x="52.556102" xlink:href="#C2_0_91d8aeb10b" y="201.123747"/>
    </g>
    <g clip-path="url(#pfc1842405a)">
     <use style="fill:#023eff;fill-opacity:0.75;" x="67.615157" xlink:href="#C2_0_91d8aeb10b" y="217.715797"/>
    </g>
    <g clip-path="url(#pfc1842405a)">
     <use style="fill:#023eff;fill-opacity:0.75;" x="82.674213" xlink:href="#C2_0_91d8aeb10b" y="228.289295"/>
    </g>
    <g clip-path="url(#pfc1842405a)">
     <use style="fill:#023eff;fill-opacity:0.75;" x="97.733268" xlink:href="#C2_0_91d8aeb10b" y="235.115817"/>
    </g>
    <g clip-path="url(#pfc1842405a)">
     <use style="fill:#023eff;fill-opacity:0.75;" x="112.792323" xlink:href="#C2_0_91d8aeb10b" y="240.39924"/>
    </g>
   </g>
   <g id="PathCollection_17">
    <path clip-path="url(#pfc1842405a)" d="M 37.497047 247.64989 
L 38.838688 245.413822 
L 37.497047 243.177754 
L 36.155406 245.413822 
z
" style="fill:#ff7c00;fill-opacity:0.75;"/>
    <path clip-path="url(#pfc1842405a)" d="M 52.556102 257.043952 
L 53.897743 254.807884 
L 52.556102 252.571816 
L 51.214462 254.807884 
z
" style="fill:#ff7c00;fill-opacity:0.75;"/>
    <path clip-path="url(#pfc1842405a)" d="M 67.615157 262.018899 
L 68.956798 259.782831 
L 67.615157 257.546763 
L 66.273517 259.782831 
z
" style="fill:#ff7c00;fill-opacity:0.75;"/>
    <path clip-path="url(#pfc1842405a)" d="M 82.674213 265.250738 
L 84.015853 263.01467 
L 82.674213 260.778602 
L 81.332572 263.01467 
z
" style="fill:#ff7c00;fill-opacity:0.75;"/>
    <path clip-path="url(#pfc1842405a)" d="M 97.733268 266.901812 
L 99.074909 264.665744 
L 97.733268 262.429676 
L 96.391627 264.665744 
z
" style="fill:#ff7c00;fill-opacity:0.75;"/>
    <path clip-path="url(#pfc1842405a)" d="M 112.792323 268.274038 
L 114.133964 266.03797 
L 112.792323 263.801902 
L 111.450682 266.03797 
z
" style="fill:#ff7c00;fill-opacity:0.75;"/>
   </g>
   <g id="PathCollection_18">
    <path clip-path="url(#pfc1842405a)" d="M 37.497047 210.139337 
L 39.078186 206.977059 
L 35.915908 206.977059 
z
" style="fill:#808080;fill-opacity:0.75;"/>
    <path clip-path="url(#pfc1842405a)" d="M 52.556102 231.303056 
L 54.137241 228.140778 
L 50.974964 228.140778 
z
" style="fill:#808080;fill-opacity:0.75;"/>
    <path clip-path="url(#pfc1842405a)" d="M 67.615157 241.311011 
L 69.196296 238.148734 
L 66.034019 238.148734 
z
" style="fill:#808080;fill-opacity:0.75;"/>
    <path clip-path="url(#pfc1842405a)" d="M 82.674213 248.055724 
L 84.255351 244.893446 
L 81.093074 244.893446 
z
" style="fill:#808080;fill-opacity:0.75;"/>
    <path clip-path="url(#pfc1842405a)" d="M 97.733268 252.163299 
L 99.314407 249.001022 
L 96.152129 249.001022 
z
" style="fill:#808080;fill-opacity:0.75;"/>
    <path clip-path="url(#pfc1842405a)" d="M 112.792323 254.872618 
L 114.373462 251.710341 
L 111.211184 251.710341 
z
" style="fill:#808080;fill-opacity:0.75;"/>
   </g>
   <g id="PathCollection_19">
    <path clip-path="url(#pfc1842405a)" d="M 35.915908 216.44872 
L 39.078186 218.029859 
L 39.078186 214.867581 
z
" style="fill:#e8000b;fill-opacity:0.75;"/>
    <path clip-path="url(#pfc1842405a)" d="M 50.974964 225.957898 
L 54.137241 227.539037 
L 54.137241 224.376759 
z
" style="fill:#e8000b;fill-opacity:0.75;"/>
    <path clip-path="url(#pfc1842405a)" d="M 66.034019 232.27341 
L 69.196296 233.854549 
L 69.196296 230.692271 
z
" style="fill:#e8000b;fill-opacity:0.75;"/>
    <path clip-path="url(#pfc1842405a)" d="M 81.093074 237.124515 
L 84.255351 238.705654 
L 84.255351 235.543377 
z
" style="fill:#e8000b;fill-opacity:0.75;"/>
    <path clip-path="url(#pfc1842405a)" d="M 96.152129 240.598396 
L 99.314407 242.179535 
L 99.314407 239.017258 
z
" style="fill:#e8000b;fill-opacity:0.75;"/>
    <path clip-path="url(#pfc1842405a)" d="M 111.211184 243.413209 
L 114.373462 244.994348 
L 114.373462 241.832071 
z
" style="fill:#e8000b;fill-opacity:0.75;"/>
   </g>
   <g id="PathCollection_20">
    <path clip-path="url(#pfc1842405a)" d="M 39.078186 219.843848 
L 35.915908 218.262709 
L 35.915908 221.424987 
z
" style="fill:#1ac938;fill-opacity:0.75;"/>
    <path clip-path="url(#pfc1842405a)" d="M 54.137241 227.596939 
L 50.974964 226.0158 
L 50.974964 229.178078 
z
" style="fill:#1ac938;fill-opacity:0.75;"/>
    <path clip-path="url(#pfc1842405a)" d="M 69.196296 232.333355 
L 66.034019 230.752216 
L 66.034019 233.914494 
z
" style="fill:#1ac938;fill-opacity:0.75;"/>
    <path clip-path="url(#pfc1842405a)" d="M 84.255351 235.660835 
L 81.093074 234.079697 
L 81.093074 237.241974 
z
" style="fill:#1ac938;fill-opacity:0.75;"/>
    <path clip-path="url(#pfc1842405a)" d="M 99.314407 238.188234 
L 96.152129 236.607095 
L 96.152129 239.769372 
z
" style="fill:#1ac938;fill-opacity:0.75;"/>
    <path clip-path="url(#pfc1842405a)" d="M 114.373462 240.193971 
L 111.211184 238.612832 
L 111.211184 241.77511 
z
" style="fill:#1ac938;fill-opacity:0.75;"/>
   </g>
   <g id="matplotlib.axis_5">
    <g id="xtick_7">
     <g id="line2d_27">
      <g>
       <use style="fill:#252525;stroke:#252525;stroke-width:0.2;" x="37.497047" xlink:href="#m39c6946dd3" y="288.757461"/>
      </g>
     </g>
     <g id="text_22">
      <!-- 200 -->
      <g style="fill:#252525;" transform="translate(31.770797 299.316523)scale(0.06 -0.06)">
       <use xlink:href="#DejaVuSans-50"/>
       <use x="63.623047" xlink:href="#DejaVuSans-48"/>
       <use x="127.246094" xlink:href="#DejaVuSans-48"/>
      </g>
     </g>
    </g>
    <g id="xtick_8">
     <g id="line2d_28">
      <g>
       <use style="fill:#252525;stroke:#252525;stroke-width:0.2;" x="67.615157" xlink:href="#m39c6946dd3" y="288.757461"/>
      </g>
     </g>
     <g id="text_23">
      <!-- 400 -->
      <g style="fill:#252525;" transform="translate(61.888907 299.316523)scale(0.06 -0.06)">
       <use xlink:href="#DejaVuSans-52"/>
       <use x="63.623047" xlink:href="#DejaVuSans-48"/>
       <use x="127.246094" xlink:href="#DejaVuSans-48"/>
      </g>
     </g>
    </g>
    <g id="xtick_9">
     <g id="line2d_29">
      <g>
       <use style="fill:#252525;stroke:#252525;stroke-width:0.2;" x="97.733268" xlink:href="#m39c6946dd3" y="288.757461"/>
      </g>
     </g>
     <g id="text_24">
      <!-- 600 -->
      <g style="fill:#252525;" transform="translate(92.007018 299.316523)scale(0.06 -0.06)">
       <use xlink:href="#DejaVuSans-54"/>
       <use x="63.623047" xlink:href="#DejaVuSans-48"/>
       <use x="127.246094" xlink:href="#DejaVuSans-48"/>
      </g>
     </g>
    </g>
   </g>
   <g id="matplotlib.axis_6">
    <g id="ytick_11">
     <g id="line2d_30">
      <g>
       <use style="fill:#252525;stroke:#252525;stroke-width:0.2;" x="33.732283" xlink:href="#me854ead445" y="273.44025"/>
      </g>
     </g>
     <g id="text_25">
      <!-- 0.005 -->
      <g style="fill:#252525;" transform="translate(10.555408 275.719782)scale(0.06 -0.06)">
       <defs>
        <path d="M 10.796875 72.90625 
L 49.515625 72.90625 
L 49.515625 64.59375 
L 19.828125 64.59375 
L 19.828125 46.734375 
Q 21.96875 47.46875 24.109375 47.828125 
Q 26.265625 48.1875 28.421875 48.1875 
Q 40.625 48.1875 47.75 41.5 
Q 54.890625 34.8125 54.890625 23.390625 
Q 54.890625 11.625 47.5625 5.09375 
Q 40.234375 -1.421875 26.90625 -1.421875 
Q 22.3125 -1.421875 17.546875 -0.640625 
Q 12.796875 0.140625 7.71875 1.703125 
L 7.71875 11.625 
Q 12.109375 9.234375 16.796875 8.0625 
Q 21.484375 6.890625 26.703125 6.890625 
Q 35.15625 6.890625 40.078125 11.328125 
Q 45.015625 15.765625 45.015625 23.390625 
Q 45.015625 31 40.078125 35.4375 
Q 35.15625 39.890625 26.703125 39.890625 
Q 22.75 39.890625 18.8125 39.015625 
Q 14.890625 38.140625 10.796875 36.28125 
z
" id="DejaVuSans-53"/>
       </defs>
       <use xlink:href="#DejaVuSans-48"/>
       <use x="63.623047" xlink:href="#DejaVuSans-46"/>
       <use x="95.410156" xlink:href="#DejaVuSans-48"/>
       <use x="159.033203" xlink:href="#DejaVuSans-48"/>
       <use x="222.65625" xlink:href="#DejaVuSans-53"/>
      </g>
     </g>
    </g>
    <g id="ytick_12">
     <g id="line2d_31">
      <g>
       <use style="fill:#252525;stroke:#252525;stroke-width:0.2;" x="33.732283" xlink:href="#me854ead445" y="242.80583"/>
      </g>
     </g>
     <g id="text_26">
      <!-- 0.010 -->
      <g style="fill:#252525;" transform="translate(10.555408 245.085361)scale(0.06 -0.06)">
       <use xlink:href="#DejaVuSans-48"/>
       <use x="63.623047" xlink:href="#DejaVuSans-46"/>
       <use x="95.410156" xlink:href="#DejaVuSans-48"/>
       <use x="159.033203" xlink:href="#DejaVuSans-49"/>
       <use x="222.65625" xlink:href="#DejaVuSans-48"/>
      </g>
     </g>
    </g>
    <g id="ytick_13">
     <g id="line2d_32">
      <g>
       <use style="fill:#252525;stroke:#252525;stroke-width:0.2;" x="33.732283" xlink:href="#me854ead445" y="212.171409"/>
      </g>
     </g>
     <g id="text_27">
      <!-- 0.015 -->
      <g style="fill:#252525;" transform="translate(10.555408 214.45094)scale(0.06 -0.06)">
       <use xlink:href="#DejaVuSans-48"/>
       <use x="63.623047" xlink:href="#DejaVuSans-46"/>
       <use x="95.410156" xlink:href="#DejaVuSans-48"/>
       <use x="159.033203" xlink:href="#DejaVuSans-49"/>
       <use x="222.65625" xlink:href="#DejaVuSans-53"/>
      </g>
     </g>
    </g>
    <g id="ytick_14">
     <g id="line2d_33">
      <g>
       <use style="fill:#252525;stroke:#252525;stroke-width:0.2;" x="33.732283" xlink:href="#me854ead445" y="181.536988"/>
      </g>
     </g>
     <g id="text_28">
      <!-- 0.020 -->
      <g style="fill:#252525;" transform="translate(10.555408 183.816519)scale(0.06 -0.06)">
       <use xlink:href="#DejaVuSans-48"/>
       <use x="63.623047" xlink:href="#DejaVuSans-46"/>
       <use x="95.410156" xlink:href="#DejaVuSans-48"/>
       <use x="159.033203" xlink:href="#DejaVuSans-50"/>
       <use x="222.65625" xlink:href="#DejaVuSans-48"/>
      </g>
     </g>
    </g>
    <g id="text_29">
     <!-- MAE of inferred selection coefficients -->
     <g transform="translate(5.307596 283.193932)rotate(-90)scale(0.06 -0.06)">
      <defs>
       <path d="M 34.1875 63.1875 
L 20.796875 26.90625 
L 47.609375 26.90625 
z
M 28.609375 72.90625 
L 39.796875 72.90625 
L 67.578125 0 
L 57.328125 0 
L 50.6875 18.703125 
L 17.828125 18.703125 
L 11.1875 0 
L 0.78125 0 
z
" id="DejaVuSans-65"/>
      </defs>
      <use xlink:href="#DejaVuSans-77"/>
      <use x="86.279297" xlink:href="#DejaVuSans-65"/>
      <use x="154.6875" xlink:href="#DejaVuSans-69"/>
      <use x="217.871094" xlink:href="#DejaVuSans-32"/>
      <use x="249.658203" xlink:href="#DejaVuSans-111"/>
      <use x="310.839844" xlink:href="#DejaVuSans-102"/>
      <use x="346.044922" xlink:href="#DejaVuSans-32"/>
      <use x="377.832031" xlink:href="#DejaVuSans-105"/>
      <use x="405.615234" xlink:href="#DejaVuSans-110"/>
      <use x="468.994141" xlink:href="#DejaVuSans-102"/>
      <use x="504.199219" xlink:href="#DejaVuSans-101"/>
      <use x="565.722656" xlink:href="#DejaVuSans-114"/>
      <use x="605.085938" xlink:href="#DejaVuSans-114"/>
      <use x="643.949219" xlink:href="#DejaVuSans-101"/>
      <use x="705.472656" xlink:href="#DejaVuSans-100"/>
      <use x="768.949219" xlink:href="#DejaVuSans-32"/>
      <use x="800.736328" xlink:href="#DejaVuSans-115"/>
      <use x="852.835938" xlink:href="#DejaVuSans-101"/>
      <use x="914.359375" xlink:href="#DejaVuSans-108"/>
      <use x="942.142578" xlink:href="#DejaVuSans-101"/>
      <use x="1003.666016" xlink:href="#DejaVuSans-99"/>
      <use x="1058.646484" xlink:href="#DejaVuSans-116"/>
      <use x="1097.855469" xlink:href="#DejaVuSans-105"/>
      <use x="1125.638672" xlink:href="#DejaVuSans-111"/>
      <use x="1186.820312" xlink:href="#DejaVuSans-110"/>
      <use x="1250.199219" xlink:href="#DejaVuSans-32"/>
      <use x="1281.986328" xlink:href="#DejaVuSans-99"/>
      <use x="1336.966797" xlink:href="#DejaVuSans-111"/>
      <use x="1398.148438" xlink:href="#DejaVuSans-101"/>
      <use x="1459.671875" xlink:href="#DejaVuSans-102"/>
      <use x="1494.876953" xlink:href="#DejaVuSans-102"/>
      <use x="1530.082031" xlink:href="#DejaVuSans-105"/>
      <use x="1557.865234" xlink:href="#DejaVuSans-99"/>
      <use x="1612.845703" xlink:href="#DejaVuSans-105"/>
      <use x="1640.628906" xlink:href="#DejaVuSans-101"/>
      <use x="1702.152344" xlink:href="#DejaVuSans-110"/>
      <use x="1765.53125" xlink:href="#DejaVuSans-116"/>
      <use x="1804.740234" xlink:href="#DejaVuSans-115"/>
     </g>
    </g>
   </g>
   <g id="line2d_34">
    <path clip-path="url(#pfc1842405a)" d="M 37.497047 173.333969 
L 52.556102 201.123747 
L 67.615157 217.715797 
L 82.674213 228.289295 
L 97.733268 235.115817 
L 112.792323 240.39924 
" style="fill:none;stroke:#023eff;stroke-linecap:square;stroke-opacity:0.75;stroke-width:0.6;"/>
   </g>
   <g id="line2d_35">
    <path clip-path="url(#pfc1842405a)" d="M 37.497047 245.413822 
L 52.556102 254.807884 
L 67.615157 259.782831 
L 82.674213 263.01467 
L 97.733268 264.665744 
L 112.792323 266.03797 
" style="fill:none;stroke:#ff7c00;stroke-linecap:square;stroke-opacity:0.75;stroke-width:0.6;"/>
   </g>
   <g id="line2d_36">
    <path clip-path="url(#pfc1842405a)" d="M 37.497047 208.558198 
L 52.556102 229.721917 
L 67.615157 239.729872 
L 82.674213 246.474585 
L 97.733268 250.582161 
L 112.792323 253.29148 
" style="fill:none;stroke:#808080;stroke-linecap:square;stroke-opacity:0.75;stroke-width:0.6;"/>
   </g>
   <g id="line2d_37">
    <path clip-path="url(#pfc1842405a)" d="M 37.497047 216.44872 
L 52.556102 225.957898 
L 67.615157 232.27341 
L 82.674213 237.124515 
L 97.733268 240.598396 
L 112.792323 243.413209 
" style="fill:none;stroke:#e8000b;stroke-linecap:square;stroke-opacity:0.75;stroke-width:0.6;"/>
   </g>
   <g id="line2d_38">
    <path clip-path="url(#pfc1842405a)" d="M 37.497047 219.843848 
L 52.556102 227.596939 
L 67.615157 232.333355 
L 82.674213 235.660835 
L 97.733268 238.188234 
L 112.792323 240.193971 
" style="fill:none;stroke:#1ac938;stroke-linecap:square;stroke-opacity:0.75;stroke-width:0.6;"/>
   </g>
   <g id="patch_13">
    <path d="M 33.732283 288.757461 
L 33.732283 166.219778 
" style="fill:none;stroke:#252525;stroke-linecap:square;stroke-linejoin:miter;stroke-width:0.4;"/>
   </g>
   <g id="patch_14">
    <path d="M 116.557087 288.757461 
L 116.557087 166.219778 
" style="fill:none;stroke:#252525;stroke-linecap:square;stroke-linejoin:miter;stroke-width:0.4;"/>
   </g>
   <g id="patch_15">
    <path d="M 33.732283 288.757461 
L 116.557087 288.757461 
" style="fill:none;stroke:#252525;stroke-linecap:square;stroke-linejoin:miter;stroke-width:0.4;"/>
   </g>
   <g id="patch_16">
    <path d="M 33.732283 166.219778 
L 116.557087 166.219778 
" style="fill:none;stroke:#252525;stroke-linecap:square;stroke-linejoin:miter;stroke-width:0.4;"/>
   </g>
   <g id="text_30">
    <!-- C -->
    <g style="fill:#222222;" transform="translate(22.199959 159.730033)scale(0.09 -0.09)">
     <defs>
      <path d="M 53.078125 26.3125 
L 67.09375 21.875 
Q 63.875 10.15625 56.375 4.46875 
Q 48.875 -1.21875 37.359375 -1.21875 
Q 23.09375 -1.21875 13.90625 8.515625 
Q 4.734375 18.265625 4.734375 35.15625 
Q 4.734375 53.03125 13.953125 62.90625 
Q 23.1875 72.796875 38.234375 72.796875 
Q 51.375 72.796875 59.578125 65.046875 
Q 64.453125 60.453125 66.890625 51.859375 
L 52.59375 48.4375 
Q 51.3125 54 47.28125 57.21875 
Q 43.265625 60.453125 37.5 60.453125 
Q 29.546875 60.453125 24.578125 54.734375 
Q 19.625 49.03125 19.625 36.234375 
Q 19.625 22.65625 24.5 16.890625 
Q 29.390625 11.140625 37.203125 11.140625 
Q 42.96875 11.140625 47.109375 14.796875 
Q 51.265625 18.453125 53.078125 26.3125 
z
" id="Arial-BoldMT-67"/>
     </defs>
     <use xlink:href="#Arial-BoldMT-67"/>
    </g>
   </g>
  </g>
  <g id="axes_4">
   <g id="patch_17">
    <path d="M 149.687008 288.757461 
L 232.511811 288.757461 
L 232.511811 166.219778 
L 149.687008 166.219778 
z
" style="fill:none;"/>
   </g>
   <g id="PathCollection_21">
    <defs>
     <path d="M 0 1.581139 
C 0.419323 1.581139 0.821528 1.41454 1.118034 1.118034 
C 1.41454 0.821528 1.581139 0.419323 1.581139 -0 
C 1.581139 -0.419323 1.41454 -0.821528 1.118034 -1.118034 
C 0.821528 -1.41454 0.419323 -1.581139 0 -1.581139 
C -0.419323 -1.581139 -0.821528 -1.41454 -1.118034 -1.118034 
C -1.41454 -0.821528 -1.581139 -0.419323 -1.581139 0 
C -1.581139 0.419323 -1.41454 0.821528 -1.118034 1.118034 
C -0.821528 1.41454 -0.419323 1.581139 0 1.581139 
z
" id="C3_0_4e750d64b4"/>
    </defs>
    <g clip-path="url(#p0949ccfb69)">
     <use style="fill:#023eff;fill-opacity:0.75;" x="153.451772" xlink:href="#C3_0_4e750d64b4" y="201.663338"/>
    </g>
    <g clip-path="url(#p0949ccfb69)">
     <use style="fill:#023eff;fill-opacity:0.75;" x="168.510827" xlink:href="#C3_0_4e750d64b4" y="225.758015"/>
    </g>
    <g clip-path="url(#p0949ccfb69)">
     <use style="fill:#023eff;fill-opacity:0.75;" x="183.569882" xlink:href="#C3_0_4e750d64b4" y="238.042493"/>
    </g>
    <g clip-path="url(#p0949ccfb69)">
     <use style="fill:#023eff;fill-opacity:0.75;" x="198.628937" xlink:href="#C3_0_4e750d64b4" y="245.370647"/>
    </g>
    <g clip-path="url(#p0949ccfb69)">
     <use style="fill:#023eff;fill-opacity:0.75;" x="213.687992" xlink:href="#C3_0_4e750d64b4" y="249.242576"/>
    </g>
    <g clip-path="url(#p0949ccfb69)">
     <use style="fill:#023eff;fill-opacity:0.75;" x="228.747047" xlink:href="#C3_0_4e750d64b4" y="252.047847"/>
    </g>
   </g>
   <g id="PathCollection_22">
    <path clip-path="url(#p0949ccfb69)" d="M 153.451772 276.782392 
L 154.793412 274.546324 
L 153.451772 272.310256 
L 152.110131 274.546324 
z
" style="fill:#ff7c00;fill-opacity:0.75;"/>
    <path clip-path="url(#p0949ccfb69)" d="M 168.510827 277.982579 
L 169.852468 275.746511 
L 168.510827 273.510443 
L 167.169186 275.746511 
z
" style="fill:#ff7c00;fill-opacity:0.75;"/>
    <path clip-path="url(#p0949ccfb69)" d="M 183.569882 277.264036 
L 184.911523 275.027968 
L 183.569882 272.7919 
L 182.228241 275.027968 
z
" style="fill:#ff7c00;fill-opacity:0.75;"/>
    <path clip-path="url(#p0949ccfb69)" d="M 198.628937 276.761259 
L 199.970578 274.525191 
L 198.628937 272.289123 
L 197.287296 274.525191 
z
" style="fill:#ff7c00;fill-opacity:0.75;"/>
    <path clip-path="url(#p0949ccfb69)" d="M 213.687992 275.990798 
L 215.029633 273.75473 
L 213.687992 271.518662 
L 212.346351 273.75473 
z
" style="fill:#ff7c00;fill-opacity:0.75;"/>
    <path clip-path="url(#p0949ccfb69)" d="M 228.747047 275.572781 
L 230.088688 273.336714 
L 228.747047 271.100646 
L 227.405406 273.336714 
z
" style="fill:#ff7c00;fill-opacity:0.75;"/>
   </g>
   <g id="PathCollection_23">
    <path clip-path="url(#p0949ccfb69)" d="M 153.451772 248.862695 
L 155.03291 245.700417 
L 151.870633 245.700417 
z
" style="fill:#808080;fill-opacity:0.75;"/>
    <path clip-path="url(#p0949ccfb69)" d="M 168.510827 255.137689 
L 170.091966 251.975411 
L 166.929688 251.975411 
z
" style="fill:#808080;fill-opacity:0.75;"/>
    <path clip-path="url(#p0949ccfb69)" d="M 183.569882 257.854634 
L 185.151021 254.692356 
L 181.988743 254.692356 
z
" style="fill:#808080;fill-opacity:0.75;"/>
    <path clip-path="url(#p0949ccfb69)" d="M 198.628937 259.506217 
L 200.210076 256.343939 
L 197.047798 256.343939 
z
" style="fill:#808080;fill-opacity:0.75;"/>
    <path clip-path="url(#p0949ccfb69)" d="M 213.687992 260.38056 
L 215.269131 257.218283 
L 212.106853 257.218283 
z
" style="fill:#808080;fill-opacity:0.75;"/>
    <path clip-path="url(#p0949ccfb69)" d="M 228.747047 261.210056 
L 230.328186 258.047778 
L 227.165908 258.047778 
z
" style="fill:#808080;fill-opacity:0.75;"/>
   </g>
   <g id="PathCollection_24">
    <path clip-path="url(#p0949ccfb69)" d="M 151.870633 224.208672 
L 155.03291 225.789811 
L 155.03291 222.627533 
z
" style="fill:#e8000b;fill-opacity:0.75;"/>
    <path clip-path="url(#p0949ccfb69)" d="M 166.929688 232.527185 
L 170.091966 234.108324 
L 170.091966 230.946046 
z
" style="fill:#e8000b;fill-opacity:0.75;"/>
    <path clip-path="url(#p0949ccfb69)" d="M 181.988743 237.658338 
L 185.151021 239.239476 
L 185.151021 236.077199 
z
" style="fill:#e8000b;fill-opacity:0.75;"/>
    <path clip-path="url(#p0949ccfb69)" d="M 197.047798 241.322707 
L 200.210076 242.903846 
L 200.210076 239.741568 
z
" style="fill:#e8000b;fill-opacity:0.75;"/>
    <path clip-path="url(#p0949ccfb69)" d="M 212.106853 243.818161 
L 215.269131 245.399299 
L 215.269131 242.237022 
z
" style="fill:#e8000b;fill-opacity:0.75;"/>
    <path clip-path="url(#p0949ccfb69)" d="M 227.165908 246.024505 
L 230.328186 247.605644 
L 230.328186 244.443366 
z
" style="fill:#e8000b;fill-opacity:0.75;"/>
   </g>
   <g id="PathCollection_25">
    <path clip-path="url(#p0949ccfb69)" d="M 155.03291 236.418682 
L 151.870633 234.837543 
L 151.870633 237.999821 
z
" style="fill:#1ac938;fill-opacity:0.75;"/>
    <path clip-path="url(#p0949ccfb69)" d="M 170.091966 242.019059 
L 166.929688 240.437921 
L 166.929688 243.600198 
z
" style="fill:#1ac938;fill-opacity:0.75;"/>
    <path clip-path="url(#p0949ccfb69)" d="M 185.151021 244.434394 
L 181.988743 242.853255 
L 181.988743 246.015533 
z
" style="fill:#1ac938;fill-opacity:0.75;"/>
    <path clip-path="url(#p0949ccfb69)" d="M 200.210076 246.024153 
L 197.047798 244.443015 
L 197.047798 247.605292 
z
" style="fill:#1ac938;fill-opacity:0.75;"/>
    <path clip-path="url(#p0949ccfb69)" d="M 215.269131 246.997143 
L 212.106853 245.416004 
L 212.106853 248.578281 
z
" style="fill:#1ac938;fill-opacity:0.75;"/>
    <path clip-path="url(#p0949ccfb69)" d="M 230.328186 248.227743 
L 227.165908 246.646605 
L 227.165908 249.808882 
z
" style="fill:#1ac938;fill-opacity:0.75;"/>
   </g>
   <g id="matplotlib.axis_7">
    <g id="xtick_10">
     <g id="line2d_39">
      <g>
       <use style="fill:#252525;stroke:#252525;stroke-width:0.2;" x="153.451772" xlink:href="#m39c6946dd3" y="288.757461"/>
      </g>
     </g>
     <g id="text_31">
      <!-- 200 -->
      <g style="fill:#252525;" transform="translate(147.725522 299.316523)scale(0.06 -0.06)">
       <use xlink:href="#DejaVuSans-50"/>
       <use x="63.623047" xlink:href="#DejaVuSans-48"/>
       <use x="127.246094" xlink:href="#DejaVuSans-48"/>
      </g>
     </g>
    </g>
    <g id="xtick_11">
     <g id="line2d_40">
      <g>
       <use style="fill:#252525;stroke:#252525;stroke-width:0.2;" x="183.569882" xlink:href="#m39c6946dd3" y="288.757461"/>
      </g>
     </g>
     <g id="text_32">
      <!-- 400 -->
      <g style="fill:#252525;" transform="translate(177.843632 299.316523)scale(0.06 -0.06)">
       <use xlink:href="#DejaVuSans-52"/>
       <use x="63.623047" xlink:href="#DejaVuSans-48"/>
       <use x="127.246094" xlink:href="#DejaVuSans-48"/>
      </g>
     </g>
    </g>
    <g id="xtick_12">
     <g id="line2d_41">
      <g>
       <use style="fill:#252525;stroke:#252525;stroke-width:0.2;" x="213.687992" xlink:href="#m39c6946dd3" y="288.757461"/>
      </g>
     </g>
     <g id="text_33">
      <!-- 600 -->
      <g style="fill:#252525;" transform="translate(207.961742 299.316523)scale(0.06 -0.06)">
       <use xlink:href="#DejaVuSans-54"/>
       <use x="63.623047" xlink:href="#DejaVuSans-48"/>
       <use x="127.246094" xlink:href="#DejaVuSans-48"/>
      </g>
     </g>
    </g>
   </g>
   <g id="matplotlib.axis_8">
    <g id="ytick_15">
     <g id="line2d_42">
      <g>
       <use style="fill:#252525;stroke:#252525;stroke-width:0.2;" x="149.687008" xlink:href="#me854ead445" y="273.44025"/>
      </g>
     </g>
    </g>
    <g id="ytick_16">
     <g id="line2d_43">
      <g>
       <use style="fill:#252525;stroke:#252525;stroke-width:0.2;" x="149.687008" xlink:href="#me854ead445" y="242.80583"/>
      </g>
     </g>
    </g>
    <g id="ytick_17">
     <g id="line2d_44">
      <g>
       <use style="fill:#252525;stroke:#252525;stroke-width:0.2;" x="149.687008" xlink:href="#me854ead445" y="212.171409"/>
      </g>
     </g>
    </g>
    <g id="ytick_18">
     <g id="line2d_45">
      <g>
       <use style="fill:#252525;stroke:#252525;stroke-width:0.2;" x="149.687008" xlink:href="#me854ead445" y="181.536988"/>
      </g>
     </g>
    </g>
   </g>
   <g id="line2d_46">
    <path clip-path="url(#p0949ccfb69)" d="M 153.451772 201.663338 
L 168.510827 225.758015 
L 183.569882 238.042493 
L 198.628937 245.370647 
L 213.687992 249.242576 
L 228.747047 252.047847 
" style="fill:none;stroke:#023eff;stroke-linecap:square;stroke-opacity:0.75;stroke-width:0.6;"/>
   </g>
   <g id="line2d_47">
    <path clip-path="url(#p0949ccfb69)" d="M 153.451772 274.546324 
L 168.510827 275.746511 
L 183.569882 275.027968 
L 198.628937 274.525191 
L 213.687992 273.75473 
L 228.747047 273.336714 
" style="fill:none;stroke:#ff7c00;stroke-linecap:square;stroke-opacity:0.75;stroke-width:0.6;"/>
   </g>
   <g id="line2d_48">
    <path clip-path="url(#p0949ccfb69)" d="M 153.451772 247.281556 
L 168.510827 253.55655 
L 183.569882 256.273495 
L 198.628937 257.925078 
L 213.687992 258.799421 
L 228.747047 259.628917 
" style="fill:none;stroke:#808080;stroke-linecap:square;stroke-opacity:0.75;stroke-width:0.6;"/>
   </g>
   <g id="line2d_49">
    <path clip-path="url(#p0949ccfb69)" d="M 153.451772 224.208672 
L 168.510827 232.527185 
L 183.569882 237.658338 
L 198.628937 241.322707 
L 213.687992 243.818161 
L 228.747047 246.024505 
" style="fill:none;stroke:#e8000b;stroke-linecap:square;stroke-opacity:0.75;stroke-width:0.6;"/>
   </g>
   <g id="line2d_50">
    <path clip-path="url(#p0949ccfb69)" d="M 153.451772 236.418682 
L 168.510827 242.019059 
L 183.569882 244.434394 
L 198.628937 246.024153 
L 213.687992 246.997143 
L 228.747047 248.227743 
" style="fill:none;stroke:#1ac938;stroke-linecap:square;stroke-opacity:0.75;stroke-width:0.6;"/>
   </g>
   <g id="patch_18">
    <path d="M 149.687008 288.757461 
L 149.687008 166.219778 
" style="fill:none;stroke:#252525;stroke-linecap:square;stroke-linejoin:miter;stroke-width:0.4;"/>
   </g>
   <g id="patch_19">
    <path d="M 232.511811 288.757461 
L 232.511811 166.219778 
" style="fill:none;stroke:#252525;stroke-linecap:square;stroke-linejoin:miter;stroke-width:0.4;"/>
   </g>
   <g id="patch_20">
    <path d="M 149.687008 288.757461 
L 232.511811 288.757461 
" style="fill:none;stroke:#252525;stroke-linecap:square;stroke-linejoin:miter;stroke-width:0.4;"/>
   </g>
   <g id="patch_21">
    <path d="M 149.687008 166.219778 
L 232.511811 166.219778 
" style="fill:none;stroke:#252525;stroke-linecap:square;stroke-linejoin:miter;stroke-width:0.4;"/>
   </g>
   <g id="text_34">
    <!-- D -->
    <g style="fill:#222222;" transform="translate(138.154684 159.730033)scale(0.09 -0.09)">
     <defs>
      <path d="M 7.234375 71.578125 
L 33.640625 71.578125 
Q 42.578125 71.578125 47.265625 70.21875 
Q 53.5625 68.359375 58.046875 63.625 
Q 62.546875 58.890625 64.890625 52.03125 
Q 67.234375 45.171875 67.234375 35.109375 
Q 67.234375 26.265625 65.046875 19.875 
Q 62.359375 12.0625 57.375 7.234375 
Q 53.609375 3.5625 47.21875 1.515625 
Q 42.4375 0 34.421875 0 
L 7.234375 0 
z
M 21.6875 59.46875 
L 21.6875 12.0625 
L 32.46875 12.0625 
Q 38.53125 12.0625 41.21875 12.75 
Q 44.734375 13.625 47.046875 15.71875 
Q 49.359375 17.828125 50.828125 22.625 
Q 52.296875 27.4375 52.296875 35.75 
Q 52.296875 44.046875 50.828125 48.484375 
Q 49.359375 52.9375 46.71875 55.421875 
Q 44.09375 57.90625 40.046875 58.796875 
Q 37.015625 59.46875 28.171875 59.46875 
z
" id="Arial-BoldMT-68"/>
     </defs>
     <use xlink:href="#Arial-BoldMT-68"/>
    </g>
   </g>
  </g>
  <g id="axes_5">
   <g id="matplotlib.axis_9">
    <g id="xtick_13">
     <g id="text_35">
      <!-- 0.0 -->
      <g style="opacity:0;" transform="translate(25.780721 303.355898)scale(0.1 -0.1)">
       <use xlink:href="#DejaVuSans-48"/>
       <use x="63.623047" xlink:href="#DejaVuSans-46"/>
       <use x="95.410156" xlink:href="#DejaVuSans-48"/>
      </g>
     </g>
    </g>
    <g id="xtick_14">
     <g id="text_36">
      <!-- 0.2 -->
      <g style="opacity:0;" transform="translate(65.536626 303.355898)scale(0.1 -0.1)">
       <use xlink:href="#DejaVuSans-48"/>
       <use x="63.623047" xlink:href="#DejaVuSans-46"/>
       <use x="95.410156" xlink:href="#DejaVuSans-50"/>
      </g>
     </g>
    </g>
    <g id="xtick_15">
     <g id="text_37">
      <!-- 0.4 -->
      <g style="opacity:0;" transform="translate(105.292532 303.355898)scale(0.1 -0.1)">
       <use xlink:href="#DejaVuSans-48"/>
       <use x="63.623047" xlink:href="#DejaVuSans-46"/>
       <use x="95.410156" xlink:href="#DejaVuSans-52"/>
      </g>
     </g>
    </g>
    <g id="xtick_16">
     <g id="text_38">
      <!-- 0.6 -->
      <g style="opacity:0;" transform="translate(145.048438 303.355898)scale(0.1 -0.1)">
       <use xlink:href="#DejaVuSans-48"/>
       <use x="63.623047" xlink:href="#DejaVuSans-46"/>
       <use x="95.410156" xlink:href="#DejaVuSans-54"/>
      </g>
     </g>
    </g>
    <g id="xtick_17">
     <g id="text_39">
      <!-- 0.8 -->
      <g style="opacity:0;" transform="translate(184.804343 303.355898)scale(0.1 -0.1)">
       <use xlink:href="#DejaVuSans-48"/>
       <use x="63.623047" xlink:href="#DejaVuSans-46"/>
       <use x="95.410156" xlink:href="#DejaVuSans-56"/>
      </g>
     </g>
    </g>
    <g id="xtick_18">
     <g id="text_40">
      <!-- 1.0 -->
      <g style="opacity:0;" transform="translate(224.560249 303.355898)scale(0.1 -0.1)">
       <use xlink:href="#DejaVuSans-49"/>
       <use x="63.623047" xlink:href="#DejaVuSans-46"/>
       <use x="95.410156" xlink:href="#DejaVuSans-48"/>
      </g>
     </g>
    </g>
    <g id="text_41">
     <!-- Generations of data used -->
     <g transform="translate(95.099391 308.994648)scale(0.06 -0.06)">
      <defs>
       <path d="M 59.515625 10.40625 
L 59.515625 29.984375 
L 43.40625 29.984375 
L 43.40625 38.09375 
L 69.28125 38.09375 
L 69.28125 6.78125 
Q 63.578125 2.734375 56.6875 0.65625 
Q 49.8125 -1.421875 42 -1.421875 
Q 24.90625 -1.421875 15.25 8.5625 
Q 5.609375 18.5625 5.609375 36.375 
Q 5.609375 54.25 15.25 64.234375 
Q 24.90625 74.21875 42 74.21875 
Q 49.125 74.21875 55.546875 72.453125 
Q 61.96875 70.703125 67.390625 67.28125 
L 67.390625 56.78125 
Q 61.921875 61.421875 55.765625 63.765625 
Q 49.609375 66.109375 42.828125 66.109375 
Q 29.4375 66.109375 22.71875 58.640625 
Q 16.015625 51.171875 16.015625 36.375 
Q 16.015625 21.625 22.71875 14.15625 
Q 29.4375 6.6875 42.828125 6.6875 
Q 48.046875 6.6875 52.140625 7.59375 
Q 56.25 8.5 59.515625 10.40625 
z
" id="DejaVuSans-71"/>
      </defs>
      <use xlink:href="#DejaVuSans-71"/>
      <use x="77.490234" xlink:href="#DejaVuSans-101"/>
      <use x="139.013672" xlink:href="#DejaVuSans-110"/>
      <use x="202.392578" xlink:href="#DejaVuSans-101"/>
      <use x="263.916016" xlink:href="#DejaVuSans-114"/>
      <use x="305.029297" xlink:href="#DejaVuSans-97"/>
      <use x="366.308594" xlink:href="#DejaVuSans-116"/>
      <use x="405.517578" xlink:href="#DejaVuSans-105"/>
      <use x="433.300781" xlink:href="#DejaVuSans-111"/>
      <use x="494.482422" xlink:href="#DejaVuSans-110"/>
      <use x="557.861328" xlink:href="#DejaVuSans-115"/>
      <use x="609.960938" xlink:href="#DejaVuSans-32"/>
      <use x="641.748047" xlink:href="#DejaVuSans-111"/>
      <use x="702.929688" xlink:href="#DejaVuSans-102"/>
      <use x="738.134766" xlink:href="#DejaVuSans-32"/>
      <use x="769.921875" xlink:href="#DejaVuSans-100"/>
      <use x="833.398438" xlink:href="#DejaVuSans-97"/>
      <use x="894.677734" xlink:href="#DejaVuSans-116"/>
      <use x="933.886719" xlink:href="#DejaVuSans-97"/>
      <use x="995.166016" xlink:href="#DejaVuSans-32"/>
      <use x="1026.953125" xlink:href="#DejaVuSans-117"/>
      <use x="1090.332031" xlink:href="#DejaVuSans-115"/>
      <use x="1142.431641" xlink:href="#DejaVuSans-101"/>
      <use x="1203.955078" xlink:href="#DejaVuSans-100"/>
     </g>
    </g>
   </g>
   <g id="matplotlib.axis_10">
    <g id="ytick_19">
     <g id="text_42">
      <!-- 0.0 -->
      <g style="opacity:0;" transform="translate(10.829158 292.556679)scale(0.1 -0.1)">
       <use xlink:href="#DejaVuSans-48"/>
       <use x="63.623047" xlink:href="#DejaVuSans-46"/>
       <use x="95.410156" xlink:href="#DejaVuSans-48"/>
      </g>
     </g>
    </g>
    <g id="ytick_20">
     <g id="text_43">
      <!-- 0.2 -->
      <g style="opacity:0;" transform="translate(10.829158 237.414722)scale(0.1 -0.1)">
       <use xlink:href="#DejaVuSans-48"/>
       <use x="63.623047" xlink:href="#DejaVuSans-46"/>
       <use x="95.410156" xlink:href="#DejaVuSans-50"/>
      </g>
     </g>
    </g>
    <g id="ytick_21">
     <g id="text_44">
      <!-- 0.4 -->
      <g style="opacity:0;" transform="translate(10.829158 182.272765)scale(0.1 -0.1)">
       <use xlink:href="#DejaVuSans-48"/>
       <use x="63.623047" xlink:href="#DejaVuSans-46"/>
       <use x="95.410156" xlink:href="#DejaVuSans-52"/>
      </g>
     </g>
    </g>
    <g id="ytick_22">
     <g id="text_45">
      <!-- 0.6 -->
      <g style="opacity:0;" transform="translate(10.829158 127.130808)scale(0.1 -0.1)">
       <use xlink:href="#DejaVuSans-48"/>
       <use x="63.623047" xlink:href="#DejaVuSans-46"/>
       <use x="95.410156" xlink:href="#DejaVuSans-54"/>
      </g>
     </g>
    </g>
    <g id="ytick_23">
     <g id="text_46">
      <!-- 0.8 -->
      <g style="opacity:0;" transform="translate(10.829158 71.98885)scale(0.1 -0.1)">
       <use xlink:href="#DejaVuSans-48"/>
       <use x="63.623047" xlink:href="#DejaVuSans-46"/>
       <use x="95.410156" xlink:href="#DejaVuSans-56"/>
      </g>
     </g>
    </g>
    <g id="ytick_24">
     <g id="text_47">
      <!-- 1.0 -->
      <g style="opacity:0;" transform="translate(10.829158 16.846893)scale(0.1 -0.1)">
       <use xlink:href="#DejaVuSans-49"/>
       <use x="63.623047" xlink:href="#DejaVuSans-46"/>
       <use x="95.410156" xlink:href="#DejaVuSans-48"/>
      </g>
     </g>
    </g>
   </g>
  </g>
 </g>
 <defs>
  <clipPath id="p21ce3212d6">
   <rect height="122.537683" width="82.824803" x="33.732283" y="13.047674"/>
  </clipPath>
  <clipPath id="pb37e9cdcb4">
   <rect height="122.537683" width="82.824803" x="149.687008" y="13.047674"/>
  </clipPath>
  <clipPath id="pfc1842405a">
   <rect height="122.537683" width="82.824803" x="33.732283" y="166.219778"/>
  </clipPath>
  <clipPath id="p0949ccfb69">
   <rect height="122.537683" width="82.824803" x="149.687008" y="166.219778"/>
  </clipPath>
 </defs>
</svg>
