<?xml version="1.0" encoding="utf-8" standalone="no"?>
<!DOCTYPE svg PUBLIC "-//W3C//DTD SVG 1.1//EN"
  "http://www.w3.org/Graphics/SVG/1.1/DTD/svg11.dtd">
<!-- Created with matplotlib (https://matplotlib.org/) -->
<svg height="133.858268pt" version="1.1" viewBox="0 0 240.944882 133.858268" width="240.944882pt" xmlns="http://www.w3.org/2000/svg" xmlns:xlink="http://www.w3.org/1999/xlink">
 <metadata>
  <rdf:RDF xmlns:cc="http://creativecommons.org/ns#" xmlns:dc="http://purl.org/dc/elements/1.1/" xmlns:rdf="http://www.w3.org/1999/02/22-rdf-syntax-ns#">
   <cc:Work>
    <dc:type rdf:resource="http://purl.org/dc/dcmitype/StillImage"/>
    <dc:date>2022-09-09T13:31:31.648097</dc:date>
    <dc:format>image/svg+xml</dc:format>
    <dc:creator>
     <cc:Agent>
      <dc:title>Matplotlib v3.3.2, https://matplotlib.org/</dc:title>
     </cc:Agent>
    </dc:creator>
   </cc:Work>
  </rdf:RDF>
 </metadata>
 <defs>
  <style type="text/css">*{stroke-linecap:butt;stroke-linejoin:round;}</style>
 </defs>
 <g id="figure_1">
  <g id="patch_1">
   <path d="M 0 133.858268 
L 240.944882 133.858268 
L 240.944882 0 
L 0 0 
z
" style="fill:#ffffff;"/>
  </g>
  <g id="axes_1">
   <g id="patch_2">
    <path d="M 26.503937 105.07874 
L 127.108486 105.07874 
L 127.108486 9.370079 
L 26.503937 9.370079 
z
" style="fill:none;"/>
   </g>
   <g id="QuadMesh_1">
    <path clip-path="url(#p48f7aefa40)" d="M 26.503937 9.370079 
L 46.624847 9.370079 
L 46.624847 21.333661 
L 26.503937 21.333661 
L 26.503937 9.370079 
" style="fill:#084081;fill-opacity:0.75;"/>
    <path clip-path="url(#p48f7aefa40)" d="M 46.624847 9.370079 
L 66.745756 9.370079 
L 66.745756 21.333661 
L 46.624847 21.333661 
L 46.624847 9.370079 
" style="fill:#084081;fill-opacity:0.75;"/>
    <path clip-path="url(#p48f7aefa40)" d="M 66.745756 9.370079 
L 86.866666 9.370079 
L 86.866666 21.333661 
L 66.745756 21.333661 
L 66.745756 9.370079 
" style="fill:#084081;fill-opacity:0.75;"/>
    <path clip-path="url(#p48f7aefa40)" d="M 86.866666 9.370079 
L 106.987576 9.370079 
L 106.987576 21.333661 
L 86.866666 21.333661 
L 86.866666 9.370079 
" style="fill:#084081;fill-opacity:0.75;"/>
    <path clip-path="url(#p48f7aefa40)" d="M 106.987576 9.370079 
L 127.108486 9.370079 
L 127.108486 21.333661 
L 106.987576 21.333661 
L 106.987576 9.370079 
" style="fill:#084081;fill-opacity:0.75;"/>
    <path clip-path="url(#p48f7aefa40)" d="M 26.503937 21.333661 
L 46.624847 21.333661 
L 46.624847 33.297244 
L 26.503937 33.297244 
L 26.503937 21.333661 
" style="fill:#084081;fill-opacity:0.75;"/>
    <path clip-path="url(#p48f7aefa40)" d="M 46.624847 21.333661 
L 66.745756 21.333661 
L 66.745756 33.297244 
L 46.624847 33.297244 
L 46.624847 21.333661 
" style="fill:#084081;fill-opacity:0.75;"/>
    <path clip-path="url(#p48f7aefa40)" d="M 66.745756 21.333661 
L 86.866666 21.333661 
L 86.866666 33.297244 
L 66.745756 33.297244 
L 66.745756 21.333661 
" style="fill:#084081;fill-opacity:0.75;"/>
    <path clip-path="url(#p48f7aefa40)" d="M 86.866666 21.333661 
L 106.987576 21.333661 
L 106.987576 33.297244 
L 86.866666 33.297244 
L 86.866666 21.333661 
" style="fill:#084081;fill-opacity:0.75;"/>
    <path clip-path="url(#p48f7aefa40)" d="M 106.987576 21.333661 
L 127.108486 21.333661 
L 127.108486 33.297244 
L 106.987576 33.297244 
L 106.987576 21.333661 
" style="fill:#084081;fill-opacity:0.75;"/>
    <path clip-path="url(#p48f7aefa40)" d="M 26.503937 33.297244 
L 46.624847 33.297244 
L 46.624847 45.260827 
L 26.503937 45.260827 
L 26.503937 33.297244 
" style="fill:#084081;fill-opacity:0.75;"/>
    <path clip-path="url(#p48f7aefa40)" d="M 46.624847 33.297244 
L 66.745756 33.297244 
L 66.745756 45.260827 
L 46.624847 45.260827 
L 46.624847 33.297244 
" style="fill:#084081;fill-opacity:0.75;"/>
    <path clip-path="url(#p48f7aefa40)" d="M 66.745756 33.297244 
L 86.866666 33.297244 
L 86.866666 45.260827 
L 66.745756 45.260827 
L 66.745756 33.297244 
" style="fill:#084081;fill-opacity:0.75;"/>
    <path clip-path="url(#p48f7aefa40)" d="M 86.866666 33.297244 
L 106.987576 33.297244 
L 106.987576 45.260827 
L 86.866666 45.260827 
L 86.866666 33.297244 
" style="fill:#084081;fill-opacity:0.75;"/>
    <path clip-path="url(#p48f7aefa40)" d="M 106.987576 33.297244 
L 127.108486 33.297244 
L 127.108486 45.260827 
L 106.987576 45.260827 
L 106.987576 33.297244 
" style="fill:#084081;fill-opacity:0.75;"/>
    <path clip-path="url(#p48f7aefa40)" d="M 26.503937 45.260827 
L 46.624847 45.260827 
L 46.624847 57.224409 
L 26.503937 57.224409 
L 26.503937 45.260827 
" style="fill:#084081;fill-opacity:0.75;"/>
    <path clip-path="url(#p48f7aefa40)" d="M 46.624847 45.260827 
L 66.745756 45.260827 
L 66.745756 57.224409 
L 46.624847 57.224409 
L 46.624847 45.260827 
" style="fill:#084081;fill-opacity:0.75;"/>
    <path clip-path="url(#p48f7aefa40)" d="M 66.745756 45.260827 
L 86.866666 45.260827 
L 86.866666 57.224409 
L 66.745756 57.224409 
L 66.745756 45.260827 
" style="fill:#084081;fill-opacity:0.75;"/>
    <path clip-path="url(#p48f7aefa40)" d="M 86.866666 45.260827 
L 106.987576 45.260827 
L 106.987576 57.224409 
L 86.866666 57.224409 
L 86.866666 45.260827 
" style="fill:#084081;fill-opacity:0.75;"/>
    <path clip-path="url(#p48f7aefa40)" d="M 106.987576 45.260827 
L 127.108486 45.260827 
L 127.108486 57.224409 
L 106.987576 57.224409 
L 106.987576 45.260827 
" style="fill:#084081;fill-opacity:0.75;"/>
    <path clip-path="url(#p48f7aefa40)" d="M 26.503937 57.224409 
L 46.624847 57.224409 
L 46.624847 69.187992 
L 26.503937 69.187992 
L 26.503937 57.224409 
" style="fill:#084081;fill-opacity:0.75;"/>
    <path clip-path="url(#p48f7aefa40)" d="M 46.624847 57.224409 
L 66.745756 57.224409 
L 66.745756 69.187992 
L 46.624847 69.187992 
L 46.624847 57.224409 
" style="fill:#084081;fill-opacity:0.75;"/>
    <path clip-path="url(#p48f7aefa40)" d="M 66.745756 57.224409 
L 86.866666 57.224409 
L 86.866666 69.187992 
L 66.745756 69.187992 
L 66.745756 57.224409 
" style="fill:#084081;fill-opacity:0.75;"/>
    <path clip-path="url(#p48f7aefa40)" d="M 86.866666 57.224409 
L 106.987576 57.224409 
L 106.987576 69.187992 
L 86.866666 69.187992 
L 86.866666 57.224409 
" style="fill:#084081;fill-opacity:0.75;"/>
    <path clip-path="url(#p48f7aefa40)" d="M 106.987576 57.224409 
L 127.108486 57.224409 
L 127.108486 69.187992 
L 106.987576 69.187992 
L 106.987576 57.224409 
" style="fill:#084081;fill-opacity:0.75;"/>
    <path clip-path="url(#p48f7aefa40)" d="M 26.503937 69.187992 
L 46.624847 69.187992 
L 46.624847 81.151575 
L 26.503937 81.151575 
L 26.503937 69.187992 
" style="fill:#084081;fill-opacity:0.75;"/>
    <path clip-path="url(#p48f7aefa40)" d="M 46.624847 69.187992 
L 66.745756 69.187992 
L 66.745756 81.151575 
L 46.624847 81.151575 
L 46.624847 69.187992 
" style="fill:#084081;fill-opacity:0.75;"/>
    <path clip-path="url(#p48f7aefa40)" d="M 66.745756 69.187992 
L 86.866666 69.187992 
L 86.866666 81.151575 
L 66.745756 81.151575 
L 66.745756 69.187992 
" style="fill:#084081;fill-opacity:0.75;"/>
    <path clip-path="url(#p48f7aefa40)" d="M 86.866666 69.187992 
L 106.987576 69.187992 
L 106.987576 81.151575 
L 86.866666 81.151575 
L 86.866666 69.187992 
" style="fill:#084081;fill-opacity:0.75;"/>
    <path clip-path="url(#p48f7aefa40)" d="M 106.987576 69.187992 
L 127.108486 69.187992 
L 127.108486 81.151575 
L 106.987576 81.151575 
L 106.987576 69.187992 
" style="fill:#084081;fill-opacity:0.75;"/>
    <path clip-path="url(#p48f7aefa40)" d="M 26.503937 81.151575 
L 46.624847 81.151575 
L 46.624847 93.115157 
L 26.503937 93.115157 
L 26.503937 81.151575 
" style="fill:#084081;fill-opacity:0.75;"/>
    <path clip-path="url(#p48f7aefa40)" d="M 46.624847 81.151575 
L 66.745756 81.151575 
L 66.745756 93.115157 
L 46.624847 93.115157 
L 46.624847 81.151575 
" style="fill:#084081;fill-opacity:0.75;"/>
    <path clip-path="url(#p48f7aefa40)" d="M 66.745756 81.151575 
L 86.866666 81.151575 
L 86.866666 93.115157 
L 66.745756 93.115157 
L 66.745756 81.151575 
" style="fill:#084081;fill-opacity:0.75;"/>
    <path clip-path="url(#p48f7aefa40)" d="M 86.866666 81.151575 
L 106.987576 81.151575 
L 106.987576 93.115157 
L 86.866666 93.115157 
L 86.866666 81.151575 
" style="fill:#084081;fill-opacity:0.75;"/>
    <path clip-path="url(#p48f7aefa40)" d="M 106.987576 81.151575 
L 127.108486 81.151575 
L 127.108486 93.115157 
L 106.987576 93.115157 
L 106.987576 81.151575 
" style="fill:#085294;fill-opacity:0.75;"/>
    <path clip-path="url(#p48f7aefa40)" d="M 26.503937 93.115157 
L 46.624847 93.115157 
L 46.624847 105.07874 
L 26.503937 105.07874 
L 26.503937 93.115157 
" style="fill:#0863a7;fill-opacity:0.75;"/>
    <path clip-path="url(#p48f7aefa40)" d="M 46.624847 93.115157 
L 66.745756 93.115157 
L 66.745756 105.07874 
L 46.624847 105.07874 
L 46.624847 93.115157 
" style="fill:#0864a8;fill-opacity:0.75;"/>
    <path clip-path="url(#p48f7aefa40)" d="M 66.745756 93.115157 
L 86.866666 93.115157 
L 86.866666 105.07874 
L 66.745756 105.07874 
L 66.745756 93.115157 
" style="fill:#0b6cae;fill-opacity:0.75;"/>
    <path clip-path="url(#p48f7aefa40)" d="M 86.866666 93.115157 
L 106.987576 93.115157 
L 106.987576 105.07874 
L 86.866666 105.07874 
L 86.866666 93.115157 
" style="fill:#0b6cae;fill-opacity:0.75;"/>
    <path clip-path="url(#p48f7aefa40)" d="M 106.987576 93.115157 
L 127.108486 93.115157 
L 127.108486 105.07874 
L 106.987576 105.07874 
L 106.987576 93.115157 
" style="fill:#1e7fb7;fill-opacity:0.75;"/>
   </g>
   <g id="matplotlib.axis_1">
    <g id="xtick_1">
     <g id="text_1">
      <!-- 1000 -->
      <g style="fill:#252525;" transform="translate(28.929392 114.637803)scale(0.06 -0.06)">
       <defs>
        <path d="M 12.40625 8.296875 
L 28.515625 8.296875 
L 28.515625 63.921875 
L 10.984375 60.40625 
L 10.984375 69.390625 
L 28.421875 72.90625 
L 38.28125 72.90625 
L 38.28125 8.296875 
L 54.390625 8.296875 
L 54.390625 0 
L 12.40625 0 
z
" id="DejaVuSans-49"/>
        <path d="M 31.78125 66.40625 
Q 24.171875 66.40625 20.328125 58.90625 
Q 16.5 51.421875 16.5 36.375 
Q 16.5 21.390625 20.328125 13.890625 
Q 24.171875 6.390625 31.78125 6.390625 
Q 39.453125 6.390625 43.28125 13.890625 
Q 47.125 21.390625 47.125 36.375 
Q 47.125 51.421875 43.28125 58.90625 
Q 39.453125 66.40625 31.78125 66.40625 
z
M 31.78125 74.21875 
Q 44.046875 74.21875 50.515625 64.515625 
Q 56.984375 54.828125 56.984375 36.375 
Q 56.984375 17.96875 50.515625 8.265625 
Q 44.046875 -1.421875 31.78125 -1.421875 
Q 19.53125 -1.421875 13.0625 8.265625 
Q 6.59375 17.96875 6.59375 36.375 
Q 6.59375 54.828125 13.0625 64.515625 
Q 19.53125 74.21875 31.78125 74.21875 
z
" id="DejaVuSans-48"/>
       </defs>
       <use xlink:href="#DejaVuSans-49"/>
       <use x="63.623047" xlink:href="#DejaVuSans-48"/>
       <use x="127.246094" xlink:href="#DejaVuSans-48"/>
       <use x="190.869141" xlink:href="#DejaVuSans-48"/>
      </g>
     </g>
    </g>
    <g id="xtick_2">
     <g id="text_2">
      <!-- 500 -->
      <g style="fill:#252525;" transform="translate(50.959052 114.637803)scale(0.06 -0.06)">
       <defs>
        <path d="M 10.796875 72.90625 
L 49.515625 72.90625 
L 49.515625 64.59375 
L 19.828125 64.59375 
L 19.828125 46.734375 
Q 21.96875 47.46875 24.109375 47.828125 
Q 26.265625 48.1875 28.421875 48.1875 
Q 40.625 48.1875 47.75 41.5 
Q 54.890625 34.8125 54.890625 23.390625 
Q 54.890625 11.625 47.5625 5.09375 
Q 40.234375 -1.421875 26.90625 -1.421875 
Q 22.3125 -1.421875 17.546875 -0.640625 
Q 12.796875 0.140625 7.71875 1.703125 
L 7.71875 11.625 
Q 12.109375 9.234375 16.796875 8.0625 
Q 21.484375 6.890625 26.703125 6.890625 
Q 35.15625 6.890625 40.078125 11.328125 
Q 45.015625 15.765625 45.015625 23.390625 
Q 45.015625 31 40.078125 35.4375 
Q 35.15625 39.890625 26.703125 39.890625 
Q 22.75 39.890625 18.8125 39.015625 
Q 14.890625 38.140625 10.796875 36.28125 
z
" id="DejaVuSans-53"/>
       </defs>
       <use xlink:href="#DejaVuSans-53"/>
       <use x="63.623047" xlink:href="#DejaVuSans-48"/>
       <use x="127.246094" xlink:href="#DejaVuSans-48"/>
      </g>
     </g>
    </g>
    <g id="xtick_3">
     <g id="text_3">
      <!-- 100 -->
      <g style="fill:#252525;" transform="translate(71.079961 114.637803)scale(0.06 -0.06)">
       <use xlink:href="#DejaVuSans-49"/>
       <use x="63.623047" xlink:href="#DejaVuSans-48"/>
       <use x="127.246094" xlink:href="#DejaVuSans-48"/>
      </g>
     </g>
    </g>
    <g id="xtick_4">
     <g id="text_4">
      <!-- 50 -->
      <g style="fill:#252525;" transform="translate(93.109621 114.637803)scale(0.06 -0.06)">
       <use xlink:href="#DejaVuSans-53"/>
       <use x="63.623047" xlink:href="#DejaVuSans-48"/>
      </g>
     </g>
    </g>
    <g id="xtick_5">
     <g id="text_5">
      <!-- 10 -->
      <g style="fill:#252525;" transform="translate(113.230531 114.637803)scale(0.06 -0.06)">
       <use xlink:href="#DejaVuSans-49"/>
       <use x="63.623047" xlink:href="#DejaVuSans-48"/>
      </g>
     </g>
    </g>
    <g id="text_6">
     <!-- Number of samples drawn -->
     <g transform="translate(37.201524 124.444678)scale(0.06 -0.06)">
      <defs>
       <path d="M 9.8125 72.90625 
L 23.09375 72.90625 
L 55.421875 11.921875 
L 55.421875 72.90625 
L 64.984375 72.90625 
L 64.984375 0 
L 51.703125 0 
L 19.390625 60.984375 
L 19.390625 0 
L 9.8125 0 
z
" id="DejaVuSans-78"/>
       <path d="M 8.5 21.578125 
L 8.5 54.6875 
L 17.484375 54.6875 
L 17.484375 21.921875 
Q 17.484375 14.15625 20.5 10.265625 
Q 23.53125 6.390625 29.59375 6.390625 
Q 36.859375 6.390625 41.078125 11.03125 
Q 45.3125 15.671875 45.3125 23.6875 
L 45.3125 54.6875 
L 54.296875 54.6875 
L 54.296875 0 
L 45.3125 0 
L 45.3125 8.40625 
Q 42.046875 3.421875 37.71875 1 
Q 33.40625 -1.421875 27.6875 -1.421875 
Q 18.265625 -1.421875 13.375 4.4375 
Q 8.5 10.296875 8.5 21.578125 
z
M 31.109375 56 
z
" id="DejaVuSans-117"/>
       <path d="M 52 44.1875 
Q 55.375 50.25 60.0625 53.125 
Q 64.75 56 71.09375 56 
Q 79.640625 56 84.28125 50.015625 
Q 88.921875 44.046875 88.921875 33.015625 
L 88.921875 0 
L 79.890625 0 
L 79.890625 32.71875 
Q 79.890625 40.578125 77.09375 44.375 
Q 74.3125 48.1875 68.609375 48.1875 
Q 61.625 48.1875 57.5625 43.546875 
Q 53.515625 38.921875 53.515625 30.90625 
L 53.515625 0 
L 44.484375 0 
L 44.484375 32.71875 
Q 44.484375 40.625 41.703125 44.40625 
Q 38.921875 48.1875 33.109375 48.1875 
Q 26.21875 48.1875 22.15625 43.53125 
Q 18.109375 38.875 18.109375 30.90625 
L 18.109375 0 
L 9.078125 0 
L 9.078125 54.6875 
L 18.109375 54.6875 
L 18.109375 46.1875 
Q 21.1875 51.21875 25.484375 53.609375 
Q 29.78125 56 35.6875 56 
Q 41.65625 56 45.828125 52.96875 
Q 50 49.953125 52 44.1875 
z
" id="DejaVuSans-109"/>
       <path d="M 48.6875 27.296875 
Q 48.6875 37.203125 44.609375 42.84375 
Q 40.53125 48.484375 33.40625 48.484375 
Q 26.265625 48.484375 22.1875 42.84375 
Q 18.109375 37.203125 18.109375 27.296875 
Q 18.109375 17.390625 22.1875 11.75 
Q 26.265625 6.109375 33.40625 6.109375 
Q 40.53125 6.109375 44.609375 11.75 
Q 48.6875 17.390625 48.6875 27.296875 
z
M 18.109375 46.390625 
Q 20.953125 51.265625 25.265625 53.625 
Q 29.59375 56 35.59375 56 
Q 45.5625 56 51.78125 48.09375 
Q 58.015625 40.1875 58.015625 27.296875 
Q 58.015625 14.40625 51.78125 6.484375 
Q 45.5625 -1.421875 35.59375 -1.421875 
Q 29.59375 -1.421875 25.265625 0.953125 
Q 20.953125 3.328125 18.109375 8.203125 
L 18.109375 0 
L 9.078125 0 
L 9.078125 75.984375 
L 18.109375 75.984375 
z
" id="DejaVuSans-98"/>
       <path d="M 56.203125 29.59375 
L 56.203125 25.203125 
L 14.890625 25.203125 
Q 15.484375 15.921875 20.484375 11.0625 
Q 25.484375 6.203125 34.421875 6.203125 
Q 39.59375 6.203125 44.453125 7.46875 
Q 49.3125 8.734375 54.109375 11.28125 
L 54.109375 2.78125 
Q 49.265625 0.734375 44.1875 -0.34375 
Q 39.109375 -1.421875 33.890625 -1.421875 
Q 20.796875 -1.421875 13.15625 6.1875 
Q 5.515625 13.8125 5.515625 26.8125 
Q 5.515625 40.234375 12.765625 48.109375 
Q 20.015625 56 32.328125 56 
Q 43.359375 56 49.78125 48.890625 
Q 56.203125 41.796875 56.203125 29.59375 
z
M 47.21875 32.234375 
Q 47.125 39.59375 43.09375 43.984375 
Q 39.0625 48.390625 32.421875 48.390625 
Q 24.90625 48.390625 20.390625 44.140625 
Q 15.875 39.890625 15.1875 32.171875 
z
" id="DejaVuSans-101"/>
       <path d="M 41.109375 46.296875 
Q 39.59375 47.171875 37.8125 47.578125 
Q 36.03125 48 33.890625 48 
Q 26.265625 48 22.1875 43.046875 
Q 18.109375 38.09375 18.109375 28.8125 
L 18.109375 0 
L 9.078125 0 
L 9.078125 54.6875 
L 18.109375 54.6875 
L 18.109375 46.1875 
Q 20.953125 51.171875 25.484375 53.578125 
Q 30.03125 56 36.53125 56 
Q 37.453125 56 38.578125 55.875 
Q 39.703125 55.765625 41.0625 55.515625 
z
" id="DejaVuSans-114"/>
       <path id="DejaVuSans-32"/>
       <path d="M 30.609375 48.390625 
Q 23.390625 48.390625 19.1875 42.75 
Q 14.984375 37.109375 14.984375 27.296875 
Q 14.984375 17.484375 19.15625 11.84375 
Q 23.34375 6.203125 30.609375 6.203125 
Q 37.796875 6.203125 41.984375 11.859375 
Q 46.1875 17.53125 46.1875 27.296875 
Q 46.1875 37.015625 41.984375 42.703125 
Q 37.796875 48.390625 30.609375 48.390625 
z
M 30.609375 56 
Q 42.328125 56 49.015625 48.375 
Q 55.71875 40.765625 55.71875 27.296875 
Q 55.71875 13.875 49.015625 6.21875 
Q 42.328125 -1.421875 30.609375 -1.421875 
Q 18.84375 -1.421875 12.171875 6.21875 
Q 5.515625 13.875 5.515625 27.296875 
Q 5.515625 40.765625 12.171875 48.375 
Q 18.84375 56 30.609375 56 
z
" id="DejaVuSans-111"/>
       <path d="M 37.109375 75.984375 
L 37.109375 68.5 
L 28.515625 68.5 
Q 23.6875 68.5 21.796875 66.546875 
Q 19.921875 64.59375 19.921875 59.515625 
L 19.921875 54.6875 
L 34.71875 54.6875 
L 34.71875 47.703125 
L 19.921875 47.703125 
L 19.921875 0 
L 10.890625 0 
L 10.890625 47.703125 
L 2.296875 47.703125 
L 2.296875 54.6875 
L 10.890625 54.6875 
L 10.890625 58.5 
Q 10.890625 67.625 15.140625 71.796875 
Q 19.390625 75.984375 28.609375 75.984375 
z
" id="DejaVuSans-102"/>
       <path d="M 44.28125 53.078125 
L 44.28125 44.578125 
Q 40.484375 46.53125 36.375 47.5 
Q 32.28125 48.484375 27.875 48.484375 
Q 21.1875 48.484375 17.84375 46.4375 
Q 14.5 44.390625 14.5 40.28125 
Q 14.5 37.15625 16.890625 35.375 
Q 19.28125 33.59375 26.515625 31.984375 
L 29.59375 31.296875 
Q 39.15625 29.25 43.1875 25.515625 
Q 47.21875 21.78125 47.21875 15.09375 
Q 47.21875 7.46875 41.1875 3.015625 
Q 35.15625 -1.421875 24.609375 -1.421875 
Q 20.21875 -1.421875 15.453125 -0.5625 
Q 10.6875 0.296875 5.421875 2 
L 5.421875 11.28125 
Q 10.40625 8.6875 15.234375 7.390625 
Q 20.0625 6.109375 24.8125 6.109375 
Q 31.15625 6.109375 34.5625 8.28125 
Q 37.984375 10.453125 37.984375 14.40625 
Q 37.984375 18.0625 35.515625 20.015625 
Q 33.0625 21.96875 24.703125 23.78125 
L 21.578125 24.515625 
Q 13.234375 26.265625 9.515625 29.90625 
Q 5.8125 33.546875 5.8125 39.890625 
Q 5.8125 47.609375 11.28125 51.796875 
Q 16.75 56 26.8125 56 
Q 31.78125 56 36.171875 55.265625 
Q 40.578125 54.546875 44.28125 53.078125 
z
" id="DejaVuSans-115"/>
       <path d="M 34.28125 27.484375 
Q 23.390625 27.484375 19.1875 25 
Q 14.984375 22.515625 14.984375 16.5 
Q 14.984375 11.71875 18.140625 8.90625 
Q 21.296875 6.109375 26.703125 6.109375 
Q 34.1875 6.109375 38.703125 11.40625 
Q 43.21875 16.703125 43.21875 25.484375 
L 43.21875 27.484375 
z
M 52.203125 31.203125 
L 52.203125 0 
L 43.21875 0 
L 43.21875 8.296875 
Q 40.140625 3.328125 35.546875 0.953125 
Q 30.953125 -1.421875 24.3125 -1.421875 
Q 15.921875 -1.421875 10.953125 3.296875 
Q 6 8.015625 6 15.921875 
Q 6 25.140625 12.171875 29.828125 
Q 18.359375 34.515625 30.609375 34.515625 
L 43.21875 34.515625 
L 43.21875 35.40625 
Q 43.21875 41.609375 39.140625 45 
Q 35.0625 48.390625 27.6875 48.390625 
Q 23 48.390625 18.546875 47.265625 
Q 14.109375 46.140625 10.015625 43.890625 
L 10.015625 52.203125 
Q 14.9375 54.109375 19.578125 55.046875 
Q 24.21875 56 28.609375 56 
Q 40.484375 56 46.34375 49.84375 
Q 52.203125 43.703125 52.203125 31.203125 
z
" id="DejaVuSans-97"/>
       <path d="M 18.109375 8.203125 
L 18.109375 -20.796875 
L 9.078125 -20.796875 
L 9.078125 54.6875 
L 18.109375 54.6875 
L 18.109375 46.390625 
Q 20.953125 51.265625 25.265625 53.625 
Q 29.59375 56 35.59375 56 
Q 45.5625 56 51.78125 48.09375 
Q 58.015625 40.1875 58.015625 27.296875 
Q 58.015625 14.40625 51.78125 6.484375 
Q 45.5625 -1.421875 35.59375 -1.421875 
Q 29.59375 -1.421875 25.265625 0.953125 
Q 20.953125 3.328125 18.109375 8.203125 
z
M 48.6875 27.296875 
Q 48.6875 37.203125 44.609375 42.84375 
Q 40.53125 48.484375 33.40625 48.484375 
Q 26.265625 48.484375 22.1875 42.84375 
Q 18.109375 37.203125 18.109375 27.296875 
Q 18.109375 17.390625 22.1875 11.75 
Q 26.265625 6.109375 33.40625 6.109375 
Q 40.53125 6.109375 44.609375 11.75 
Q 48.6875 17.390625 48.6875 27.296875 
z
" id="DejaVuSans-112"/>
       <path d="M 9.421875 75.984375 
L 18.40625 75.984375 
L 18.40625 0 
L 9.421875 0 
z
" id="DejaVuSans-108"/>
       <path d="M 45.40625 46.390625 
L 45.40625 75.984375 
L 54.390625 75.984375 
L 54.390625 0 
L 45.40625 0 
L 45.40625 8.203125 
Q 42.578125 3.328125 38.25 0.953125 
Q 33.9375 -1.421875 27.875 -1.421875 
Q 17.96875 -1.421875 11.734375 6.484375 
Q 5.515625 14.40625 5.515625 27.296875 
Q 5.515625 40.1875 11.734375 48.09375 
Q 17.96875 56 27.875 56 
Q 33.9375 56 38.25 53.625 
Q 42.578125 51.265625 45.40625 46.390625 
z
M 14.796875 27.296875 
Q 14.796875 17.390625 18.875 11.75 
Q 22.953125 6.109375 30.078125 6.109375 
Q 37.203125 6.109375 41.296875 11.75 
Q 45.40625 17.390625 45.40625 27.296875 
Q 45.40625 37.203125 41.296875 42.84375 
Q 37.203125 48.484375 30.078125 48.484375 
Q 22.953125 48.484375 18.875 42.84375 
Q 14.796875 37.203125 14.796875 27.296875 
z
" id="DejaVuSans-100"/>
       <path d="M 4.203125 54.6875 
L 13.1875 54.6875 
L 24.421875 12.015625 
L 35.59375 54.6875 
L 46.1875 54.6875 
L 57.421875 12.015625 
L 68.609375 54.6875 
L 77.59375 54.6875 
L 63.28125 0 
L 52.6875 0 
L 40.921875 44.828125 
L 29.109375 0 
L 18.5 0 
z
" id="DejaVuSans-119"/>
       <path d="M 54.890625 33.015625 
L 54.890625 0 
L 45.90625 0 
L 45.90625 32.71875 
Q 45.90625 40.484375 42.875 44.328125 
Q 39.84375 48.1875 33.796875 48.1875 
Q 26.515625 48.1875 22.3125 43.546875 
Q 18.109375 38.921875 18.109375 30.90625 
L 18.109375 0 
L 9.078125 0 
L 9.078125 54.6875 
L 18.109375 54.6875 
L 18.109375 46.1875 
Q 21.34375 51.125 25.703125 53.5625 
Q 30.078125 56 35.796875 56 
Q 45.21875 56 50.046875 50.171875 
Q 54.890625 44.34375 54.890625 33.015625 
z
" id="DejaVuSans-110"/>
      </defs>
      <use xlink:href="#DejaVuSans-78"/>
      <use x="74.804688" xlink:href="#DejaVuSans-117"/>
      <use x="138.183594" xlink:href="#DejaVuSans-109"/>
      <use x="235.595703" xlink:href="#DejaVuSans-98"/>
      <use x="299.072266" xlink:href="#DejaVuSans-101"/>
      <use x="360.595703" xlink:href="#DejaVuSans-114"/>
      <use x="401.708984" xlink:href="#DejaVuSans-32"/>
      <use x="433.496094" xlink:href="#DejaVuSans-111"/>
      <use x="494.677734" xlink:href="#DejaVuSans-102"/>
      <use x="529.882812" xlink:href="#DejaVuSans-32"/>
      <use x="561.669922" xlink:href="#DejaVuSans-115"/>
      <use x="613.769531" xlink:href="#DejaVuSans-97"/>
      <use x="675.048828" xlink:href="#DejaVuSans-109"/>
      <use x="772.460938" xlink:href="#DejaVuSans-112"/>
      <use x="835.9375" xlink:href="#DejaVuSans-108"/>
      <use x="863.720703" xlink:href="#DejaVuSans-101"/>
      <use x="925.244141" xlink:href="#DejaVuSans-115"/>
      <use x="977.34375" xlink:href="#DejaVuSans-32"/>
      <use x="1009.130859" xlink:href="#DejaVuSans-100"/>
      <use x="1072.607422" xlink:href="#DejaVuSans-114"/>
      <use x="1113.720703" xlink:href="#DejaVuSans-97"/>
      <use x="1175" xlink:href="#DejaVuSans-119"/>
      <use x="1256.787109" xlink:href="#DejaVuSans-110"/>
     </g>
     <!-- at each generation -->
     <g transform="translate(48.333868 131.163365)scale(0.06 -0.06)">
      <defs>
       <path d="M 18.3125 70.21875 
L 18.3125 54.6875 
L 36.8125 54.6875 
L 36.8125 47.703125 
L 18.3125 47.703125 
L 18.3125 18.015625 
Q 18.3125 11.328125 20.140625 9.421875 
Q 21.96875 7.515625 27.59375 7.515625 
L 36.8125 7.515625 
L 36.8125 0 
L 27.59375 0 
Q 17.1875 0 13.234375 3.875 
Q 9.28125 7.765625 9.28125 18.015625 
L 9.28125 47.703125 
L 2.6875 47.703125 
L 2.6875 54.6875 
L 9.28125 54.6875 
L 9.28125 70.21875 
z
" id="DejaVuSans-116"/>
       <path d="M 48.78125 52.59375 
L 48.78125 44.1875 
Q 44.96875 46.296875 41.140625 47.34375 
Q 37.3125 48.390625 33.40625 48.390625 
Q 24.65625 48.390625 19.8125 42.84375 
Q 14.984375 37.3125 14.984375 27.296875 
Q 14.984375 17.28125 19.8125 11.734375 
Q 24.65625 6.203125 33.40625 6.203125 
Q 37.3125 6.203125 41.140625 7.25 
Q 44.96875 8.296875 48.78125 10.40625 
L 48.78125 2.09375 
Q 45.015625 0.34375 40.984375 -0.53125 
Q 36.96875 -1.421875 32.421875 -1.421875 
Q 20.0625 -1.421875 12.78125 6.34375 
Q 5.515625 14.109375 5.515625 27.296875 
Q 5.515625 40.671875 12.859375 48.328125 
Q 20.21875 56 33.015625 56 
Q 37.15625 56 41.109375 55.140625 
Q 45.0625 54.296875 48.78125 52.59375 
z
" id="DejaVuSans-99"/>
       <path d="M 54.890625 33.015625 
L 54.890625 0 
L 45.90625 0 
L 45.90625 32.71875 
Q 45.90625 40.484375 42.875 44.328125 
Q 39.84375 48.1875 33.796875 48.1875 
Q 26.515625 48.1875 22.3125 43.546875 
Q 18.109375 38.921875 18.109375 30.90625 
L 18.109375 0 
L 9.078125 0 
L 9.078125 75.984375 
L 18.109375 75.984375 
L 18.109375 46.1875 
Q 21.34375 51.125 25.703125 53.5625 
Q 30.078125 56 35.796875 56 
Q 45.21875 56 50.046875 50.171875 
Q 54.890625 44.34375 54.890625 33.015625 
z
" id="DejaVuSans-104"/>
       <path d="M 45.40625 27.984375 
Q 45.40625 37.75 41.375 43.109375 
Q 37.359375 48.484375 30.078125 48.484375 
Q 22.859375 48.484375 18.828125 43.109375 
Q 14.796875 37.75 14.796875 27.984375 
Q 14.796875 18.265625 18.828125 12.890625 
Q 22.859375 7.515625 30.078125 7.515625 
Q 37.359375 7.515625 41.375 12.890625 
Q 45.40625 18.265625 45.40625 27.984375 
z
M 54.390625 6.78125 
Q 54.390625 -7.171875 48.1875 -13.984375 
Q 42 -20.796875 29.203125 -20.796875 
Q 24.46875 -20.796875 20.265625 -20.09375 
Q 16.0625 -19.390625 12.109375 -17.921875 
L 12.109375 -9.1875 
Q 16.0625 -11.328125 19.921875 -12.34375 
Q 23.78125 -13.375 27.78125 -13.375 
Q 36.625 -13.375 41.015625 -8.765625 
Q 45.40625 -4.15625 45.40625 5.171875 
L 45.40625 9.625 
Q 42.625 4.78125 38.28125 2.390625 
Q 33.9375 0 27.875 0 
Q 17.828125 0 11.671875 7.65625 
Q 5.515625 15.328125 5.515625 27.984375 
Q 5.515625 40.671875 11.671875 48.328125 
Q 17.828125 56 27.875 56 
Q 33.9375 56 38.28125 53.609375 
Q 42.625 51.21875 45.40625 46.390625 
L 45.40625 54.6875 
L 54.390625 54.6875 
z
" id="DejaVuSans-103"/>
       <path d="M 9.421875 54.6875 
L 18.40625 54.6875 
L 18.40625 0 
L 9.421875 0 
z
M 9.421875 75.984375 
L 18.40625 75.984375 
L 18.40625 64.59375 
L 9.421875 64.59375 
z
" id="DejaVuSans-105"/>
      </defs>
      <use xlink:href="#DejaVuSans-97"/>
      <use x="61.279297" xlink:href="#DejaVuSans-116"/>
      <use x="100.488281" xlink:href="#DejaVuSans-32"/>
      <use x="132.275391" xlink:href="#DejaVuSans-101"/>
      <use x="193.798828" xlink:href="#DejaVuSans-97"/>
      <use x="255.078125" xlink:href="#DejaVuSans-99"/>
      <use x="310.058594" xlink:href="#DejaVuSans-104"/>
      <use x="373.4375" xlink:href="#DejaVuSans-32"/>
      <use x="405.224609" xlink:href="#DejaVuSans-103"/>
      <use x="468.701172" xlink:href="#DejaVuSans-101"/>
      <use x="530.224609" xlink:href="#DejaVuSans-110"/>
      <use x="593.603516" xlink:href="#DejaVuSans-101"/>
      <use x="655.126953" xlink:href="#DejaVuSans-114"/>
      <use x="696.240234" xlink:href="#DejaVuSans-97"/>
      <use x="757.519531" xlink:href="#DejaVuSans-116"/>
      <use x="796.728516" xlink:href="#DejaVuSans-105"/>
      <use x="824.511719" xlink:href="#DejaVuSans-111"/>
      <use x="885.693359" xlink:href="#DejaVuSans-110"/>
     </g>
    </g>
   </g>
   <g id="matplotlib.axis_2">
    <g id="ytick_1">
     <g id="text_7">
      <!-- Est -->
      <g style="fill:#252525;" transform="translate(12.234875 17.631401)scale(0.06 -0.06)">
       <defs>
        <path d="M 9.8125 72.90625 
L 55.90625 72.90625 
L 55.90625 64.59375 
L 19.671875 64.59375 
L 19.671875 43.015625 
L 54.390625 43.015625 
L 54.390625 34.71875 
L 19.671875 34.71875 
L 19.671875 8.296875 
L 56.78125 8.296875 
L 56.78125 0 
L 9.8125 0 
z
" id="DejaVuSans-69"/>
       </defs>
       <use xlink:href="#DejaVuSans-69"/>
       <use x="63.183594" xlink:href="#DejaVuSans-115"/>
       <use x="115.283203" xlink:href="#DejaVuSans-116"/>
      </g>
     </g>
    </g>
    <g id="ytick_2">
     <g id="text_8">
      <!-- 1 -->
      <g style="fill:#252525;" transform="translate(17.686437 29.594984)scale(0.06 -0.06)">
       <use xlink:href="#DejaVuSans-49"/>
      </g>
     </g>
    </g>
    <g id="ytick_3">
     <g id="text_9">
      <!-- 5 -->
      <g style="fill:#252525;" transform="translate(17.686437 41.558567)scale(0.06 -0.06)">
       <use xlink:href="#DejaVuSans-53"/>
      </g>
     </g>
    </g>
    <g id="ytick_4">
     <g id="text_10">
      <!-- 10 -->
      <g style="fill:#252525;" transform="translate(13.868937 53.522149)scale(0.06 -0.06)">
       <use xlink:href="#DejaVuSans-49"/>
       <use x="63.623047" xlink:href="#DejaVuSans-48"/>
      </g>
     </g>
    </g>
    <g id="ytick_5">
     <g id="text_11">
      <!-- 20 -->
      <g style="fill:#252525;" transform="translate(13.868937 65.485732)scale(0.06 -0.06)">
       <defs>
        <path d="M 19.1875 8.296875 
L 53.609375 8.296875 
L 53.609375 0 
L 7.328125 0 
L 7.328125 8.296875 
Q 12.9375 14.109375 22.625 23.890625 
Q 32.328125 33.6875 34.8125 36.53125 
Q 39.546875 41.84375 41.421875 45.53125 
Q 43.3125 49.21875 43.3125 52.78125 
Q 43.3125 58.59375 39.234375 62.25 
Q 35.15625 65.921875 28.609375 65.921875 
Q 23.96875 65.921875 18.8125 64.3125 
Q 13.671875 62.703125 7.8125 59.421875 
L 7.8125 69.390625 
Q 13.765625 71.78125 18.9375 73 
Q 24.125 74.21875 28.421875 74.21875 
Q 39.75 74.21875 46.484375 68.546875 
Q 53.21875 62.890625 53.21875 53.421875 
Q 53.21875 48.921875 51.53125 44.890625 
Q 49.859375 40.875 45.40625 35.40625 
Q 44.1875 33.984375 37.640625 27.21875 
Q 31.109375 20.453125 19.1875 8.296875 
z
" id="DejaVuSans-50"/>
       </defs>
       <use xlink:href="#DejaVuSans-50"/>
       <use x="63.623047" xlink:href="#DejaVuSans-48"/>
      </g>
     </g>
    </g>
    <g id="ytick_6">
     <g id="text_12">
      <!-- 50 -->
      <g style="fill:#252525;" transform="translate(13.868937 77.449315)scale(0.06 -0.06)">
       <use xlink:href="#DejaVuSans-53"/>
       <use x="63.623047" xlink:href="#DejaVuSans-48"/>
      </g>
     </g>
    </g>
    <g id="ytick_7">
     <g id="text_13">
      <!-- 100 -->
      <g style="fill:#252525;" transform="translate(10.051437 89.412897)scale(0.06 -0.06)">
       <use xlink:href="#DejaVuSans-49"/>
       <use x="63.623047" xlink:href="#DejaVuSans-48"/>
       <use x="127.246094" xlink:href="#DejaVuSans-48"/>
      </g>
     </g>
    </g>
    <g id="ytick_8">
     <g id="text_14">
      <!-- 300 -->
      <g style="fill:#252525;" transform="translate(10.051437 101.37648)scale(0.06 -0.06)">
       <defs>
        <path d="M 40.578125 39.3125 
Q 47.65625 37.796875 51.625 33 
Q 55.609375 28.21875 55.609375 21.1875 
Q 55.609375 10.40625 48.1875 4.484375 
Q 40.765625 -1.421875 27.09375 -1.421875 
Q 22.515625 -1.421875 17.65625 -0.515625 
Q 12.796875 0.390625 7.625 2.203125 
L 7.625 11.71875 
Q 11.71875 9.328125 16.59375 8.109375 
Q 21.484375 6.890625 26.8125 6.890625 
Q 36.078125 6.890625 40.9375 10.546875 
Q 45.796875 14.203125 45.796875 21.1875 
Q 45.796875 27.640625 41.28125 31.265625 
Q 36.765625 34.90625 28.71875 34.90625 
L 20.21875 34.90625 
L 20.21875 43.015625 
L 29.109375 43.015625 
Q 36.375 43.015625 40.234375 45.921875 
Q 44.09375 48.828125 44.09375 54.296875 
Q 44.09375 59.90625 40.109375 62.90625 
Q 36.140625 65.921875 28.71875 65.921875 
Q 24.65625 65.921875 20.015625 65.03125 
Q 15.375 64.15625 9.8125 62.3125 
L 9.8125 71.09375 
Q 15.4375 72.65625 20.34375 73.4375 
Q 25.25 74.21875 29.59375 74.21875 
Q 40.828125 74.21875 47.359375 69.109375 
Q 53.90625 64.015625 53.90625 55.328125 
Q 53.90625 49.265625 50.4375 45.09375 
Q 46.96875 40.921875 40.578125 39.3125 
z
" id="DejaVuSans-51"/>
       </defs>
       <use xlink:href="#DejaVuSans-51"/>
       <use x="63.623047" xlink:href="#DejaVuSans-48"/>
       <use x="127.246094" xlink:href="#DejaVuSans-48"/>
      </g>
     </g>
    </g>
    <g id="text_15">
     <!-- $\it{\frac{\gamma}{\Delta g}}$ -->
     <g transform="translate(1.103437 52.520409)scale(0.084 -0.084)">
      <defs>
       <path d="M 52.703125 45.296875 
L 23.796875 2.90625 
L 17.796875 -21.09375 
L 16.796875 -21.59375 
L 10.40625 -19.203125 
Q 14.5 -4.90625 16.796875 4.5 
Q 18.59375 12.09375 18.59375 24 
Q 18.59375 26.90625 17.796875 30.09375 
Q 17 33.296875 14.5 36.25 
Q 12 39.203125 8.40625 39.203125 
L 8.703125 40.296875 
L 14.203125 46.296875 
Q 20.59375 46.296875 23.640625 40.59375 
Q 26.703125 34.90625 26.703125 26.5 
Q 26.703125 22.59375 26.09375 18.90625 
L 44.09375 45.296875 
z
" id="STIXNonUnicode-Italic-57818"/>
       <path d="M 63.5 0 
L 3.09375 0 
L 32 67.40625 
L 34.59375 67.40625 
z
M 50.90625 7.40625 
L 33.296875 50.296875 
L 15.703125 7.40625 
z
" id="STIXNonUnicode-Regular-57728"/>
       <path d="M 57.5 43.59375 
L 55.90625 36.90625 
L 48.09375 36.90625 
Q 48.5 34.90625 48.5 33.90625 
Q 48.5 25.59375 41.890625 19.6875 
Q 35.296875 13.796875 27.203125 13.796875 
Q 24.09375 13.796875 21.296875 14.59375 
Q 15.90625 11.796875 15.90625 9.09375 
Q 15.90625 6.5 19.90625 6.40625 
Q 34.296875 5.90625 38.59375 4.5 
Q 44.703125 2.5 44.703125 -3.09375 
Q 44.703125 -8 41.75 -11.75 
Q 38.796875 -15.5 34.09375 -17.546875 
Q 29.40625 -19.59375 24.25 -20.59375 
Q 19.09375 -21.59375 13.90625 -21.59375 
Q 7.203125 -21.59375 3.25 -19.390625 
Q -0.703125 -17.203125 -0.703125 -12.796875 
Q -0.703125 -8.703125 2 -4.953125 
Q 4.703125 -1.203125 9.296875 1 
Q 7 2.796875 7 5.5 
Q 7 8.296875 8.953125 10.890625 
Q 10.90625 13.5 15.90625 17.796875 
Q 13.09375 21.09375 13.09375 25.59375 
Q 13.09375 33.59375 19.9375 39.9375 
Q 26.796875 46.296875 35.703125 46.296875 
Q 38.59375 46.296875 43.09375 44.9375 
Q 47.59375 43.59375 50.703125 43.59375 
z
M 40.40625 32.90625 
Q 40.40625 39.203125 33.296875 39.203125 
Q 28.40625 39.203125 24.796875 35.546875 
Q 21.203125 31.90625 21.203125 27.5 
Q 21.203125 24.5 23.296875 22.703125 
Q 25.40625 20.90625 29.09375 20.90625 
Q 34 20.90625 37.203125 24.546875 
Q 40.40625 28.203125 40.40625 32.90625 
z
M 19.703125 -1.5 
L 17.703125 -1.5 
Q 13.09375 -2.796875 10.34375 -5 
Q 7.59375 -7.203125 7.59375 -9.796875 
Q 7.59375 -14.5 16.5 -14.5 
Q 24.59375 -14.5 30.4375 -12.25 
Q 36.296875 -10 36.296875 -5.203125 
Q 36.296875 -1.5 19.703125 -1.5 
z
" id="STIXGeneral-Italic-120360"/>
      </defs>
      <use transform="translate(23 53.592188)scale(0.7)" xlink:href="#STIXNonUnicode-Italic-57818"/>
      <use transform="translate(0 -39.957812)scale(0.7)" xlink:href="#STIXNonUnicode-Regular-57728"/>
      <use transform="translate(46.619994 -39.957812)scale(0.7)" xlink:href="#STIXGeneral-Italic-120360"/>
      <path d="M 0 13.476562 
L 0 19.726562 
L 81.339987 19.726562 
L 81.339987 13.476562 
L 0 13.476562 
z
"/>
     </g>
    </g>
   </g>
   <g id="text_16">
    <!-- 0.92 -->
    <g style="fill:#ffffff;" transform="translate(29.884704 17.007495)scale(0.06 -0.06)">
     <defs>
      <path d="M 10.6875 12.40625 
L 21 12.40625 
L 21 0 
L 10.6875 0 
z
" id="DejaVuSans-46"/>
      <path d="M 10.984375 1.515625 
L 10.984375 10.5 
Q 14.703125 8.734375 18.5 7.8125 
Q 22.3125 6.890625 25.984375 6.890625 
Q 35.75 6.890625 40.890625 13.453125 
Q 46.046875 20.015625 46.78125 33.40625 
Q 43.953125 29.203125 39.59375 26.953125 
Q 35.25 24.703125 29.984375 24.703125 
Q 19.046875 24.703125 12.671875 31.3125 
Q 6.296875 37.9375 6.296875 49.421875 
Q 6.296875 60.640625 12.9375 67.421875 
Q 19.578125 74.21875 30.609375 74.21875 
Q 43.265625 74.21875 49.921875 64.515625 
Q 56.59375 54.828125 56.59375 36.375 
Q 56.59375 19.140625 48.40625 8.859375 
Q 40.234375 -1.421875 26.421875 -1.421875 
Q 22.703125 -1.421875 18.890625 -0.6875 
Q 15.09375 0.046875 10.984375 1.515625 
z
M 30.609375 32.421875 
Q 37.25 32.421875 41.125 36.953125 
Q 45.015625 41.5 45.015625 49.421875 
Q 45.015625 57.28125 41.125 61.84375 
Q 37.25 66.40625 30.609375 66.40625 
Q 23.96875 66.40625 20.09375 61.84375 
Q 16.21875 57.28125 16.21875 49.421875 
Q 16.21875 41.5 20.09375 36.953125 
Q 23.96875 32.421875 30.609375 32.421875 
z
" id="DejaVuSans-57"/>
     </defs>
     <use xlink:href="#DejaVuSans-48"/>
     <use x="63.623047" xlink:href="#DejaVuSans-46"/>
     <use x="95.410156" xlink:href="#DejaVuSans-57"/>
     <use x="159.033203" xlink:href="#DejaVuSans-50"/>
    </g>
   </g>
   <g id="text_17">
    <!-- 0.93 -->
    <g style="fill:#ffffff;" transform="translate(50.005614 17.007495)scale(0.06 -0.06)">
     <use xlink:href="#DejaVuSans-48"/>
     <use x="63.623047" xlink:href="#DejaVuSans-46"/>
     <use x="95.410156" xlink:href="#DejaVuSans-57"/>
     <use x="159.033203" xlink:href="#DejaVuSans-51"/>
    </g>
   </g>
   <g id="text_18">
    <!-- 0.92 -->
    <g style="fill:#ffffff;" transform="translate(70.126524 17.007495)scale(0.06 -0.06)">
     <use xlink:href="#DejaVuSans-48"/>
     <use x="63.623047" xlink:href="#DejaVuSans-46"/>
     <use x="95.410156" xlink:href="#DejaVuSans-57"/>
     <use x="159.033203" xlink:href="#DejaVuSans-50"/>
    </g>
   </g>
   <g id="text_19">
    <!-- 0.93 -->
    <g style="fill:#ffffff;" transform="translate(90.247434 17.007495)scale(0.06 -0.06)">
     <use xlink:href="#DejaVuSans-48"/>
     <use x="63.623047" xlink:href="#DejaVuSans-46"/>
     <use x="95.410156" xlink:href="#DejaVuSans-57"/>
     <use x="159.033203" xlink:href="#DejaVuSans-51"/>
    </g>
   </g>
   <g id="text_20">
    <!-- 0.92 -->
    <g style="fill:#ffffff;" transform="translate(110.368343 17.007495)scale(0.06 -0.06)">
     <use xlink:href="#DejaVuSans-48"/>
     <use x="63.623047" xlink:href="#DejaVuSans-46"/>
     <use x="95.410156" xlink:href="#DejaVuSans-57"/>
     <use x="159.033203" xlink:href="#DejaVuSans-50"/>
    </g>
   </g>
   <g id="text_21">
    <!-- 0.92 -->
    <g style="fill:#ffffff;" transform="translate(29.884704 28.971078)scale(0.06 -0.06)">
     <use xlink:href="#DejaVuSans-48"/>
     <use x="63.623047" xlink:href="#DejaVuSans-46"/>
     <use x="95.410156" xlink:href="#DejaVuSans-57"/>
     <use x="159.033203" xlink:href="#DejaVuSans-50"/>
    </g>
   </g>
   <g id="text_22">
    <!-- 0.93 -->
    <g style="fill:#ffffff;" transform="translate(50.005614 28.971078)scale(0.06 -0.06)">
     <use xlink:href="#DejaVuSans-48"/>
     <use x="63.623047" xlink:href="#DejaVuSans-46"/>
     <use x="95.410156" xlink:href="#DejaVuSans-57"/>
     <use x="159.033203" xlink:href="#DejaVuSans-51"/>
    </g>
   </g>
   <g id="text_23">
    <!-- 0.92 -->
    <g style="fill:#ffffff;" transform="translate(70.126524 28.971078)scale(0.06 -0.06)">
     <use xlink:href="#DejaVuSans-48"/>
     <use x="63.623047" xlink:href="#DejaVuSans-46"/>
     <use x="95.410156" xlink:href="#DejaVuSans-57"/>
     <use x="159.033203" xlink:href="#DejaVuSans-50"/>
    </g>
   </g>
   <g id="text_24">
    <!-- 0.93 -->
    <g style="fill:#ffffff;" transform="translate(90.247434 28.971078)scale(0.06 -0.06)">
     <use xlink:href="#DejaVuSans-48"/>
     <use x="63.623047" xlink:href="#DejaVuSans-46"/>
     <use x="95.410156" xlink:href="#DejaVuSans-57"/>
     <use x="159.033203" xlink:href="#DejaVuSans-51"/>
    </g>
   </g>
   <g id="text_25">
    <!-- 0.92 -->
    <g style="fill:#ffffff;" transform="translate(110.368343 28.971078)scale(0.06 -0.06)">
     <use xlink:href="#DejaVuSans-48"/>
     <use x="63.623047" xlink:href="#DejaVuSans-46"/>
     <use x="95.410156" xlink:href="#DejaVuSans-57"/>
     <use x="159.033203" xlink:href="#DejaVuSans-50"/>
    </g>
   </g>
   <g id="text_26">
    <!-- 0.93 -->
    <g style="fill:#ffffff;" transform="translate(29.884704 40.93466)scale(0.06 -0.06)">
     <use xlink:href="#DejaVuSans-48"/>
     <use x="63.623047" xlink:href="#DejaVuSans-46"/>
     <use x="95.410156" xlink:href="#DejaVuSans-57"/>
     <use x="159.033203" xlink:href="#DejaVuSans-51"/>
    </g>
   </g>
   <g id="text_27">
    <!-- 0.93 -->
    <g style="fill:#ffffff;" transform="translate(50.005614 40.93466)scale(0.06 -0.06)">
     <use xlink:href="#DejaVuSans-48"/>
     <use x="63.623047" xlink:href="#DejaVuSans-46"/>
     <use x="95.410156" xlink:href="#DejaVuSans-57"/>
     <use x="159.033203" xlink:href="#DejaVuSans-51"/>
    </g>
   </g>
   <g id="text_28">
    <!-- 0.93 -->
    <g style="fill:#ffffff;" transform="translate(70.126524 40.93466)scale(0.06 -0.06)">
     <use xlink:href="#DejaVuSans-48"/>
     <use x="63.623047" xlink:href="#DejaVuSans-46"/>
     <use x="95.410156" xlink:href="#DejaVuSans-57"/>
     <use x="159.033203" xlink:href="#DejaVuSans-51"/>
    </g>
   </g>
   <g id="text_29">
    <!-- 0.93 -->
    <g style="fill:#ffffff;" transform="translate(90.247434 40.93466)scale(0.06 -0.06)">
     <use xlink:href="#DejaVuSans-48"/>
     <use x="63.623047" xlink:href="#DejaVuSans-46"/>
     <use x="95.410156" xlink:href="#DejaVuSans-57"/>
     <use x="159.033203" xlink:href="#DejaVuSans-51"/>
    </g>
   </g>
   <g id="text_30">
    <!-- 0.92 -->
    <g style="fill:#ffffff;" transform="translate(110.368343 40.93466)scale(0.06 -0.06)">
     <use xlink:href="#DejaVuSans-48"/>
     <use x="63.623047" xlink:href="#DejaVuSans-46"/>
     <use x="95.410156" xlink:href="#DejaVuSans-57"/>
     <use x="159.033203" xlink:href="#DejaVuSans-50"/>
    </g>
   </g>
   <g id="text_31">
    <!-- 0.93 -->
    <g style="fill:#ffffff;" transform="translate(29.884704 52.898243)scale(0.06 -0.06)">
     <use xlink:href="#DejaVuSans-48"/>
     <use x="63.623047" xlink:href="#DejaVuSans-46"/>
     <use x="95.410156" xlink:href="#DejaVuSans-57"/>
     <use x="159.033203" xlink:href="#DejaVuSans-51"/>
    </g>
   </g>
   <g id="text_32">
    <!-- 0.93 -->
    <g style="fill:#ffffff;" transform="translate(50.005614 52.898243)scale(0.06 -0.06)">
     <use xlink:href="#DejaVuSans-48"/>
     <use x="63.623047" xlink:href="#DejaVuSans-46"/>
     <use x="95.410156" xlink:href="#DejaVuSans-57"/>
     <use x="159.033203" xlink:href="#DejaVuSans-51"/>
    </g>
   </g>
   <g id="text_33">
    <!-- 0.93 -->
    <g style="fill:#ffffff;" transform="translate(70.126524 52.898243)scale(0.06 -0.06)">
     <use xlink:href="#DejaVuSans-48"/>
     <use x="63.623047" xlink:href="#DejaVuSans-46"/>
     <use x="95.410156" xlink:href="#DejaVuSans-57"/>
     <use x="159.033203" xlink:href="#DejaVuSans-51"/>
    </g>
   </g>
   <g id="text_34">
    <!-- 0.93 -->
    <g style="fill:#ffffff;" transform="translate(90.247434 52.898243)scale(0.06 -0.06)">
     <use xlink:href="#DejaVuSans-48"/>
     <use x="63.623047" xlink:href="#DejaVuSans-46"/>
     <use x="95.410156" xlink:href="#DejaVuSans-57"/>
     <use x="159.033203" xlink:href="#DejaVuSans-51"/>
    </g>
   </g>
   <g id="text_35">
    <!-- 0.92 -->
    <g style="fill:#ffffff;" transform="translate(110.368343 52.898243)scale(0.06 -0.06)">
     <use xlink:href="#DejaVuSans-48"/>
     <use x="63.623047" xlink:href="#DejaVuSans-46"/>
     <use x="95.410156" xlink:href="#DejaVuSans-57"/>
     <use x="159.033203" xlink:href="#DejaVuSans-50"/>
    </g>
   </g>
   <g id="text_36">
    <!-- 0.94 -->
    <g style="fill:#ffffff;" transform="translate(29.884704 64.861826)scale(0.06 -0.06)">
     <defs>
      <path d="M 37.796875 64.3125 
L 12.890625 25.390625 
L 37.796875 25.390625 
z
M 35.203125 72.90625 
L 47.609375 72.90625 
L 47.609375 25.390625 
L 58.015625 25.390625 
L 58.015625 17.1875 
L 47.609375 17.1875 
L 47.609375 0 
L 37.796875 0 
L 37.796875 17.1875 
L 4.890625 17.1875 
L 4.890625 26.703125 
z
" id="DejaVuSans-52"/>
     </defs>
     <use xlink:href="#DejaVuSans-48"/>
     <use x="63.623047" xlink:href="#DejaVuSans-46"/>
     <use x="95.410156" xlink:href="#DejaVuSans-57"/>
     <use x="159.033203" xlink:href="#DejaVuSans-52"/>
    </g>
   </g>
   <g id="text_37">
    <!-- 0.93 -->
    <g style="fill:#ffffff;" transform="translate(50.005614 64.861826)scale(0.06 -0.06)">
     <use xlink:href="#DejaVuSans-48"/>
     <use x="63.623047" xlink:href="#DejaVuSans-46"/>
     <use x="95.410156" xlink:href="#DejaVuSans-57"/>
     <use x="159.033203" xlink:href="#DejaVuSans-51"/>
    </g>
   </g>
   <g id="text_38">
    <!-- 0.93 -->
    <g style="fill:#ffffff;" transform="translate(70.126524 64.861826)scale(0.06 -0.06)">
     <use xlink:href="#DejaVuSans-48"/>
     <use x="63.623047" xlink:href="#DejaVuSans-46"/>
     <use x="95.410156" xlink:href="#DejaVuSans-57"/>
     <use x="159.033203" xlink:href="#DejaVuSans-51"/>
    </g>
   </g>
   <g id="text_39">
    <!-- 0.93 -->
    <g style="fill:#ffffff;" transform="translate(90.247434 64.861826)scale(0.06 -0.06)">
     <use xlink:href="#DejaVuSans-48"/>
     <use x="63.623047" xlink:href="#DejaVuSans-46"/>
     <use x="95.410156" xlink:href="#DejaVuSans-57"/>
     <use x="159.033203" xlink:href="#DejaVuSans-51"/>
    </g>
   </g>
   <g id="text_40">
    <!-- 0.92 -->
    <g style="fill:#ffffff;" transform="translate(110.368343 64.861826)scale(0.06 -0.06)">
     <use xlink:href="#DejaVuSans-48"/>
     <use x="63.623047" xlink:href="#DejaVuSans-46"/>
     <use x="95.410156" xlink:href="#DejaVuSans-57"/>
     <use x="159.033203" xlink:href="#DejaVuSans-50"/>
    </g>
   </g>
   <g id="text_41">
    <!-- 0.93 -->
    <g style="fill:#ffffff;" transform="translate(29.884704 76.825408)scale(0.06 -0.06)">
     <use xlink:href="#DejaVuSans-48"/>
     <use x="63.623047" xlink:href="#DejaVuSans-46"/>
     <use x="95.410156" xlink:href="#DejaVuSans-57"/>
     <use x="159.033203" xlink:href="#DejaVuSans-51"/>
    </g>
   </g>
   <g id="text_42">
    <!-- 0.93 -->
    <g style="fill:#ffffff;" transform="translate(50.005614 76.825408)scale(0.06 -0.06)">
     <use xlink:href="#DejaVuSans-48"/>
     <use x="63.623047" xlink:href="#DejaVuSans-46"/>
     <use x="95.410156" xlink:href="#DejaVuSans-57"/>
     <use x="159.033203" xlink:href="#DejaVuSans-51"/>
    </g>
   </g>
   <g id="text_43">
    <!-- 0.92 -->
    <g style="fill:#ffffff;" transform="translate(70.126524 76.825408)scale(0.06 -0.06)">
     <use xlink:href="#DejaVuSans-48"/>
     <use x="63.623047" xlink:href="#DejaVuSans-46"/>
     <use x="95.410156" xlink:href="#DejaVuSans-57"/>
     <use x="159.033203" xlink:href="#DejaVuSans-50"/>
    </g>
   </g>
   <g id="text_44">
    <!-- 0.92 -->
    <g style="fill:#ffffff;" transform="translate(90.247434 76.825408)scale(0.06 -0.06)">
     <use xlink:href="#DejaVuSans-48"/>
     <use x="63.623047" xlink:href="#DejaVuSans-46"/>
     <use x="95.410156" xlink:href="#DejaVuSans-57"/>
     <use x="159.033203" xlink:href="#DejaVuSans-50"/>
    </g>
   </g>
   <g id="text_45">
    <!-- 0.9 -->
    <g style="fill:#ffffff;" transform="translate(112.277093 76.825408)scale(0.06 -0.06)">
     <use xlink:href="#DejaVuSans-48"/>
     <use x="63.623047" xlink:href="#DejaVuSans-46"/>
     <use x="95.410156" xlink:href="#DejaVuSans-57"/>
    </g>
   </g>
   <g id="text_46">
    <!-- 0.91 -->
    <g style="fill:#ffffff;" transform="translate(29.884704 88.788991)scale(0.06 -0.06)">
     <use xlink:href="#DejaVuSans-48"/>
     <use x="63.623047" xlink:href="#DejaVuSans-46"/>
     <use x="95.410156" xlink:href="#DejaVuSans-57"/>
     <use x="159.033203" xlink:href="#DejaVuSans-49"/>
    </g>
   </g>
   <g id="text_47">
    <!-- 0.91 -->
    <g style="fill:#ffffff;" transform="translate(50.005614 88.788991)scale(0.06 -0.06)">
     <use xlink:href="#DejaVuSans-48"/>
     <use x="63.623047" xlink:href="#DejaVuSans-46"/>
     <use x="95.410156" xlink:href="#DejaVuSans-57"/>
     <use x="159.033203" xlink:href="#DejaVuSans-49"/>
    </g>
   </g>
   <g id="text_48">
    <!-- 0.9 -->
    <g style="fill:#ffffff;" transform="translate(72.035274 88.788991)scale(0.06 -0.06)">
     <use xlink:href="#DejaVuSans-48"/>
     <use x="63.623047" xlink:href="#DejaVuSans-46"/>
     <use x="95.410156" xlink:href="#DejaVuSans-57"/>
    </g>
   </g>
   <g id="text_49">
    <!-- 0.9 -->
    <g style="fill:#ffffff;" transform="translate(92.156184 88.788991)scale(0.06 -0.06)">
     <use xlink:href="#DejaVuSans-48"/>
     <use x="63.623047" xlink:href="#DejaVuSans-46"/>
     <use x="95.410156" xlink:href="#DejaVuSans-57"/>
    </g>
   </g>
   <g id="text_50">
    <!-- 0.89 -->
    <g style="fill:#ffffff;" transform="translate(110.368343 88.788991)scale(0.06 -0.06)">
     <defs>
      <path d="M 31.78125 34.625 
Q 24.75 34.625 20.71875 30.859375 
Q 16.703125 27.09375 16.703125 20.515625 
Q 16.703125 13.921875 20.71875 10.15625 
Q 24.75 6.390625 31.78125 6.390625 
Q 38.8125 6.390625 42.859375 10.171875 
Q 46.921875 13.96875 46.921875 20.515625 
Q 46.921875 27.09375 42.890625 30.859375 
Q 38.875 34.625 31.78125 34.625 
z
M 21.921875 38.8125 
Q 15.578125 40.375 12.03125 44.71875 
Q 8.5 49.078125 8.5 55.328125 
Q 8.5 64.0625 14.71875 69.140625 
Q 20.953125 74.21875 31.78125 74.21875 
Q 42.671875 74.21875 48.875 69.140625 
Q 55.078125 64.0625 55.078125 55.328125 
Q 55.078125 49.078125 51.53125 44.71875 
Q 48 40.375 41.703125 38.8125 
Q 48.828125 37.15625 52.796875 32.3125 
Q 56.78125 27.484375 56.78125 20.515625 
Q 56.78125 9.90625 50.3125 4.234375 
Q 43.84375 -1.421875 31.78125 -1.421875 
Q 19.734375 -1.421875 13.25 4.234375 
Q 6.78125 9.90625 6.78125 20.515625 
Q 6.78125 27.484375 10.78125 32.3125 
Q 14.796875 37.15625 21.921875 38.8125 
z
M 18.3125 54.390625 
Q 18.3125 48.734375 21.84375 45.5625 
Q 25.390625 42.390625 31.78125 42.390625 
Q 38.140625 42.390625 41.71875 45.5625 
Q 45.3125 48.734375 45.3125 54.390625 
Q 45.3125 60.0625 41.71875 63.234375 
Q 38.140625 66.40625 31.78125 66.40625 
Q 25.390625 66.40625 21.84375 63.234375 
Q 18.3125 60.0625 18.3125 54.390625 
z
" id="DejaVuSans-56"/>
     </defs>
     <use xlink:href="#DejaVuSans-48"/>
     <use x="63.623047" xlink:href="#DejaVuSans-46"/>
     <use x="95.410156" xlink:href="#DejaVuSans-56"/>
     <use x="159.033203" xlink:href="#DejaVuSans-57"/>
    </g>
   </g>
   <g id="text_51">
    <!-- 0.87 -->
    <g style="fill:#ffffff;" transform="translate(29.884704 100.752574)scale(0.06 -0.06)">
     <defs>
      <path d="M 8.203125 72.90625 
L 55.078125 72.90625 
L 55.078125 68.703125 
L 28.609375 0 
L 18.3125 0 
L 43.21875 64.59375 
L 8.203125 64.59375 
z
" id="DejaVuSans-55"/>
     </defs>
     <use xlink:href="#DejaVuSans-48"/>
     <use x="63.623047" xlink:href="#DejaVuSans-46"/>
     <use x="95.410156" xlink:href="#DejaVuSans-56"/>
     <use x="159.033203" xlink:href="#DejaVuSans-55"/>
    </g>
   </g>
   <g id="text_52">
    <!-- 0.87 -->
    <g style="fill:#ffffff;" transform="translate(50.005614 100.752574)scale(0.06 -0.06)">
     <use xlink:href="#DejaVuSans-48"/>
     <use x="63.623047" xlink:href="#DejaVuSans-46"/>
     <use x="95.410156" xlink:href="#DejaVuSans-56"/>
     <use x="159.033203" xlink:href="#DejaVuSans-55"/>
    </g>
   </g>
   <g id="text_53">
    <!-- 0.87 -->
    <g style="fill:#ffffff;" transform="translate(70.126524 100.752574)scale(0.06 -0.06)">
     <use xlink:href="#DejaVuSans-48"/>
     <use x="63.623047" xlink:href="#DejaVuSans-46"/>
     <use x="95.410156" xlink:href="#DejaVuSans-56"/>
     <use x="159.033203" xlink:href="#DejaVuSans-55"/>
    </g>
   </g>
   <g id="text_54">
    <!-- 0.86 -->
    <g style="fill:#ffffff;" transform="translate(90.247434 100.752574)scale(0.06 -0.06)">
     <defs>
      <path d="M 33.015625 40.375 
Q 26.375 40.375 22.484375 35.828125 
Q 18.609375 31.296875 18.609375 23.390625 
Q 18.609375 15.53125 22.484375 10.953125 
Q 26.375 6.390625 33.015625 6.390625 
Q 39.65625 6.390625 43.53125 10.953125 
Q 47.40625 15.53125 47.40625 23.390625 
Q 47.40625 31.296875 43.53125 35.828125 
Q 39.65625 40.375 33.015625 40.375 
z
M 52.59375 71.296875 
L 52.59375 62.3125 
Q 48.875 64.0625 45.09375 64.984375 
Q 41.3125 65.921875 37.59375 65.921875 
Q 27.828125 65.921875 22.671875 59.328125 
Q 17.53125 52.734375 16.796875 39.40625 
Q 19.671875 43.65625 24.015625 45.921875 
Q 28.375 48.1875 33.59375 48.1875 
Q 44.578125 48.1875 50.953125 41.515625 
Q 57.328125 34.859375 57.328125 23.390625 
Q 57.328125 12.15625 50.6875 5.359375 
Q 44.046875 -1.421875 33.015625 -1.421875 
Q 20.359375 -1.421875 13.671875 8.265625 
Q 6.984375 17.96875 6.984375 36.375 
Q 6.984375 53.65625 15.1875 63.9375 
Q 23.390625 74.21875 37.203125 74.21875 
Q 40.921875 74.21875 44.703125 73.484375 
Q 48.484375 72.75 52.59375 71.296875 
z
" id="DejaVuSans-54"/>
     </defs>
     <use xlink:href="#DejaVuSans-48"/>
     <use x="63.623047" xlink:href="#DejaVuSans-46"/>
     <use x="95.410156" xlink:href="#DejaVuSans-56"/>
     <use x="159.033203" xlink:href="#DejaVuSans-54"/>
    </g>
   </g>
   <g id="text_55">
    <!-- 0.85 -->
    <g style="fill:#ffffff;" transform="translate(110.368343 100.752574)scale(0.06 -0.06)">
     <use xlink:href="#DejaVuSans-48"/>
     <use x="63.623047" xlink:href="#DejaVuSans-46"/>
     <use x="95.410156" xlink:href="#DejaVuSans-56"/>
     <use x="159.033203" xlink:href="#DejaVuSans-53"/>
    </g>
   </g>
   <g id="text_56">
    <!-- A -->
    <g style="fill:#222222;" transform="translate(11.181547 6.917614)scale(0.09 -0.09)">
     <defs>
      <path d="M 71.828125 0 
L 56.109375 0 
L 49.859375 16.265625 
L 21.234375 16.265625 
L 15.328125 0 
L 0 0 
L 27.875 71.578125 
L 43.171875 71.578125 
z
M 45.21875 28.328125 
L 35.359375 54.890625 
L 25.6875 28.328125 
z
" id="Arial-BoldMT-65"/>
     </defs>
     <use xlink:href="#Arial-BoldMT-65"/>
    </g>
   </g>
  </g>
  <g id="axes_2">
   <g id="patch_3">
    <path d="M 147.209274 105.07874 
L 227.692913 105.07874 
L 227.692913 9.370079 
L 147.209274 9.370079 
z
" style="fill:none;"/>
   </g>
   <g id="QuadMesh_2">
    <path clip-path="url(#paf96d85c37)" d="M 147.209274 9.370079 
L 167.330184 9.370079 
L 167.330184 21.333661 
L 147.209274 21.333661 
L 147.209274 9.370079 
" style="fill:#084081;fill-opacity:0.75;"/>
    <path clip-path="url(#paf96d85c37)" d="M 167.330184 9.370079 
L 187.451094 9.370079 
L 187.451094 21.333661 
L 167.330184 21.333661 
L 167.330184 9.370079 
" style="fill:#2283ba;fill-opacity:0.75;"/>
    <path clip-path="url(#paf96d85c37)" d="M 187.451094 9.370079 
L 207.572004 9.370079 
L 207.572004 21.333661 
L 187.451094 21.333661 
L 187.451094 9.370079 
" style="fill:#8ed3be;fill-opacity:0.75;"/>
    <path clip-path="url(#paf96d85c37)" d="M 207.572004 9.370079 
L 227.692913 9.370079 
L 227.692913 21.333661 
L 207.572004 21.333661 
L 207.572004 9.370079 
" style="fill:#f7fcf0;fill-opacity:0.75;"/>
    <path clip-path="url(#paf96d85c37)" d="M 147.209274 21.333661 
L 167.330184 21.333661 
L 167.330184 33.297244 
L 147.209274 33.297244 
L 147.209274 21.333661 
" style="fill:#084081;fill-opacity:0.75;"/>
    <path clip-path="url(#paf96d85c37)" d="M 167.330184 21.333661 
L 187.451094 21.333661 
L 187.451094 33.297244 
L 167.330184 33.297244 
L 167.330184 21.333661 
" style="fill:#1272b1;fill-opacity:0.75;"/>
    <path clip-path="url(#paf96d85c37)" d="M 187.451094 21.333661 
L 207.572004 21.333661 
L 207.572004 33.297244 
L 187.451094 33.297244 
L 187.451094 21.333661 
" style="fill:#48accf;fill-opacity:0.75;"/>
    <path clip-path="url(#paf96d85c37)" d="M 207.572004 21.333661 
L 227.692913 21.333661 
L 227.692913 33.297244 
L 207.572004 33.297244 
L 207.572004 21.333661 
" style="fill:#88d1c0;fill-opacity:0.75;"/>
    <path clip-path="url(#paf96d85c37)" d="M 147.209274 33.297244 
L 167.330184 33.297244 
L 167.330184 45.260827 
L 147.209274 45.260827 
L 147.209274 33.297244 
" style="fill:#084081;fill-opacity:0.75;"/>
    <path clip-path="url(#paf96d85c37)" d="M 167.330184 33.297244 
L 187.451094 33.297244 
L 187.451094 45.260827 
L 167.330184 45.260827 
L 167.330184 33.297244 
" style="fill:#084384;fill-opacity:0.75;"/>
    <path clip-path="url(#paf96d85c37)" d="M 187.451094 33.297244 
L 207.572004 33.297244 
L 207.572004 45.260827 
L 187.451094 45.260827 
L 187.451094 33.297244 
" style="fill:#085497;fill-opacity:0.75;"/>
    <path clip-path="url(#paf96d85c37)" d="M 207.572004 33.297244 
L 227.692913 33.297244 
L 227.692913 45.260827 
L 207.572004 45.260827 
L 207.572004 33.297244 
" style="fill:#0862a5;fill-opacity:0.75;"/>
    <path clip-path="url(#paf96d85c37)" d="M 147.209274 45.260827 
L 167.330184 45.260827 
L 167.330184 57.224409 
L 147.209274 57.224409 
L 147.209274 45.260827 
" style="fill:#084081;fill-opacity:0.75;"/>
    <path clip-path="url(#paf96d85c37)" d="M 167.330184 45.260827 
L 187.451094 45.260827 
L 187.451094 57.224409 
L 167.330184 57.224409 
L 167.330184 45.260827 
" style="fill:#084081;fill-opacity:0.75;"/>
    <path clip-path="url(#paf96d85c37)" d="M 187.451094 45.260827 
L 207.572004 45.260827 
L 207.572004 57.224409 
L 187.451094 57.224409 
L 187.451094 45.260827 
" style="fill:#084081;fill-opacity:0.75;"/>
    <path clip-path="url(#paf96d85c37)" d="M 207.572004 45.260827 
L 227.692913 45.260827 
L 227.692913 57.224409 
L 207.572004 57.224409 
L 207.572004 45.260827 
" style="fill:#084e90;fill-opacity:0.75;"/>
    <path clip-path="url(#paf96d85c37)" d="M 147.209274 57.224409 
L 167.330184 57.224409 
L 167.330184 69.187992 
L 147.209274 69.187992 
L 147.209274 57.224409 
" style="fill:#084081;fill-opacity:0.75;"/>
    <path clip-path="url(#paf96d85c37)" d="M 167.330184 57.224409 
L 187.451094 57.224409 
L 187.451094 69.187992 
L 167.330184 69.187992 
L 167.330184 57.224409 
" style="fill:#084081;fill-opacity:0.75;"/>
    <path clip-path="url(#paf96d85c37)" d="M 187.451094 57.224409 
L 207.572004 57.224409 
L 207.572004 69.187992 
L 187.451094 69.187992 
L 187.451094 57.224409 
" style="fill:#084081;fill-opacity:0.75;"/>
    <path clip-path="url(#paf96d85c37)" d="M 207.572004 57.224409 
L 227.692913 57.224409 
L 227.692913 69.187992 
L 207.572004 69.187992 
L 207.572004 57.224409 
" style="fill:#085093;fill-opacity:0.75;"/>
    <path clip-path="url(#paf96d85c37)" d="M 147.209274 69.187992 
L 167.330184 69.187992 
L 167.330184 81.151575 
L 147.209274 81.151575 
L 147.209274 69.187992 
" style="fill:#084081;fill-opacity:0.75;"/>
    <path clip-path="url(#paf96d85c37)" d="M 167.330184 69.187992 
L 187.451094 69.187992 
L 187.451094 81.151575 
L 167.330184 81.151575 
L 167.330184 69.187992 
" style="fill:#084384;fill-opacity:0.75;"/>
    <path clip-path="url(#paf96d85c37)" d="M 187.451094 69.187992 
L 207.572004 69.187992 
L 207.572004 81.151575 
L 187.451094 81.151575 
L 187.451094 69.187992 
" style="fill:#085598;fill-opacity:0.75;"/>
    <path clip-path="url(#paf96d85c37)" d="M 207.572004 69.187992 
L 227.692913 69.187992 
L 227.692913 81.151575 
L 207.572004 81.151575 
L 207.572004 69.187992 
" style="fill:#0a6aad;fill-opacity:0.75;"/>
    <path clip-path="url(#paf96d85c37)" d="M 147.209274 81.151575 
L 167.330184 81.151575 
L 167.330184 93.115157 
L 147.209274 93.115157 
L 147.209274 81.151575 
" style="fill:#084081;fill-opacity:0.75;"/>
    <path clip-path="url(#paf96d85c37)" d="M 167.330184 81.151575 
L 187.451094 81.151575 
L 187.451094 93.115157 
L 167.330184 93.115157 
L 167.330184 81.151575 
" style="fill:#085fa3;fill-opacity:0.75;"/>
    <path clip-path="url(#paf96d85c37)" d="M 187.451094 81.151575 
L 207.572004 81.151575 
L 207.572004 93.115157 
L 187.451094 93.115157 
L 187.451094 81.151575 
" style="fill:#1272b1;fill-opacity:0.75;"/>
    <path clip-path="url(#paf96d85c37)" d="M 207.572004 81.151575 
L 227.692913 81.151575 
L 227.692913 93.115157 
L 207.572004 93.115157 
L 207.572004 81.151575 
" style="fill:#2484ba;fill-opacity:0.75;"/>
    <path clip-path="url(#paf96d85c37)" d="M 147.209274 93.115157 
L 167.330184 93.115157 
L 167.330184 105.07874 
L 147.209274 105.07874 
L 147.209274 93.115157 
" style="fill:#0863a7;fill-opacity:0.75;"/>
    <path clip-path="url(#paf96d85c37)" d="M 167.330184 93.115157 
L 187.451094 93.115157 
L 187.451094 105.07874 
L 167.330184 105.07874 
L 167.330184 93.115157 
" style="fill:#298abd;fill-opacity:0.75;"/>
    <path clip-path="url(#paf96d85c37)" d="M 187.451094 93.115157 
L 207.572004 93.115157 
L 207.572004 105.07874 
L 187.451094 105.07874 
L 187.451094 93.115157 
" style="fill:#3597c4;fill-opacity:0.75;"/>
    <path clip-path="url(#paf96d85c37)" d="M 207.572004 93.115157 
L 227.692913 93.115157 
L 227.692913 105.07874 
L 207.572004 105.07874 
L 207.572004 93.115157 
" style="fill:#3ea1c9;fill-opacity:0.75;"/>
   </g>
   <g id="matplotlib.axis_3">
    <g id="xtick_6">
     <g id="text_57">
      <!-- 1 -->
      <g style="fill:#252525;" transform="translate(155.360979 114.637803)scale(0.06 -0.06)">
       <use xlink:href="#DejaVuSans-49"/>
      </g>
     </g>
    </g>
    <g id="xtick_7">
     <g id="text_58">
      <!-- 3 -->
      <g style="fill:#252525;" transform="translate(175.481889 114.637803)scale(0.06 -0.06)">
       <use xlink:href="#DejaVuSans-51"/>
      </g>
     </g>
    </g>
    <g id="xtick_8">
     <g id="text_59">
      <!-- 5 -->
      <g style="fill:#252525;" transform="translate(195.602799 114.637803)scale(0.06 -0.06)">
       <use xlink:href="#DejaVuSans-53"/>
      </g>
     </g>
    </g>
    <g id="xtick_9">
     <g id="text_60">
      <!-- 10 -->
      <g style="fill:#252525;" transform="translate(213.814959 114.637803)scale(0.06 -0.06)">
       <use xlink:href="#DejaVuSans-49"/>
       <use x="63.623047" xlink:href="#DejaVuSans-48"/>
      </g>
     </g>
    </g>
    <g id="text_61">
     <!-- Time intervals between sampling -->
     <g transform="translate(137.576563 124.444678)scale(0.06 -0.06)">
      <defs>
       <path d="M -0.296875 72.90625 
L 61.375 72.90625 
L 61.375 64.59375 
L 35.5 64.59375 
L 35.5 0 
L 25.59375 0 
L 25.59375 64.59375 
L -0.296875 64.59375 
z
" id="DejaVuSans-84"/>
       <path d="M 2.984375 54.6875 
L 12.5 54.6875 
L 29.59375 8.796875 
L 46.6875 54.6875 
L 56.203125 54.6875 
L 35.6875 0 
L 23.484375 0 
z
" id="DejaVuSans-118"/>
      </defs>
      <use xlink:href="#DejaVuSans-84"/>
      <use x="57.958984" xlink:href="#DejaVuSans-105"/>
      <use x="85.742188" xlink:href="#DejaVuSans-109"/>
      <use x="183.154297" xlink:href="#DejaVuSans-101"/>
      <use x="244.677734" xlink:href="#DejaVuSans-32"/>
      <use x="276.464844" xlink:href="#DejaVuSans-105"/>
      <use x="304.248047" xlink:href="#DejaVuSans-110"/>
      <use x="367.626953" xlink:href="#DejaVuSans-116"/>
      <use x="406.835938" xlink:href="#DejaVuSans-101"/>
      <use x="468.359375" xlink:href="#DejaVuSans-114"/>
      <use x="509.472656" xlink:href="#DejaVuSans-118"/>
      <use x="568.652344" xlink:href="#DejaVuSans-97"/>
      <use x="629.931641" xlink:href="#DejaVuSans-108"/>
      <use x="657.714844" xlink:href="#DejaVuSans-115"/>
      <use x="709.814453" xlink:href="#DejaVuSans-32"/>
      <use x="741.601562" xlink:href="#DejaVuSans-98"/>
      <use x="805.078125" xlink:href="#DejaVuSans-101"/>
      <use x="866.601562" xlink:href="#DejaVuSans-116"/>
      <use x="905.810547" xlink:href="#DejaVuSans-119"/>
      <use x="987.597656" xlink:href="#DejaVuSans-101"/>
      <use x="1049.121094" xlink:href="#DejaVuSans-101"/>
      <use x="1110.644531" xlink:href="#DejaVuSans-110"/>
      <use x="1174.023438" xlink:href="#DejaVuSans-32"/>
      <use x="1205.810547" xlink:href="#DejaVuSans-115"/>
      <use x="1257.910156" xlink:href="#DejaVuSans-97"/>
      <use x="1319.189453" xlink:href="#DejaVuSans-109"/>
      <use x="1416.601562" xlink:href="#DejaVuSans-112"/>
      <use x="1480.078125" xlink:href="#DejaVuSans-108"/>
      <use x="1507.861328" xlink:href="#DejaVuSans-105"/>
      <use x="1535.644531" xlink:href="#DejaVuSans-110"/>
      <use x="1599.023438" xlink:href="#DejaVuSans-103"/>
     </g>
     <!-- $\it{\Delta g}$ (generation) -->
     <g transform="translate(164.351094 131.16449)scale(0.06 -0.06)">
      <defs>
       <path d="M 31 75.875 
Q 24.46875 64.65625 21.28125 53.65625 
Q 18.109375 42.671875 18.109375 31.390625 
Q 18.109375 20.125 21.3125 9.0625 
Q 24.515625 -2 31 -13.1875 
L 23.1875 -13.1875 
Q 15.875 -1.703125 12.234375 9.375 
Q 8.59375 20.453125 8.59375 31.390625 
Q 8.59375 42.28125 12.203125 53.3125 
Q 15.828125 64.359375 23.1875 75.875 
z
" id="DejaVuSans-40"/>
       <path d="M 8.015625 75.875 
L 15.828125 75.875 
Q 23.140625 64.359375 26.78125 53.3125 
Q 30.421875 42.28125 30.421875 31.390625 
Q 30.421875 20.453125 26.78125 9.375 
Q 23.140625 -1.703125 15.828125 -13.1875 
L 8.015625 -13.1875 
Q 14.5 -2 17.703125 9.0625 
Q 20.90625 20.125 20.90625 31.390625 
Q 20.90625 42.671875 17.703125 53.65625 
Q 14.5 64.65625 8.015625 75.875 
z
" id="DejaVuSans-41"/>
      </defs>
      <use transform="translate(0 0.015625)" xlink:href="#STIXNonUnicode-Regular-57728"/>
      <use transform="translate(66.599991 0.015625)" xlink:href="#STIXGeneral-Italic-120360"/>
      <use transform="translate(116.199982 0.015625)" xlink:href="#DejaVuSans-32"/>
      <use transform="translate(147.987091 0.015625)" xlink:href="#DejaVuSans-40"/>
      <use transform="translate(187.000763 0.015625)" xlink:href="#DejaVuSans-103"/>
      <use transform="translate(250.477325 0.015625)" xlink:href="#DejaVuSans-101"/>
      <use transform="translate(312.000763 0.015625)" xlink:href="#DejaVuSans-110"/>
      <use transform="translate(375.379669 0.015625)" xlink:href="#DejaVuSans-101"/>
      <use transform="translate(436.903107 0.015625)" xlink:href="#DejaVuSans-114"/>
      <use transform="translate(478.016388 0.015625)" xlink:href="#DejaVuSans-97"/>
      <use transform="translate(539.295685 0.015625)" xlink:href="#DejaVuSans-116"/>
      <use transform="translate(578.504669 0.015625)" xlink:href="#DejaVuSans-105"/>
      <use transform="translate(606.287872 0.015625)" xlink:href="#DejaVuSans-111"/>
      <use transform="translate(667.469513 0.015625)" xlink:href="#DejaVuSans-110"/>
      <use transform="translate(730.848419 0.015625)" xlink:href="#DejaVuSans-41"/>
     </g>
    </g>
   </g>
   <g id="matplotlib.axis_4">
    <g id="ytick_9"/>
    <g id="ytick_10"/>
    <g id="ytick_11"/>
    <g id="ytick_12"/>
    <g id="ytick_13"/>
    <g id="ytick_14"/>
    <g id="ytick_15"/>
    <g id="ytick_16"/>
   </g>
   <g id="text_62">
    <!-- 0.92 -->
    <g style="fill:#ffffff;" transform="translate(150.590042 17.007495)scale(0.06 -0.06)">
     <use xlink:href="#DejaVuSans-48"/>
     <use x="63.623047" xlink:href="#DejaVuSans-46"/>
     <use x="95.410156" xlink:href="#DejaVuSans-57"/>
     <use x="159.033203" xlink:href="#DejaVuSans-50"/>
    </g>
   </g>
   <g id="text_63">
    <!-- 0.84 -->
    <g style="fill:#ffffff;" transform="translate(170.710952 17.007495)scale(0.06 -0.06)">
     <use xlink:href="#DejaVuSans-48"/>
     <use x="63.623047" xlink:href="#DejaVuSans-46"/>
     <use x="95.410156" xlink:href="#DejaVuSans-56"/>
     <use x="159.033203" xlink:href="#DejaVuSans-52"/>
    </g>
   </g>
   <g id="text_64">
    <!-- 0.76 -->
    <g style="fill:#262626;" transform="translate(190.831861 17.007495)scale(0.06 -0.06)">
     <use xlink:href="#DejaVuSans-48"/>
     <use x="63.623047" xlink:href="#DejaVuSans-46"/>
     <use x="95.410156" xlink:href="#DejaVuSans-55"/>
     <use x="159.033203" xlink:href="#DejaVuSans-54"/>
    </g>
   </g>
   <g id="text_65">
    <!-- 0.62 -->
    <g style="fill:#262626;" transform="translate(210.952771 17.007495)scale(0.06 -0.06)">
     <use xlink:href="#DejaVuSans-48"/>
     <use x="63.623047" xlink:href="#DejaVuSans-46"/>
     <use x="95.410156" xlink:href="#DejaVuSans-54"/>
     <use x="159.033203" xlink:href="#DejaVuSans-50"/>
    </g>
   </g>
   <g id="text_66">
    <!-- 0.92 -->
    <g style="fill:#ffffff;" transform="translate(150.590042 28.971078)scale(0.06 -0.06)">
     <use xlink:href="#DejaVuSans-48"/>
     <use x="63.623047" xlink:href="#DejaVuSans-46"/>
     <use x="95.410156" xlink:href="#DejaVuSans-57"/>
     <use x="159.033203" xlink:href="#DejaVuSans-50"/>
    </g>
   </g>
   <g id="text_67">
    <!-- 0.86 -->
    <g style="fill:#ffffff;" transform="translate(170.710952 28.971078)scale(0.06 -0.06)">
     <use xlink:href="#DejaVuSans-48"/>
     <use x="63.623047" xlink:href="#DejaVuSans-46"/>
     <use x="95.410156" xlink:href="#DejaVuSans-56"/>
     <use x="159.033203" xlink:href="#DejaVuSans-54"/>
    </g>
   </g>
   <g id="text_68">
    <!-- 0.81 -->
    <g style="fill:#ffffff;" transform="translate(190.831861 28.971078)scale(0.06 -0.06)">
     <use xlink:href="#DejaVuSans-48"/>
     <use x="63.623047" xlink:href="#DejaVuSans-46"/>
     <use x="95.410156" xlink:href="#DejaVuSans-56"/>
     <use x="159.033203" xlink:href="#DejaVuSans-49"/>
    </g>
   </g>
   <g id="text_69">
    <!-- 0.77 -->
    <g style="fill:#262626;" transform="translate(210.952771 28.971078)scale(0.06 -0.06)">
     <use xlink:href="#DejaVuSans-48"/>
     <use x="63.623047" xlink:href="#DejaVuSans-46"/>
     <use x="95.410156" xlink:href="#DejaVuSans-55"/>
     <use x="159.033203" xlink:href="#DejaVuSans-55"/>
    </g>
   </g>
   <g id="text_70">
    <!-- 0.93 -->
    <g style="fill:#ffffff;" transform="translate(150.590042 40.93466)scale(0.06 -0.06)">
     <use xlink:href="#DejaVuSans-48"/>
     <use x="63.623047" xlink:href="#DejaVuSans-46"/>
     <use x="95.410156" xlink:href="#DejaVuSans-57"/>
     <use x="159.033203" xlink:href="#DejaVuSans-51"/>
    </g>
   </g>
   <g id="text_71">
    <!-- 0.9 -->
    <g style="fill:#ffffff;" transform="translate(172.619702 40.93466)scale(0.06 -0.06)">
     <use xlink:href="#DejaVuSans-48"/>
     <use x="63.623047" xlink:href="#DejaVuSans-46"/>
     <use x="95.410156" xlink:href="#DejaVuSans-57"/>
    </g>
   </g>
   <g id="text_72">
    <!-- 0.88 -->
    <g style="fill:#ffffff;" transform="translate(190.831861 40.93466)scale(0.06 -0.06)">
     <use xlink:href="#DejaVuSans-48"/>
     <use x="63.623047" xlink:href="#DejaVuSans-46"/>
     <use x="95.410156" xlink:href="#DejaVuSans-56"/>
     <use x="159.033203" xlink:href="#DejaVuSans-56"/>
    </g>
   </g>
   <g id="text_73">
    <!-- 0.87 -->
    <g style="fill:#ffffff;" transform="translate(210.952771 40.93466)scale(0.06 -0.06)">
     <use xlink:href="#DejaVuSans-48"/>
     <use x="63.623047" xlink:href="#DejaVuSans-46"/>
     <use x="95.410156" xlink:href="#DejaVuSans-56"/>
     <use x="159.033203" xlink:href="#DejaVuSans-55"/>
    </g>
   </g>
   <g id="text_74">
    <!-- 0.93 -->
    <g style="fill:#ffffff;" transform="translate(150.590042 52.898243)scale(0.06 -0.06)">
     <use xlink:href="#DejaVuSans-48"/>
     <use x="63.623047" xlink:href="#DejaVuSans-46"/>
     <use x="95.410156" xlink:href="#DejaVuSans-57"/>
     <use x="159.033203" xlink:href="#DejaVuSans-51"/>
    </g>
   </g>
   <g id="text_75">
    <!-- 0.91 -->
    <g style="fill:#ffffff;" transform="translate(170.710952 52.898243)scale(0.06 -0.06)">
     <use xlink:href="#DejaVuSans-48"/>
     <use x="63.623047" xlink:href="#DejaVuSans-46"/>
     <use x="95.410156" xlink:href="#DejaVuSans-57"/>
     <use x="159.033203" xlink:href="#DejaVuSans-49"/>
    </g>
   </g>
   <g id="text_76">
    <!-- 0.9 -->
    <g style="fill:#ffffff;" transform="translate(192.740611 52.898243)scale(0.06 -0.06)">
     <use xlink:href="#DejaVuSans-48"/>
     <use x="63.623047" xlink:href="#DejaVuSans-46"/>
     <use x="95.410156" xlink:href="#DejaVuSans-57"/>
    </g>
   </g>
   <g id="text_77">
    <!-- 0.89 -->
    <g style="fill:#ffffff;" transform="translate(210.952771 52.898243)scale(0.06 -0.06)">
     <use xlink:href="#DejaVuSans-48"/>
     <use x="63.623047" xlink:href="#DejaVuSans-46"/>
     <use x="95.410156" xlink:href="#DejaVuSans-56"/>
     <use x="159.033203" xlink:href="#DejaVuSans-57"/>
    </g>
   </g>
   <g id="text_78">
    <!-- 0.94 -->
    <g style="fill:#ffffff;" transform="translate(150.590042 64.861826)scale(0.06 -0.06)">
     <use xlink:href="#DejaVuSans-48"/>
     <use x="63.623047" xlink:href="#DejaVuSans-46"/>
     <use x="95.410156" xlink:href="#DejaVuSans-57"/>
     <use x="159.033203" xlink:href="#DejaVuSans-52"/>
    </g>
   </g>
   <g id="text_79">
    <!-- 0.91 -->
    <g style="fill:#ffffff;" transform="translate(170.710952 64.861826)scale(0.06 -0.06)">
     <use xlink:href="#DejaVuSans-48"/>
     <use x="63.623047" xlink:href="#DejaVuSans-46"/>
     <use x="95.410156" xlink:href="#DejaVuSans-57"/>
     <use x="159.033203" xlink:href="#DejaVuSans-49"/>
    </g>
   </g>
   <g id="text_80">
    <!-- 0.9 -->
    <g style="fill:#ffffff;" transform="translate(192.740611 64.861826)scale(0.06 -0.06)">
     <use xlink:href="#DejaVuSans-48"/>
     <use x="63.623047" xlink:href="#DejaVuSans-46"/>
     <use x="95.410156" xlink:href="#DejaVuSans-57"/>
    </g>
   </g>
   <g id="text_81">
    <!-- 0.89 -->
    <g style="fill:#ffffff;" transform="translate(210.952771 64.861826)scale(0.06 -0.06)">
     <use xlink:href="#DejaVuSans-48"/>
     <use x="63.623047" xlink:href="#DejaVuSans-46"/>
     <use x="95.410156" xlink:href="#DejaVuSans-56"/>
     <use x="159.033203" xlink:href="#DejaVuSans-57"/>
    </g>
   </g>
   <g id="text_82">
    <!-- 0.93 -->
    <g style="fill:#ffffff;" transform="translate(150.590042 76.825408)scale(0.06 -0.06)">
     <use xlink:href="#DejaVuSans-48"/>
     <use x="63.623047" xlink:href="#DejaVuSans-46"/>
     <use x="95.410156" xlink:href="#DejaVuSans-57"/>
     <use x="159.033203" xlink:href="#DejaVuSans-51"/>
    </g>
   </g>
   <g id="text_83">
    <!-- 0.9 -->
    <g style="fill:#ffffff;" transform="translate(172.619702 76.825408)scale(0.06 -0.06)">
     <use xlink:href="#DejaVuSans-48"/>
     <use x="63.623047" xlink:href="#DejaVuSans-46"/>
     <use x="95.410156" xlink:href="#DejaVuSans-57"/>
    </g>
   </g>
   <g id="text_84">
    <!-- 0.88 -->
    <g style="fill:#ffffff;" transform="translate(190.831861 76.825408)scale(0.06 -0.06)">
     <use xlink:href="#DejaVuSans-48"/>
     <use x="63.623047" xlink:href="#DejaVuSans-46"/>
     <use x="95.410156" xlink:href="#DejaVuSans-56"/>
     <use x="159.033203" xlink:href="#DejaVuSans-56"/>
    </g>
   </g>
   <g id="text_85">
    <!-- 0.87 -->
    <g style="fill:#ffffff;" transform="translate(210.952771 76.825408)scale(0.06 -0.06)">
     <use xlink:href="#DejaVuSans-48"/>
     <use x="63.623047" xlink:href="#DejaVuSans-46"/>
     <use x="95.410156" xlink:href="#DejaVuSans-56"/>
     <use x="159.033203" xlink:href="#DejaVuSans-55"/>
    </g>
   </g>
   <g id="text_86">
    <!-- 0.91 -->
    <g style="fill:#ffffff;" transform="translate(150.590042 88.788991)scale(0.06 -0.06)">
     <use xlink:href="#DejaVuSans-48"/>
     <use x="63.623047" xlink:href="#DejaVuSans-46"/>
     <use x="95.410156" xlink:href="#DejaVuSans-57"/>
     <use x="159.033203" xlink:href="#DejaVuSans-49"/>
    </g>
   </g>
   <g id="text_87">
    <!-- 0.88 -->
    <g style="fill:#ffffff;" transform="translate(170.710952 88.788991)scale(0.06 -0.06)">
     <use xlink:href="#DejaVuSans-48"/>
     <use x="63.623047" xlink:href="#DejaVuSans-46"/>
     <use x="95.410156" xlink:href="#DejaVuSans-56"/>
     <use x="159.033203" xlink:href="#DejaVuSans-56"/>
    </g>
   </g>
   <g id="text_88">
    <!-- 0.86 -->
    <g style="fill:#ffffff;" transform="translate(190.831861 88.788991)scale(0.06 -0.06)">
     <use xlink:href="#DejaVuSans-48"/>
     <use x="63.623047" xlink:href="#DejaVuSans-46"/>
     <use x="95.410156" xlink:href="#DejaVuSans-56"/>
     <use x="159.033203" xlink:href="#DejaVuSans-54"/>
    </g>
   </g>
   <g id="text_89">
    <!-- 0.84 -->
    <g style="fill:#ffffff;" transform="translate(210.952771 88.788991)scale(0.06 -0.06)">
     <use xlink:href="#DejaVuSans-48"/>
     <use x="63.623047" xlink:href="#DejaVuSans-46"/>
     <use x="95.410156" xlink:href="#DejaVuSans-56"/>
     <use x="159.033203" xlink:href="#DejaVuSans-52"/>
    </g>
   </g>
   <g id="text_90">
    <!-- 0.87 -->
    <g style="fill:#ffffff;" transform="translate(150.590042 100.752574)scale(0.06 -0.06)">
     <use xlink:href="#DejaVuSans-48"/>
     <use x="63.623047" xlink:href="#DejaVuSans-46"/>
     <use x="95.410156" xlink:href="#DejaVuSans-56"/>
     <use x="159.033203" xlink:href="#DejaVuSans-55"/>
    </g>
   </g>
   <g id="text_91">
    <!-- 0.84 -->
    <g style="fill:#ffffff;" transform="translate(170.710952 100.752574)scale(0.06 -0.06)">
     <use xlink:href="#DejaVuSans-48"/>
     <use x="63.623047" xlink:href="#DejaVuSans-46"/>
     <use x="95.410156" xlink:href="#DejaVuSans-56"/>
     <use x="159.033203" xlink:href="#DejaVuSans-52"/>
    </g>
   </g>
   <g id="text_92">
    <!-- 0.83 -->
    <g style="fill:#ffffff;" transform="translate(190.831861 100.752574)scale(0.06 -0.06)">
     <use xlink:href="#DejaVuSans-48"/>
     <use x="63.623047" xlink:href="#DejaVuSans-46"/>
     <use x="95.410156" xlink:href="#DejaVuSans-56"/>
     <use x="159.033203" xlink:href="#DejaVuSans-51"/>
    </g>
   </g>
   <g id="text_93">
    <!-- 0.82 -->
    <g style="fill:#ffffff;" transform="translate(210.952771 100.752574)scale(0.06 -0.06)">
     <use xlink:href="#DejaVuSans-48"/>
     <use x="63.623047" xlink:href="#DejaVuSans-46"/>
     <use x="95.410156" xlink:href="#DejaVuSans-56"/>
     <use x="159.033203" xlink:href="#DejaVuSans-50"/>
    </g>
   </g>
   <g id="text_94">
    <!-- B -->
    <g style="fill:#222222;" transform="translate(135.911067 6.917614)scale(0.09 -0.09)">
     <defs>
      <path d="M 7.328125 71.578125 
L 35.9375 71.578125 
Q 44.4375 71.578125 48.609375 70.875 
Q 52.78125 70.171875 56.078125 67.921875 
Q 59.375 65.671875 61.5625 61.9375 
Q 63.765625 58.203125 63.765625 53.5625 
Q 63.765625 48.53125 61.046875 44.328125 
Q 58.34375 40.140625 53.71875 38.03125 
Q 60.25 36.140625 63.765625 31.546875 
Q 67.28125 26.953125 67.28125 20.75 
Q 67.28125 15.875 65.015625 11.25 
Q 62.75 6.640625 58.8125 3.875 
Q 54.890625 1.125 49.125 0.484375 
Q 45.515625 0.09375 31.6875 0 
L 7.328125 0 
z
M 21.78125 59.671875 
L 21.78125 43.109375 
L 31.25 43.109375 
Q 39.703125 43.109375 41.75 43.359375 
Q 45.453125 43.796875 47.578125 45.921875 
Q 49.703125 48.046875 49.703125 51.515625 
Q 49.703125 54.828125 47.875 56.90625 
Q 46.046875 58.984375 42.4375 59.421875 
Q 40.28125 59.671875 30.078125 59.671875 
z
M 21.78125 31.203125 
L 21.78125 12.0625 
L 35.15625 12.0625 
Q 42.96875 12.0625 45.0625 12.5 
Q 48.296875 13.09375 50.3125 15.359375 
Q 52.34375 17.625 52.34375 21.4375 
Q 52.34375 24.65625 50.78125 26.90625 
Q 49.21875 29.15625 46.265625 30.171875 
Q 43.3125 31.203125 33.453125 31.203125 
z
" id="Arial-BoldMT-66"/>
     </defs>
     <use xlink:href="#Arial-BoldMT-66"/>
    </g>
   </g>
  </g>
 </g>
 <defs>
  <clipPath id="p48f7aefa40">
   <rect height="95.708661" width="100.604549" x="26.503937" y="9.370079"/>
  </clipPath>
  <clipPath id="paf96d85c37">
   <rect height="95.708661" width="80.483639" x="147.209274" y="9.370079"/>
  </clipPath>
 </defs>
</svg>
