<?xml version="1.0" encoding="utf-8" standalone="no"?>
<!DOCTYPE svg PUBLIC "-//W3C//DTD SVG 1.1//EN"
  "http://www.w3.org/Graphics/SVG/1.1/DTD/svg11.dtd">
<!-- Created with matplotlib (https://matplotlib.org/) -->
<svg height="140.922385pt" version="1.1" viewBox="0 0 493.228346 140.922385" width="493.228346pt" xmlns="http://www.w3.org/2000/svg" xmlns:xlink="http://www.w3.org/1999/xlink">
 <metadata>
  <rdf:RDF xmlns:cc="http://creativecommons.org/ns#" xmlns:dc="http://purl.org/dc/elements/1.1/" xmlns:rdf="http://www.w3.org/1999/02/22-rdf-syntax-ns#">
   <cc:Work>
    <dc:type rdf:resource="http://purl.org/dc/dcmitype/StillImage"/>
    <dc:date>2022-08-16T16:34:01.451548</dc:date>
    <dc:format>image/svg+xml</dc:format>
    <dc:creator>
     <cc:Agent>
      <dc:title>Matplotlib v3.3.2, https://matplotlib.org/</dc:title>
     </cc:Agent>
    </dc:creator>
   </cc:Work>
  </rdf:RDF>
 </metadata>
 <defs>
  <style type="text/css">*{stroke-linecap:butt;stroke-linejoin:round;}</style>
 </defs>
 <g id="figure_1">
  <g id="patch_1">
   <path d="M 0 140.922385 
L 493.228346 140.922385 
L 493.228346 0 
L 0 0 
z
" style="fill:#ffffff;"/>
  </g>
  <g id="axes_1">
   <g id="patch_2">
    <path d="M 39.458268 116.965579 
L 150.434646 116.965579 
L 150.434646 19.729134 
L 39.458268 19.729134 
z
" style="fill:none;"/>
   </g>
   <g id="QuadMesh_1">
    <path clip-path="url(#p68d682bcdd)" d="M 39.458268 19.729134 
L 67.202362 19.729134 
L 67.202362 39.176423 
L 39.458268 39.176423 
L 39.458268 19.729134 
" style="fill:#84cfc1;fill-opacity:0.75;"/>
    <path clip-path="url(#p68d682bcdd)" d="M 67.202362 19.729134 
L 94.946457 19.729134 
L 94.946457 39.176423 
L 67.202362 39.176423 
L 67.202362 19.729134 
" style="fill:#84cfc1;fill-opacity:0.75;"/>
    <path clip-path="url(#p68d682bcdd)" d="M 94.946457 19.729134 
L 122.690551 19.729134 
L 122.690551 39.176423 
L 94.946457 39.176423 
L 94.946457 19.729134 
" style="fill:#84cfc1;fill-opacity:0.75;"/>
    <path clip-path="url(#p68d682bcdd)" d="M 122.690551 19.729134 
L 150.434646 19.729134 
L 150.434646 39.176423 
L 122.690551 39.176423 
L 122.690551 19.729134 
" style="fill:#84cfc1;fill-opacity:0.75;"/>
    <path clip-path="url(#p68d682bcdd)" d="M 39.458268 39.176423 
L 67.202362 39.176423 
L 67.202362 58.623712 
L 39.458268 58.623712 
L 39.458268 39.176423 
" style="fill:#84cfc1;fill-opacity:0.75;"/>
    <path clip-path="url(#p68d682bcdd)" d="M 67.202362 39.176423 
L 94.946457 39.176423 
L 94.946457 58.623712 
L 67.202362 58.623712 
L 67.202362 39.176423 
" style="fill:#84cfc1;fill-opacity:0.75;"/>
    <path clip-path="url(#p68d682bcdd)" d="M 94.946457 39.176423 
L 122.690551 39.176423 
L 122.690551 58.623712 
L 94.946457 58.623712 
L 94.946457 39.176423 
" style="fill:#84cfc1;fill-opacity:0.75;"/>
    <path clip-path="url(#p68d682bcdd)" d="M 122.690551 39.176423 
L 150.434646 39.176423 
L 150.434646 58.623712 
L 122.690551 58.623712 
L 122.690551 39.176423 
" style="fill:#84cfc1;fill-opacity:0.75;"/>
    <path clip-path="url(#p68d682bcdd)" d="M 39.458268 58.623712 
L 67.202362 58.623712 
L 67.202362 78.071001 
L 39.458268 78.071001 
L 39.458268 58.623712 
" style="fill:#84cfc1;fill-opacity:0.75;"/>
    <path clip-path="url(#p68d682bcdd)" d="M 67.202362 58.623712 
L 94.946457 58.623712 
L 94.946457 78.071001 
L 67.202362 78.071001 
L 67.202362 58.623712 
" style="fill:#84cfc1;fill-opacity:0.75;"/>
    <path clip-path="url(#p68d682bcdd)" d="M 94.946457 58.623712 
L 122.690551 58.623712 
L 122.690551 78.071001 
L 94.946457 78.071001 
L 94.946457 58.623712 
" style="fill:#84cfc1;fill-opacity:0.75;"/>
    <path clip-path="url(#p68d682bcdd)" d="M 122.690551 58.623712 
L 150.434646 58.623712 
L 150.434646 78.071001 
L 122.690551 78.071001 
L 122.690551 58.623712 
" style="fill:#81cec2;fill-opacity:0.75;"/>
    <path clip-path="url(#p68d682bcdd)" d="M 39.458268 78.071001 
L 67.202362 78.071001 
L 67.202362 97.51829 
L 39.458268 97.51829 
L 39.458268 78.071001 
" style="fill:#84cfc1;fill-opacity:0.75;"/>
    <path clip-path="url(#p68d682bcdd)" d="M 67.202362 78.071001 
L 94.946457 78.071001 
L 94.946457 97.51829 
L 67.202362 97.51829 
L 67.202362 78.071001 
" style="fill:#83cfc1;fill-opacity:0.75;"/>
    <path clip-path="url(#p68d682bcdd)" d="M 94.946457 78.071001 
L 122.690551 78.071001 
L 122.690551 97.51829 
L 94.946457 97.51829 
L 94.946457 78.071001 
" style="fill:#83cfc1;fill-opacity:0.75;"/>
    <path clip-path="url(#p68d682bcdd)" d="M 122.690551 78.071001 
L 150.434646 78.071001 
L 150.434646 97.51829 
L 122.690551 97.51829 
L 122.690551 78.071001 
" style="fill:#83cfc1;fill-opacity:0.75;"/>
    <path clip-path="url(#p68d682bcdd)" d="M 39.458268 97.51829 
L 67.202362 97.51829 
L 67.202362 116.965579 
L 39.458268 116.965579 
L 39.458268 97.51829 
" style="fill:#83cfc1;fill-opacity:0.75;"/>
    <path clip-path="url(#p68d682bcdd)" d="M 67.202362 97.51829 
L 94.946457 97.51829 
L 94.946457 116.965579 
L 67.202362 116.965579 
L 67.202362 97.51829 
" style="fill:#81cec2;fill-opacity:0.75;"/>
    <path clip-path="url(#p68d682bcdd)" d="M 94.946457 97.51829 
L 122.690551 97.51829 
L 122.690551 116.965579 
L 94.946457 116.965579 
L 94.946457 97.51829 
" style="fill:#7fcdc3;fill-opacity:0.75;"/>
    <path clip-path="url(#p68d682bcdd)" d="M 122.690551 97.51829 
L 150.434646 97.51829 
L 150.434646 116.965579 
L 122.690551 116.965579 
L 122.690551 97.51829 
" style="fill:#7cccc4;fill-opacity:0.75;"/>
   </g>
   <g id="matplotlib.axis_1">
    <g id="xtick_1">
     <g id="text_1">
      <!-- 1 -->
      <g style="fill:#252525;" transform="translate(51.421565 126.524642)scale(0.06 -0.06)">
       <defs>
        <path d="M 12.40625 8.296875 
L 28.515625 8.296875 
L 28.515625 63.921875 
L 10.984375 60.40625 
L 10.984375 69.390625 
L 28.421875 72.90625 
L 38.28125 72.90625 
L 38.28125 8.296875 
L 54.390625 8.296875 
L 54.390625 0 
L 12.40625 0 
z
" id="DejaVuSans-49"/>
       </defs>
       <use xlink:href="#DejaVuSans-49"/>
      </g>
     </g>
    </g>
    <g id="xtick_2">
     <g id="text_2">
      <!-- 3 -->
      <g style="fill:#252525;" transform="translate(79.165659 126.524642)scale(0.06 -0.06)">
       <defs>
        <path d="M 40.578125 39.3125 
Q 47.65625 37.796875 51.625 33 
Q 55.609375 28.21875 55.609375 21.1875 
Q 55.609375 10.40625 48.1875 4.484375 
Q 40.765625 -1.421875 27.09375 -1.421875 
Q 22.515625 -1.421875 17.65625 -0.515625 
Q 12.796875 0.390625 7.625 2.203125 
L 7.625 11.71875 
Q 11.71875 9.328125 16.59375 8.109375 
Q 21.484375 6.890625 26.8125 6.890625 
Q 36.078125 6.890625 40.9375 10.546875 
Q 45.796875 14.203125 45.796875 21.1875 
Q 45.796875 27.640625 41.28125 31.265625 
Q 36.765625 34.90625 28.71875 34.90625 
L 20.21875 34.90625 
L 20.21875 43.015625 
L 29.109375 43.015625 
Q 36.375 43.015625 40.234375 45.921875 
Q 44.09375 48.828125 44.09375 54.296875 
Q 44.09375 59.90625 40.109375 62.90625 
Q 36.140625 65.921875 28.71875 65.921875 
Q 24.65625 65.921875 20.015625 65.03125 
Q 15.375 64.15625 9.8125 62.3125 
L 9.8125 71.09375 
Q 15.4375 72.65625 20.34375 73.4375 
Q 25.25 74.21875 29.59375 74.21875 
Q 40.828125 74.21875 47.359375 69.109375 
Q 53.90625 64.015625 53.90625 55.328125 
Q 53.90625 49.265625 50.4375 45.09375 
Q 46.96875 40.921875 40.578125 39.3125 
z
" id="DejaVuSans-51"/>
       </defs>
       <use xlink:href="#DejaVuSans-51"/>
      </g>
     </g>
    </g>
    <g id="xtick_3">
     <g id="text_3">
      <!-- 5 -->
      <g style="fill:#252525;" transform="translate(106.909754 126.524642)scale(0.06 -0.06)">
       <defs>
        <path d="M 10.796875 72.90625 
L 49.515625 72.90625 
L 49.515625 64.59375 
L 19.828125 64.59375 
L 19.828125 46.734375 
Q 21.96875 47.46875 24.109375 47.828125 
Q 26.265625 48.1875 28.421875 48.1875 
Q 40.625 48.1875 47.75 41.5 
Q 54.890625 34.8125 54.890625 23.390625 
Q 54.890625 11.625 47.5625 5.09375 
Q 40.234375 -1.421875 26.90625 -1.421875 
Q 22.3125 -1.421875 17.546875 -0.640625 
Q 12.796875 0.140625 7.71875 1.703125 
L 7.71875 11.625 
Q 12.109375 9.234375 16.796875 8.0625 
Q 21.484375 6.890625 26.703125 6.890625 
Q 35.15625 6.890625 40.078125 11.328125 
Q 45.015625 15.765625 45.015625 23.390625 
Q 45.015625 31 40.078125 35.4375 
Q 35.15625 39.890625 26.703125 39.890625 
Q 22.75 39.890625 18.8125 39.015625 
Q 14.890625 38.140625 10.796875 36.28125 
z
" id="DejaVuSans-53"/>
       </defs>
       <use xlink:href="#DejaVuSans-53"/>
      </g>
     </g>
    </g>
    <g id="xtick_4">
     <g id="text_4">
      <!-- 10 -->
      <g style="fill:#252525;" transform="translate(132.745098 126.524642)scale(0.06 -0.06)">
       <defs>
        <path d="M 31.78125 66.40625 
Q 24.171875 66.40625 20.328125 58.90625 
Q 16.5 51.421875 16.5 36.375 
Q 16.5 21.390625 20.328125 13.890625 
Q 24.171875 6.390625 31.78125 6.390625 
Q 39.453125 6.390625 43.28125 13.890625 
Q 47.125 21.390625 47.125 36.375 
Q 47.125 51.421875 43.28125 58.90625 
Q 39.453125 66.40625 31.78125 66.40625 
z
M 31.78125 74.21875 
Q 44.046875 74.21875 50.515625 64.515625 
Q 56.984375 54.828125 56.984375 36.375 
Q 56.984375 17.96875 50.515625 8.265625 
Q 44.046875 -1.421875 31.78125 -1.421875 
Q 19.53125 -1.421875 13.0625 8.265625 
Q 6.59375 17.96875 6.59375 36.375 
Q 6.59375 54.828125 13.0625 64.515625 
Q 19.53125 74.21875 31.78125 74.21875 
z
" id="DejaVuSans-48"/>
       </defs>
       <use xlink:href="#DejaVuSans-49"/>
       <use x="63.623047" xlink:href="#DejaVuSans-48"/>
      </g>
     </g>
    </g>
   </g>
   <g id="matplotlib.axis_2">
    <g id="ytick_1">
     <g id="text_5">
      <!-- 1000 -->
      <g style="fill:#252525;" transform="translate(19.188268 31.73231)scale(0.06 -0.06)">
       <use xlink:href="#DejaVuSans-49"/>
       <use x="63.623047" xlink:href="#DejaVuSans-48"/>
       <use x="127.246094" xlink:href="#DejaVuSans-48"/>
       <use x="190.869141" xlink:href="#DejaVuSans-48"/>
      </g>
     </g>
    </g>
    <g id="ytick_2">
     <g id="text_6">
      <!-- 500 -->
      <g style="fill:#252525;" transform="translate(23.005768 51.179599)scale(0.06 -0.06)">
       <use xlink:href="#DejaVuSans-53"/>
       <use x="63.623047" xlink:href="#DejaVuSans-48"/>
       <use x="127.246094" xlink:href="#DejaVuSans-48"/>
      </g>
     </g>
    </g>
    <g id="ytick_3">
     <g id="text_7">
      <!-- 100 -->
      <g style="fill:#252525;" transform="translate(23.005768 70.626888)scale(0.06 -0.06)">
       <use xlink:href="#DejaVuSans-49"/>
       <use x="63.623047" xlink:href="#DejaVuSans-48"/>
       <use x="127.246094" xlink:href="#DejaVuSans-48"/>
      </g>
     </g>
    </g>
    <g id="ytick_4">
     <g id="text_8">
      <!-- 50 -->
      <g style="fill:#252525;" transform="translate(26.823268 90.074177)scale(0.06 -0.06)">
       <use xlink:href="#DejaVuSans-53"/>
       <use x="63.623047" xlink:href="#DejaVuSans-48"/>
      </g>
     </g>
    </g>
    <g id="ytick_5">
     <g id="text_9">
      <!-- 10 -->
      <g style="fill:#252525;" transform="translate(26.823268 109.521466)scale(0.06 -0.06)">
       <use xlink:href="#DejaVuSans-49"/>
       <use x="63.623047" xlink:href="#DejaVuSans-48"/>
      </g>
     </g>
    </g>
    <g id="text_10">
     <!-- Number of samples drawn -->
     <g transform="translate(7.221768 107.952044)rotate(-90)scale(0.06 -0.06)">
      <defs>
       <path d="M 9.8125 72.90625 
L 23.09375 72.90625 
L 55.421875 11.921875 
L 55.421875 72.90625 
L 64.984375 72.90625 
L 64.984375 0 
L 51.703125 0 
L 19.390625 60.984375 
L 19.390625 0 
L 9.8125 0 
z
" id="DejaVuSans-78"/>
       <path d="M 8.5 21.578125 
L 8.5 54.6875 
L 17.484375 54.6875 
L 17.484375 21.921875 
Q 17.484375 14.15625 20.5 10.265625 
Q 23.53125 6.390625 29.59375 6.390625 
Q 36.859375 6.390625 41.078125 11.03125 
Q 45.3125 15.671875 45.3125 23.6875 
L 45.3125 54.6875 
L 54.296875 54.6875 
L 54.296875 0 
L 45.3125 0 
L 45.3125 8.40625 
Q 42.046875 3.421875 37.71875 1 
Q 33.40625 -1.421875 27.6875 -1.421875 
Q 18.265625 -1.421875 13.375 4.4375 
Q 8.5 10.296875 8.5 21.578125 
z
M 31.109375 56 
z
" id="DejaVuSans-117"/>
       <path d="M 52 44.1875 
Q 55.375 50.25 60.0625 53.125 
Q 64.75 56 71.09375 56 
Q 79.640625 56 84.28125 50.015625 
Q 88.921875 44.046875 88.921875 33.015625 
L 88.921875 0 
L 79.890625 0 
L 79.890625 32.71875 
Q 79.890625 40.578125 77.09375 44.375 
Q 74.3125 48.1875 68.609375 48.1875 
Q 61.625 48.1875 57.5625 43.546875 
Q 53.515625 38.921875 53.515625 30.90625 
L 53.515625 0 
L 44.484375 0 
L 44.484375 32.71875 
Q 44.484375 40.625 41.703125 44.40625 
Q 38.921875 48.1875 33.109375 48.1875 
Q 26.21875 48.1875 22.15625 43.53125 
Q 18.109375 38.875 18.109375 30.90625 
L 18.109375 0 
L 9.078125 0 
L 9.078125 54.6875 
L 18.109375 54.6875 
L 18.109375 46.1875 
Q 21.1875 51.21875 25.484375 53.609375 
Q 29.78125 56 35.6875 56 
Q 41.65625 56 45.828125 52.96875 
Q 50 49.953125 52 44.1875 
z
" id="DejaVuSans-109"/>
       <path d="M 48.6875 27.296875 
Q 48.6875 37.203125 44.609375 42.84375 
Q 40.53125 48.484375 33.40625 48.484375 
Q 26.265625 48.484375 22.1875 42.84375 
Q 18.109375 37.203125 18.109375 27.296875 
Q 18.109375 17.390625 22.1875 11.75 
Q 26.265625 6.109375 33.40625 6.109375 
Q 40.53125 6.109375 44.609375 11.75 
Q 48.6875 17.390625 48.6875 27.296875 
z
M 18.109375 46.390625 
Q 20.953125 51.265625 25.265625 53.625 
Q 29.59375 56 35.59375 56 
Q 45.5625 56 51.78125 48.09375 
Q 58.015625 40.1875 58.015625 27.296875 
Q 58.015625 14.40625 51.78125 6.484375 
Q 45.5625 -1.421875 35.59375 -1.421875 
Q 29.59375 -1.421875 25.265625 0.953125 
Q 20.953125 3.328125 18.109375 8.203125 
L 18.109375 0 
L 9.078125 0 
L 9.078125 75.984375 
L 18.109375 75.984375 
z
" id="DejaVuSans-98"/>
       <path d="M 56.203125 29.59375 
L 56.203125 25.203125 
L 14.890625 25.203125 
Q 15.484375 15.921875 20.484375 11.0625 
Q 25.484375 6.203125 34.421875 6.203125 
Q 39.59375 6.203125 44.453125 7.46875 
Q 49.3125 8.734375 54.109375 11.28125 
L 54.109375 2.78125 
Q 49.265625 0.734375 44.1875 -0.34375 
Q 39.109375 -1.421875 33.890625 -1.421875 
Q 20.796875 -1.421875 13.15625 6.1875 
Q 5.515625 13.8125 5.515625 26.8125 
Q 5.515625 40.234375 12.765625 48.109375 
Q 20.015625 56 32.328125 56 
Q 43.359375 56 49.78125 48.890625 
Q 56.203125 41.796875 56.203125 29.59375 
z
M 47.21875 32.234375 
Q 47.125 39.59375 43.09375 43.984375 
Q 39.0625 48.390625 32.421875 48.390625 
Q 24.90625 48.390625 20.390625 44.140625 
Q 15.875 39.890625 15.1875 32.171875 
z
" id="DejaVuSans-101"/>
       <path d="M 41.109375 46.296875 
Q 39.59375 47.171875 37.8125 47.578125 
Q 36.03125 48 33.890625 48 
Q 26.265625 48 22.1875 43.046875 
Q 18.109375 38.09375 18.109375 28.8125 
L 18.109375 0 
L 9.078125 0 
L 9.078125 54.6875 
L 18.109375 54.6875 
L 18.109375 46.1875 
Q 20.953125 51.171875 25.484375 53.578125 
Q 30.03125 56 36.53125 56 
Q 37.453125 56 38.578125 55.875 
Q 39.703125 55.765625 41.0625 55.515625 
z
" id="DejaVuSans-114"/>
       <path id="DejaVuSans-32"/>
       <path d="M 30.609375 48.390625 
Q 23.390625 48.390625 19.1875 42.75 
Q 14.984375 37.109375 14.984375 27.296875 
Q 14.984375 17.484375 19.15625 11.84375 
Q 23.34375 6.203125 30.609375 6.203125 
Q 37.796875 6.203125 41.984375 11.859375 
Q 46.1875 17.53125 46.1875 27.296875 
Q 46.1875 37.015625 41.984375 42.703125 
Q 37.796875 48.390625 30.609375 48.390625 
z
M 30.609375 56 
Q 42.328125 56 49.015625 48.375 
Q 55.71875 40.765625 55.71875 27.296875 
Q 55.71875 13.875 49.015625 6.21875 
Q 42.328125 -1.421875 30.609375 -1.421875 
Q 18.84375 -1.421875 12.171875 6.21875 
Q 5.515625 13.875 5.515625 27.296875 
Q 5.515625 40.765625 12.171875 48.375 
Q 18.84375 56 30.609375 56 
z
" id="DejaVuSans-111"/>
       <path d="M 37.109375 75.984375 
L 37.109375 68.5 
L 28.515625 68.5 
Q 23.6875 68.5 21.796875 66.546875 
Q 19.921875 64.59375 19.921875 59.515625 
L 19.921875 54.6875 
L 34.71875 54.6875 
L 34.71875 47.703125 
L 19.921875 47.703125 
L 19.921875 0 
L 10.890625 0 
L 10.890625 47.703125 
L 2.296875 47.703125 
L 2.296875 54.6875 
L 10.890625 54.6875 
L 10.890625 58.5 
Q 10.890625 67.625 15.140625 71.796875 
Q 19.390625 75.984375 28.609375 75.984375 
z
" id="DejaVuSans-102"/>
       <path d="M 44.28125 53.078125 
L 44.28125 44.578125 
Q 40.484375 46.53125 36.375 47.5 
Q 32.28125 48.484375 27.875 48.484375 
Q 21.1875 48.484375 17.84375 46.4375 
Q 14.5 44.390625 14.5 40.28125 
Q 14.5 37.15625 16.890625 35.375 
Q 19.28125 33.59375 26.515625 31.984375 
L 29.59375 31.296875 
Q 39.15625 29.25 43.1875 25.515625 
Q 47.21875 21.78125 47.21875 15.09375 
Q 47.21875 7.46875 41.1875 3.015625 
Q 35.15625 -1.421875 24.609375 -1.421875 
Q 20.21875 -1.421875 15.453125 -0.5625 
Q 10.6875 0.296875 5.421875 2 
L 5.421875 11.28125 
Q 10.40625 8.6875 15.234375 7.390625 
Q 20.0625 6.109375 24.8125 6.109375 
Q 31.15625 6.109375 34.5625 8.28125 
Q 37.984375 10.453125 37.984375 14.40625 
Q 37.984375 18.0625 35.515625 20.015625 
Q 33.0625 21.96875 24.703125 23.78125 
L 21.578125 24.515625 
Q 13.234375 26.265625 9.515625 29.90625 
Q 5.8125 33.546875 5.8125 39.890625 
Q 5.8125 47.609375 11.28125 51.796875 
Q 16.75 56 26.8125 56 
Q 31.78125 56 36.171875 55.265625 
Q 40.578125 54.546875 44.28125 53.078125 
z
" id="DejaVuSans-115"/>
       <path d="M 34.28125 27.484375 
Q 23.390625 27.484375 19.1875 25 
Q 14.984375 22.515625 14.984375 16.5 
Q 14.984375 11.71875 18.140625 8.90625 
Q 21.296875 6.109375 26.703125 6.109375 
Q 34.1875 6.109375 38.703125 11.40625 
Q 43.21875 16.703125 43.21875 25.484375 
L 43.21875 27.484375 
z
M 52.203125 31.203125 
L 52.203125 0 
L 43.21875 0 
L 43.21875 8.296875 
Q 40.140625 3.328125 35.546875 0.953125 
Q 30.953125 -1.421875 24.3125 -1.421875 
Q 15.921875 -1.421875 10.953125 3.296875 
Q 6 8.015625 6 15.921875 
Q 6 25.140625 12.171875 29.828125 
Q 18.359375 34.515625 30.609375 34.515625 
L 43.21875 34.515625 
L 43.21875 35.40625 
Q 43.21875 41.609375 39.140625 45 
Q 35.0625 48.390625 27.6875 48.390625 
Q 23 48.390625 18.546875 47.265625 
Q 14.109375 46.140625 10.015625 43.890625 
L 10.015625 52.203125 
Q 14.9375 54.109375 19.578125 55.046875 
Q 24.21875 56 28.609375 56 
Q 40.484375 56 46.34375 49.84375 
Q 52.203125 43.703125 52.203125 31.203125 
z
" id="DejaVuSans-97"/>
       <path d="M 18.109375 8.203125 
L 18.109375 -20.796875 
L 9.078125 -20.796875 
L 9.078125 54.6875 
L 18.109375 54.6875 
L 18.109375 46.390625 
Q 20.953125 51.265625 25.265625 53.625 
Q 29.59375 56 35.59375 56 
Q 45.5625 56 51.78125 48.09375 
Q 58.015625 40.1875 58.015625 27.296875 
Q 58.015625 14.40625 51.78125 6.484375 
Q 45.5625 -1.421875 35.59375 -1.421875 
Q 29.59375 -1.421875 25.265625 0.953125 
Q 20.953125 3.328125 18.109375 8.203125 
z
M 48.6875 27.296875 
Q 48.6875 37.203125 44.609375 42.84375 
Q 40.53125 48.484375 33.40625 48.484375 
Q 26.265625 48.484375 22.1875 42.84375 
Q 18.109375 37.203125 18.109375 27.296875 
Q 18.109375 17.390625 22.1875 11.75 
Q 26.265625 6.109375 33.40625 6.109375 
Q 40.53125 6.109375 44.609375 11.75 
Q 48.6875 17.390625 48.6875 27.296875 
z
" id="DejaVuSans-112"/>
       <path d="M 9.421875 75.984375 
L 18.40625 75.984375 
L 18.40625 0 
L 9.421875 0 
z
" id="DejaVuSans-108"/>
       <path d="M 45.40625 46.390625 
L 45.40625 75.984375 
L 54.390625 75.984375 
L 54.390625 0 
L 45.40625 0 
L 45.40625 8.203125 
Q 42.578125 3.328125 38.25 0.953125 
Q 33.9375 -1.421875 27.875 -1.421875 
Q 17.96875 -1.421875 11.734375 6.484375 
Q 5.515625 14.40625 5.515625 27.296875 
Q 5.515625 40.1875 11.734375 48.09375 
Q 17.96875 56 27.875 56 
Q 33.9375 56 38.25 53.625 
Q 42.578125 51.265625 45.40625 46.390625 
z
M 14.796875 27.296875 
Q 14.796875 17.390625 18.875 11.75 
Q 22.953125 6.109375 30.078125 6.109375 
Q 37.203125 6.109375 41.296875 11.75 
Q 45.40625 17.390625 45.40625 27.296875 
Q 45.40625 37.203125 41.296875 42.84375 
Q 37.203125 48.484375 30.078125 48.484375 
Q 22.953125 48.484375 18.875 42.84375 
Q 14.796875 37.203125 14.796875 27.296875 
z
" id="DejaVuSans-100"/>
       <path d="M 4.203125 54.6875 
L 13.1875 54.6875 
L 24.421875 12.015625 
L 35.59375 54.6875 
L 46.1875 54.6875 
L 57.421875 12.015625 
L 68.609375 54.6875 
L 77.59375 54.6875 
L 63.28125 0 
L 52.6875 0 
L 40.921875 44.828125 
L 29.109375 0 
L 18.5 0 
z
" id="DejaVuSans-119"/>
       <path d="M 54.890625 33.015625 
L 54.890625 0 
L 45.90625 0 
L 45.90625 32.71875 
Q 45.90625 40.484375 42.875 44.328125 
Q 39.84375 48.1875 33.796875 48.1875 
Q 26.515625 48.1875 22.3125 43.546875 
Q 18.109375 38.921875 18.109375 30.90625 
L 18.109375 0 
L 9.078125 0 
L 9.078125 54.6875 
L 18.109375 54.6875 
L 18.109375 46.1875 
Q 21.34375 51.125 25.703125 53.5625 
Q 30.078125 56 35.796875 56 
Q 45.21875 56 50.046875 50.171875 
Q 54.890625 44.34375 54.890625 33.015625 
z
" id="DejaVuSans-110"/>
      </defs>
      <use xlink:href="#DejaVuSans-78"/>
      <use x="74.804688" xlink:href="#DejaVuSans-117"/>
      <use x="138.183594" xlink:href="#DejaVuSans-109"/>
      <use x="235.595703" xlink:href="#DejaVuSans-98"/>
      <use x="299.072266" xlink:href="#DejaVuSans-101"/>
      <use x="360.595703" xlink:href="#DejaVuSans-114"/>
      <use x="401.708984" xlink:href="#DejaVuSans-32"/>
      <use x="433.496094" xlink:href="#DejaVuSans-111"/>
      <use x="494.677734" xlink:href="#DejaVuSans-102"/>
      <use x="529.882812" xlink:href="#DejaVuSans-32"/>
      <use x="561.669922" xlink:href="#DejaVuSans-115"/>
      <use x="613.769531" xlink:href="#DejaVuSans-97"/>
      <use x="675.048828" xlink:href="#DejaVuSans-109"/>
      <use x="772.460938" xlink:href="#DejaVuSans-112"/>
      <use x="835.9375" xlink:href="#DejaVuSans-108"/>
      <use x="863.720703" xlink:href="#DejaVuSans-101"/>
      <use x="925.244141" xlink:href="#DejaVuSans-115"/>
      <use x="977.34375" xlink:href="#DejaVuSans-32"/>
      <use x="1009.130859" xlink:href="#DejaVuSans-100"/>
      <use x="1072.607422" xlink:href="#DejaVuSans-114"/>
      <use x="1113.720703" xlink:href="#DejaVuSans-97"/>
      <use x="1175" xlink:href="#DejaVuSans-119"/>
      <use x="1256.787109" xlink:href="#DejaVuSans-110"/>
     </g>
     <!-- at each generation -->
     <g transform="translate(13.940455 96.8197)rotate(-90)scale(0.06 -0.06)">
      <defs>
       <path d="M 18.3125 70.21875 
L 18.3125 54.6875 
L 36.8125 54.6875 
L 36.8125 47.703125 
L 18.3125 47.703125 
L 18.3125 18.015625 
Q 18.3125 11.328125 20.140625 9.421875 
Q 21.96875 7.515625 27.59375 7.515625 
L 36.8125 7.515625 
L 36.8125 0 
L 27.59375 0 
Q 17.1875 0 13.234375 3.875 
Q 9.28125 7.765625 9.28125 18.015625 
L 9.28125 47.703125 
L 2.6875 47.703125 
L 2.6875 54.6875 
L 9.28125 54.6875 
L 9.28125 70.21875 
z
" id="DejaVuSans-116"/>
       <path d="M 48.78125 52.59375 
L 48.78125 44.1875 
Q 44.96875 46.296875 41.140625 47.34375 
Q 37.3125 48.390625 33.40625 48.390625 
Q 24.65625 48.390625 19.8125 42.84375 
Q 14.984375 37.3125 14.984375 27.296875 
Q 14.984375 17.28125 19.8125 11.734375 
Q 24.65625 6.203125 33.40625 6.203125 
Q 37.3125 6.203125 41.140625 7.25 
Q 44.96875 8.296875 48.78125 10.40625 
L 48.78125 2.09375 
Q 45.015625 0.34375 40.984375 -0.53125 
Q 36.96875 -1.421875 32.421875 -1.421875 
Q 20.0625 -1.421875 12.78125 6.34375 
Q 5.515625 14.109375 5.515625 27.296875 
Q 5.515625 40.671875 12.859375 48.328125 
Q 20.21875 56 33.015625 56 
Q 37.15625 56 41.109375 55.140625 
Q 45.0625 54.296875 48.78125 52.59375 
z
" id="DejaVuSans-99"/>
       <path d="M 54.890625 33.015625 
L 54.890625 0 
L 45.90625 0 
L 45.90625 32.71875 
Q 45.90625 40.484375 42.875 44.328125 
Q 39.84375 48.1875 33.796875 48.1875 
Q 26.515625 48.1875 22.3125 43.546875 
Q 18.109375 38.921875 18.109375 30.90625 
L 18.109375 0 
L 9.078125 0 
L 9.078125 75.984375 
L 18.109375 75.984375 
L 18.109375 46.1875 
Q 21.34375 51.125 25.703125 53.5625 
Q 30.078125 56 35.796875 56 
Q 45.21875 56 50.046875 50.171875 
Q 54.890625 44.34375 54.890625 33.015625 
z
" id="DejaVuSans-104"/>
       <path d="M 45.40625 27.984375 
Q 45.40625 37.75 41.375 43.109375 
Q 37.359375 48.484375 30.078125 48.484375 
Q 22.859375 48.484375 18.828125 43.109375 
Q 14.796875 37.75 14.796875 27.984375 
Q 14.796875 18.265625 18.828125 12.890625 
Q 22.859375 7.515625 30.078125 7.515625 
Q 37.359375 7.515625 41.375 12.890625 
Q 45.40625 18.265625 45.40625 27.984375 
z
M 54.390625 6.78125 
Q 54.390625 -7.171875 48.1875 -13.984375 
Q 42 -20.796875 29.203125 -20.796875 
Q 24.46875 -20.796875 20.265625 -20.09375 
Q 16.0625 -19.390625 12.109375 -17.921875 
L 12.109375 -9.1875 
Q 16.0625 -11.328125 19.921875 -12.34375 
Q 23.78125 -13.375 27.78125 -13.375 
Q 36.625 -13.375 41.015625 -8.765625 
Q 45.40625 -4.15625 45.40625 5.171875 
L 45.40625 9.625 
Q 42.625 4.78125 38.28125 2.390625 
Q 33.9375 0 27.875 0 
Q 17.828125 0 11.671875 7.65625 
Q 5.515625 15.328125 5.515625 27.984375 
Q 5.515625 40.671875 11.671875 48.328125 
Q 17.828125 56 27.875 56 
Q 33.9375 56 38.28125 53.609375 
Q 42.625 51.21875 45.40625 46.390625 
L 45.40625 54.6875 
L 54.390625 54.6875 
z
" id="DejaVuSans-103"/>
       <path d="M 9.421875 54.6875 
L 18.40625 54.6875 
L 18.40625 0 
L 9.421875 0 
z
M 9.421875 75.984375 
L 18.40625 75.984375 
L 18.40625 64.59375 
L 9.421875 64.59375 
z
" id="DejaVuSans-105"/>
      </defs>
      <use xlink:href="#DejaVuSans-97"/>
      <use x="61.279297" xlink:href="#DejaVuSans-116"/>
      <use x="100.488281" xlink:href="#DejaVuSans-32"/>
      <use x="132.275391" xlink:href="#DejaVuSans-101"/>
      <use x="193.798828" xlink:href="#DejaVuSans-97"/>
      <use x="255.078125" xlink:href="#DejaVuSans-99"/>
      <use x="310.058594" xlink:href="#DejaVuSans-104"/>
      <use x="373.4375" xlink:href="#DejaVuSans-32"/>
      <use x="405.224609" xlink:href="#DejaVuSans-103"/>
      <use x="468.701172" xlink:href="#DejaVuSans-101"/>
      <use x="530.224609" xlink:href="#DejaVuSans-110"/>
      <use x="593.603516" xlink:href="#DejaVuSans-101"/>
      <use x="655.126953" xlink:href="#DejaVuSans-114"/>
      <use x="696.240234" xlink:href="#DejaVuSans-97"/>
      <use x="757.519531" xlink:href="#DejaVuSans-116"/>
      <use x="796.728516" xlink:href="#DejaVuSans-105"/>
      <use x="824.511719" xlink:href="#DejaVuSans-111"/>
      <use x="885.693359" xlink:href="#DejaVuSans-110"/>
     </g>
    </g>
   </g>
   <g id="text_11">
    <!-- 0.31 -->
    <g style="fill:#262626;" transform="translate(46.650627 31.108403)scale(0.06 -0.06)">
     <defs>
      <path d="M 10.6875 12.40625 
L 21 12.40625 
L 21 0 
L 10.6875 0 
z
" id="DejaVuSans-46"/>
     </defs>
     <use xlink:href="#DejaVuSans-48"/>
     <use x="63.623047" xlink:href="#DejaVuSans-46"/>
     <use x="95.410156" xlink:href="#DejaVuSans-51"/>
     <use x="159.033203" xlink:href="#DejaVuSans-49"/>
    </g>
   </g>
   <g id="text_12">
    <!-- 0.31 -->
    <g style="fill:#262626;" transform="translate(74.394722 31.108403)scale(0.06 -0.06)">
     <use xlink:href="#DejaVuSans-48"/>
     <use x="63.623047" xlink:href="#DejaVuSans-46"/>
     <use x="95.410156" xlink:href="#DejaVuSans-51"/>
     <use x="159.033203" xlink:href="#DejaVuSans-49"/>
    </g>
   </g>
   <g id="text_13">
    <!-- 0.31 -->
    <g style="fill:#262626;" transform="translate(102.138816 31.108403)scale(0.06 -0.06)">
     <use xlink:href="#DejaVuSans-48"/>
     <use x="63.623047" xlink:href="#DejaVuSans-46"/>
     <use x="95.410156" xlink:href="#DejaVuSans-51"/>
     <use x="159.033203" xlink:href="#DejaVuSans-49"/>
    </g>
   </g>
   <g id="text_14">
    <!-- 0.31 -->
    <g style="fill:#262626;" transform="translate(129.882911 31.108403)scale(0.06 -0.06)">
     <use xlink:href="#DejaVuSans-48"/>
     <use x="63.623047" xlink:href="#DejaVuSans-46"/>
     <use x="95.410156" xlink:href="#DejaVuSans-51"/>
     <use x="159.033203" xlink:href="#DejaVuSans-49"/>
    </g>
   </g>
   <g id="text_15">
    <!-- 0.31 -->
    <g style="fill:#262626;" transform="translate(46.650627 50.555692)scale(0.06 -0.06)">
     <use xlink:href="#DejaVuSans-48"/>
     <use x="63.623047" xlink:href="#DejaVuSans-46"/>
     <use x="95.410156" xlink:href="#DejaVuSans-51"/>
     <use x="159.033203" xlink:href="#DejaVuSans-49"/>
    </g>
   </g>
   <g id="text_16">
    <!-- 0.31 -->
    <g style="fill:#262626;" transform="translate(74.394722 50.555692)scale(0.06 -0.06)">
     <use xlink:href="#DejaVuSans-48"/>
     <use x="63.623047" xlink:href="#DejaVuSans-46"/>
     <use x="95.410156" xlink:href="#DejaVuSans-51"/>
     <use x="159.033203" xlink:href="#DejaVuSans-49"/>
    </g>
   </g>
   <g id="text_17">
    <!-- 0.31 -->
    <g style="fill:#262626;" transform="translate(102.138816 50.555692)scale(0.06 -0.06)">
     <use xlink:href="#DejaVuSans-48"/>
     <use x="63.623047" xlink:href="#DejaVuSans-46"/>
     <use x="95.410156" xlink:href="#DejaVuSans-51"/>
     <use x="159.033203" xlink:href="#DejaVuSans-49"/>
    </g>
   </g>
   <g id="text_18">
    <!-- 0.31 -->
    <g style="fill:#262626;" transform="translate(129.882911 50.555692)scale(0.06 -0.06)">
     <use xlink:href="#DejaVuSans-48"/>
     <use x="63.623047" xlink:href="#DejaVuSans-46"/>
     <use x="95.410156" xlink:href="#DejaVuSans-51"/>
     <use x="159.033203" xlink:href="#DejaVuSans-49"/>
    </g>
   </g>
   <g id="text_19">
    <!-- 0.31 -->
    <g style="fill:#262626;" transform="translate(46.650627 70.002982)scale(0.06 -0.06)">
     <use xlink:href="#DejaVuSans-48"/>
     <use x="63.623047" xlink:href="#DejaVuSans-46"/>
     <use x="95.410156" xlink:href="#DejaVuSans-51"/>
     <use x="159.033203" xlink:href="#DejaVuSans-49"/>
    </g>
   </g>
   <g id="text_20">
    <!-- 0.31 -->
    <g style="fill:#262626;" transform="translate(74.394722 70.002982)scale(0.06 -0.06)">
     <use xlink:href="#DejaVuSans-48"/>
     <use x="63.623047" xlink:href="#DejaVuSans-46"/>
     <use x="95.410156" xlink:href="#DejaVuSans-51"/>
     <use x="159.033203" xlink:href="#DejaVuSans-49"/>
    </g>
   </g>
   <g id="text_21">
    <!-- 0.31 -->
    <g style="fill:#262626;" transform="translate(102.138816 70.002982)scale(0.06 -0.06)">
     <use xlink:href="#DejaVuSans-48"/>
     <use x="63.623047" xlink:href="#DejaVuSans-46"/>
     <use x="95.410156" xlink:href="#DejaVuSans-51"/>
     <use x="159.033203" xlink:href="#DejaVuSans-49"/>
    </g>
   </g>
   <g id="text_22">
    <!-- 0.31 -->
    <g style="fill:#262626;" transform="translate(129.882911 70.002982)scale(0.06 -0.06)">
     <use xlink:href="#DejaVuSans-48"/>
     <use x="63.623047" xlink:href="#DejaVuSans-46"/>
     <use x="95.410156" xlink:href="#DejaVuSans-51"/>
     <use x="159.033203" xlink:href="#DejaVuSans-49"/>
    </g>
   </g>
   <g id="text_23">
    <!-- 0.31 -->
    <g style="fill:#262626;" transform="translate(46.650627 89.450271)scale(0.06 -0.06)">
     <use xlink:href="#DejaVuSans-48"/>
     <use x="63.623047" xlink:href="#DejaVuSans-46"/>
     <use x="95.410156" xlink:href="#DejaVuSans-51"/>
     <use x="159.033203" xlink:href="#DejaVuSans-49"/>
    </g>
   </g>
   <g id="text_24">
    <!-- 0.31 -->
    <g style="fill:#262626;" transform="translate(74.394722 89.450271)scale(0.06 -0.06)">
     <use xlink:href="#DejaVuSans-48"/>
     <use x="63.623047" xlink:href="#DejaVuSans-46"/>
     <use x="95.410156" xlink:href="#DejaVuSans-51"/>
     <use x="159.033203" xlink:href="#DejaVuSans-49"/>
    </g>
   </g>
   <g id="text_25">
    <!-- 0.31 -->
    <g style="fill:#262626;" transform="translate(102.138816 89.450271)scale(0.06 -0.06)">
     <use xlink:href="#DejaVuSans-48"/>
     <use x="63.623047" xlink:href="#DejaVuSans-46"/>
     <use x="95.410156" xlink:href="#DejaVuSans-51"/>
     <use x="159.033203" xlink:href="#DejaVuSans-49"/>
    </g>
   </g>
   <g id="text_26">
    <!-- 0.31 -->
    <g style="fill:#262626;" transform="translate(129.882911 89.450271)scale(0.06 -0.06)">
     <use xlink:href="#DejaVuSans-48"/>
     <use x="63.623047" xlink:href="#DejaVuSans-46"/>
     <use x="95.410156" xlink:href="#DejaVuSans-51"/>
     <use x="159.033203" xlink:href="#DejaVuSans-49"/>
    </g>
   </g>
   <g id="text_27">
    <!-- 0.31 -->
    <g style="fill:#262626;" transform="translate(46.650627 108.89756)scale(0.06 -0.06)">
     <use xlink:href="#DejaVuSans-48"/>
     <use x="63.623047" xlink:href="#DejaVuSans-46"/>
     <use x="95.410156" xlink:href="#DejaVuSans-51"/>
     <use x="159.033203" xlink:href="#DejaVuSans-49"/>
    </g>
   </g>
   <g id="text_28">
    <!-- 0.31 -->
    <g style="fill:#262626;" transform="translate(74.394722 108.89756)scale(0.06 -0.06)">
     <use xlink:href="#DejaVuSans-48"/>
     <use x="63.623047" xlink:href="#DejaVuSans-46"/>
     <use x="95.410156" xlink:href="#DejaVuSans-51"/>
     <use x="159.033203" xlink:href="#DejaVuSans-49"/>
    </g>
   </g>
   <g id="text_29">
    <!-- 0.31 -->
    <g style="fill:#262626;" transform="translate(102.138816 108.89756)scale(0.06 -0.06)">
     <use xlink:href="#DejaVuSans-48"/>
     <use x="63.623047" xlink:href="#DejaVuSans-46"/>
     <use x="95.410156" xlink:href="#DejaVuSans-51"/>
     <use x="159.033203" xlink:href="#DejaVuSans-49"/>
    </g>
   </g>
   <g id="text_30">
    <!-- 0.31 -->
    <g style="fill:#262626;" transform="translate(129.882911 108.89756)scale(0.06 -0.06)">
     <use xlink:href="#DejaVuSans-48"/>
     <use x="63.623047" xlink:href="#DejaVuSans-46"/>
     <use x="95.410156" xlink:href="#DejaVuSans-51"/>
     <use x="159.033203" xlink:href="#DejaVuSans-49"/>
    </g>
   </g>
   <g id="text_31">
    <!-- A -->
    <g style="fill:#222222;" transform="translate(21.781495 9.421365)scale(0.09 -0.09)">
     <defs>
      <path d="M 71.828125 0 
L 56.109375 0 
L 49.859375 16.265625 
L 21.234375 16.265625 
L 15.328125 0 
L 0 0 
L 27.875 71.578125 
L 43.171875 71.578125 
z
M 45.21875 28.328125 
L 35.359375 54.890625 
L 25.6875 28.328125 
z
" id="Arial-BoldMT-65"/>
     </defs>
     <use xlink:href="#Arial-BoldMT-65"/>
    </g>
   </g>
   <g id="text_32">
    <!-- True covariance -->
    <g transform="translate(71.221613 10.010446)scale(0.06 -0.06)">
     <defs>
      <path d="M -0.296875 72.90625 
L 61.375 72.90625 
L 61.375 64.59375 
L 35.5 64.59375 
L 35.5 0 
L 25.59375 0 
L 25.59375 64.59375 
L -0.296875 64.59375 
z
" id="DejaVuSans-84"/>
      <path d="M 2.984375 54.6875 
L 12.5 54.6875 
L 29.59375 8.796875 
L 46.6875 54.6875 
L 56.203125 54.6875 
L 35.6875 0 
L 23.484375 0 
z
" id="DejaVuSans-118"/>
     </defs>
     <use xlink:href="#DejaVuSans-84"/>
     <use x="46.333984" xlink:href="#DejaVuSans-114"/>
     <use x="87.447266" xlink:href="#DejaVuSans-117"/>
     <use x="150.826172" xlink:href="#DejaVuSans-101"/>
     <use x="212.349609" xlink:href="#DejaVuSans-32"/>
     <use x="244.136719" xlink:href="#DejaVuSans-99"/>
     <use x="299.117188" xlink:href="#DejaVuSans-111"/>
     <use x="360.298828" xlink:href="#DejaVuSans-118"/>
     <use x="419.478516" xlink:href="#DejaVuSans-97"/>
     <use x="480.757812" xlink:href="#DejaVuSans-114"/>
     <use x="521.871094" xlink:href="#DejaVuSans-105"/>
     <use x="549.654297" xlink:href="#DejaVuSans-97"/>
     <use x="610.933594" xlink:href="#DejaVuSans-110"/>
     <use x="674.3125" xlink:href="#DejaVuSans-99"/>
     <use x="729.292969" xlink:href="#DejaVuSans-101"/>
    </g>
    <!-- matrix, $\it{C}$ -->
    <g transform="translate(81.236457 16.729134)scale(0.06 -0.06)">
     <defs>
      <path d="M 54.890625 54.6875 
L 35.109375 28.078125 
L 55.90625 0 
L 45.3125 0 
L 29.390625 21.484375 
L 13.484375 0 
L 2.875 0 
L 24.125 28.609375 
L 4.6875 54.6875 
L 15.28125 54.6875 
L 29.78125 35.203125 
L 44.28125 54.6875 
z
" id="DejaVuSans-120"/>
      <path d="M 11.71875 12.40625 
L 22.015625 12.40625 
L 22.015625 4 
L 14.015625 -11.625 
L 7.71875 -11.625 
L 11.71875 4 
z
" id="DejaVuSans-44"/>
      <path d="M 75.5 55.40625 
L 72.90625 45.296875 
L 71 45.296875 
Q 70.203125 50.796875 66.890625 54.25 
Q 63.59375 57.703125 59.75 58.84375 
Q 55.90625 60 51.296875 60 
Q 38 60 28.34375 49.390625 
Q 18.703125 38.796875 18.703125 24.703125 
Q 18.703125 16 23.75 11.09375 
Q 28.796875 6.203125 38.203125 6.203125 
Q 50.5 6.203125 62.796875 17 
L 66.59375 11.90625 
Q 53 -1.40625 36 -1.40625 
Q 23.203125 -1.40625 16.390625 5.140625 
Q 9.59375 11.703125 9.59375 22.796875 
Q 9.59375 34.703125 15.546875 45.046875 
Q 21.5 55.40625 31.546875 61.5 
Q 41.59375 67.59375 53.09375 67.59375 
Q 60.59375 67.59375 66.75 64.640625 
Q 72.90625 61.703125 75.5 55.40625 
z
" id="STIXGeneral-Italic-120330"/>
     </defs>
     <use transform="translate(0 0.015625)" xlink:href="#DejaVuSans-109"/>
     <use transform="translate(97.412109 0.015625)" xlink:href="#DejaVuSans-97"/>
     <use transform="translate(158.691406 0.015625)" xlink:href="#DejaVuSans-116"/>
     <use transform="translate(197.900391 0.015625)" xlink:href="#DejaVuSans-114"/>
     <use transform="translate(239.013672 0.015625)" xlink:href="#DejaVuSans-105"/>
     <use transform="translate(266.796875 0.015625)" xlink:href="#DejaVuSans-120"/>
     <use transform="translate(325.976562 0.015625)" xlink:href="#DejaVuSans-44"/>
     <use transform="translate(357.763672 0.015625)" xlink:href="#DejaVuSans-32"/>
     <use transform="translate(389.550781 0.015625)" xlink:href="#STIXGeneral-Italic-120330"/>
    </g>
   </g>
  </g>
  <g id="axes_2">
   <g id="patch_3">
    <path d="M 205.922835 116.965579 
L 316.899213 116.965579 
L 316.899213 19.729134 
L 205.922835 19.729134 
z
" style="fill:none;"/>
   </g>
   <g id="QuadMesh_2">
    <path clip-path="url(#p9d2f21bdcc)" d="M 205.922835 19.729134 
L 233.666929 19.729134 
L 233.666929 39.176423 
L 205.922835 39.176423 
L 205.922835 19.729134 
" style="fill:#7dcdc3;fill-opacity:0.75;"/>
    <path clip-path="url(#p9d2f21bdcc)" d="M 233.666929 19.729134 
L 261.411024 19.729134 
L 261.411024 39.176423 
L 233.666929 39.176423 
L 233.666929 19.729134 
" style="fill:#56b7d0;fill-opacity:0.75;"/>
    <path clip-path="url(#p9d2f21bdcc)" d="M 261.411024 19.729134 
L 289.155118 19.729134 
L 289.155118 39.176423 
L 261.411024 39.176423 
L 261.411024 19.729134 
" style="fill:#3699c5;fill-opacity:0.75;"/>
    <path clip-path="url(#p9d2f21bdcc)" d="M 289.155118 19.729134 
L 316.899213 19.729134 
L 316.899213 39.176423 
L 289.155118 39.176423 
L 289.155118 19.729134 
" style="fill:#084182;fill-opacity:0.75;"/>
    <path clip-path="url(#p9d2f21bdcc)" d="M 205.922835 39.176423 
L 233.666929 39.176423 
L 233.666929 58.623712 
L 205.922835 58.623712 
L 205.922835 39.176423 
" style="fill:#7cccc4;fill-opacity:0.75;"/>
    <path clip-path="url(#p9d2f21bdcc)" d="M 233.666929 39.176423 
L 261.411024 39.176423 
L 261.411024 58.623712 
L 233.666929 58.623712 
L 233.666929 39.176423 
" style="fill:#5bbacf;fill-opacity:0.75;"/>
    <path clip-path="url(#p9d2f21bdcc)" d="M 261.411024 39.176423 
L 289.155118 39.176423 
L 289.155118 58.623712 
L 261.411024 58.623712 
L 261.411024 39.176423 
" style="fill:#3da0c9;fill-opacity:0.75;"/>
    <path clip-path="url(#p9d2f21bdcc)" d="M 289.155118 39.176423 
L 316.899213 39.176423 
L 316.899213 58.623712 
L 289.155118 58.623712 
L 289.155118 39.176423 
" style="fill:#084a8c;fill-opacity:0.75;"/>
    <path clip-path="url(#p9d2f21bdcc)" d="M 205.922835 58.623712 
L 233.666929 58.623712 
L 233.666929 78.071001 
L 205.922835 78.071001 
L 205.922835 58.623712 
" style="fill:#7accc4;fill-opacity:0.75;"/>
    <path clip-path="url(#p9d2f21bdcc)" d="M 233.666929 58.623712 
L 261.411024 58.623712 
L 261.411024 78.071001 
L 233.666929 78.071001 
L 233.666929 58.623712 
" style="fill:#5ebcce;fill-opacity:0.75;"/>
    <path clip-path="url(#p9d2f21bdcc)" d="M 261.411024 58.623712 
L 289.155118 58.623712 
L 289.155118 78.071001 
L 261.411024 78.071001 
L 261.411024 58.623712 
" style="fill:#43a7cd;fill-opacity:0.75;"/>
    <path clip-path="url(#p9d2f21bdcc)" d="M 289.155118 58.623712 
L 316.899213 58.623712 
L 316.899213 78.071001 
L 289.155118 78.071001 
L 289.155118 58.623712 
" style="fill:#0969ad;fill-opacity:0.75;"/>
    <path clip-path="url(#p9d2f21bdcc)" d="M 205.922835 78.071001 
L 233.666929 78.071001 
L 233.666929 97.51829 
L 205.922835 97.51829 
L 205.922835 78.071001 
" style="fill:#7cccc4;fill-opacity:0.75;"/>
    <path clip-path="url(#p9d2f21bdcc)" d="M 233.666929 78.071001 
L 261.411024 78.071001 
L 261.411024 97.51829 
L 233.666929 97.51829 
L 233.666929 78.071001 
" style="fill:#5fbdcd;fill-opacity:0.75;"/>
    <path clip-path="url(#p9d2f21bdcc)" d="M 261.411024 78.071001 
L 289.155118 78.071001 
L 289.155118 97.51829 
L 261.411024 97.51829 
L 261.411024 78.071001 
" style="fill:#47abcf;fill-opacity:0.75;"/>
    <path clip-path="url(#p9d2f21bdcc)" d="M 289.155118 78.071001 
L 316.899213 78.071001 
L 316.899213 97.51829 
L 289.155118 97.51829 
L 289.155118 78.071001 
" style="fill:#1a7ab5;fill-opacity:0.75;"/>
    <path clip-path="url(#p9d2f21bdcc)" d="M 205.922835 97.51829 
L 233.666929 97.51829 
L 233.666929 116.965579 
L 205.922835 116.965579 
L 205.922835 97.51829 
" style="fill:#95d6bb;fill-opacity:0.75;"/>
    <path clip-path="url(#p9d2f21bdcc)" d="M 233.666929 97.51829 
L 261.411024 97.51829 
L 261.411024 116.965579 
L 233.666929 116.965579 
L 233.666929 97.51829 
" style="fill:#86d0c0;fill-opacity:0.75;"/>
    <path clip-path="url(#p9d2f21bdcc)" d="M 261.411024 97.51829 
L 289.155118 97.51829 
L 289.155118 116.965579 
L 261.411024 116.965579 
L 261.411024 97.51829 
" style="fill:#75c8c6;fill-opacity:0.75;"/>
    <path clip-path="url(#p9d2f21bdcc)" d="M 289.155118 97.51829 
L 316.899213 97.51829 
L 316.899213 116.965579 
L 289.155118 116.965579 
L 289.155118 97.51829 
" style="fill:#53b6d1;fill-opacity:0.75;"/>
   </g>
   <g id="matplotlib.axis_3">
    <g id="xtick_5">
     <g id="text_33">
      <!-- 1 -->
      <g style="fill:#252525;" transform="translate(217.886132 126.524642)scale(0.06 -0.06)">
       <use xlink:href="#DejaVuSans-49"/>
      </g>
     </g>
    </g>
    <g id="xtick_6">
     <g id="text_34">
      <!-- 3 -->
      <g style="fill:#252525;" transform="translate(245.630226 126.524642)scale(0.06 -0.06)">
       <use xlink:href="#DejaVuSans-51"/>
      </g>
     </g>
    </g>
    <g id="xtick_7">
     <g id="text_35">
      <!-- 5 -->
      <g style="fill:#252525;" transform="translate(273.374321 126.524642)scale(0.06 -0.06)">
       <use xlink:href="#DejaVuSans-53"/>
      </g>
     </g>
    </g>
    <g id="xtick_8">
     <g id="text_36">
      <!-- 10 -->
      <g style="fill:#252525;" transform="translate(299.209665 126.524642)scale(0.06 -0.06)">
       <use xlink:href="#DejaVuSans-49"/>
       <use x="63.623047" xlink:href="#DejaVuSans-48"/>
      </g>
     </g>
    </g>
   </g>
   <g id="matplotlib.axis_4">
    <g id="ytick_6"/>
    <g id="ytick_7"/>
    <g id="ytick_8"/>
    <g id="ytick_9"/>
    <g id="ytick_10"/>
   </g>
   <g id="text_37">
    <!-- 0.31 -->
    <g style="fill:#262626;" transform="translate(213.115194 31.108403)scale(0.06 -0.06)">
     <use xlink:href="#DejaVuSans-48"/>
     <use x="63.623047" xlink:href="#DejaVuSans-46"/>
     <use x="95.410156" xlink:href="#DejaVuSans-51"/>
     <use x="159.033203" xlink:href="#DejaVuSans-49"/>
    </g>
   </g>
   <g id="text_38">
    <!-- 0.34 -->
    <g style="fill:#ffffff;" transform="translate(240.859289 31.108403)scale(0.06 -0.06)">
     <defs>
      <path d="M 37.796875 64.3125 
L 12.890625 25.390625 
L 37.796875 25.390625 
z
M 35.203125 72.90625 
L 47.609375 72.90625 
L 47.609375 25.390625 
L 58.015625 25.390625 
L 58.015625 17.1875 
L 47.609375 17.1875 
L 47.609375 0 
L 37.796875 0 
L 37.796875 17.1875 
L 4.890625 17.1875 
L 4.890625 26.703125 
z
" id="DejaVuSans-52"/>
     </defs>
     <use xlink:href="#DejaVuSans-48"/>
     <use x="63.623047" xlink:href="#DejaVuSans-46"/>
     <use x="95.410156" xlink:href="#DejaVuSans-51"/>
     <use x="159.033203" xlink:href="#DejaVuSans-52"/>
    </g>
   </g>
   <g id="text_39">
    <!-- 0.38 -->
    <g style="fill:#ffffff;" transform="translate(268.603383 31.108403)scale(0.06 -0.06)">
     <defs>
      <path d="M 31.78125 34.625 
Q 24.75 34.625 20.71875 30.859375 
Q 16.703125 27.09375 16.703125 20.515625 
Q 16.703125 13.921875 20.71875 10.15625 
Q 24.75 6.390625 31.78125 6.390625 
Q 38.8125 6.390625 42.859375 10.171875 
Q 46.921875 13.96875 46.921875 20.515625 
Q 46.921875 27.09375 42.890625 30.859375 
Q 38.875 34.625 31.78125 34.625 
z
M 21.921875 38.8125 
Q 15.578125 40.375 12.03125 44.71875 
Q 8.5 49.078125 8.5 55.328125 
Q 8.5 64.0625 14.71875 69.140625 
Q 20.953125 74.21875 31.78125 74.21875 
Q 42.671875 74.21875 48.875 69.140625 
Q 55.078125 64.0625 55.078125 55.328125 
Q 55.078125 49.078125 51.53125 44.71875 
Q 48 40.375 41.703125 38.8125 
Q 48.828125 37.15625 52.796875 32.3125 
Q 56.78125 27.484375 56.78125 20.515625 
Q 56.78125 9.90625 50.3125 4.234375 
Q 43.84375 -1.421875 31.78125 -1.421875 
Q 19.734375 -1.421875 13.25 4.234375 
Q 6.78125 9.90625 6.78125 20.515625 
Q 6.78125 27.484375 10.78125 32.3125 
Q 14.796875 37.15625 21.921875 38.8125 
z
M 18.3125 54.390625 
Q 18.3125 48.734375 21.84375 45.5625 
Q 25.390625 42.390625 31.78125 42.390625 
Q 38.140625 42.390625 41.71875 45.5625 
Q 45.3125 48.734375 45.3125 54.390625 
Q 45.3125 60.0625 41.71875 63.234375 
Q 38.140625 66.40625 31.78125 66.40625 
Q 25.390625 66.40625 21.84375 63.234375 
Q 18.3125 60.0625 18.3125 54.390625 
z
" id="DejaVuSans-56"/>
     </defs>
     <use xlink:href="#DejaVuSans-48"/>
     <use x="63.623047" xlink:href="#DejaVuSans-46"/>
     <use x="95.410156" xlink:href="#DejaVuSans-51"/>
     <use x="159.033203" xlink:href="#DejaVuSans-56"/>
    </g>
   </g>
   <g id="text_40">
    <!-- 0.46 -->
    <g style="fill:#ffffff;" transform="translate(296.347478 31.108403)scale(0.06 -0.06)">
     <defs>
      <path d="M 33.015625 40.375 
Q 26.375 40.375 22.484375 35.828125 
Q 18.609375 31.296875 18.609375 23.390625 
Q 18.609375 15.53125 22.484375 10.953125 
Q 26.375 6.390625 33.015625 6.390625 
Q 39.65625 6.390625 43.53125 10.953125 
Q 47.40625 15.53125 47.40625 23.390625 
Q 47.40625 31.296875 43.53125 35.828125 
Q 39.65625 40.375 33.015625 40.375 
z
M 52.59375 71.296875 
L 52.59375 62.3125 
Q 48.875 64.0625 45.09375 64.984375 
Q 41.3125 65.921875 37.59375 65.921875 
Q 27.828125 65.921875 22.671875 59.328125 
Q 17.53125 52.734375 16.796875 39.40625 
Q 19.671875 43.65625 24.015625 45.921875 
Q 28.375 48.1875 33.59375 48.1875 
Q 44.578125 48.1875 50.953125 41.515625 
Q 57.328125 34.859375 57.328125 23.390625 
Q 57.328125 12.15625 50.6875 5.359375 
Q 44.046875 -1.421875 33.015625 -1.421875 
Q 20.359375 -1.421875 13.671875 8.265625 
Q 6.984375 17.96875 6.984375 36.375 
Q 6.984375 53.65625 15.1875 63.9375 
Q 23.390625 74.21875 37.203125 74.21875 
Q 40.921875 74.21875 44.703125 73.484375 
Q 48.484375 72.75 52.59375 71.296875 
z
" id="DejaVuSans-54"/>
     </defs>
     <use xlink:href="#DejaVuSans-48"/>
     <use x="63.623047" xlink:href="#DejaVuSans-46"/>
     <use x="95.410156" xlink:href="#DejaVuSans-52"/>
     <use x="159.033203" xlink:href="#DejaVuSans-54"/>
    </g>
   </g>
   <g id="text_41">
    <!-- 0.31 -->
    <g style="fill:#262626;" transform="translate(213.115194 50.555692)scale(0.06 -0.06)">
     <use xlink:href="#DejaVuSans-48"/>
     <use x="63.623047" xlink:href="#DejaVuSans-46"/>
     <use x="95.410156" xlink:href="#DejaVuSans-51"/>
     <use x="159.033203" xlink:href="#DejaVuSans-49"/>
    </g>
   </g>
   <g id="text_42">
    <!-- 0.34 -->
    <g style="fill:#262626;" transform="translate(240.859289 50.555692)scale(0.06 -0.06)">
     <use xlink:href="#DejaVuSans-48"/>
     <use x="63.623047" xlink:href="#DejaVuSans-46"/>
     <use x="95.410156" xlink:href="#DejaVuSans-51"/>
     <use x="159.033203" xlink:href="#DejaVuSans-52"/>
    </g>
   </g>
   <g id="text_43">
    <!-- 0.37 -->
    <g style="fill:#ffffff;" transform="translate(268.603383 50.555692)scale(0.06 -0.06)">
     <defs>
      <path d="M 8.203125 72.90625 
L 55.078125 72.90625 
L 55.078125 68.703125 
L 28.609375 0 
L 18.3125 0 
L 43.21875 64.59375 
L 8.203125 64.59375 
z
" id="DejaVuSans-55"/>
     </defs>
     <use xlink:href="#DejaVuSans-48"/>
     <use x="63.623047" xlink:href="#DejaVuSans-46"/>
     <use x="95.410156" xlink:href="#DejaVuSans-51"/>
     <use x="159.033203" xlink:href="#DejaVuSans-55"/>
    </g>
   </g>
   <g id="text_44">
    <!-- 0.45 -->
    <g style="fill:#ffffff;" transform="translate(296.347478 50.555692)scale(0.06 -0.06)">
     <use xlink:href="#DejaVuSans-48"/>
     <use x="63.623047" xlink:href="#DejaVuSans-46"/>
     <use x="95.410156" xlink:href="#DejaVuSans-52"/>
     <use x="159.033203" xlink:href="#DejaVuSans-53"/>
    </g>
   </g>
   <g id="text_45">
    <!-- 0.32 -->
    <g style="fill:#262626;" transform="translate(213.115194 70.002982)scale(0.06 -0.06)">
     <defs>
      <path d="M 19.1875 8.296875 
L 53.609375 8.296875 
L 53.609375 0 
L 7.328125 0 
L 7.328125 8.296875 
Q 12.9375 14.109375 22.625 23.890625 
Q 32.328125 33.6875 34.8125 36.53125 
Q 39.546875 41.84375 41.421875 45.53125 
Q 43.3125 49.21875 43.3125 52.78125 
Q 43.3125 58.59375 39.234375 62.25 
Q 35.15625 65.921875 28.609375 65.921875 
Q 23.96875 65.921875 18.8125 64.3125 
Q 13.671875 62.703125 7.8125 59.421875 
L 7.8125 69.390625 
Q 13.765625 71.78125 18.9375 73 
Q 24.125 74.21875 28.421875 74.21875 
Q 39.75 74.21875 46.484375 68.546875 
Q 53.21875 62.890625 53.21875 53.421875 
Q 53.21875 48.921875 51.53125 44.890625 
Q 49.859375 40.875 45.40625 35.40625 
Q 44.1875 33.984375 37.640625 27.21875 
Q 31.109375 20.453125 19.1875 8.296875 
z
" id="DejaVuSans-50"/>
     </defs>
     <use xlink:href="#DejaVuSans-48"/>
     <use x="63.623047" xlink:href="#DejaVuSans-46"/>
     <use x="95.410156" xlink:href="#DejaVuSans-51"/>
     <use x="159.033203" xlink:href="#DejaVuSans-50"/>
    </g>
   </g>
   <g id="text_46">
    <!-- 0.34 -->
    <g style="fill:#262626;" transform="translate(240.859289 70.002982)scale(0.06 -0.06)">
     <use xlink:href="#DejaVuSans-48"/>
     <use x="63.623047" xlink:href="#DejaVuSans-46"/>
     <use x="95.410156" xlink:href="#DejaVuSans-51"/>
     <use x="159.033203" xlink:href="#DejaVuSans-52"/>
    </g>
   </g>
   <g id="text_47">
    <!-- 0.36 -->
    <g style="fill:#ffffff;" transform="translate(268.603383 70.002982)scale(0.06 -0.06)">
     <use xlink:href="#DejaVuSans-48"/>
     <use x="63.623047" xlink:href="#DejaVuSans-46"/>
     <use x="95.410156" xlink:href="#DejaVuSans-51"/>
     <use x="159.033203" xlink:href="#DejaVuSans-54"/>
    </g>
   </g>
   <g id="text_48">
    <!-- 0.42 -->
    <g style="fill:#ffffff;" transform="translate(296.347478 70.002982)scale(0.06 -0.06)">
     <use xlink:href="#DejaVuSans-48"/>
     <use x="63.623047" xlink:href="#DejaVuSans-46"/>
     <use x="95.410156" xlink:href="#DejaVuSans-52"/>
     <use x="159.033203" xlink:href="#DejaVuSans-50"/>
    </g>
   </g>
   <g id="text_49">
    <!-- 0.31 -->
    <g style="fill:#262626;" transform="translate(213.115194 89.450271)scale(0.06 -0.06)">
     <use xlink:href="#DejaVuSans-48"/>
     <use x="63.623047" xlink:href="#DejaVuSans-46"/>
     <use x="95.410156" xlink:href="#DejaVuSans-51"/>
     <use x="159.033203" xlink:href="#DejaVuSans-49"/>
    </g>
   </g>
   <g id="text_50">
    <!-- 0.34 -->
    <g style="fill:#262626;" transform="translate(240.859289 89.450271)scale(0.06 -0.06)">
     <use xlink:href="#DejaVuSans-48"/>
     <use x="63.623047" xlink:href="#DejaVuSans-46"/>
     <use x="95.410156" xlink:href="#DejaVuSans-51"/>
     <use x="159.033203" xlink:href="#DejaVuSans-52"/>
    </g>
   </g>
   <g id="text_51">
    <!-- 0.36 -->
    <g style="fill:#ffffff;" transform="translate(268.603383 89.450271)scale(0.06 -0.06)">
     <use xlink:href="#DejaVuSans-48"/>
     <use x="63.623047" xlink:href="#DejaVuSans-46"/>
     <use x="95.410156" xlink:href="#DejaVuSans-51"/>
     <use x="159.033203" xlink:href="#DejaVuSans-54"/>
    </g>
   </g>
   <g id="text_52">
    <!-- 0.41 -->
    <g style="fill:#ffffff;" transform="translate(296.347478 89.450271)scale(0.06 -0.06)">
     <use xlink:href="#DejaVuSans-48"/>
     <use x="63.623047" xlink:href="#DejaVuSans-46"/>
     <use x="95.410156" xlink:href="#DejaVuSans-52"/>
     <use x="159.033203" xlink:href="#DejaVuSans-49"/>
    </g>
   </g>
   <g id="text_53">
    <!-- 0.29 -->
    <g style="fill:#262626;" transform="translate(213.115194 108.89756)scale(0.06 -0.06)">
     <defs>
      <path d="M 10.984375 1.515625 
L 10.984375 10.5 
Q 14.703125 8.734375 18.5 7.8125 
Q 22.3125 6.890625 25.984375 6.890625 
Q 35.75 6.890625 40.890625 13.453125 
Q 46.046875 20.015625 46.78125 33.40625 
Q 43.953125 29.203125 39.59375 26.953125 
Q 35.25 24.703125 29.984375 24.703125 
Q 19.046875 24.703125 12.671875 31.3125 
Q 6.296875 37.9375 6.296875 49.421875 
Q 6.296875 60.640625 12.9375 67.421875 
Q 19.578125 74.21875 30.609375 74.21875 
Q 43.265625 74.21875 49.921875 64.515625 
Q 56.59375 54.828125 56.59375 36.375 
Q 56.59375 19.140625 48.40625 8.859375 
Q 40.234375 -1.421875 26.421875 -1.421875 
Q 22.703125 -1.421875 18.890625 -0.6875 
Q 15.09375 0.046875 10.984375 1.515625 
z
M 30.609375 32.421875 
Q 37.25 32.421875 41.125 36.953125 
Q 45.015625 41.5 45.015625 49.421875 
Q 45.015625 57.28125 41.125 61.84375 
Q 37.25 66.40625 30.609375 66.40625 
Q 23.96875 66.40625 20.09375 61.84375 
Q 16.21875 57.28125 16.21875 49.421875 
Q 16.21875 41.5 20.09375 36.953125 
Q 23.96875 32.421875 30.609375 32.421875 
z
" id="DejaVuSans-57"/>
     </defs>
     <use xlink:href="#DejaVuSans-48"/>
     <use x="63.623047" xlink:href="#DejaVuSans-46"/>
     <use x="95.410156" xlink:href="#DejaVuSans-50"/>
     <use x="159.033203" xlink:href="#DejaVuSans-57"/>
    </g>
   </g>
   <g id="text_54">
    <!-- 0.31 -->
    <g style="fill:#262626;" transform="translate(240.859289 108.89756)scale(0.06 -0.06)">
     <use xlink:href="#DejaVuSans-48"/>
     <use x="63.623047" xlink:href="#DejaVuSans-46"/>
     <use x="95.410156" xlink:href="#DejaVuSans-51"/>
     <use x="159.033203" xlink:href="#DejaVuSans-49"/>
    </g>
   </g>
   <g id="text_55">
    <!-- 0.32 -->
    <g style="fill:#262626;" transform="translate(268.603383 108.89756)scale(0.06 -0.06)">
     <use xlink:href="#DejaVuSans-48"/>
     <use x="63.623047" xlink:href="#DejaVuSans-46"/>
     <use x="95.410156" xlink:href="#DejaVuSans-51"/>
     <use x="159.033203" xlink:href="#DejaVuSans-50"/>
    </g>
   </g>
   <g id="text_56">
    <!-- 0.35 -->
    <g style="fill:#ffffff;" transform="translate(296.347478 108.89756)scale(0.06 -0.06)">
     <use xlink:href="#DejaVuSans-48"/>
     <use x="63.623047" xlink:href="#DejaVuSans-46"/>
     <use x="95.410156" xlink:href="#DejaVuSans-51"/>
     <use x="159.033203" xlink:href="#DejaVuSans-53"/>
    </g>
   </g>
   <g id="text_57">
    <!-- B -->
    <g style="fill:#222222;" transform="translate(188.246062 9.421365)scale(0.09 -0.09)">
     <defs>
      <path d="M 7.328125 71.578125 
L 35.9375 71.578125 
Q 44.4375 71.578125 48.609375 70.875 
Q 52.78125 70.171875 56.078125 67.921875 
Q 59.375 65.671875 61.5625 61.9375 
Q 63.765625 58.203125 63.765625 53.5625 
Q 63.765625 48.53125 61.046875 44.328125 
Q 58.34375 40.140625 53.71875 38.03125 
Q 60.25 36.140625 63.765625 31.546875 
Q 67.28125 26.953125 67.28125 20.75 
Q 67.28125 15.875 65.015625 11.25 
Q 62.75 6.640625 58.8125 3.875 
Q 54.890625 1.125 49.125 0.484375 
Q 45.515625 0.09375 31.6875 0 
L 7.328125 0 
z
M 21.78125 59.671875 
L 21.78125 43.109375 
L 31.25 43.109375 
Q 39.703125 43.109375 41.75 43.359375 
Q 45.453125 43.796875 47.578125 45.921875 
Q 49.703125 48.046875 49.703125 51.515625 
Q 49.703125 54.828125 47.875 56.90625 
Q 46.046875 58.984375 42.4375 59.421875 
Q 40.28125 59.671875 30.078125 59.671875 
z
M 21.78125 31.203125 
L 21.78125 12.0625 
L 35.15625 12.0625 
Q 42.96875 12.0625 45.0625 12.5 
Q 48.296875 13.09375 50.3125 15.359375 
Q 52.34375 17.625 52.34375 21.4375 
Q 52.34375 24.65625 50.78125 26.90625 
Q 49.21875 29.15625 46.265625 30.171875 
Q 43.3125 31.203125 33.453125 31.203125 
z
" id="Arial-BoldMT-66"/>
     </defs>
     <use xlink:href="#Arial-BoldMT-66"/>
    </g>
   </g>
   <g id="text_58">
    <!-- Estimated covariance -->
    <g transform="translate(228.901336 9.130696)scale(0.06 -0.06)">
     <defs>
      <path d="M 9.8125 72.90625 
L 55.90625 72.90625 
L 55.90625 64.59375 
L 19.671875 64.59375 
L 19.671875 43.015625 
L 54.390625 43.015625 
L 54.390625 34.71875 
L 19.671875 34.71875 
L 19.671875 8.296875 
L 56.78125 8.296875 
L 56.78125 0 
L 9.8125 0 
z
" id="DejaVuSans-69"/>
     </defs>
     <use xlink:href="#DejaVuSans-69"/>
     <use x="63.183594" xlink:href="#DejaVuSans-115"/>
     <use x="115.283203" xlink:href="#DejaVuSans-116"/>
     <use x="154.492188" xlink:href="#DejaVuSans-105"/>
     <use x="182.275391" xlink:href="#DejaVuSans-109"/>
     <use x="279.6875" xlink:href="#DejaVuSans-97"/>
     <use x="340.966797" xlink:href="#DejaVuSans-116"/>
     <use x="380.175781" xlink:href="#DejaVuSans-101"/>
     <use x="441.699219" xlink:href="#DejaVuSans-100"/>
     <use x="505.175781" xlink:href="#DejaVuSans-32"/>
     <use x="536.962891" xlink:href="#DejaVuSans-99"/>
     <use x="591.943359" xlink:href="#DejaVuSans-111"/>
     <use x="653.125" xlink:href="#DejaVuSans-118"/>
     <use x="712.304688" xlink:href="#DejaVuSans-97"/>
     <use x="773.583984" xlink:href="#DejaVuSans-114"/>
     <use x="814.697266" xlink:href="#DejaVuSans-105"/>
     <use x="842.480469" xlink:href="#DejaVuSans-97"/>
     <use x="903.759766" xlink:href="#DejaVuSans-110"/>
     <use x="967.138672" xlink:href="#DejaVuSans-99"/>
     <use x="1022.119141" xlink:href="#DejaVuSans-101"/>
    </g>
    <!-- matrix, $\it{\hat{C}}$ -->
    <g transform="translate(247.701024 16.729134)scale(0.06 -0.06)">
     <defs>
      <path d="M -7.5 50.703125 
L -10.90625 50.703125 
L -23.09375 61 
L -35.203125 50.703125 
L -38.59375 50.703125 
L -26.203125 67.40625 
L -20 67.40625 
z
" id="STIXGeneral-Regular-770"/>
     </defs>
     <use transform="translate(0 0.203125)" xlink:href="#DejaVuSans-109"/>
     <use transform="translate(97.412109 0.203125)" xlink:href="#DejaVuSans-97"/>
     <use transform="translate(158.691406 0.203125)" xlink:href="#DejaVuSans-116"/>
     <use transform="translate(197.900391 0.203125)" xlink:href="#DejaVuSans-114"/>
     <use transform="translate(239.013672 0.203125)" xlink:href="#DejaVuSans-105"/>
     <use transform="translate(266.796875 0.203125)" xlink:href="#DejaVuSans-120"/>
     <use transform="translate(325.976562 0.203125)" xlink:href="#DejaVuSans-44"/>
     <use transform="translate(357.763672 0.203125)" xlink:href="#DejaVuSans-32"/>
     <use transform="translate(454.919529 29.59375)" xlink:href="#STIXGeneral-Regular-770"/>
     <use transform="translate(389.550781 0.203125)" xlink:href="#STIXGeneral-Italic-120330"/>
    </g>
   </g>
  </g>
  <g id="axes_3">
   <g id="patch_4">
    <path d="M 372.387402 116.965579 
L 483.36378 116.965579 
L 483.36378 19.729134 
L 372.387402 19.729134 
z
" style="fill:none;"/>
   </g>
   <g id="QuadMesh_3">
    <path clip-path="url(#paaf198b087)" d="M 372.387402 19.729134 
L 400.131496 19.729134 
L 400.131496 39.176423 
L 372.387402 39.176423 
L 372.387402 19.729134 
" style="fill:#f1f9ea;fill-opacity:0.75;"/>
    <path clip-path="url(#paaf198b087)" d="M 400.131496 19.729134 
L 427.875591 19.729134 
L 427.875591 39.176423 
L 400.131496 39.176423 
L 400.131496 19.729134 
" style="fill:#e7f6e2;fill-opacity:0.75;"/>
    <path clip-path="url(#paaf198b087)" d="M 427.875591 19.729134 
L 455.619685 19.729134 
L 455.619685 39.176423 
L 427.875591 39.176423 
L 427.875591 19.729134 
" style="fill:#ddf2d8;fill-opacity:0.75;"/>
    <path clip-path="url(#paaf198b087)" d="M 455.619685 19.729134 
L 483.36378 19.729134 
L 483.36378 39.176423 
L 455.619685 39.176423 
L 455.619685 19.729134 
" style="fill:#bce5be;fill-opacity:0.75;"/>
    <path clip-path="url(#paaf198b087)" d="M 372.387402 39.176423 
L 400.131496 39.176423 
L 400.131496 58.623712 
L 372.387402 58.623712 
L 372.387402 39.176423 
" style="fill:#f1f9ea;fill-opacity:0.75;"/>
    <path clip-path="url(#paaf198b087)" d="M 400.131496 39.176423 
L 427.875591 39.176423 
L 427.875591 58.623712 
L 400.131496 58.623712 
L 400.131496 39.176423 
" style="fill:#e9f6e3;fill-opacity:0.75;"/>
    <path clip-path="url(#paaf198b087)" d="M 427.875591 39.176423 
L 455.619685 39.176423 
L 455.619685 58.623712 
L 427.875591 58.623712 
L 427.875591 39.176423 
" style="fill:#e0f3db;fill-opacity:0.75;"/>
    <path clip-path="url(#paaf198b087)" d="M 455.619685 39.176423 
L 483.36378 39.176423 
L 483.36378 58.623712 
L 455.619685 58.623712 
L 455.619685 39.176423 
" style="fill:#c2e7c0;fill-opacity:0.75;"/>
    <path clip-path="url(#paaf198b087)" d="M 372.387402 58.623712 
L 400.131496 58.623712 
L 400.131496 78.071001 
L 372.387402 78.071001 
L 372.387402 58.623712 
" style="fill:#f1f9ea;fill-opacity:0.75;"/>
    <path clip-path="url(#paaf198b087)" d="M 400.131496 58.623712 
L 427.875591 58.623712 
L 427.875591 78.071001 
L 400.131496 78.071001 
L 400.131496 58.623712 
" style="fill:#ebf7e5;fill-opacity:0.75;"/>
    <path clip-path="url(#paaf198b087)" d="M 427.875591 58.623712 
L 455.619685 58.623712 
L 455.619685 78.071001 
L 427.875591 78.071001 
L 427.875591 58.623712 
" style="fill:#e4f4de;fill-opacity:0.75;"/>
    <path clip-path="url(#paaf198b087)" d="M 455.619685 58.623712 
L 483.36378 58.623712 
L 483.36378 78.071001 
L 455.619685 78.071001 
L 455.619685 58.623712 
" style="fill:#d0edca;fill-opacity:0.75;"/>
    <path clip-path="url(#paaf198b087)" d="M 372.387402 78.071001 
L 400.131496 78.071001 
L 400.131496 97.51829 
L 372.387402 97.51829 
L 372.387402 78.071001 
" style="fill:#f1f9ea;fill-opacity:0.75;"/>
    <path clip-path="url(#paaf198b087)" d="M 400.131496 78.071001 
L 427.875591 78.071001 
L 427.875591 97.51829 
L 400.131496 97.51829 
L 400.131496 78.071001 
" style="fill:#ebf7e5;fill-opacity:0.75;"/>
    <path clip-path="url(#paaf198b087)" d="M 427.875591 78.071001 
L 455.619685 78.071001 
L 455.619685 97.51829 
L 427.875591 97.51829 
L 427.875591 78.071001 
" style="fill:#e5f5e0;fill-opacity:0.75;"/>
    <path clip-path="url(#paaf198b087)" d="M 455.619685 78.071001 
L 483.36378 78.071001 
L 483.36378 97.51829 
L 455.619685 97.51829 
L 455.619685 78.071001 
" style="fill:#d7efd1;fill-opacity:0.75;"/>
    <path clip-path="url(#paaf198b087)" d="M 372.387402 97.51829 
L 400.131496 97.51829 
L 400.131496 116.965579 
L 372.387402 116.965579 
L 372.387402 97.51829 
" style="fill:#f6fbef;fill-opacity:0.75;"/>
    <path clip-path="url(#paaf198b087)" d="M 400.131496 97.51829 
L 427.875591 97.51829 
L 427.875591 116.965579 
L 400.131496 116.965579 
L 400.131496 97.51829 
" style="fill:#f3fbed;fill-opacity:0.75;"/>
    <path clip-path="url(#paaf198b087)" d="M 427.875591 97.51829 
L 455.619685 97.51829 
L 455.619685 116.965579 
L 427.875591 116.965579 
L 427.875591 97.51829 
" style="fill:#eff9e9;fill-opacity:0.75;"/>
    <path clip-path="url(#paaf198b087)" d="M 455.619685 97.51829 
L 483.36378 97.51829 
L 483.36378 116.965579 
L 455.619685 116.965579 
L 455.619685 97.51829 
" style="fill:#e7f6e2;fill-opacity:0.75;"/>
   </g>
   <g id="matplotlib.axis_5">
    <g id="xtick_9">
     <g id="text_59">
      <!-- 1 -->
      <g style="fill:#252525;" transform="translate(384.350699 126.524642)scale(0.06 -0.06)">
       <use xlink:href="#DejaVuSans-49"/>
      </g>
     </g>
    </g>
    <g id="xtick_10">
     <g id="text_60">
      <!-- 3 -->
      <g style="fill:#252525;" transform="translate(412.094793 126.524642)scale(0.06 -0.06)">
       <use xlink:href="#DejaVuSans-51"/>
      </g>
     </g>
    </g>
    <g id="xtick_11">
     <g id="text_61">
      <!-- 5 -->
      <g style="fill:#252525;" transform="translate(439.838888 126.524642)scale(0.06 -0.06)">
       <use xlink:href="#DejaVuSans-53"/>
      </g>
     </g>
    </g>
    <g id="xtick_12">
     <g id="text_62">
      <!-- 10 -->
      <g style="fill:#252525;" transform="translate(465.674232 126.524642)scale(0.06 -0.06)">
       <use xlink:href="#DejaVuSans-49"/>
       <use x="63.623047" xlink:href="#DejaVuSans-48"/>
      </g>
     </g>
    </g>
   </g>
   <g id="matplotlib.axis_6">
    <g id="ytick_11"/>
    <g id="ytick_12"/>
    <g id="ytick_13"/>
    <g id="ytick_14"/>
    <g id="ytick_15"/>
   </g>
   <g id="text_63">
    <!-- 0.18 -->
    <g style="fill:#262626;" transform="translate(379.579761 31.108403)scale(0.06 -0.06)">
     <use xlink:href="#DejaVuSans-48"/>
     <use x="63.623047" xlink:href="#DejaVuSans-46"/>
     <use x="95.410156" xlink:href="#DejaVuSans-49"/>
     <use x="159.033203" xlink:href="#DejaVuSans-56"/>
    </g>
   </g>
   <g id="text_64">
    <!-- 0.2 -->
    <g style="fill:#262626;" transform="translate(409.232606 31.108403)scale(0.06 -0.06)">
     <use xlink:href="#DejaVuSans-48"/>
     <use x="63.623047" xlink:href="#DejaVuSans-46"/>
     <use x="95.410156" xlink:href="#DejaVuSans-50"/>
    </g>
   </g>
   <g id="text_65">
    <!-- 0.21 -->
    <g style="fill:#262626;" transform="translate(435.06795 31.108403)scale(0.06 -0.06)">
     <use xlink:href="#DejaVuSans-48"/>
     <use x="63.623047" xlink:href="#DejaVuSans-46"/>
     <use x="95.410156" xlink:href="#DejaVuSans-50"/>
     <use x="159.033203" xlink:href="#DejaVuSans-49"/>
    </g>
   </g>
   <g id="text_66">
    <!-- 0.26 -->
    <g style="fill:#262626;" transform="translate(462.812045 31.108403)scale(0.06 -0.06)">
     <use xlink:href="#DejaVuSans-48"/>
     <use x="63.623047" xlink:href="#DejaVuSans-46"/>
     <use x="95.410156" xlink:href="#DejaVuSans-50"/>
     <use x="159.033203" xlink:href="#DejaVuSans-54"/>
    </g>
   </g>
   <g id="text_67">
    <!-- 0.18 -->
    <g style="fill:#262626;" transform="translate(379.579761 50.555692)scale(0.06 -0.06)">
     <use xlink:href="#DejaVuSans-48"/>
     <use x="63.623047" xlink:href="#DejaVuSans-46"/>
     <use x="95.410156" xlink:href="#DejaVuSans-49"/>
     <use x="159.033203" xlink:href="#DejaVuSans-56"/>
    </g>
   </g>
   <g id="text_68">
    <!-- 0.19 -->
    <g style="fill:#262626;" transform="translate(407.323856 50.555692)scale(0.06 -0.06)">
     <use xlink:href="#DejaVuSans-48"/>
     <use x="63.623047" xlink:href="#DejaVuSans-46"/>
     <use x="95.410156" xlink:href="#DejaVuSans-49"/>
     <use x="159.033203" xlink:href="#DejaVuSans-57"/>
    </g>
   </g>
   <g id="text_69">
    <!-- 0.21 -->
    <g style="fill:#262626;" transform="translate(435.06795 50.555692)scale(0.06 -0.06)">
     <use xlink:href="#DejaVuSans-48"/>
     <use x="63.623047" xlink:href="#DejaVuSans-46"/>
     <use x="95.410156" xlink:href="#DejaVuSans-50"/>
     <use x="159.033203" xlink:href="#DejaVuSans-49"/>
    </g>
   </g>
   <g id="text_70">
    <!-- 0.25 -->
    <g style="fill:#262626;" transform="translate(462.812045 50.555692)scale(0.06 -0.06)">
     <use xlink:href="#DejaVuSans-48"/>
     <use x="63.623047" xlink:href="#DejaVuSans-46"/>
     <use x="95.410156" xlink:href="#DejaVuSans-50"/>
     <use x="159.033203" xlink:href="#DejaVuSans-53"/>
    </g>
   </g>
   <g id="text_71">
    <!-- 0.18 -->
    <g style="fill:#262626;" transform="translate(379.579761 70.002982)scale(0.06 -0.06)">
     <use xlink:href="#DejaVuSans-48"/>
     <use x="63.623047" xlink:href="#DejaVuSans-46"/>
     <use x="95.410156" xlink:href="#DejaVuSans-49"/>
     <use x="159.033203" xlink:href="#DejaVuSans-56"/>
    </g>
   </g>
   <g id="text_72">
    <!-- 0.19 -->
    <g style="fill:#262626;" transform="translate(407.323856 70.002982)scale(0.06 -0.06)">
     <use xlink:href="#DejaVuSans-48"/>
     <use x="63.623047" xlink:href="#DejaVuSans-46"/>
     <use x="95.410156" xlink:href="#DejaVuSans-49"/>
     <use x="159.033203" xlink:href="#DejaVuSans-57"/>
    </g>
   </g>
   <g id="text_73">
    <!-- 0.2 -->
    <g style="fill:#262626;" transform="translate(436.9767 70.002982)scale(0.06 -0.06)">
     <use xlink:href="#DejaVuSans-48"/>
     <use x="63.623047" xlink:href="#DejaVuSans-46"/>
     <use x="95.410156" xlink:href="#DejaVuSans-50"/>
    </g>
   </g>
   <g id="text_74">
    <!-- 0.24 -->
    <g style="fill:#262626;" transform="translate(462.812045 70.002982)scale(0.06 -0.06)">
     <use xlink:href="#DejaVuSans-48"/>
     <use x="63.623047" xlink:href="#DejaVuSans-46"/>
     <use x="95.410156" xlink:href="#DejaVuSans-50"/>
     <use x="159.033203" xlink:href="#DejaVuSans-52"/>
    </g>
   </g>
   <g id="text_75">
    <!-- 0.18 -->
    <g style="fill:#262626;" transform="translate(379.579761 89.450271)scale(0.06 -0.06)">
     <use xlink:href="#DejaVuSans-48"/>
     <use x="63.623047" xlink:href="#DejaVuSans-46"/>
     <use x="95.410156" xlink:href="#DejaVuSans-49"/>
     <use x="159.033203" xlink:href="#DejaVuSans-56"/>
    </g>
   </g>
   <g id="text_76">
    <!-- 0.19 -->
    <g style="fill:#262626;" transform="translate(407.323856 89.450271)scale(0.06 -0.06)">
     <use xlink:href="#DejaVuSans-48"/>
     <use x="63.623047" xlink:href="#DejaVuSans-46"/>
     <use x="95.410156" xlink:href="#DejaVuSans-49"/>
     <use x="159.033203" xlink:href="#DejaVuSans-57"/>
    </g>
   </g>
   <g id="text_77">
    <!-- 0.2 -->
    <g style="fill:#262626;" transform="translate(436.9767 89.450271)scale(0.06 -0.06)">
     <use xlink:href="#DejaVuSans-48"/>
     <use x="63.623047" xlink:href="#DejaVuSans-46"/>
     <use x="95.410156" xlink:href="#DejaVuSans-50"/>
    </g>
   </g>
   <g id="text_78">
    <!-- 0.22 -->
    <g style="fill:#262626;" transform="translate(462.812045 89.450271)scale(0.06 -0.06)">
     <use xlink:href="#DejaVuSans-48"/>
     <use x="63.623047" xlink:href="#DejaVuSans-46"/>
     <use x="95.410156" xlink:href="#DejaVuSans-50"/>
     <use x="159.033203" xlink:href="#DejaVuSans-50"/>
    </g>
   </g>
   <g id="text_79">
    <!-- 0.17 -->
    <g style="fill:#262626;" transform="translate(379.579761 108.89756)scale(0.06 -0.06)">
     <use xlink:href="#DejaVuSans-48"/>
     <use x="63.623047" xlink:href="#DejaVuSans-46"/>
     <use x="95.410156" xlink:href="#DejaVuSans-49"/>
     <use x="159.033203" xlink:href="#DejaVuSans-55"/>
    </g>
   </g>
   <g id="text_80">
    <!-- 0.18 -->
    <g style="fill:#262626;" transform="translate(407.323856 108.89756)scale(0.06 -0.06)">
     <use xlink:href="#DejaVuSans-48"/>
     <use x="63.623047" xlink:href="#DejaVuSans-46"/>
     <use x="95.410156" xlink:href="#DejaVuSans-49"/>
     <use x="159.033203" xlink:href="#DejaVuSans-56"/>
    </g>
   </g>
   <g id="text_81">
    <!-- 0.18 -->
    <g style="fill:#262626;" transform="translate(435.06795 108.89756)scale(0.06 -0.06)">
     <use xlink:href="#DejaVuSans-48"/>
     <use x="63.623047" xlink:href="#DejaVuSans-46"/>
     <use x="95.410156" xlink:href="#DejaVuSans-49"/>
     <use x="159.033203" xlink:href="#DejaVuSans-56"/>
    </g>
   </g>
   <g id="text_82">
    <!-- 0.2 -->
    <g style="fill:#262626;" transform="translate(464.720795 108.89756)scale(0.06 -0.06)">
     <use xlink:href="#DejaVuSans-48"/>
     <use x="63.623047" xlink:href="#DejaVuSans-46"/>
     <use x="95.410156" xlink:href="#DejaVuSans-50"/>
    </g>
   </g>
   <g id="text_83">
    <!-- C -->
    <g style="fill:#222222;" transform="translate(354.710629 9.421365)scale(0.09 -0.09)">
     <defs>
      <path d="M 53.078125 26.3125 
L 67.09375 21.875 
Q 63.875 10.15625 56.375 4.46875 
Q 48.875 -1.21875 37.359375 -1.21875 
Q 23.09375 -1.21875 13.90625 8.515625 
Q 4.734375 18.265625 4.734375 35.15625 
Q 4.734375 53.03125 13.953125 62.90625 
Q 23.1875 72.796875 38.234375 72.796875 
Q 51.375 72.796875 59.578125 65.046875 
Q 64.453125 60.453125 66.890625 51.859375 
L 52.59375 48.4375 
Q 51.3125 54 47.28125 57.21875 
Q 43.265625 60.453125 37.5 60.453125 
Q 29.546875 60.453125 24.578125 54.734375 
Q 19.625 49.03125 19.625 36.234375 
Q 19.625 22.65625 24.5 16.890625 
Q 29.390625 11.140625 37.203125 11.140625 
Q 42.96875 11.140625 47.109375 14.796875 
Q 51.265625 18.453125 53.078125 26.3125 
z
" id="Arial-BoldMT-67"/>
     </defs>
     <use xlink:href="#Arial-BoldMT-67"/>
    </g>
   </g>
   <g id="text_84">
    <!-- Nonlinearly regularized -->
    <g transform="translate(392.964966 9.130696)scale(0.06 -0.06)">
     <defs>
      <path d="M 32.171875 -5.078125 
Q 28.375 -14.84375 24.75 -17.8125 
Q 21.140625 -20.796875 15.09375 -20.796875 
L 7.90625 -20.796875 
L 7.90625 -13.28125 
L 13.1875 -13.28125 
Q 16.890625 -13.28125 18.9375 -11.515625 
Q 21 -9.765625 23.484375 -3.21875 
L 25.09375 0.875 
L 2.984375 54.6875 
L 12.5 54.6875 
L 29.59375 11.921875 
L 46.6875 54.6875 
L 56.203125 54.6875 
z
" id="DejaVuSans-121"/>
      <path d="M 5.515625 54.6875 
L 48.1875 54.6875 
L 48.1875 46.484375 
L 14.40625 7.171875 
L 48.1875 7.171875 
L 48.1875 0 
L 4.296875 0 
L 4.296875 8.203125 
L 38.09375 47.515625 
L 5.515625 47.515625 
z
" id="DejaVuSans-122"/>
     </defs>
     <use xlink:href="#DejaVuSans-78"/>
     <use x="74.804688" xlink:href="#DejaVuSans-111"/>
     <use x="135.986328" xlink:href="#DejaVuSans-110"/>
     <use x="199.365234" xlink:href="#DejaVuSans-108"/>
     <use x="227.148438" xlink:href="#DejaVuSans-105"/>
     <use x="254.931641" xlink:href="#DejaVuSans-110"/>
     <use x="318.310547" xlink:href="#DejaVuSans-101"/>
     <use x="379.833984" xlink:href="#DejaVuSans-97"/>
     <use x="441.113281" xlink:href="#DejaVuSans-114"/>
     <use x="482.226562" xlink:href="#DejaVuSans-108"/>
     <use x="510.009766" xlink:href="#DejaVuSans-121"/>
     <use x="569.189453" xlink:href="#DejaVuSans-32"/>
     <use x="600.976562" xlink:href="#DejaVuSans-114"/>
     <use x="639.839844" xlink:href="#DejaVuSans-101"/>
     <use x="701.363281" xlink:href="#DejaVuSans-103"/>
     <use x="764.839844" xlink:href="#DejaVuSans-117"/>
     <use x="828.21875" xlink:href="#DejaVuSans-108"/>
     <use x="856.001953" xlink:href="#DejaVuSans-97"/>
     <use x="917.28125" xlink:href="#DejaVuSans-114"/>
     <use x="958.394531" xlink:href="#DejaVuSans-105"/>
     <use x="986.177734" xlink:href="#DejaVuSans-122"/>
     <use x="1038.667969" xlink:href="#DejaVuSans-101"/>
     <use x="1100.191406" xlink:href="#DejaVuSans-100"/>
    </g>
    <!-- estimates, $\it{\hat{C}^{*}}$ -->
    <g transform="translate(408.045591 16.729134)scale(0.06 -0.06)">
     <defs>
      <path d="M 26.796875 47.09375 
L 27.703125 46.5 
Q 31.40625 44.09375 37.296875 43.09375 
Q 40.703125 42.59375 42 41.640625 
Q 43.296875 40.703125 43.296875 38.796875 
Q 43.296875 37.09375 42.296875 36 
Q 41.296875 34.90625 39.703125 34.90625 
Q 37.203125 34.90625 33.703125 39.296875 
Q 31.40625 42.09375 26.796875 45.09375 
L 26 45.59375 
L 26 44.703125 
Q 26 39.09375 28 33.703125 
Q 28.90625 31.203125 28.90625 30.40625 
Q 28.90625 28.90625 27.65625 27.703125 
Q 26.40625 26.5 24.90625 26.5 
Q 23.5 26.5 22.390625 27.59375 
Q 21.296875 28.703125 21.296875 30.09375 
Q 21.296875 31.5 22.5 34.796875 
Q 24.09375 39.09375 24.09375 44.703125 
L 24.09375 45.59375 
Q 20.09375 43.09375 18.90625 42 
Q 17.703125 40.796875 14.796875 37.5 
Q 12.59375 35 10.5 35 
Q 8.796875 35 7.796875 36 
Q 6.796875 37 6.796875 38.59375 
Q 6.796875 40.5 8.25 41.5 
Q 9.703125 42.5 13.09375 43.09375 
Q 16.59375 43.796875 18.4375 44.5 
Q 20.296875 45.203125 23.40625 47.09375 
Q 19.09375 49.703125 13.703125 50.796875 
Q 10 51.59375 8.5 52.59375 
Q 7 53.59375 7 55.40625 
Q 7 57 7.890625 58.046875 
Q 8.796875 59.09375 10.296875 59.09375 
Q 12.296875 59.09375 15.203125 55.90625 
Q 19.40625 51.203125 24.09375 48.59375 
L 24.09375 49.90625 
Q 24.09375 54 22.59375 59 
Q 21.5 62.296875 21.5 64.203125 
Q 21.5 65.59375 22.546875 66.59375 
Q 23.59375 67.59375 25.09375 67.59375 
Q 26.59375 67.59375 27.6875 66.546875 
Q 28.796875 65.5 28.796875 64 
Q 28.796875 62.40625 27.703125 59.296875 
Q 26 54.796875 26 51 
L 26 48.59375 
Q 29.40625 50.59375 31.796875 52.796875 
Q 32.296875 53.296875 33.640625 54.75 
Q 35 56.203125 35.796875 57 
Q 36.59375 57.796875 37.640625 58.546875 
Q 38.703125 59.296875 39.5 59.296875 
Q 41.203125 59.296875 42.203125 58.25 
Q 43.203125 57.203125 43.203125 55.5 
Q 43.203125 53.5 42.046875 52.546875 
Q 40.90625 51.59375 38 51.203125 
Q 32.40625 50.296875 26.796875 47.09375 
z
" id="STIXGeneral-Regular-42"/>
     </defs>
     <use transform="translate(0 0.203125)" xlink:href="#DejaVuSans-101"/>
     <use transform="translate(61.523438 0.203125)" xlink:href="#DejaVuSans-115"/>
     <use transform="translate(113.623047 0.203125)" xlink:href="#DejaVuSans-116"/>
     <use transform="translate(152.832031 0.203125)" xlink:href="#DejaVuSans-105"/>
     <use transform="translate(180.615234 0.203125)" xlink:href="#DejaVuSans-109"/>
     <use transform="translate(278.027344 0.203125)" xlink:href="#DejaVuSans-97"/>
     <use transform="translate(339.306641 0.203125)" xlink:href="#DejaVuSans-116"/>
     <use transform="translate(378.515625 0.203125)" xlink:href="#DejaVuSans-101"/>
     <use transform="translate(440.039062 0.203125)" xlink:href="#DejaVuSans-115"/>
     <use transform="translate(492.138672 0.203125)" xlink:href="#DejaVuSans-44"/>
     <use transform="translate(523.925781 0.203125)" xlink:href="#DejaVuSans-32"/>
     <use transform="translate(621.081638 29.59375)" xlink:href="#STIXGeneral-Regular-770"/>
     <use transform="translate(555.712891 0.203125)" xlink:href="#STIXGeneral-Italic-120330"/>
     <use transform="translate(623.605577 36.440625)scale(0.7)" xlink:href="#STIXGeneral-Regular-42"/>
    </g>
   </g>
  </g>
  <g id="axes_4">
   <g id="matplotlib.axis_7">
    <g id="xtick_13">
     <g id="text_85">
      <!-- 0.0 -->
      <g style="opacity:0;" transform="translate(31.506705 131.564017)scale(0.1 -0.1)">
       <use xlink:href="#DejaVuSans-48"/>
       <use x="63.623047" xlink:href="#DejaVuSans-46"/>
       <use x="95.410156" xlink:href="#DejaVuSans-48"/>
      </g>
     </g>
    </g>
    <g id="xtick_14">
     <g id="text_86">
      <!-- 0.2 -->
      <g style="opacity:0;" transform="translate(120.287808 131.564017)scale(0.1 -0.1)">
       <use xlink:href="#DejaVuSans-48"/>
       <use x="63.623047" xlink:href="#DejaVuSans-46"/>
       <use x="95.410156" xlink:href="#DejaVuSans-50"/>
      </g>
     </g>
    </g>
    <g id="xtick_15">
     <g id="text_87">
      <!-- 0.4 -->
      <g style="opacity:0;" transform="translate(209.06891 131.564017)scale(0.1 -0.1)">
       <use xlink:href="#DejaVuSans-48"/>
       <use x="63.623047" xlink:href="#DejaVuSans-46"/>
       <use x="95.410156" xlink:href="#DejaVuSans-52"/>
      </g>
     </g>
    </g>
    <g id="xtick_16">
     <g id="text_88">
      <!-- 0.6 -->
      <g style="opacity:0;" transform="translate(297.850012 131.564017)scale(0.1 -0.1)">
       <use xlink:href="#DejaVuSans-48"/>
       <use x="63.623047" xlink:href="#DejaVuSans-46"/>
       <use x="95.410156" xlink:href="#DejaVuSans-54"/>
      </g>
     </g>
    </g>
    <g id="xtick_17">
     <g id="text_89">
      <!-- 0.8 -->
      <g style="opacity:0;" transform="translate(386.631115 131.564017)scale(0.1 -0.1)">
       <use xlink:href="#DejaVuSans-48"/>
       <use x="63.623047" xlink:href="#DejaVuSans-46"/>
       <use x="95.410156" xlink:href="#DejaVuSans-56"/>
      </g>
     </g>
    </g>
    <g id="xtick_18">
     <g id="text_90">
      <!-- 1.0 -->
      <g style="opacity:0;" transform="translate(475.412217 131.564017)scale(0.1 -0.1)">
       <use xlink:href="#DejaVuSans-49"/>
       <use x="63.623047" xlink:href="#DejaVuSans-46"/>
       <use x="95.410156" xlink:href="#DejaVuSans-48"/>
      </g>
     </g>
    </g>
    <g id="text_91">
     <!-- Time intervals between sampling $\Delta g$ (generation) -->
     <g transform="translate(186.921024 137.203704)scale(0.06 -0.06)">
      <defs>
       <path d="M 34.1875 63.1875 
L 14.15625 8.203125 
L 54.25 8.203125 
z
M 0.78125 0 
L 28.609375 72.90625 
L 39.796875 72.90625 
L 67.578125 0 
z
" id="DejaVuSans-916"/>
       <path d="M 31 75.875 
Q 24.46875 64.65625 21.28125 53.65625 
Q 18.109375 42.671875 18.109375 31.390625 
Q 18.109375 20.125 21.3125 9.0625 
Q 24.515625 -2 31 -13.1875 
L 23.1875 -13.1875 
Q 15.875 -1.703125 12.234375 9.375 
Q 8.59375 20.453125 8.59375 31.390625 
Q 8.59375 42.28125 12.203125 53.3125 
Q 15.828125 64.359375 23.1875 75.875 
z
" id="DejaVuSans-40"/>
       <path d="M 8.015625 75.875 
L 15.828125 75.875 
Q 23.140625 64.359375 26.78125 53.3125 
Q 30.421875 42.28125 30.421875 31.390625 
Q 30.421875 20.453125 26.78125 9.375 
Q 23.140625 -1.703125 15.828125 -13.1875 
L 8.015625 -13.1875 
Q 14.5 -2 17.703125 9.0625 
Q 20.90625 20.125 20.90625 31.390625 
Q 20.90625 42.671875 17.703125 53.65625 
Q 14.5 64.65625 8.015625 75.875 
z
" id="DejaVuSans-41"/>
      </defs>
      <use transform="translate(0 0.015625)" xlink:href="#DejaVuSans-84"/>
      <use transform="translate(61.083984 0.015625)" xlink:href="#DejaVuSans-105"/>
      <use transform="translate(88.867188 0.015625)" xlink:href="#DejaVuSans-109"/>
      <use transform="translate(186.279297 0.015625)" xlink:href="#DejaVuSans-101"/>
      <use transform="translate(247.802734 0.015625)" xlink:href="#DejaVuSans-32"/>
      <use transform="translate(279.589844 0.015625)" xlink:href="#DejaVuSans-105"/>
      <use transform="translate(307.373047 0.015625)" xlink:href="#DejaVuSans-110"/>
      <use transform="translate(370.751953 0.015625)" xlink:href="#DejaVuSans-116"/>
      <use transform="translate(409.960938 0.015625)" xlink:href="#DejaVuSans-101"/>
      <use transform="translate(471.484375 0.015625)" xlink:href="#DejaVuSans-114"/>
      <use transform="translate(512.597656 0.015625)" xlink:href="#DejaVuSans-118"/>
      <use transform="translate(571.777344 0.015625)" xlink:href="#DejaVuSans-97"/>
      <use transform="translate(633.056641 0.015625)" xlink:href="#DejaVuSans-108"/>
      <use transform="translate(660.839844 0.015625)" xlink:href="#DejaVuSans-115"/>
      <use transform="translate(712.939453 0.015625)" xlink:href="#DejaVuSans-32"/>
      <use transform="translate(744.726562 0.015625)" xlink:href="#DejaVuSans-98"/>
      <use transform="translate(808.203125 0.015625)" xlink:href="#DejaVuSans-101"/>
      <use transform="translate(869.726562 0.015625)" xlink:href="#DejaVuSans-116"/>
      <use transform="translate(908.935547 0.015625)" xlink:href="#DejaVuSans-119"/>
      <use transform="translate(990.722656 0.015625)" xlink:href="#DejaVuSans-101"/>
      <use transform="translate(1052.246094 0.015625)" xlink:href="#DejaVuSans-101"/>
      <use transform="translate(1113.769531 0.015625)" xlink:href="#DejaVuSans-110"/>
      <use transform="translate(1177.148438 0.015625)" xlink:href="#DejaVuSans-32"/>
      <use transform="translate(1208.935547 0.015625)" xlink:href="#DejaVuSans-115"/>
      <use transform="translate(1261.035156 0.015625)" xlink:href="#DejaVuSans-97"/>
      <use transform="translate(1322.314453 0.015625)" xlink:href="#DejaVuSans-109"/>
      <use transform="translate(1419.726562 0.015625)" xlink:href="#DejaVuSans-112"/>
      <use transform="translate(1483.203125 0.015625)" xlink:href="#DejaVuSans-108"/>
      <use transform="translate(1510.986328 0.015625)" xlink:href="#DejaVuSans-105"/>
      <use transform="translate(1538.769531 0.015625)" xlink:href="#DejaVuSans-110"/>
      <use transform="translate(1602.148438 0.015625)" xlink:href="#DejaVuSans-103"/>
      <use transform="translate(1665.625 0.015625)" xlink:href="#DejaVuSans-32"/>
      <use transform="translate(1697.412109 0.015625)" xlink:href="#DejaVuSans-916"/>
      <use transform="translate(1765.820312 0.015625)" xlink:href="#DejaVuSans-103"/>
      <use transform="translate(1829.296875 0.015625)" xlink:href="#DejaVuSans-32"/>
      <use transform="translate(1861.083984 0.015625)" xlink:href="#DejaVuSans-40"/>
      <use transform="translate(1900.097656 0.015625)" xlink:href="#DejaVuSans-103"/>
      <use transform="translate(1963.574219 0.015625)" xlink:href="#DejaVuSans-101"/>
      <use transform="translate(2025.097656 0.015625)" xlink:href="#DejaVuSans-110"/>
      <use transform="translate(2088.476562 0.015625)" xlink:href="#DejaVuSans-101"/>
      <use transform="translate(2150 0.015625)" xlink:href="#DejaVuSans-114"/>
      <use transform="translate(2191.113281 0.015625)" xlink:href="#DejaVuSans-97"/>
      <use transform="translate(2252.392578 0.015625)" xlink:href="#DejaVuSans-116"/>
      <use transform="translate(2291.601562 0.015625)" xlink:href="#DejaVuSans-105"/>
      <use transform="translate(2319.384766 0.015625)" xlink:href="#DejaVuSans-111"/>
      <use transform="translate(2380.566406 0.015625)" xlink:href="#DejaVuSans-110"/>
      <use transform="translate(2443.945312 0.015625)" xlink:href="#DejaVuSans-41"/>
     </g>
    </g>
   </g>
   <g id="matplotlib.axis_8">
    <g id="ytick_16">
     <g id="text_92">
      <!-- 0.00 -->
      <g style="opacity:0;" transform="translate(10.192643 120.764798)scale(0.1 -0.1)">
       <use xlink:href="#DejaVuSans-48"/>
       <use x="63.623047" xlink:href="#DejaVuSans-46"/>
       <use x="95.410156" xlink:href="#DejaVuSans-48"/>
       <use x="159.033203" xlink:href="#DejaVuSans-48"/>
      </g>
     </g>
    </g>
    <g id="ytick_17">
     <g id="text_93">
      <!-- 0.25 -->
      <g style="opacity:0;" transform="translate(10.192643 96.455687)scale(0.1 -0.1)">
       <use xlink:href="#DejaVuSans-48"/>
       <use x="63.623047" xlink:href="#DejaVuSans-46"/>
       <use x="95.410156" xlink:href="#DejaVuSans-50"/>
       <use x="159.033203" xlink:href="#DejaVuSans-53"/>
      </g>
     </g>
    </g>
    <g id="ytick_18">
     <g id="text_94">
      <!-- 0.50 -->
      <g style="opacity:0;" transform="translate(10.192643 72.146575)scale(0.1 -0.1)">
       <use xlink:href="#DejaVuSans-48"/>
       <use x="63.623047" xlink:href="#DejaVuSans-46"/>
       <use x="95.410156" xlink:href="#DejaVuSans-53"/>
       <use x="159.033203" xlink:href="#DejaVuSans-48"/>
      </g>
     </g>
    </g>
    <g id="ytick_19">
     <g id="text_95">
      <!-- 0.75 -->
      <g style="opacity:0;" transform="translate(10.192643 47.837464)scale(0.1 -0.1)">
       <use xlink:href="#DejaVuSans-48"/>
       <use x="63.623047" xlink:href="#DejaVuSans-46"/>
       <use x="95.410156" xlink:href="#DejaVuSans-55"/>
       <use x="159.033203" xlink:href="#DejaVuSans-53"/>
      </g>
     </g>
    </g>
    <g id="ytick_20">
     <g id="text_96">
      <!-- 1.00 -->
      <g style="opacity:0;" transform="translate(10.192643 23.528353)scale(0.1 -0.1)">
       <use xlink:href="#DejaVuSans-49"/>
       <use x="63.623047" xlink:href="#DejaVuSans-46"/>
       <use x="95.410156" xlink:href="#DejaVuSans-48"/>
       <use x="159.033203" xlink:href="#DejaVuSans-48"/>
      </g>
     </g>
    </g>
   </g>
  </g>
 </g>
 <defs>
  <clipPath id="p68d682bcdd">
   <rect height="97.236445" width="110.976378" x="39.458268" y="19.729134"/>
  </clipPath>
  <clipPath id="p9d2f21bdcc">
   <rect height="97.236445" width="110.976378" x="205.922835" y="19.729134"/>
  </clipPath>
  <clipPath id="paaf198b087">
   <rect height="97.236445" width="110.976378" x="372.387402" y="19.729134"/>
  </clipPath>
 </defs>
</svg>
